<?xml version="1.0" encoding="utf-8"?>
<!-- Generator: Adobe Illustrator 21.0.0, SVG Export Plug-In . SVG Version: 6.00 Build 0)  -->
<svg version="1.1" id="Livello_1" xmlns="http://www.w3.org/2000/svg" xmlns:xlink="http://www.w3.org/1999/xlink" x="0px" y="0px"
	 viewBox="0 0 503 468.5" style="enable-background:new 0 0 503 468.5;" xml:space="preserve">
<style type="text/css">
	.st0{fill:none;stroke:#000000;stroke-miterlimit:10;}
</style>
<g>
	<path d="M1.4,4.6h1.5l1.4,3.8l1.4-3.8h1.5v8.1H5.9V6.8L4.7,9.9h-1L2.7,6.8v5.9H1.4V4.6z"/>
	<path d="M13.2,6.6v5.3c0,0.1,0,0.2,0,0.3c0,0.1,0.1,0.2,0.1,0.4h-1.4c-0.1,0-0.1-0.1-0.1-0.2s0-0.1,0-0.2v-0.2
		c-0.1,0.1-0.2,0.2-0.3,0.3s-0.3,0.2-0.4,0.3s-0.3,0.1-0.5,0.2c-0.2,0-0.3,0.1-0.4,0.1c-0.3,0-0.6,0-0.9-0.1s-0.5-0.2-0.6-0.4
		s-0.3-0.5-0.4-0.8c-0.1-0.3-0.1-0.7-0.1-1.2V6.6h1.4v3.8c0,0.5,0.1,0.8,0.2,1c0.2,0.2,0.4,0.3,0.6,0.3c0.2,0,0.4,0,0.5-0.1
		c0.2-0.1,0.3-0.2,0.4-0.3c0.1-0.1,0.2-0.3,0.3-0.5c0.1-0.2,0.1-0.4,0.1-0.6V6.6H13.2z"/>
	<path d="M19.1,8.6C19,8.6,19,8.6,19.1,8.6c-0.1,0-0.1-0.1-0.1-0.1c0,0,0-0.1,0-0.1c0,0,0-0.1,0-0.1c-0.1-0.1-0.2-0.2-0.3-0.3
		c-0.1-0.1-0.2-0.2-0.4-0.2c-0.1-0.1-0.3-0.1-0.4-0.2c-0.2,0-0.3-0.1-0.5-0.1c-0.1,0-0.3,0-0.4,0c-0.1,0-0.2,0-0.3,0.1
		c-0.1,0-0.2,0.1-0.2,0.2C16.4,8,16.3,8,16.3,8.1c0,0.1,0,0.2,0.1,0.3c0.1,0.1,0.1,0.1,0.3,0.2c0.1,0.1,0.3,0.1,0.4,0.2
		s0.4,0.1,0.6,0.2c0.7,0.2,1.3,0.5,1.6,0.8c0.3,0.3,0.5,0.7,0.5,1.1c0,0.3-0.1,0.5-0.2,0.8s-0.3,0.5-0.5,0.7
		c-0.2,0.2-0.5,0.3-0.8,0.4c-0.3,0.1-0.7,0.2-1.1,0.2c-0.5,0-1-0.1-1.4-0.2c-0.4-0.2-0.8-0.4-1.2-0.8l0.8-1.4c0.1,0,0.1,0,0.1,0.1
		c0,0.1,0.1,0.1,0.1,0.2c0.1,0.1,0.2,0.2,0.3,0.3c0.1,0.1,0.3,0.2,0.4,0.3s0.3,0.2,0.5,0.2c0.2,0.1,0.3,0.1,0.5,0.1
		c0.3,0,0.6,0,0.8-0.1c0.2-0.1,0.3-0.2,0.3-0.4c0-0.1,0-0.2-0.1-0.3s-0.1-0.1-0.2-0.2c-0.1-0.1-0.2-0.1-0.4-0.2
		c-0.1-0.1-0.3-0.1-0.5-0.2c-0.1,0-0.2-0.1-0.4-0.1c-0.1,0-0.2-0.1-0.4-0.1c-0.2-0.1-0.4-0.2-0.6-0.3c-0.2-0.1-0.3-0.2-0.5-0.4
		c-0.1-0.1-0.2-0.3-0.3-0.5C15,8.7,15,8.5,15,8.3s0.1-0.4,0.2-0.6c0.1-0.2,0.3-0.4,0.5-0.6c0.2-0.2,0.5-0.3,0.8-0.4
		c0.3-0.1,0.6-0.2,1-0.2c0.5,0,0.9,0.1,1.3,0.2c0.4,0.2,0.8,0.4,1.1,0.8L19.1,8.6z"/>
	<path d="M22.7,5.2l1.6-0.3c0,0.1,0,0.2-0.1,0.3s-0.1,0.2-0.1,0.2L24,6.6h1.8v1.2H24c0,0.3,0,0.6-0.1,1c0,0.3,0,0.7,0,1
		c0,0.3,0,0.6,0,0.9c0,0.2,0,0.4,0.1,0.6c0,0.1,0.1,0.3,0.2,0.3c0.1,0.1,0.2,0.1,0.4,0.1c0.1,0,0.3-0.1,0.6-0.2
		c0.2-0.1,0.5-0.3,0.8-0.5l0.5,1.2c-0.4,0.3-0.7,0.4-1,0.6c-0.3,0.1-0.7,0.2-1,0.2c-0.3,0-0.6,0-0.9-0.1c-0.2-0.1-0.4-0.2-0.6-0.4
		c-0.2-0.2-0.3-0.5-0.3-0.8c-0.1-0.3-0.1-0.7-0.1-1.1c0-0.3,0-0.7,0-1.1c0-0.4,0-0.9,0.1-1.5h-1.3V6.6h1.4L22.7,5.2z"/>
	<path d="M28,7.5c0.6-0.7,1.4-1,2.3-1c0.4,0,0.7,0,1,0.1s0.6,0.2,0.8,0.5c0.2,0.2,0.4,0.5,0.5,0.8c0.1,0.3,0.2,0.7,0.2,1.1v3.7h-1.4
		v-0.5c-0.2,0.2-0.5,0.4-0.8,0.5c-0.3,0.1-0.6,0.2-0.9,0.2c-0.4,0-0.7,0-0.9-0.1c-0.3-0.1-0.5-0.2-0.6-0.4s-0.3-0.3-0.4-0.6
		c-0.1-0.2-0.1-0.4-0.1-0.7c0-0.3,0.1-0.6,0.2-0.9c0.1-0.3,0.3-0.5,0.6-0.7c0.3-0.2,0.6-0.3,1-0.4c0.4-0.1,0.8-0.2,1.3-0.2h0.8
		c0-0.5-0.1-0.8-0.3-1s-0.5-0.3-0.8-0.3c-0.5,0-1,0.3-1.5,0.8L28,7.5z M30.8,10c-0.4,0-0.7,0-0.9,0.1c-0.2,0.1-0.4,0.1-0.6,0.2
		s-0.2,0.2-0.3,0.3C29,10.7,29,10.9,29,11c0,0.1,0,0.2,0.1,0.3s0.1,0.2,0.2,0.2c0.1,0.1,0.2,0.1,0.3,0.2c0.1,0,0.2,0.1,0.3,0.1
		c0.2,0,0.4,0,0.5-0.1c0.2-0.1,0.3-0.2,0.4-0.3s0.2-0.2,0.3-0.3s0.1-0.2,0.2-0.3c0-0.1,0.1-0.2,0.1-0.3c0-0.1,0-0.3,0-0.5L30.8,10z"
		/>
	<path d="M38.2,3.8c0.8,0,1.5,0.3,2,1L39.6,6c-0.1,0-0.1,0-0.1-0.1c0,0,0-0.1-0.1-0.2c-0.1-0.1-0.1-0.2-0.2-0.2
		c-0.1-0.1-0.2-0.2-0.3-0.2c-0.1-0.1-0.2-0.1-0.3-0.2c-0.1,0-0.3-0.1-0.4-0.1c-0.4,0-0.6,0.1-0.8,0.4S37.1,6,37.1,6.6v0.3h1.9v1.2
		h-1.9v4.6h-1.4V8.1h-1.3V6.9h1.3V6.5c0-0.4,0.1-0.8,0.2-1.2C36,5,36.2,4.7,36.4,4.5c0.2-0.2,0.5-0.4,0.8-0.5
		C37.5,3.9,37.8,3.8,38.2,3.8z"/>
	<path d="M46.5,12.7l2.7-8.2H50l3,8.2h-1.5l-0.7-2.1h-2.1L48,12.7H46.5z M50.5,9.6l-0.8-2.7l-0.8,2.7H50.5z"/>
	<path d="M53.6,3.9h1.6c0,0.1,0,0.1,0,0.1s0,0.1-0.1,0.1c0,0,0,0-0.1,0.1s0,0.1,0,0.1v2.9c0.2-0.2,0.4-0.4,0.7-0.5
		c0.2-0.1,0.5-0.2,0.7-0.2c0.3,0,0.7,0.1,1,0.2s0.6,0.3,0.8,0.6c0.2,0.3,0.4,0.6,0.6,0.9C59,8.6,59.1,9,59.1,9.5
		c0,0.6-0.1,1-0.2,1.5c-0.1,0.4-0.3,0.8-0.6,1.1s-0.5,0.5-0.8,0.6s-0.6,0.2-1,0.2c-0.3,0-0.6-0.1-0.9-0.2c-0.3-0.1-0.5-0.3-0.7-0.6
		l-0.2,0.6h-1V3.9z M55.1,9.6c0,0.4,0,0.7,0.1,1c0.1,0.3,0.1,0.5,0.2,0.6c0.1,0.2,0.2,0.3,0.4,0.4c0.1,0.1,0.3,0.1,0.5,0.1
		c0.1,0,0.3,0,0.5-0.1s0.3-0.2,0.4-0.3s0.2-0.4,0.3-0.6c0.1-0.2,0.1-0.6,0.1-0.9c0-0.4,0-0.7-0.1-1c-0.1-0.3-0.2-0.5-0.4-0.7
		c-0.1-0.1-0.2-0.2-0.4-0.3c-0.1-0.1-0.3-0.1-0.5-0.1c-0.2,0-0.4,0.1-0.6,0.2c-0.1,0.1-0.3,0.2-0.3,0.4c-0.1,0.2-0.1,0.4-0.2,0.6
		C55.1,9.1,55.1,9.3,55.1,9.6z"/>
	<path d="M65.3,11.9c0,0.1,0,0.2,0,0.3c0,0.1,0,0.3,0.1,0.4h-1.4c-0.1,0-0.1-0.1-0.1-0.2s0-0.1,0-0.2v-0.2c-0.1,0.1-0.2,0.2-0.3,0.3
		c-0.1,0.1-0.2,0.2-0.4,0.2s-0.3,0.1-0.4,0.1c-0.1,0-0.3,0.1-0.4,0.1c-0.4,0-0.7-0.1-1-0.2c-0.3-0.1-0.6-0.3-0.8-0.6
		c-0.2-0.3-0.4-0.6-0.6-1c-0.1-0.4-0.2-0.9-0.2-1.4c0-0.5,0.1-1,0.2-1.4c0.1-0.4,0.3-0.7,0.6-1s0.5-0.5,0.8-0.6
		c0.3-0.1,0.6-0.2,1-0.2c0.1,0,0.2,0,0.4,0s0.3,0.1,0.4,0.1c0.1,0.1,0.2,0.1,0.4,0.2c0.1,0.1,0.2,0.2,0.3,0.2V3.9h1.6
		c0,0,0,0.1,0,0.1s0,0.1-0.1,0.1c0,0,0,0.1-0.1,0.1c0,0,0,0.1,0,0.1V11.9z M63.9,9.6c0-0.3,0-0.5-0.1-0.7c0-0.2-0.1-0.4-0.2-0.6
		s-0.2-0.3-0.4-0.4c-0.1-0.1-0.3-0.2-0.6-0.2c-0.2,0-0.4,0-0.5,0.1c-0.1,0.1-0.3,0.2-0.4,0.3c-0.3,0.3-0.5,0.9-0.5,1.7
		c0,0.4,0,0.7,0.1,0.9c0.1,0.2,0.2,0.4,0.3,0.6s0.3,0.3,0.4,0.3c0.2,0.1,0.3,0.1,0.5,0.1c0.2,0,0.3,0,0.5-0.1
		c0.1-0.1,0.3-0.2,0.4-0.4c0.1-0.2,0.2-0.4,0.2-0.6C63.8,10.3,63.9,9.9,63.9,9.6z"/>
	<path d="M67.3,6.6h2.8v4.9h1.3v1.1h-4.2v-1.1h1.5V7.7h-1.4V6.6z M69.4,3.9c0.1,0,0.2,0,0.3,0.1c0.1,0,0.2,0.1,0.3,0.2
		c0.1,0.1,0.1,0.2,0.2,0.3c0,0.1,0.1,0.2,0.1,0.3s0,0.2-0.1,0.3c0,0.1-0.1,0.2-0.2,0.3c-0.1,0.1-0.2,0.1-0.3,0.2s-0.2,0.1-0.3,0.1
		s-0.2,0-0.4-0.1c-0.1,0-0.2-0.1-0.3-0.2c-0.1-0.1-0.1-0.2-0.2-0.3c0-0.1-0.1-0.2-0.1-0.3c0-0.1,0-0.2,0.1-0.3
		c0-0.1,0.1-0.2,0.2-0.3C68.8,4.1,68.9,4,69,4C69.2,3.9,69.3,3.9,69.4,3.9z"/>
	<path d="M85.1,12.7h-1.6l-2.7-6.1v6.1h-1.3V4.6h1.8l2.6,5.8V4.6h1.4c0,0,0,0,0,0.1c0,0,0,0.1,0,0.1c0,0-0.1,0.1-0.1,0.3V12.7z"/>
	<path d="M88.8,6.5c0.4,0,0.8,0.1,1.1,0.2s0.6,0.4,0.9,0.6c0.3,0.3,0.5,0.6,0.6,1c0.1,0.4,0.2,0.8,0.2,1.4s-0.1,1-0.2,1.4
		s-0.3,0.7-0.6,1c-0.3,0.3-0.6,0.5-0.9,0.6c-0.3,0.1-0.7,0.2-1.1,0.2s-0.8-0.1-1.1-0.2c-0.4-0.2-0.7-0.4-0.9-0.7
		c-0.3-0.3-0.5-0.6-0.6-1c-0.1-0.4-0.2-0.8-0.2-1.3c0-0.5,0.1-0.9,0.2-1.3c0.2-0.4,0.4-0.7,0.6-1s0.6-0.5,0.9-0.7
		C88,6.6,88.4,6.5,88.8,6.5z M90.2,9.7c0-0.3,0-0.6-0.1-0.9c-0.1-0.3-0.2-0.5-0.3-0.6c-0.1-0.2-0.3-0.3-0.5-0.4
		c-0.2-0.1-0.4-0.1-0.6-0.1c-0.2,0-0.4,0-0.6,0.1C88,7.9,87.9,8,87.7,8.2c-0.1,0.2-0.2,0.4-0.3,0.6c-0.1,0.2-0.1,0.5-0.1,0.8
		s0,0.6,0.1,0.8c0.1,0.3,0.2,0.5,0.3,0.6s0.3,0.3,0.4,0.4c0.2,0.1,0.4,0.1,0.6,0.1c0.4,0,0.8-0.2,1-0.5C90,10.8,90.2,10.3,90.2,9.7z
		"/>
	<path d="M95.3,6.5c0.4,0,0.8,0.1,1.1,0.2S97,7,97.3,7.3c0.3,0.3,0.5,0.6,0.6,1c0.1,0.4,0.2,0.8,0.2,1.4s-0.1,1-0.2,1.4
		s-0.3,0.7-0.6,1c-0.3,0.3-0.6,0.5-0.9,0.6c-0.3,0.1-0.7,0.2-1.1,0.2s-0.8-0.1-1.1-0.2c-0.4-0.2-0.7-0.4-0.9-0.7
		c-0.3-0.3-0.5-0.6-0.6-1c-0.1-0.4-0.2-0.8-0.2-1.3c0-0.5,0.1-0.9,0.2-1.3c0.2-0.4,0.4-0.7,0.6-1s0.6-0.5,0.9-0.7
		C94.5,6.6,94.9,6.5,95.3,6.5z M96.7,9.7c0-0.3,0-0.6-0.1-0.9c-0.1-0.3-0.2-0.5-0.3-0.6C96.1,8,96,7.9,95.8,7.8
		c-0.2-0.1-0.4-0.1-0.6-0.1c-0.2,0-0.4,0-0.6,0.1c-0.2,0.1-0.3,0.2-0.4,0.4C94.1,8.3,94,8.6,94,8.8c-0.1,0.2-0.1,0.5-0.1,0.8
		s0,0.6,0.1,0.8c0.1,0.3,0.2,0.5,0.3,0.6s0.3,0.3,0.4,0.4c0.2,0.1,0.4,0.1,0.6,0.1c0.4,0,0.8-0.2,1-0.5
		C96.5,10.8,96.7,10.3,96.7,9.7z"/>
	<path d="M99.6,6.6h1.5v0.7c0.1-0.1,0.2-0.2,0.3-0.3s0.3-0.2,0.4-0.3s0.3-0.1,0.4-0.2c0.2,0,0.3-0.1,0.5-0.1c0.3,0,0.7,0.1,1,0.2
		c0.3,0.1,0.6,0.3,0.8,0.5l-0.7,1.4c-0.2-0.3-0.4-0.5-0.6-0.6s-0.4-0.2-0.6-0.2c-0.2,0-0.4,0-0.6,0.1c-0.2,0.1-0.4,0.2-0.5,0.4
		c-0.1,0.2-0.3,0.4-0.3,0.6c-0.1,0.2-0.1,0.4-0.1,0.7v3.2h-1.5V6.6z"/>
	<path d="M109,12.4c0,0.7-0.5,1.5-1.4,2.4l-0.4-0.4c0.2-0.2,0.4-0.5,0.6-0.7c0.2-0.3,0.2-0.5,0.2-0.6c0-0.1,0-0.2-0.1-0.2
		c-0.1-0.1-0.1-0.1-0.2-0.2c-0.1-0.1-0.2-0.1-0.2-0.2c-0.1-0.1-0.1-0.2-0.1-0.3c0-0.2,0.1-0.4,0.2-0.5c0.1-0.1,0.3-0.2,0.6-0.2
		c0.2,0,0.4,0.1,0.6,0.3C108.9,11.8,109,12.1,109,12.4z"/>
	<path d="M4.3,22.2c0.4,0,0.7,0.1,1,0.2c0.3,0.1,0.6,0.3,0.9,0.6s0.4,0.6,0.6,1S7,24.8,7,25.3c0,0.5-0.1,0.9-0.2,1.3s-0.3,0.7-0.6,1
		c-0.2,0.3-0.5,0.5-0.9,0.6c-0.3,0.1-0.7,0.2-1.1,0.2c-0.4,0-0.7-0.1-1.1-0.2c-0.3-0.2-0.6-0.4-0.9-0.6s-0.5-0.6-0.6-1
		c-0.1-0.4-0.2-0.8-0.2-1.2s0.1-0.9,0.2-1.2c0.2-0.4,0.4-0.7,0.6-1s0.6-0.5,0.9-0.6C3.6,22.3,3.9,22.2,4.3,22.2z M6,25.3
		c0-0.4,0-0.7-0.1-1c-0.1-0.3-0.2-0.5-0.4-0.7s-0.4-0.4-0.6-0.5C4.7,23,4.5,23,4.3,23C4,23,3.8,23,3.6,23.2S3.2,23.4,3,23.6
		c-0.2,0.2-0.3,0.4-0.4,0.7s-0.1,0.6-0.1,1c0,0.3,0,0.7,0.1,0.9S2.9,26.8,3,27c0.2,0.2,0.3,0.4,0.6,0.5c0.2,0.1,0.4,0.2,0.7,0.2
		s0.5,0,0.7-0.1c0.2-0.1,0.4-0.2,0.6-0.4c0.2-0.2,0.3-0.4,0.4-0.7C6,26,6,25.7,6,25.3z"/>
	<path d="M8.4,28.3v-5.9h0.9v1.1c0.2-0.4,0.5-0.7,0.9-0.9c0.4-0.2,0.7-0.3,1.1-0.3c0.3,0,0.5,0,0.7,0.1c0.2,0.1,0.4,0.2,0.6,0.4
		c0.2,0.2,0.3,0.5,0.4,0.8s0.1,0.7,0.1,1.1v3.6h-0.9v-3.6c0-0.6-0.1-1.1-0.3-1.3c-0.2-0.3-0.5-0.4-0.8-0.4c-0.2,0-0.4,0-0.6,0.1
		c-0.2,0.1-0.4,0.2-0.6,0.4c-0.2,0.2-0.3,0.4-0.4,0.6c-0.1,0.2-0.2,0.5-0.2,0.8v3.4H8.4z"/>
	<path d="M17.4,22.2c0.3,0,0.6,0.1,0.9,0.2c0.3,0.1,0.6,0.3,0.8,0.5c0.2,0.2,0.4,0.5,0.5,0.9s0.2,0.8,0.2,1.3c0,0.1,0,0.1,0,0.2
		s0,0.1,0,0.2h-4.2c0,0.4,0.1,0.8,0.2,1c0.1,0.3,0.3,0.5,0.5,0.7c0.2,0.2,0.4,0.3,0.6,0.4c0.2,0.1,0.5,0.1,0.7,0.1
		c0.6,0,1.1-0.2,1.5-0.7l0.5,0.5c-0.5,0.6-1.2,0.9-2.1,0.9c-0.4,0-0.8-0.1-1.2-0.2c-0.4-0.1-0.7-0.3-0.9-0.6c-0.3-0.3-0.4-0.6-0.6-1
		c-0.1-0.4-0.2-0.8-0.2-1.3c0-0.5,0.1-0.9,0.2-1.3s0.3-0.7,0.6-1c0.2-0.3,0.5-0.5,0.9-0.6C16.6,22.3,17,22.2,17.4,22.2z M15.6,24.7
		h3.3c0,0,0-0.1,0-0.1c0,0,0-0.1,0-0.1c0-0.2,0-0.4-0.1-0.6c-0.1-0.2-0.2-0.4-0.3-0.5c-0.1-0.1-0.3-0.3-0.5-0.3
		c-0.2-0.1-0.4-0.1-0.6-0.1c-0.4,0-0.8,0.1-1.1,0.4C15.9,23.6,15.6,24.1,15.6,24.7z"/>
	<path d="M30.3,22.2c0.4,0,0.7,0.1,1,0.2c0.3,0.1,0.6,0.3,0.9,0.6s0.4,0.6,0.6,1s0.2,0.8,0.2,1.3c0,0.5-0.1,0.9-0.2,1.3
		s-0.3,0.7-0.6,1c-0.2,0.3-0.5,0.5-0.9,0.6c-0.3,0.1-0.7,0.2-1.1,0.2c-0.4,0-0.7-0.1-1.1-0.2c-0.3-0.2-0.6-0.4-0.9-0.6
		s-0.5-0.6-0.6-1c-0.1-0.4-0.2-0.8-0.2-1.2s0.1-0.9,0.2-1.2c0.2-0.4,0.4-0.7,0.6-1s0.6-0.5,0.9-0.6C29.6,22.3,29.9,22.2,30.3,22.2z
		 M32,25.3c0-0.4,0-0.7-0.1-1c-0.1-0.3-0.2-0.5-0.4-0.7s-0.4-0.4-0.6-0.5C30.7,23,30.5,23,30.3,23c-0.2,0-0.5,0.1-0.7,0.2
		s-0.4,0.3-0.6,0.5c-0.2,0.2-0.3,0.4-0.4,0.7s-0.1,0.6-0.1,1c0,0.3,0,0.7,0.1,0.9s0.2,0.5,0.4,0.7c0.2,0.2,0.3,0.4,0.6,0.5
		c0.2,0.1,0.4,0.2,0.7,0.2s0.5,0,0.7-0.1c0.2-0.1,0.4-0.2,0.6-0.4c0.2-0.2,0.3-0.4,0.4-0.7C32,26,32,25.7,32,25.3z"/>
	<path d="M37.9,19.6c0.8,0,1.4,0.3,1.8,0.8l-0.4,0.9c-0.1,0-0.1,0-0.1-0.1s0-0.1,0-0.2c-0.1-0.2-0.3-0.4-0.6-0.5s-0.5-0.2-0.7-0.2
		c-0.2,0-0.4,0-0.6,0.1c-0.2,0.1-0.3,0.2-0.4,0.3s-0.2,0.3-0.3,0.6s-0.1,0.6-0.1,0.9v0.5h2v0.8h-2v4.8h-0.9v-4.8h-1.3v-0.8h1.3v-0.6
		c0-0.5,0.1-0.9,0.2-1.2c0.1-0.3,0.3-0.6,0.5-0.8c0.2-0.2,0.5-0.3,0.8-0.4C37.3,19.6,37.6,19.6,37.9,19.6z"/>
	<path d="M47.4,28.3v-8.6h1.1c0,0,0,0,0,0s0,0,0,0c0,0,0,0.1-0.1,0.1c0,0-0.1,0.1-0.1,0.2v3.4c0.2-0.4,0.5-0.7,0.9-0.9
		c0.4-0.2,0.7-0.3,1.1-0.3c0.3,0,0.5,0,0.7,0.1c0.2,0.1,0.4,0.2,0.6,0.4c0.2,0.2,0.3,0.5,0.4,0.8s0.1,0.7,0.1,1.1v3.6h-0.9v-3.6
		c0-0.6-0.1-1.1-0.3-1.3c-0.2-0.3-0.5-0.4-0.8-0.4c-0.2,0-0.4,0-0.6,0.1c-0.2,0.1-0.4,0.2-0.6,0.4s-0.3,0.3-0.4,0.6
		c-0.1,0.2-0.1,0.5-0.1,0.8v3.4H47.4z"/>
	<path d="M54.4,22.3h2.4v5.2h1.4v0.8h-3.8v-0.8h1.5v-4.4h-1.4V22.3z M55.8,19.9c0.1-0.1,0.3-0.2,0.5-0.2c0.2,0,0.3,0.1,0.5,0.2
		c0.1,0.1,0.2,0.3,0.2,0.5s-0.1,0.3-0.2,0.5c-0.1,0.1-0.3,0.2-0.5,0.2c-0.2,0-0.3-0.1-0.5-0.2c-0.1-0.1-0.2-0.3-0.2-0.5
		C55.6,20.2,55.7,20.1,55.8,19.9z"/>
	<path d="M65.1,23.1l-0.5,0.8c0,0-0.1,0-0.1-0.1c0-0.1,0-0.1,0-0.1c-0.2-0.2-0.4-0.4-0.7-0.6c-0.3-0.2-0.6-0.3-1-0.3
		c-0.2,0-0.3,0-0.5,0.1s-0.3,0.1-0.4,0.2c-0.1,0.1-0.2,0.2-0.3,0.3s-0.1,0.2-0.1,0.4c0,0.1,0,0.2,0.1,0.3s0.1,0.2,0.2,0.2
		c0.1,0.1,0.3,0.2,0.5,0.2c0.2,0.1,0.5,0.2,0.8,0.3c0.8,0.2,1.3,0.4,1.6,0.7c0.3,0.3,0.5,0.6,0.5,1c0,0.3-0.1,0.5-0.2,0.7
		c-0.1,0.2-0.3,0.4-0.5,0.6c-0.2,0.2-0.5,0.3-0.8,0.4c-0.3,0.1-0.6,0.1-1,0.1c-1,0-1.8-0.3-2.5-0.9l0.5-0.9c0,0,0,0.1,0.1,0.1
		c0,0.1,0,0.1,0.1,0.2s0.1,0.2,0.3,0.3s0.4,0.2,0.6,0.3c0.1,0.1,0.3,0.1,0.4,0.1c0.2,0,0.3,0,0.5,0c0.2,0,0.4,0,0.5-0.1
		c0.2,0,0.3-0.1,0.5-0.2c0.1-0.1,0.3-0.2,0.3-0.3c0.1-0.1,0.1-0.3,0.1-0.4c0-0.2-0.1-0.4-0.3-0.6c-0.2-0.2-0.6-0.3-1.2-0.5
		c-0.4-0.1-0.6-0.2-0.8-0.2c-0.3-0.1-0.5-0.2-0.7-0.3c-0.1-0.1-0.3-0.2-0.4-0.3c-0.1-0.1-0.2-0.3-0.3-0.4c-0.1-0.2-0.1-0.3-0.1-0.5
		c0-0.2,0.1-0.4,0.2-0.6c0.1-0.2,0.3-0.4,0.5-0.5c0.2-0.1,0.4-0.3,0.7-0.4c0.3-0.1,0.6-0.1,0.9-0.1C63.8,22.2,64.5,22.5,65.1,23.1z"
		/>
	<path d="M73.6,19.6h2.6v7.9h1.7v0.8h-4.4v-0.8h1.8v-7.1h-1.7V19.6z"/>
	<path d="M80.2,23c0.5-0.6,1.2-0.8,2.1-0.8c0.7,0,1.3,0.2,1.7,0.6c0.4,0.4,0.6,1,0.6,1.8v3.7h-0.9v-0.6c-0.6,0.5-1.3,0.8-2.1,0.8
		c-0.3,0-0.6,0-0.8-0.1c-0.2-0.1-0.5-0.2-0.6-0.4c-0.2-0.2-0.3-0.3-0.4-0.5c-0.1-0.2-0.1-0.4-0.1-0.6c0-0.6,0.3-1.1,0.8-1.4
		c0.5-0.3,1.3-0.5,2.2-0.6h1.1v-0.2c0-0.6-0.1-1-0.4-1.2c-0.2-0.2-0.6-0.4-1.2-0.4c-0.6,0-1.2,0.2-1.6,0.7L80.2,23z M83.8,25.5h-0.2
		c-0.1,0-0.2,0-0.3,0s-0.2,0-0.3,0c-0.5,0-0.9,0-1.2,0.1c-0.3,0.1-0.5,0.2-0.7,0.3c-0.2,0.1-0.3,0.2-0.4,0.4s-0.1,0.3-0.1,0.5
		c0,0.3,0.1,0.5,0.4,0.7c0.2,0.2,0.5,0.3,0.9,0.3c0.3,0,0.5,0,0.7-0.1s0.4-0.2,0.5-0.3c0.2-0.1,0.3-0.2,0.4-0.4s0.2-0.2,0.2-0.3
		c0.1-0.2,0.1-0.4,0.1-0.7V25.5z"/>
	<path d="M87.9,20.7l1-0.2c0,0.1,0,0.1,0,0.2c0,0.1,0,0.1,0,0.1l-0.2,1.4h1.9v0.8h-1.9c-0.1,0.8-0.1,1.5-0.1,2.2c0,0.4,0,0.8,0,1.1
		c0,0.3,0.1,0.5,0.1,0.7c0.1,0.2,0.2,0.3,0.3,0.4c0.1,0.1,0.3,0.1,0.6,0.1c0.4,0,0.8-0.2,1.3-0.5l0.3,0.7c-0.6,0.4-1.2,0.7-1.8,0.7
		c-0.6,0-1.1-0.2-1.4-0.6s-0.4-1-0.4-1.8c0-0.3,0-0.7,0-1.2c0-0.5,0.1-1.1,0.1-1.7h-1.4v-0.8h1.4L87.9,20.7z"/>
	<path d="M95.4,22.2c0.3,0,0.6,0.1,0.9,0.2c0.3,0.1,0.6,0.3,0.8,0.5c0.2,0.2,0.4,0.5,0.5,0.9s0.2,0.8,0.2,1.3c0,0.1,0,0.1,0,0.2
		s0,0.1,0,0.2h-4.2c0,0.4,0.1,0.8,0.2,1c0.1,0.3,0.3,0.5,0.5,0.7c0.2,0.2,0.4,0.3,0.6,0.4c0.2,0.1,0.5,0.1,0.7,0.1
		c0.6,0,1.1-0.2,1.5-0.7l0.5,0.5c-0.5,0.6-1.2,0.9-2.1,0.9c-0.4,0-0.8-0.1-1.2-0.2c-0.4-0.1-0.7-0.3-0.9-0.6c-0.3-0.3-0.4-0.6-0.6-1
		c-0.1-0.4-0.2-0.8-0.2-1.3c0-0.5,0.1-0.9,0.2-1.3s0.3-0.7,0.6-1c0.2-0.3,0.5-0.5,0.9-0.6C94.6,22.3,95,22.2,95.4,22.2z M93.6,24.7
		h3.3c0,0,0-0.1,0-0.1c0,0,0-0.1,0-0.1c0-0.2,0-0.4-0.1-0.6c-0.1-0.2-0.2-0.4-0.3-0.5c-0.1-0.1-0.3-0.3-0.5-0.3
		c-0.2-0.1-0.4-0.1-0.6-0.1c-0.4,0-0.8,0.1-1.1,0.4C93.9,23.6,93.6,24.1,93.6,24.7z"/>
	<path d="M104.1,23.1l-0.5,0.8c0,0-0.1,0-0.1-0.1c0-0.1,0-0.1,0-0.1c-0.2-0.2-0.4-0.4-0.7-0.6c-0.3-0.2-0.6-0.3-1-0.3
		c-0.2,0-0.3,0-0.5,0.1s-0.3,0.1-0.4,0.2c-0.1,0.1-0.2,0.2-0.3,0.3s-0.1,0.2-0.1,0.4c0,0.1,0,0.2,0.1,0.3s0.1,0.2,0.2,0.2
		c0.1,0.1,0.3,0.2,0.5,0.2c0.2,0.1,0.5,0.2,0.8,0.3c0.8,0.2,1.3,0.4,1.6,0.7c0.3,0.3,0.5,0.6,0.5,1c0,0.3-0.1,0.5-0.2,0.7
		c-0.1,0.2-0.3,0.4-0.5,0.6c-0.2,0.2-0.5,0.3-0.8,0.4s-0.6,0.1-1,0.1c-1,0-1.8-0.3-2.5-0.9l0.5-0.9c0,0,0,0.1,0.1,0.1
		c0,0.1,0,0.1,0.1,0.2s0.1,0.2,0.3,0.3s0.4,0.2,0.6,0.3c0.1,0.1,0.3,0.1,0.4,0.1c0.2,0,0.3,0,0.5,0c0.2,0,0.4,0,0.5-0.1
		c0.2,0,0.3-0.1,0.5-0.2c0.1-0.1,0.3-0.2,0.3-0.3c0.1-0.1,0.1-0.3,0.1-0.4c0-0.2-0.1-0.4-0.3-0.6c-0.2-0.2-0.6-0.3-1.2-0.5
		c-0.4-0.1-0.6-0.2-0.8-0.2c-0.3-0.1-0.5-0.2-0.7-0.3c-0.1-0.1-0.3-0.2-0.4-0.3c-0.1-0.1-0.2-0.3-0.3-0.4c-0.1-0.2-0.1-0.3-0.1-0.5
		c0-0.2,0.1-0.4,0.2-0.6c0.1-0.2,0.3-0.4,0.5-0.5c0.2-0.1,0.4-0.3,0.7-0.4c0.3-0.1,0.6-0.1,0.9-0.1
		C102.8,22.2,103.5,22.5,104.1,23.1z"/>
	<path d="M107.4,20.7l1-0.2c0,0.1,0,0.1,0,0.2c0,0.1,0,0.1,0,0.1l-0.2,1.4h1.9v0.8h-1.9c-0.1,0.8-0.1,1.5-0.1,2.2c0,0.4,0,0.8,0,1.1
		c0,0.3,0.1,0.5,0.1,0.7c0.1,0.2,0.2,0.3,0.3,0.4c0.1,0.1,0.3,0.1,0.6,0.1c0.4,0,0.8-0.2,1.3-0.5l0.3,0.7c-0.6,0.4-1.2,0.7-1.8,0.7
		c-0.6,0-1.1-0.2-1.4-0.6s-0.4-1-0.4-1.8c0-0.3,0-0.7,0-1.2c0-0.5,0.1-1.1,0.1-1.7h-1.4v-0.8h1.4L107.4,20.7z"/>
	<path d="M118.8,22.3h0.9v0.9c0.2-0.3,0.5-0.6,0.8-0.8c0.3-0.2,0.7-0.3,1-0.3c0.3,0,0.6,0.1,0.9,0.2s0.6,0.3,0.8,0.6
		c0.2,0.3,0.4,0.6,0.5,0.9c0.1,0.4,0.2,0.8,0.2,1.4s-0.1,1-0.2,1.4c-0.1,0.4-0.3,0.7-0.6,1c-0.2,0.3-0.5,0.5-0.8,0.6
		s-0.6,0.2-0.9,0.2c-0.4,0-0.7-0.1-1-0.2c-0.3-0.2-0.6-0.4-0.8-0.7v3h-0.9V22.3z M119.7,25.8c0,0.6,0.2,1.1,0.4,1.4s0.6,0.4,1,0.4
		c0.2,0,0.4,0,0.7-0.1s0.4-0.2,0.6-0.4c0.2-0.2,0.3-0.4,0.4-0.7c0.1-0.3,0.2-0.6,0.2-1c0-0.8-0.2-1.3-0.5-1.8
		c-0.3-0.4-0.8-0.6-1.3-0.7c-0.2,0-0.4,0-0.5,0.1c-0.2,0.1-0.3,0.2-0.5,0.3c-0.1,0.1-0.3,0.3-0.4,0.6s-0.1,0.5-0.1,0.9V25.8z"/>
	<path d="M125.4,28.3v-8.6h1.1c0,0,0,0,0,0s0,0,0,0c0,0,0,0.1-0.1,0.1c0,0-0.1,0.1-0.1,0.2v3.4c0.2-0.4,0.5-0.7,0.9-0.9
		c0.4-0.2,0.7-0.3,1.1-0.3c0.3,0,0.5,0,0.7,0.1c0.2,0.1,0.4,0.2,0.6,0.4c0.2,0.2,0.3,0.5,0.4,0.8s0.1,0.7,0.1,1.1v3.6h-0.9v-3.6
		c0-0.6-0.1-1.1-0.3-1.3c-0.2-0.3-0.5-0.4-0.8-0.4c-0.2,0-0.4,0-0.6,0.1c-0.2,0.1-0.4,0.2-0.6,0.4s-0.3,0.3-0.4,0.6
		c-0.1,0.2-0.1,0.5-0.1,0.8v3.4H125.4z"/>
	<path d="M134.3,22.2c0.4,0,0.7,0.1,1,0.2c0.3,0.1,0.6,0.3,0.9,0.6s0.4,0.6,0.6,1s0.2,0.8,0.2,1.3c0,0.5-0.1,0.9-0.2,1.3
		s-0.3,0.7-0.6,1c-0.2,0.3-0.5,0.5-0.9,0.6c-0.3,0.1-0.7,0.2-1.1,0.2c-0.4,0-0.7-0.1-1.1-0.2c-0.3-0.2-0.6-0.4-0.9-0.6
		s-0.5-0.6-0.6-1c-0.1-0.4-0.2-0.8-0.2-1.2s0.1-0.9,0.2-1.2c0.2-0.4,0.4-0.7,0.6-1s0.6-0.5,0.9-0.6
		C133.6,22.3,133.9,22.2,134.3,22.2z M136,25.3c0-0.4,0-0.7-0.1-1c-0.1-0.3-0.2-0.5-0.4-0.7s-0.4-0.4-0.6-0.5
		c-0.2-0.1-0.4-0.2-0.7-0.2c-0.2,0-0.5,0.1-0.7,0.2s-0.4,0.3-0.6,0.5c-0.2,0.2-0.3,0.4-0.4,0.7s-0.1,0.6-0.1,1c0,0.3,0,0.7,0.1,0.9
		s0.2,0.5,0.4,0.7c0.2,0.2,0.3,0.4,0.6,0.5c0.2,0.1,0.4,0.2,0.7,0.2s0.5,0,0.7-0.1c0.2-0.1,0.4-0.2,0.6-0.4c0.2-0.2,0.3-0.4,0.4-0.7
		C136,26,136,25.7,136,25.3z"/>
	<path d="M139.9,20.7l1-0.2c0,0.1,0,0.1,0,0.2c0,0.1,0,0.1,0,0.1l-0.2,1.4h1.9v0.8h-1.9c-0.1,0.8-0.1,1.5-0.1,2.2c0,0.4,0,0.8,0,1.1
		c0,0.3,0.1,0.5,0.1,0.7c0.1,0.2,0.2,0.3,0.3,0.4c0.1,0.1,0.3,0.1,0.6,0.1c0.4,0,0.8-0.2,1.3-0.5l0.3,0.7c-0.6,0.4-1.2,0.7-1.8,0.7
		c-0.6,0-1.1-0.2-1.4-0.6s-0.4-1-0.4-1.8c0-0.3,0-0.7,0-1.2c0-0.5,0.1-1.1,0.1-1.7h-1.4v-0.8h1.4L139.9,20.7z"/>
	<path d="M147.3,22.2c0.4,0,0.7,0.1,1,0.2c0.3,0.1,0.6,0.3,0.9,0.6s0.4,0.6,0.6,1s0.2,0.8,0.2,1.3c0,0.5-0.1,0.9-0.2,1.3
		s-0.3,0.7-0.6,1c-0.2,0.3-0.5,0.5-0.9,0.6c-0.3,0.1-0.7,0.2-1.1,0.2c-0.4,0-0.7-0.1-1.1-0.2c-0.3-0.2-0.6-0.4-0.9-0.6
		s-0.5-0.6-0.6-1c-0.1-0.4-0.2-0.8-0.2-1.2s0.1-0.9,0.2-1.2c0.2-0.4,0.4-0.7,0.6-1s0.6-0.5,0.9-0.6
		C146.6,22.3,146.9,22.2,147.3,22.2z M149,25.3c0-0.4,0-0.7-0.1-1c-0.1-0.3-0.2-0.5-0.4-0.7s-0.4-0.4-0.6-0.5
		c-0.2-0.1-0.4-0.2-0.7-0.2c-0.2,0-0.5,0.1-0.7,0.2s-0.4,0.3-0.6,0.5c-0.2,0.2-0.3,0.4-0.4,0.7s-0.1,0.6-0.1,1c0,0.3,0,0.7,0.1,0.9
		s0.2,0.5,0.4,0.7c0.2,0.2,0.3,0.4,0.6,0.5c0.2,0.1,0.4,0.2,0.7,0.2s0.5,0,0.7-0.1c0.2-0.1,0.4-0.2,0.6-0.4c0.2-0.2,0.3-0.4,0.4-0.7
		C149,26,149,25.7,149,25.3z"/>
	<path d="M156.1,23.1l-0.5,0.8c0,0-0.1,0-0.1-0.1c0-0.1,0-0.1,0-0.1c-0.2-0.2-0.4-0.4-0.7-0.6c-0.3-0.2-0.6-0.3-1-0.3
		c-0.2,0-0.3,0-0.5,0.1s-0.3,0.1-0.4,0.2c-0.1,0.1-0.2,0.2-0.3,0.3s-0.1,0.2-0.1,0.4c0,0.1,0,0.2,0.1,0.3s0.1,0.2,0.2,0.2
		c0.1,0.1,0.3,0.2,0.5,0.2c0.2,0.1,0.5,0.2,0.8,0.3c0.8,0.2,1.3,0.4,1.6,0.7c0.3,0.3,0.5,0.6,0.5,1c0,0.3-0.1,0.5-0.2,0.7
		c-0.1,0.2-0.3,0.4-0.5,0.6c-0.2,0.2-0.5,0.3-0.8,0.4s-0.6,0.1-1,0.1c-1,0-1.8-0.3-2.5-0.9l0.5-0.9c0,0,0,0.1,0.1,0.1
		c0,0.1,0,0.1,0.1,0.2s0.1,0.2,0.3,0.3s0.4,0.2,0.6,0.3c0.1,0.1,0.3,0.1,0.4,0.1c0.2,0,0.3,0,0.5,0c0.2,0,0.4,0,0.5-0.1
		c0.2,0,0.3-0.1,0.5-0.2c0.1-0.1,0.3-0.2,0.3-0.3c0.1-0.1,0.1-0.3,0.1-0.4c0-0.2-0.1-0.4-0.3-0.6c-0.2-0.2-0.6-0.3-1.2-0.5
		c-0.4-0.1-0.6-0.2-0.8-0.2c-0.3-0.1-0.5-0.2-0.7-0.3c-0.1-0.1-0.3-0.2-0.4-0.3c-0.1-0.1-0.2-0.3-0.3-0.4c-0.1-0.2-0.1-0.3-0.1-0.5
		c0-0.2,0.1-0.4,0.2-0.6c0.1-0.2,0.3-0.4,0.5-0.5c0.2-0.1,0.4-0.3,0.7-0.4c0.3-0.1,0.6-0.1,0.9-0.1
		C154.8,22.2,155.5,22.5,156.1,23.1z"/>
	<path d="M160.6,23c0.2,0.2,0.2,0.3,0.2,0.5c0,0.2-0.1,0.4-0.2,0.5c-0.2,0.1-0.3,0.2-0.5,0.2c-0.2,0-0.4-0.1-0.5-0.2
		c-0.2-0.1-0.2-0.3-0.2-0.5c0-0.2,0.1-0.4,0.2-0.5c0.2-0.1,0.3-0.2,0.5-0.2C160.3,22.8,160.5,22.8,160.6,23z M160.6,27.1
		c0.2,0.2,0.2,0.3,0.2,0.5c0,0.2-0.1,0.4-0.2,0.5c-0.2,0.1-0.3,0.2-0.6,0.2c-0.2,0-0.4-0.1-0.5-0.2c-0.1-0.1-0.2-0.3-0.2-0.5
		s0.1-0.4,0.2-0.5c0.2-0.1,0.3-0.2,0.5-0.2C160.3,26.9,160.5,27,160.6,27.1z"/>
</g>
<g>
	<path d="M1.6,401.7v-8.1h0.9l3.4,6v-6h1c0,0.1,0,0.1,0,0.2s0,0.1,0,0.2v7.8H6.1l-3.6-6.4v6.4H1.6z"/>
	<path d="M8.7,396.4c0.5-0.6,1.2-0.8,2.1-0.8c0.7,0,1.3,0.2,1.7,0.6s0.6,1,0.6,1.8v3.7h-0.9V401c-0.6,0.5-1.3,0.8-2.1,0.8
		c-0.3,0-0.6,0-0.8-0.1c-0.2-0.1-0.5-0.2-0.6-0.4s-0.3-0.3-0.4-0.5s-0.1-0.4-0.1-0.6c0-0.6,0.3-1.1,0.8-1.4c0.5-0.3,1.3-0.5,2.2-0.6
		h1.1V398c0-0.6-0.1-1-0.4-1.2c-0.2-0.2-0.6-0.4-1.2-0.4c-0.6,0-1.2,0.2-1.6,0.7L8.7,396.4z M12.3,398.9h-0.2c-0.1,0-0.2,0-0.3,0
		c-0.1,0-0.2,0-0.3,0c-0.5,0-0.9,0-1.2,0.1c-0.3,0.1-0.5,0.2-0.7,0.3c-0.2,0.1-0.3,0.2-0.4,0.4c-0.1,0.1-0.1,0.3-0.1,0.5
		c0,0.3,0.1,0.5,0.4,0.7s0.5,0.3,0.9,0.3c0.3,0,0.5,0,0.7-0.1s0.4-0.2,0.5-0.3c0.2-0.1,0.3-0.2,0.4-0.4s0.2-0.2,0.2-0.3
		c0.1-0.2,0.1-0.4,0.1-0.7V398.9z"/>
	<path d="M16.4,394.1l1-0.2c0,0.1,0,0.1,0,0.2c0,0.1,0,0.1,0,0.1l-0.2,1.4h1.9v0.8h-1.9c-0.1,0.8-0.1,1.5-0.1,2.2c0,0.4,0,0.8,0,1.1
		c0,0.3,0.1,0.5,0.1,0.7c0.1,0.2,0.2,0.3,0.3,0.4c0.1,0.1,0.3,0.1,0.6,0.1c0.4,0,0.8-0.2,1.3-0.5l0.3,0.7c-0.6,0.4-1.2,0.7-1.8,0.7
		c-0.6,0-1.1-0.2-1.4-0.6c-0.3-0.4-0.4-1-0.4-1.8c0-0.3,0-0.7,0-1.2c0-0.5,0.1-1.1,0.1-1.7h-1.4v-0.8h1.4L16.4,394.1z"/>
	<path d="M21.9,395.7h2.4v5.2h1.4v0.8h-3.8v-0.8h1.5v-4.4h-1.4V395.7z M23.3,393.3c0.1-0.1,0.3-0.2,0.5-0.2c0.2,0,0.3,0.1,0.5,0.2
		s0.2,0.3,0.2,0.5c0,0.2-0.1,0.3-0.2,0.5s-0.3,0.2-0.5,0.2c-0.2,0-0.3-0.1-0.5-0.2s-0.2-0.3-0.2-0.5
		C23.1,393.6,23.2,393.5,23.3,393.3z"/>
	<path d="M30.3,395.6c0.4,0,0.7,0.1,1,0.2c0.3,0.1,0.6,0.3,0.9,0.6c0.2,0.3,0.4,0.6,0.6,1c0.1,0.4,0.2,0.8,0.2,1.3
		c0,0.5-0.1,0.9-0.2,1.3s-0.3,0.7-0.6,1c-0.2,0.3-0.5,0.5-0.9,0.6c-0.3,0.1-0.7,0.2-1.1,0.2c-0.4,0-0.7-0.1-1.1-0.2
		s-0.6-0.4-0.9-0.6s-0.5-0.6-0.6-1c-0.1-0.4-0.2-0.8-0.2-1.2c0-0.4,0.1-0.9,0.2-1.2c0.2-0.4,0.4-0.7,0.6-1s0.6-0.5,0.9-0.6
		S29.9,395.6,30.3,395.6z M32,398.7c0-0.4,0-0.7-0.1-1s-0.2-0.5-0.4-0.7s-0.4-0.4-0.6-0.5c-0.2-0.1-0.4-0.2-0.7-0.2
		c-0.2,0-0.5,0.1-0.7,0.2s-0.4,0.3-0.6,0.5c-0.2,0.2-0.3,0.4-0.4,0.7s-0.1,0.6-0.1,1c0,0.3,0,0.7,0.1,0.9s0.2,0.5,0.4,0.7
		c0.2,0.2,0.3,0.4,0.6,0.5c0.2,0.1,0.4,0.2,0.7,0.2s0.5,0,0.7-0.1c0.2-0.1,0.4-0.2,0.6-0.4c0.2-0.2,0.3-0.4,0.4-0.7
		C32,399.4,32,399.1,32,398.7z"/>
	<path d="M34.4,401.7v-5.9h0.9v1.1c0.2-0.4,0.5-0.7,0.9-0.9c0.4-0.2,0.7-0.3,1.1-0.3c0.3,0,0.5,0,0.7,0.1c0.2,0.1,0.4,0.2,0.6,0.4
		c0.2,0.2,0.3,0.5,0.4,0.8s0.1,0.7,0.1,1.1v3.6h-0.9v-3.6c0-0.6-0.1-1.1-0.3-1.3c-0.2-0.3-0.5-0.4-0.8-0.4c-0.2,0-0.4,0-0.6,0.1
		c-0.2,0.1-0.4,0.2-0.6,0.4c-0.2,0.2-0.3,0.4-0.4,0.6c-0.1,0.2-0.2,0.5-0.2,0.8v3.4H34.4z"/>
	<path d="M41.2,396.4c0.5-0.6,1.2-0.8,2.1-0.8c0.7,0,1.3,0.2,1.7,0.6s0.6,1,0.6,1.8v3.7h-0.9V401c-0.6,0.5-1.3,0.8-2.1,0.8
		c-0.3,0-0.6,0-0.8-0.1c-0.2-0.1-0.5-0.2-0.6-0.4s-0.3-0.3-0.4-0.5s-0.1-0.4-0.1-0.6c0-0.6,0.3-1.1,0.8-1.4c0.5-0.3,1.3-0.5,2.2-0.6
		h1.1V398c0-0.6-0.1-1-0.4-1.2c-0.2-0.2-0.6-0.4-1.2-0.4c-0.6,0-1.2,0.2-1.6,0.7L41.2,396.4z M44.8,398.9h-0.2c-0.1,0-0.2,0-0.3,0
		c-0.1,0-0.2,0-0.3,0c-0.5,0-0.9,0-1.2,0.1c-0.3,0.1-0.5,0.2-0.7,0.3c-0.2,0.1-0.3,0.2-0.4,0.4c-0.1,0.1-0.1,0.3-0.1,0.5
		c0,0.3,0.1,0.5,0.4,0.7s0.5,0.3,0.9,0.3c0.3,0,0.5,0,0.7-0.1s0.4-0.2,0.5-0.3c0.2-0.1,0.3-0.2,0.4-0.4s0.2-0.2,0.2-0.3
		c0.1-0.2,0.1-0.4,0.1-0.7V398.9z"/>
	<path d="M47.6,393h2.6v7.9h1.7v0.8h-4.4v-0.8h1.8v-7.1h-1.7V393z"/>
	<path d="M54.4,395.7h2.4v5.2h1.4v0.8h-3.8v-0.8h1.5v-4.4h-1.4V395.7z M55.8,393.3c0.1-0.1,0.3-0.2,0.5-0.2c0.2,0,0.3,0.1,0.5,0.2
		s0.2,0.3,0.2,0.5c0,0.2-0.1,0.3-0.2,0.5s-0.3,0.2-0.5,0.2c-0.2,0-0.3-0.1-0.5-0.2s-0.2-0.3-0.2-0.5
		C55.6,393.6,55.7,393.5,55.8,393.3z"/>
	<path d="M61.9,394.1l1-0.2c0,0.1,0,0.1,0,0.2c0,0.1,0,0.1,0,0.1l-0.2,1.4h1.9v0.8h-1.9c-0.1,0.8-0.1,1.5-0.1,2.2c0,0.4,0,0.8,0,1.1
		c0,0.3,0.1,0.5,0.1,0.7c0.1,0.2,0.2,0.3,0.3,0.4c0.1,0.1,0.3,0.1,0.6,0.1c0.4,0,0.8-0.2,1.3-0.5l0.3,0.7c-0.6,0.4-1.2,0.7-1.8,0.7
		c-0.6,0-1.1-0.2-1.4-0.6c-0.3-0.4-0.4-1-0.4-1.8c0-0.3,0-0.7,0-1.2c0-0.5,0.1-1.1,0.1-1.7h-1.4v-0.8h1.4L61.9,394.1z"/>
	<path d="M66.8,396.1l-0.2-0.4h1.1c0,0.1,0,0.1,0,0.2c0,0,0,0.1,0,0.1c0,0,0,0.1,0,0.1l1.8,4.4l1.1-3.2c0.1-0.3,0.2-0.6,0.3-0.9
		s0.1-0.5,0.2-0.7h1c-0.1,0.2-0.2,0.5-0.3,0.8c-0.1,0.3-0.2,0.6-0.3,0.9l-1.6,4.3l-0.2,0.7c-0.2,0.6-0.5,1-0.8,1.2
		c-0.3,0.2-0.7,0.4-1.1,0.4c-0.6,0-1-0.2-1.4-0.5l0.5-0.8c0,0,0,0.1,0.1,0.1c0,0.1,0,0.1,0,0.1c0.1,0.1,0.1,0.1,0.2,0.2
		c0.1,0,0.1,0.1,0.2,0.1c0.1,0,0.2,0.1,0.3,0.1c0.3,0,0.5-0.1,0.7-0.2c0.2-0.2,0.4-0.4,0.6-0.9l0.2-0.4L66.8,396.1z"/>
	<path d="M76.1,396.4c0.2,0.2,0.2,0.3,0.2,0.5c0,0.2-0.1,0.4-0.2,0.5c-0.2,0.1-0.3,0.2-0.5,0.2c-0.2,0-0.4-0.1-0.5-0.2
		c-0.2-0.1-0.2-0.3-0.2-0.5c0-0.2,0.1-0.4,0.2-0.5c0.2-0.1,0.3-0.2,0.5-0.2C75.8,396.2,76,396.2,76.1,396.4z M76.1,400.5
		c0.2,0.2,0.2,0.3,0.2,0.5s-0.1,0.4-0.2,0.5c-0.2,0.1-0.3,0.2-0.6,0.2c-0.2,0-0.4-0.1-0.5-0.2c-0.1-0.1-0.2-0.3-0.2-0.5
		c0-0.2,0.1-0.4,0.2-0.5c0.2-0.1,0.3-0.2,0.5-0.2C75.8,400.3,76,400.4,76.1,400.5z"/>
	<path d="M91.1,394.5l-0.6,0.8c0,0-0.1-0.1-0.1-0.1c0-0.1,0-0.1,0-0.1c-0.2-0.2-0.4-0.4-0.7-0.6c-0.3-0.1-0.6-0.2-1-0.2
		c-0.4,0-0.7,0.1-1,0.4c-0.3,0.2-0.4,0.5-0.4,0.8c0,0.2,0,0.4,0.1,0.5c0.1,0.1,0.2,0.3,0.3,0.4c0.1,0.1,0.3,0.3,0.6,0.4
		c0.3,0.1,0.6,0.3,1,0.4c0.4,0.2,0.7,0.3,1,0.5c0.3,0.2,0.5,0.3,0.6,0.5c0.2,0.2,0.3,0.4,0.3,0.6s0.1,0.4,0.1,0.7
		c0,0.3-0.1,0.6-0.2,0.8s-0.3,0.5-0.5,0.8s-0.5,0.4-0.8,0.5s-0.7,0.2-1.2,0.2c-1,0-1.9-0.3-2.5-1l0.5-0.9c0,0,0.1,0.1,0.1,0.1
		s0,0.1,0,0.1c0.2,0.3,0.5,0.5,0.8,0.6c0.3,0.2,0.7,0.3,1.2,0.3c0.2,0,0.5,0,0.7-0.1c0.2-0.1,0.4-0.2,0.5-0.3
		c0.1-0.1,0.3-0.3,0.4-0.5c0.1-0.2,0.1-0.4,0.1-0.6c0-0.2,0-0.3-0.1-0.4c-0.1-0.1-0.1-0.3-0.3-0.4c-0.1-0.1-0.3-0.2-0.6-0.4
		c-0.2-0.1-0.6-0.3-0.9-0.4c-0.4-0.2-0.8-0.3-1.1-0.5c-0.3-0.2-0.5-0.3-0.7-0.5c-0.2-0.2-0.3-0.4-0.4-0.6s-0.1-0.4-0.1-0.7
		c0-0.3,0.1-0.6,0.2-0.8c0.1-0.3,0.3-0.5,0.5-0.7s0.5-0.3,0.8-0.5c0.3-0.1,0.6-0.2,1-0.2c0.4,0,0.9,0.1,1.2,0.3
		C90.5,394,90.9,394.2,91.1,394.5z"/>
	<path d="M95.3,395.6c0.4,0,0.7,0.1,1,0.2c0.3,0.1,0.6,0.3,0.9,0.6c0.2,0.3,0.4,0.6,0.6,1c0.1,0.4,0.2,0.8,0.2,1.3
		c0,0.5-0.1,0.9-0.2,1.3s-0.3,0.7-0.6,1c-0.2,0.3-0.5,0.5-0.9,0.6c-0.3,0.1-0.7,0.2-1.1,0.2c-0.4,0-0.7-0.1-1.1-0.2
		s-0.6-0.4-0.9-0.6s-0.5-0.6-0.6-1c-0.1-0.4-0.2-0.8-0.2-1.2c0-0.4,0.1-0.9,0.2-1.2c0.2-0.4,0.4-0.7,0.6-1s0.6-0.5,0.9-0.6
		S94.9,395.6,95.3,395.6z M97,398.7c0-0.4,0-0.7-0.1-1s-0.2-0.5-0.4-0.7s-0.4-0.4-0.6-0.5c-0.2-0.1-0.4-0.2-0.7-0.2
		c-0.2,0-0.5,0.1-0.7,0.2s-0.4,0.3-0.6,0.5c-0.2,0.2-0.3,0.4-0.4,0.7s-0.1,0.6-0.1,1c0,0.3,0,0.7,0.1,0.9s0.2,0.5,0.4,0.7
		c0.2,0.2,0.3,0.4,0.6,0.5c0.2,0.1,0.4,0.2,0.7,0.2s0.5,0,0.7-0.1c0.2-0.1,0.4-0.2,0.6-0.4c0.2-0.2,0.3-0.4,0.4-0.7
		C97,399.4,97,399.1,97,398.7z"/>
	<path d="M99,401.7v-5.9h0.9v0.6c0.1-0.2,0.3-0.4,0.5-0.5c0.2-0.1,0.4-0.2,0.7-0.2c0.3,0,0.5,0.1,0.7,0.2c0.2,0.2,0.3,0.4,0.4,0.6
		c0.1-0.3,0.3-0.5,0.5-0.6s0.5-0.2,0.8-0.2c0.4,0,0.7,0.1,0.9,0.4s0.3,0.7,0.3,1.1v4.6h-0.9v-4.2c0-0.3,0-0.5,0-0.6
		c0-0.2-0.1-0.3-0.1-0.4c-0.1-0.1-0.1-0.1-0.2-0.2c-0.1,0-0.1,0-0.2,0c-0.1,0-0.2,0-0.3,0.1c-0.1,0.1-0.2,0.2-0.3,0.3
		c-0.1,0.1-0.2,0.3-0.2,0.5c-0.1,0.2-0.1,0.3-0.1,0.5v3.9h-0.9v-4.1c0-0.5,0-0.8-0.1-1c-0.1-0.2-0.2-0.2-0.5-0.2
		c-0.2,0-0.4,0.1-0.6,0.4c-0.2,0.2-0.3,0.6-0.3,1v4H99z"/>
	<path d="M106.2,396.4c0.5-0.6,1.2-0.8,2.1-0.8c0.7,0,1.3,0.2,1.7,0.6s0.6,1,0.6,1.8v3.7h-0.9V401c-0.6,0.5-1.3,0.8-2.1,0.8
		c-0.3,0-0.6,0-0.8-0.1c-0.2-0.1-0.5-0.2-0.6-0.4s-0.3-0.3-0.4-0.5s-0.1-0.4-0.1-0.6c0-0.6,0.3-1.1,0.8-1.4c0.5-0.3,1.3-0.5,2.2-0.6
		h1.1V398c0-0.6-0.1-1-0.4-1.2c-0.2-0.2-0.6-0.4-1.2-0.4c-0.6,0-1.2,0.2-1.6,0.7L106.2,396.4z M109.8,398.9h-0.2c-0.1,0-0.2,0-0.3,0
		c-0.1,0-0.2,0-0.3,0c-0.5,0-0.9,0-1.2,0.1c-0.3,0.1-0.5,0.2-0.7,0.3c-0.2,0.1-0.3,0.2-0.4,0.4c-0.1,0.1-0.1,0.3-0.1,0.5
		c0,0.3,0.1,0.5,0.4,0.7s0.5,0.3,0.9,0.3c0.3,0,0.5,0,0.7-0.1s0.4-0.2,0.5-0.3c0.2-0.1,0.3-0.2,0.4-0.4s0.2-0.2,0.2-0.3
		c0.1-0.2,0.1-0.4,0.1-0.7V398.9z"/>
	<path d="M112.6,393h2.6v7.9h1.7v0.8h-4.4v-0.8h1.8v-7.1h-1.7V393z"/>
	<path d="M119.4,395.7h2.4v5.2h1.4v0.8h-3.8v-0.8h1.5v-4.4h-1.4V395.7z M120.8,393.3c0.1-0.1,0.3-0.2,0.5-0.2c0.2,0,0.3,0.1,0.5,0.2
		s0.2,0.3,0.2,0.5c0,0.2-0.1,0.3-0.2,0.5s-0.3,0.2-0.5,0.2c-0.2,0-0.3-0.1-0.5-0.2s-0.2-0.3-0.2-0.5
		C120.6,393.6,120.7,393.5,120.8,393.3z"/>
	<path d="M4.3,417.4c-0.4,0-0.8-0.1-1.2-0.3c-0.4-0.2-0.7-0.5-0.9-0.9c-0.3-0.4-0.5-0.8-0.6-1.3s-0.2-1.1-0.2-1.7s0.1-1.2,0.2-1.7
		c0.1-0.5,0.3-0.9,0.6-1.3c0.3-0.4,0.6-0.6,0.9-0.8c0.4-0.2,0.8-0.3,1.2-0.3c0.4,0,0.7,0.1,1.1,0.2c0.3,0.2,0.6,0.4,0.9,0.7
		c0.3,0.3,0.5,0.8,0.6,1.3c0.1,0.5,0.2,1.1,0.2,1.9c0,0.8-0.1,1.4-0.2,2s-0.4,1-0.6,1.3c-0.3,0.3-0.6,0.6-0.9,0.7
		C5,417.3,4.6,417.4,4.3,417.4z M2.9,415.8c0.4,0.5,0.9,0.7,1.3,0.7c0.2,0,0.5,0,0.7-0.1s0.4-0.3,0.6-0.5s0.3-0.6,0.4-1
		c0.1-0.4,0.2-1,0.2-1.6c0-0.6-0.1-1.2-0.2-1.6c-0.1-0.4-0.3-0.7-0.5-1c-0.2-0.2-0.4-0.4-0.6-0.5c-0.2-0.1-0.4-0.2-0.7-0.2
		c-0.3,0-0.5,0-0.7,0.1c-0.2,0.1-0.4,0.3-0.6,0.5c-0.2,0.2-0.4,0.6-0.5,1c-0.1,0.4-0.2,0.9-0.2,1.6c0,0.6,0.1,1.1,0.2,1.6
		C2.6,415.2,2.7,415.5,2.9,415.8z"/>
	<path d="M8.8,411.3h1l0,1.1c0.2-0.4,0.5-0.7,0.9-1c0.4-0.2,0.8-0.3,1.3-0.3c0.6,0,1.2,0.2,1.6,0.7l-0.4,0.9
		c-0.1-0.1-0.2-0.2-0.3-0.3c-0.1-0.1-0.2-0.2-0.3-0.2c-0.1-0.1-0.2-0.1-0.3-0.1c-0.1,0-0.2-0.1-0.4-0.1c-0.3,0-0.6,0.1-0.8,0.2
		s-0.5,0.3-0.7,0.5s-0.3,0.5-0.5,0.8c-0.1,0.3-0.2,0.6-0.2,0.9v2.9H8.8V411.3z"/>
	<path d="M18.4,411.7c0.4-0.4,0.9-0.5,1.5-0.5H20l0.1,0.8c-0.1,0-0.1,0-0.2,0c-0.1,0-0.1,0-0.2,0c-0.4,0-0.7,0.1-1,0.3
		c0.2,0.3,0.3,0.6,0.3,1c0,0.3-0.1,0.5-0.2,0.8c-0.1,0.2-0.3,0.5-0.5,0.7c-0.2,0.2-0.4,0.3-0.7,0.4c-0.3,0.1-0.5,0.2-0.8,0.2
		c-0.2,0-0.5,0-0.8-0.1c-0.3,0.3-0.4,0.5-0.4,0.7c0,0.1,0.1,0.3,0.3,0.3c0.2,0.1,0.4,0.1,0.7,0.1c0.2,0,0.3,0,0.5,0s0.3,0,0.5,0
		c0.4,0,0.7,0,1,0.1c0.3,0.1,0.5,0.2,0.7,0.3s0.3,0.3,0.4,0.5c0.1,0.2,0.1,0.4,0.1,0.6c0,0.2-0.1,0.5-0.2,0.7
		c-0.1,0.2-0.3,0.4-0.5,0.6c-0.2,0.2-0.5,0.3-0.9,0.4c-0.3,0.1-0.7,0.1-1.2,0.1c-0.5,0-0.9,0-1.2-0.1s-0.6-0.2-0.8-0.3
		c-0.2-0.1-0.4-0.3-0.5-0.4c-0.1-0.2-0.2-0.3-0.2-0.5c0-0.5,0.3-0.9,1-1.3c-0.3-0.2-0.5-0.4-0.5-0.8c0-0.4,0.2-0.7,0.7-1.1
		c-0.3-0.2-0.5-0.4-0.6-0.7c-0.2-0.3-0.2-0.6-0.2-0.9c0-0.3,0.1-0.6,0.2-0.8c0.1-0.3,0.3-0.5,0.5-0.7c0.2-0.2,0.4-0.3,0.7-0.4
		c0.3-0.1,0.5-0.2,0.8-0.2C17.5,411.1,18,411.3,18.4,411.7z M16.1,417c-0.5,0.3-0.7,0.6-0.7,0.9c0,0.2,0,0.3,0.1,0.4
		c0.1,0.1,0.2,0.2,0.4,0.3c0.2,0.1,0.4,0.1,0.6,0.2s0.5,0.1,0.7,0.1c0.5,0,1-0.1,1.3-0.3c0.3-0.2,0.5-0.4,0.5-0.8
		c0-0.2-0.1-0.4-0.3-0.5c-0.2-0.1-0.5-0.2-0.8-0.2c0,0-0.1,0-0.1,0s-0.1,0-0.1,0c-0.3,0-0.6,0-0.9,0C16.5,417,16.3,417,16.1,417z
		 M16,412.3c-0.1,0.1-0.2,0.3-0.3,0.4c-0.1,0.2-0.1,0.3-0.1,0.5s0,0.3,0.1,0.5c0.1,0.2,0.2,0.3,0.3,0.4s0.3,0.2,0.4,0.3
		c0.2,0.1,0.3,0.1,0.5,0.1c0.2,0,0.4,0,0.5-0.1c0.2-0.1,0.3-0.2,0.4-0.3c0.1-0.1,0.2-0.3,0.3-0.4c0.1-0.2,0.1-0.3,0.1-0.5
		s0-0.3-0.1-0.5s-0.2-0.3-0.3-0.4c-0.1-0.1-0.3-0.2-0.4-0.3c-0.2-0.1-0.3-0.1-0.5-0.1C16.6,411.9,16.3,412,16,412.3z"/>
	<path d="M21.7,412c0.5-0.6,1.2-0.8,2.1-0.8c0.7,0,1.3,0.2,1.7,0.6c0.4,0.4,0.6,1,0.6,1.8v3.7h-0.9v-0.6c-0.6,0.5-1.3,0.8-2.1,0.8
		c-0.3,0-0.6,0-0.8-0.1c-0.2-0.1-0.5-0.2-0.6-0.4s-0.3-0.3-0.4-0.5c-0.1-0.2-0.1-0.4-0.1-0.6c0-0.6,0.3-1.1,0.8-1.4
		c0.5-0.3,1.3-0.5,2.2-0.6h1.1v-0.2c0-0.6-0.1-1-0.4-1.2c-0.2-0.2-0.6-0.4-1.2-0.4c-0.6,0-1.2,0.2-1.6,0.7L21.7,412z M25.3,414.5
		h-0.2c-0.1,0-0.2,0-0.3,0s-0.2,0-0.3,0c-0.5,0-0.9,0-1.2,0.1c-0.3,0.1-0.5,0.2-0.7,0.3s-0.3,0.2-0.4,0.4s-0.1,0.3-0.1,0.5
		c0,0.3,0.1,0.5,0.4,0.7c0.2,0.2,0.5,0.3,0.9,0.3c0.3,0,0.5,0,0.7-0.1c0.2-0.1,0.4-0.2,0.5-0.3c0.2-0.1,0.3-0.2,0.4-0.4
		c0.1-0.1,0.2-0.2,0.2-0.3c0.1-0.2,0.1-0.4,0.1-0.7V414.5z"/>
	<path d="M27.9,417.3v-5.9h0.9v1.1c0.2-0.4,0.5-0.7,0.9-0.9c0.4-0.2,0.7-0.3,1.1-0.3c0.3,0,0.5,0,0.7,0.1c0.2,0.1,0.4,0.2,0.6,0.4
		c0.2,0.2,0.3,0.5,0.4,0.8c0.1,0.3,0.1,0.7,0.1,1.1v3.6h-0.9v-3.6c0-0.6-0.1-1.1-0.3-1.3c-0.2-0.3-0.5-0.4-0.8-0.4
		c-0.2,0-0.4,0-0.6,0.1c-0.2,0.1-0.4,0.2-0.6,0.4c-0.2,0.2-0.3,0.4-0.4,0.6c-0.1,0.2-0.2,0.5-0.2,0.8v3.4H27.9z"/>
	<path d="M34.9,411.3h2.4v5.2h1.4v0.8h-3.8v-0.8h1.5v-4.4h-1.4V411.3z M36.3,408.9c0.1-0.1,0.3-0.2,0.5-0.2c0.2,0,0.3,0.1,0.5,0.2
		s0.2,0.3,0.2,0.5s-0.1,0.3-0.2,0.5c-0.1,0.1-0.3,0.2-0.5,0.2c-0.2,0-0.3-0.1-0.5-0.2c-0.1-0.1-0.2-0.3-0.2-0.5
		C36.1,409.2,36.2,409.1,36.3,408.9z"/>
	<path d="M40.9,411.3h4.6v0.6l-3.6,4.5h3.5c0.1,0,0.1,0,0.2,0s0.1,0,0.2,0v0.9h-5.2v-0.6l3.7-4.5h-3.4V411.3z"/>
	<path d="M47.7,412c0.5-0.6,1.2-0.8,2.1-0.8c0.7,0,1.3,0.2,1.7,0.6c0.4,0.4,0.6,1,0.6,1.8v3.7h-0.9v-0.6c-0.6,0.5-1.3,0.8-2.1,0.8
		c-0.3,0-0.6,0-0.8-0.1c-0.2-0.1-0.5-0.2-0.6-0.4s-0.3-0.3-0.4-0.5c-0.1-0.2-0.1-0.4-0.1-0.6c0-0.6,0.3-1.1,0.8-1.4
		c0.5-0.3,1.3-0.5,2.2-0.6h1.1v-0.2c0-0.6-0.1-1-0.4-1.2c-0.2-0.2-0.6-0.4-1.2-0.4c-0.6,0-1.2,0.2-1.6,0.7L47.7,412z M51.3,414.5
		h-0.2c-0.1,0-0.2,0-0.3,0s-0.2,0-0.3,0c-0.5,0-0.9,0-1.2,0.1c-0.3,0.1-0.5,0.2-0.7,0.3s-0.3,0.2-0.4,0.4s-0.1,0.3-0.1,0.5
		c0,0.3,0.1,0.5,0.4,0.7c0.2,0.2,0.5,0.3,0.9,0.3c0.3,0,0.5,0,0.7-0.1c0.2-0.1,0.4-0.2,0.5-0.3c0.2-0.1,0.3-0.2,0.4-0.4
		c0.1-0.1,0.2-0.2,0.2-0.3c0.1-0.2,0.1-0.4,0.1-0.7V414.5z"/>
	<path d="M55.4,409.7l1-0.2c0,0.1,0,0.1,0,0.2c0,0.1,0,0.1,0,0.1l-0.2,1.4h1.9v0.8h-1.9c-0.1,0.8-0.1,1.5-0.1,2.2c0,0.4,0,0.8,0,1.1
		c0,0.3,0.1,0.5,0.1,0.7c0.1,0.2,0.2,0.3,0.3,0.4c0.1,0.1,0.3,0.1,0.6,0.1c0.4,0,0.8-0.2,1.3-0.5l0.3,0.7c-0.6,0.4-1.2,0.7-1.8,0.7
		c-0.6,0-1.1-0.2-1.4-0.6s-0.4-1-0.4-1.8c0-0.3,0-0.7,0-1.2c0-0.5,0.1-1.1,0.1-1.7h-1.4v-0.8h1.4L55.4,409.7z"/>
	<path d="M60.9,411.3h2.4v5.2h1.4v0.8h-3.8v-0.8h1.5v-4.4h-1.4V411.3z M62.3,408.9c0.1-0.1,0.3-0.2,0.5-0.2c0.2,0,0.3,0.1,0.5,0.2
		s0.2,0.3,0.2,0.5s-0.1,0.3-0.2,0.5c-0.1,0.1-0.3,0.2-0.5,0.2c-0.2,0-0.3-0.1-0.5-0.2c-0.1-0.1-0.2-0.3-0.2-0.5
		C62.1,409.2,62.2,409.1,62.3,408.9z"/>
	<path d="M69.3,411.2c0.4,0,0.7,0.1,1,0.2c0.3,0.1,0.6,0.3,0.9,0.6s0.4,0.6,0.6,1s0.2,0.8,0.2,1.3c0,0.5-0.1,0.9-0.2,1.3
		c-0.1,0.4-0.3,0.7-0.6,1c-0.2,0.3-0.5,0.5-0.9,0.6c-0.3,0.1-0.7,0.2-1.1,0.2c-0.4,0-0.7-0.1-1.1-0.2c-0.3-0.2-0.6-0.4-0.9-0.6
		c-0.3-0.3-0.5-0.6-0.6-1c-0.1-0.4-0.2-0.8-0.2-1.2s0.1-0.9,0.2-1.2c0.2-0.4,0.4-0.7,0.6-1c0.3-0.3,0.6-0.5,0.9-0.7
		S68.9,411.2,69.3,411.2z M71,414.3c0-0.4,0-0.7-0.1-1c-0.1-0.3-0.2-0.5-0.4-0.7s-0.4-0.4-0.6-0.5c-0.2-0.1-0.4-0.2-0.7-0.2
		c-0.2,0-0.5,0.1-0.7,0.2c-0.2,0.1-0.4,0.3-0.6,0.5c-0.2,0.2-0.3,0.4-0.4,0.7c-0.1,0.3-0.1,0.6-0.1,1c0,0.3,0,0.7,0.1,0.9
		c0.1,0.3,0.2,0.5,0.4,0.7c0.2,0.2,0.3,0.4,0.6,0.5c0.2,0.1,0.4,0.2,0.7,0.2s0.5,0,0.7-0.1c0.2-0.1,0.4-0.2,0.6-0.4
		c0.2-0.2,0.3-0.4,0.4-0.7C71,415,71,414.7,71,414.3z"/>
	<path d="M73.4,417.3v-5.9h0.9v1.1c0.2-0.4,0.5-0.7,0.9-0.9c0.4-0.2,0.7-0.3,1.1-0.3c0.3,0,0.5,0,0.7,0.1c0.2,0.1,0.4,0.2,0.6,0.4
		c0.2,0.2,0.3,0.5,0.4,0.8c0.1,0.3,0.1,0.7,0.1,1.1v3.6h-0.9v-3.6c0-0.6-0.1-1.1-0.3-1.3c-0.2-0.3-0.5-0.4-0.8-0.4
		c-0.2,0-0.4,0-0.6,0.1c-0.2,0.1-0.4,0.2-0.6,0.4c-0.2,0.2-0.3,0.4-0.4,0.6c-0.1,0.2-0.2,0.5-0.2,0.8v3.4H73.4z"/>
	<path d="M82.6,412c0.2,0.2,0.2,0.3,0.2,0.5s-0.1,0.4-0.2,0.5c-0.2,0.1-0.3,0.2-0.5,0.2c-0.2,0-0.4-0.1-0.5-0.2
		c-0.2-0.1-0.2-0.3-0.2-0.5c0-0.2,0.1-0.4,0.2-0.5c0.2-0.1,0.3-0.2,0.5-0.2C82.3,411.8,82.5,411.8,82.6,412z M82.6,416.1
		c0.2,0.2,0.2,0.3,0.2,0.5s-0.1,0.4-0.2,0.5c-0.2,0.1-0.3,0.2-0.6,0.2c-0.2,0-0.4-0.1-0.5-0.2c-0.1-0.1-0.2-0.3-0.2-0.5
		s0.1-0.4,0.2-0.5c0.2-0.1,0.3-0.2,0.5-0.2C82.3,415.9,82.5,416,82.6,416.1z"/>
	<path d="M93,409.2h4.7v0.8h-3.7v2.5h3v0.8h-3v4H93V409.2z"/>
	<path d="M99.8,411.3h1l0,1.1c0.2-0.4,0.5-0.7,0.9-1c0.4-0.2,0.8-0.3,1.3-0.3c0.6,0,1.2,0.2,1.6,0.7l-0.4,0.9
		c-0.1-0.1-0.2-0.2-0.3-0.3c-0.1-0.1-0.2-0.2-0.3-0.2c-0.1-0.1-0.2-0.1-0.3-0.1c-0.1,0-0.2-0.1-0.4-0.1c-0.3,0-0.6,0.1-0.8,0.2
		s-0.5,0.3-0.7,0.5s-0.3,0.5-0.5,0.8c-0.1,0.3-0.2,0.6-0.2,0.9v2.9h-0.9V411.3z"/>
	<path d="M108.4,411.2c0.3,0,0.6,0.1,0.9,0.2c0.3,0.1,0.6,0.3,0.8,0.5c0.2,0.2,0.4,0.5,0.5,0.9s0.2,0.8,0.2,1.3c0,0.1,0,0.1,0,0.2
		s0,0.1,0,0.2h-4.2c0,0.4,0.1,0.8,0.2,1c0.1,0.3,0.3,0.5,0.5,0.7c0.2,0.2,0.4,0.3,0.6,0.4c0.2,0.1,0.5,0.1,0.7,0.1
		c0.6,0,1.1-0.2,1.5-0.7l0.5,0.5c-0.5,0.6-1.2,0.9-2.1,0.9c-0.4,0-0.8-0.1-1.2-0.2c-0.4-0.1-0.7-0.3-0.9-0.6c-0.3-0.3-0.4-0.6-0.6-1
		c-0.1-0.4-0.2-0.8-0.2-1.3c0-0.5,0.1-0.9,0.2-1.3c0.1-0.4,0.3-0.7,0.6-1c0.2-0.3,0.5-0.5,0.9-0.6
		C107.6,411.3,108,411.2,108.4,411.2z M106.6,413.7h3.3c0,0,0-0.1,0-0.1c0,0,0-0.1,0-0.1c0-0.2,0-0.4-0.1-0.6
		c-0.1-0.2-0.2-0.4-0.3-0.5s-0.3-0.3-0.5-0.3c-0.2-0.1-0.4-0.1-0.6-0.1c-0.4,0-0.8,0.1-1.1,0.4C106.9,412.6,106.6,413.1,106.6,413.7
		z"/>
	<path d="M114.9,411.2c0.3,0,0.6,0.1,0.9,0.2c0.3,0.1,0.6,0.3,0.8,0.5c0.2,0.2,0.4,0.5,0.5,0.9s0.2,0.8,0.2,1.3c0,0.1,0,0.1,0,0.2
		s0,0.1,0,0.2H113c0,0.4,0.1,0.8,0.2,1c0.1,0.3,0.3,0.5,0.5,0.7c0.2,0.2,0.4,0.3,0.6,0.4c0.2,0.1,0.5,0.1,0.7,0.1
		c0.6,0,1.1-0.2,1.5-0.7l0.5,0.5c-0.5,0.6-1.2,0.9-2.1,0.9c-0.4,0-0.8-0.1-1.2-0.2c-0.4-0.1-0.7-0.3-0.9-0.6c-0.3-0.3-0.4-0.6-0.6-1
		c-0.1-0.4-0.2-0.8-0.2-1.3c0-0.5,0.1-0.9,0.2-1.3c0.1-0.4,0.3-0.7,0.6-1c0.2-0.3,0.5-0.5,0.9-0.6
		C114.1,411.3,114.5,411.2,114.9,411.2z M113.1,413.7h3.3c0,0,0-0.1,0-0.1c0,0,0-0.1,0-0.1c0-0.2,0-0.4-0.1-0.6
		c-0.1-0.2-0.2-0.4-0.3-0.5s-0.3-0.3-0.5-0.3c-0.2-0.1-0.4-0.1-0.6-0.1c-0.4,0-0.8,0.1-1.1,0.4C113.4,412.6,113.1,413.1,113.1,413.7
		z"/>
	<path d="M119.1,408.6h2.6v7.9h1.7v0.8H119v-0.8h1.8v-7.1h-1.7V408.6z"/>
	<path d="M125.7,412c0.5-0.6,1.2-0.8,2.1-0.8c0.7,0,1.3,0.2,1.7,0.6c0.4,0.4,0.6,1,0.6,1.8v3.7h-0.9v-0.6c-0.6,0.5-1.3,0.8-2.1,0.8
		c-0.3,0-0.6,0-0.8-0.1c-0.2-0.1-0.5-0.2-0.6-0.4s-0.3-0.3-0.4-0.5c-0.1-0.2-0.1-0.4-0.1-0.6c0-0.6,0.3-1.1,0.8-1.4
		c0.5-0.3,1.3-0.5,2.2-0.6h1.1v-0.2c0-0.6-0.1-1-0.4-1.2c-0.2-0.2-0.6-0.4-1.2-0.4c-0.6,0-1.2,0.2-1.6,0.7L125.7,412z M129.3,414.5
		h-0.2c-0.1,0-0.2,0-0.3,0s-0.2,0-0.3,0c-0.5,0-0.9,0-1.2,0.1c-0.3,0.1-0.5,0.2-0.7,0.3s-0.3,0.2-0.4,0.4s-0.1,0.3-0.1,0.5
		c0,0.3,0.1,0.5,0.4,0.7c0.2,0.2,0.5,0.3,0.9,0.3c0.3,0,0.5,0,0.7-0.1c0.2-0.1,0.4-0.2,0.5-0.3c0.2-0.1,0.3-0.2,0.4-0.4
		c0.1-0.1,0.2-0.2,0.2-0.3c0.1-0.2,0.1-0.4,0.1-0.7V414.5z"/>
	<path d="M131.9,417.3v-5.9h0.9v1.1c0.2-0.4,0.5-0.7,0.9-0.9c0.4-0.2,0.7-0.3,1.1-0.3c0.3,0,0.5,0,0.7,0.1c0.2,0.1,0.4,0.2,0.6,0.4
		c0.2,0.2,0.3,0.5,0.4,0.8c0.1,0.3,0.1,0.7,0.1,1.1v3.6h-0.9v-3.6c0-0.6-0.1-1.1-0.3-1.3c-0.2-0.3-0.5-0.4-0.8-0.4
		c-0.2,0-0.4,0-0.6,0.1c-0.2,0.1-0.4,0.2-0.6,0.4c-0.2,0.2-0.3,0.4-0.4,0.6c-0.1,0.2-0.2,0.5-0.2,0.8v3.4H131.9z"/>
	<path d="M143.4,412.3l-0.7,0.8c0,0-0.1-0.1-0.1-0.1c0,0,0-0.1,0-0.1c0-0.1,0-0.1-0.1-0.2c-0.1-0.1-0.2-0.2-0.3-0.3
		c-0.3-0.2-0.7-0.4-1.2-0.4c-0.3,0-0.5,0.1-0.7,0.2c-0.2,0.1-0.4,0.3-0.6,0.4c-0.2,0.2-0.3,0.4-0.4,0.7c-0.1,0.3-0.2,0.6-0.2,0.9
		s0.1,0.6,0.2,0.9c0.1,0.3,0.2,0.5,0.4,0.7c0.2,0.2,0.4,0.4,0.7,0.5c0.3,0.1,0.5,0.2,0.8,0.2c0.6,0,1.1-0.2,1.6-0.7l0.5,0.6
		c-0.6,0.6-1.3,0.9-2.2,0.9c-0.4,0-0.8-0.1-1.2-0.2c-0.4-0.2-0.7-0.4-0.9-0.7s-0.5-0.6-0.6-1c-0.1-0.4-0.2-0.8-0.2-1.2
		c0-0.4,0.1-0.9,0.2-1.2c0.1-0.4,0.4-0.7,0.6-1c0.3-0.3,0.6-0.5,0.9-0.6c0.4-0.2,0.8-0.2,1.2-0.2c0.5,0,0.9,0.1,1.3,0.3
		C142.9,411.7,143.2,412,143.4,412.3z"/>
	<path d="M147.4,411.2c0.3,0,0.6,0.1,0.9,0.2c0.3,0.1,0.6,0.3,0.8,0.5c0.2,0.2,0.4,0.5,0.5,0.9s0.2,0.8,0.2,1.3c0,0.1,0,0.1,0,0.2
		s0,0.1,0,0.2h-4.2c0,0.4,0.1,0.8,0.2,1c0.1,0.3,0.3,0.5,0.5,0.7c0.2,0.2,0.4,0.3,0.6,0.4c0.2,0.1,0.5,0.1,0.7,0.1
		c0.6,0,1.1-0.2,1.5-0.7l0.5,0.5c-0.5,0.6-1.2,0.9-2.1,0.9c-0.4,0-0.8-0.1-1.2-0.2c-0.4-0.1-0.7-0.3-0.9-0.6c-0.3-0.3-0.4-0.6-0.6-1
		c-0.1-0.4-0.2-0.8-0.2-1.3c0-0.5,0.1-0.9,0.2-1.3c0.1-0.4,0.3-0.7,0.6-1c0.2-0.3,0.5-0.5,0.9-0.6
		C146.6,411.3,147,411.2,147.4,411.2z M145.6,413.7h3.3c0,0,0-0.1,0-0.1c0,0,0-0.1,0-0.1c0-0.2,0-0.4-0.1-0.6
		c-0.1-0.2-0.2-0.4-0.3-0.5s-0.3-0.3-0.5-0.3c-0.2-0.1-0.4-0.1-0.6-0.1c-0.4,0-0.8,0.1-1.1,0.4C145.9,412.6,145.6,413.1,145.6,413.7
		z"/>
	<path d="M1.8,440.4h2.6c0.5,0,0.8,0.1,1.2,0.2c0.3,0.1,0.6,0.3,0.8,0.5c0.2,0.2,0.4,0.5,0.5,0.7s0.2,0.6,0.2,0.9
		c0,0.3-0.1,0.6-0.2,0.9s-0.2,0.5-0.4,0.7c-0.2,0.2-0.4,0.4-0.8,0.5c-0.3,0.1-0.7,0.2-1.1,0.2H2.7v3.6H1.8V440.4z M2.7,441.2v2.9
		h1.6c0.6,0,1-0.1,1.3-0.4s0.4-0.6,0.4-1c0-0.2-0.1-0.4-0.1-0.6s-0.2-0.3-0.3-0.5c-0.1-0.1-0.3-0.2-0.5-0.3
		c-0.2-0.1-0.4-0.1-0.7-0.1H2.7z"/>
	<path d="M8.6,439.8h2.6v7.9h1.7v0.8H8.5v-0.8h1.8v-7.1H8.6V439.8z"/>
	<path d="M15.2,443.2c0.5-0.6,1.2-0.8,2.1-0.8c0.7,0,1.3,0.2,1.7,0.6c0.4,0.4,0.6,1,0.6,1.8v3.7h-0.9v-0.6c-0.6,0.5-1.3,0.8-2.1,0.8
		c-0.3,0-0.6,0-0.8-0.1c-0.2-0.1-0.5-0.2-0.6-0.4c-0.2-0.2-0.3-0.3-0.4-0.5c-0.1-0.2-0.1-0.4-0.1-0.6c0-0.6,0.3-1.1,0.8-1.4
		c0.5-0.3,1.3-0.5,2.2-0.6h1.1v-0.2c0-0.6-0.1-1-0.4-1.2c-0.2-0.2-0.6-0.4-1.2-0.4c-0.6,0-1.2,0.2-1.6,0.7L15.2,443.2z M18.8,445.7
		h-0.2c-0.1,0-0.2,0-0.3,0c-0.1,0-0.2,0-0.3,0c-0.5,0-0.9,0-1.2,0.1c-0.3,0.1-0.5,0.2-0.7,0.3c-0.2,0.1-0.3,0.2-0.4,0.4
		c-0.1,0.1-0.1,0.3-0.1,0.5c0,0.3,0.1,0.5,0.4,0.7c0.2,0.2,0.5,0.3,0.9,0.3c0.3,0,0.5,0,0.7-0.1s0.4-0.2,0.5-0.3
		c0.2-0.1,0.3-0.2,0.4-0.4s0.2-0.2,0.2-0.3c0.1-0.2,0.1-0.4,0.1-0.7V445.7z"/>
	<path d="M26.4,443.5l-0.7,0.8c0,0-0.1-0.1-0.1-0.1c0,0,0-0.1,0-0.1c0-0.1,0-0.1-0.1-0.2c-0.1-0.1-0.2-0.2-0.3-0.3
		c-0.3-0.2-0.7-0.4-1.2-0.4c-0.3,0-0.5,0.1-0.7,0.2c-0.2,0.1-0.4,0.3-0.6,0.4c-0.2,0.2-0.3,0.4-0.4,0.7c-0.1,0.3-0.2,0.6-0.2,0.9
		c0,0.3,0.1,0.6,0.2,0.9c0.1,0.3,0.2,0.5,0.4,0.7c0.2,0.2,0.4,0.4,0.7,0.5c0.3,0.1,0.5,0.2,0.8,0.2c0.6,0,1.1-0.2,1.6-0.7l0.5,0.6
		c-0.6,0.6-1.3,0.9-2.2,0.9c-0.4,0-0.8-0.1-1.2-0.2c-0.4-0.2-0.7-0.4-0.9-0.7s-0.5-0.6-0.6-1c-0.1-0.4-0.2-0.8-0.2-1.2
		c0-0.4,0.1-0.9,0.2-1.2c0.1-0.4,0.4-0.7,0.6-1s0.6-0.5,0.9-0.6c0.4-0.2,0.8-0.2,1.2-0.2c0.5,0,0.9,0.1,1.3,0.3
		C25.9,442.9,26.2,443.2,26.4,443.5z"/>
	<path d="M30.4,442.4c0.3,0,0.6,0.1,0.9,0.2c0.3,0.1,0.6,0.3,0.8,0.5c0.2,0.2,0.4,0.5,0.5,0.9s0.2,0.8,0.2,1.3c0,0.1,0,0.1,0,0.2
		c0,0.1,0,0.1,0,0.2h-4.2c0,0.4,0.1,0.8,0.2,1c0.1,0.3,0.3,0.5,0.5,0.7c0.2,0.2,0.4,0.3,0.6,0.4c0.2,0.1,0.5,0.1,0.7,0.1
		c0.6,0,1.1-0.2,1.5-0.7l0.5,0.5c-0.5,0.6-1.2,0.9-2.1,0.9c-0.4,0-0.8-0.1-1.2-0.2c-0.4-0.1-0.7-0.3-0.9-0.6c-0.3-0.3-0.4-0.6-0.6-1
		c-0.1-0.4-0.2-0.8-0.2-1.3c0-0.5,0.1-0.9,0.2-1.3s0.3-0.7,0.6-1s0.5-0.5,0.9-0.6C29.6,442.5,30,442.4,30.4,442.4z M28.6,444.9h3.3
		c0,0,0-0.1,0-0.1c0,0,0-0.1,0-0.1c0-0.2,0-0.4-0.1-0.6c-0.1-0.2-0.2-0.4-0.3-0.5s-0.3-0.3-0.5-0.3c-0.2-0.1-0.4-0.1-0.6-0.1
		c-0.4,0-0.8,0.1-1.1,0.4C28.9,443.8,28.6,444.3,28.6,444.9z"/>
	<path d="M43.3,442.4c0.4,0,0.7,0.1,1,0.2c0.3,0.1,0.6,0.3,0.9,0.6c0.2,0.3,0.4,0.6,0.6,1c0.1,0.4,0.2,0.8,0.2,1.3
		c0,0.5-0.1,0.9-0.2,1.3s-0.3,0.7-0.6,1c-0.2,0.3-0.5,0.5-0.9,0.6c-0.3,0.1-0.7,0.2-1.1,0.2c-0.4,0-0.7-0.1-1.1-0.2
		c-0.3-0.2-0.6-0.4-0.9-0.6s-0.5-0.6-0.6-1c-0.1-0.4-0.2-0.8-0.2-1.2c0-0.4,0.1-0.9,0.2-1.2c0.2-0.4,0.4-0.7,0.6-1s0.6-0.5,0.9-0.7
		C42.6,442.5,42.9,442.4,43.3,442.4z M45,445.5c0-0.4,0-0.7-0.1-1c-0.1-0.3-0.2-0.5-0.4-0.7s-0.4-0.4-0.6-0.5
		c-0.2-0.1-0.4-0.2-0.7-0.2c-0.2,0-0.5,0.1-0.7,0.2s-0.4,0.3-0.6,0.5c-0.2,0.2-0.3,0.4-0.4,0.7s-0.1,0.6-0.1,1c0,0.3,0,0.7,0.1,0.9
		s0.2,0.5,0.4,0.7c0.2,0.2,0.3,0.4,0.6,0.5c0.2,0.1,0.4,0.2,0.7,0.2s0.5-0.1,0.7-0.2c0.2-0.1,0.4-0.2,0.6-0.4
		c0.2-0.2,0.3-0.4,0.4-0.7C45,446.2,45,445.9,45,445.5z"/>
	<path d="M50.9,439.8c0.8,0,1.4,0.3,1.8,0.8l-0.4,0.9c-0.1,0-0.1,0-0.1-0.1s0-0.1,0-0.2c-0.1-0.2-0.3-0.4-0.6-0.5s-0.5-0.2-0.7-0.2
		c-0.2,0-0.4,0-0.6,0.1s-0.3,0.2-0.4,0.3s-0.2,0.3-0.3,0.6s-0.1,0.6-0.1,0.9v0.5h2v0.8h-2v4.8h-0.9v-4.8h-1.3v-0.8h1.3v-0.6
		c0-0.5,0.1-0.9,0.2-1.2c0.1-0.3,0.3-0.6,0.5-0.8c0.2-0.2,0.5-0.3,0.8-0.4C50.3,439.8,50.6,439.8,50.9,439.8z"/>
	<path d="M64.3,443.4v-3.6h1c0,0.1,0,0.1-0.1,0.2c0,0.1-0.1,0.1-0.1,0.2l0,7.7c0,0.2,0,0.4,0.1,0.5h-0.9c0-0.1-0.1-0.3-0.1-0.4v-0.5
		c-0.2,0.3-0.4,0.6-0.8,0.8c-0.3,0.2-0.7,0.3-1,0.3c-0.3,0-0.6-0.1-0.9-0.2c-0.3-0.1-0.5-0.3-0.8-0.6c-0.2-0.3-0.4-0.6-0.5-1
		c-0.1-0.4-0.2-0.9-0.2-1.4c0-0.5,0.1-1,0.2-1.4c0.1-0.4,0.3-0.7,0.6-0.9c0.2-0.2,0.5-0.4,0.8-0.5c0.3-0.1,0.6-0.2,0.9-0.2
		c0.4,0,0.8,0.1,1.1,0.3C63.9,442.8,64.2,443.1,64.3,443.4z M61.6,443.6c-0.4,0.3-0.6,0.9-0.6,1.7c0,0.7,0.1,1.3,0.4,1.8
		c0.3,0.5,0.7,0.7,1.2,0.7c0.1,0,0.3,0,0.4-0.1c0.1,0,0.3-0.1,0.4-0.2s0.2-0.2,0.3-0.3c0.1-0.1,0.2-0.3,0.2-0.4
		c0.1-0.3,0.1-0.7,0.1-1.3c0-0.3,0-0.6,0-0.8c0-0.2-0.1-0.4-0.1-0.6c-0.1-0.2-0.1-0.3-0.2-0.4c-0.1-0.1-0.2-0.2-0.3-0.3
		c-0.2-0.1-0.3-0.2-0.4-0.2s-0.3-0.1-0.4-0.1c-0.2,0-0.5,0-0.6,0.1C61.9,443.3,61.7,443.4,61.6,443.6z"/>
	<path d="M69.4,442.4c0.3,0,0.6,0.1,0.9,0.2c0.3,0.1,0.6,0.3,0.8,0.5c0.2,0.2,0.4,0.5,0.5,0.9s0.2,0.8,0.2,1.3c0,0.1,0,0.1,0,0.2
		c0,0.1,0,0.1,0,0.2h-4.2c0,0.4,0.1,0.8,0.2,1c0.1,0.3,0.3,0.5,0.5,0.7c0.2,0.2,0.4,0.3,0.6,0.4c0.2,0.1,0.5,0.1,0.7,0.1
		c0.6,0,1.1-0.2,1.5-0.7l0.5,0.5c-0.5,0.6-1.2,0.9-2.1,0.9c-0.4,0-0.8-0.1-1.2-0.2c-0.4-0.1-0.7-0.3-0.9-0.6c-0.3-0.3-0.4-0.6-0.6-1
		c-0.1-0.4-0.2-0.8-0.2-1.3c0-0.5,0.1-0.9,0.2-1.3s0.3-0.7,0.6-1s0.5-0.5,0.9-0.6C68.6,442.5,69,442.4,69.4,442.4z M67.6,444.9h3.3
		c0,0,0-0.1,0-0.1c0,0,0-0.1,0-0.1c0-0.2,0-0.4-0.1-0.6c-0.1-0.2-0.2-0.4-0.3-0.5s-0.3-0.3-0.5-0.3c-0.2-0.1-0.4-0.1-0.6-0.1
		c-0.4,0-0.8,0.1-1.1,0.4C67.9,443.8,67.6,444.3,67.6,444.9z"/>
	<path d="M73.7,443.2c0.5-0.6,1.2-0.8,2.1-0.8c0.7,0,1.3,0.2,1.7,0.6c0.4,0.4,0.6,1,0.6,1.8v3.7h-0.9v-0.6c-0.6,0.5-1.3,0.8-2.1,0.8
		c-0.3,0-0.6,0-0.8-0.1c-0.2-0.1-0.5-0.2-0.6-0.4c-0.2-0.2-0.3-0.3-0.4-0.5c-0.1-0.2-0.1-0.4-0.1-0.6c0-0.6,0.3-1.1,0.8-1.4
		c0.5-0.3,1.3-0.5,2.2-0.6h1.1v-0.2c0-0.6-0.1-1-0.4-1.2c-0.2-0.2-0.6-0.4-1.2-0.4c-0.6,0-1.2,0.2-1.6,0.7L73.7,443.2z M77.3,445.7
		h-0.2c-0.1,0-0.2,0-0.3,0c-0.1,0-0.2,0-0.3,0c-0.5,0-0.9,0-1.2,0.1c-0.3,0.1-0.5,0.2-0.7,0.3c-0.2,0.1-0.3,0.2-0.4,0.4
		c-0.1,0.1-0.1,0.3-0.1,0.5c0,0.3,0.1,0.5,0.4,0.7c0.2,0.2,0.5,0.3,0.9,0.3c0.3,0,0.5,0,0.7-0.1s0.4-0.2,0.5-0.3
		c0.2-0.1,0.3-0.2,0.4-0.4s0.2-0.2,0.2-0.3c0.1-0.2,0.1-0.4,0.1-0.7V445.7z"/>
	<path d="M81.4,440.9l1-0.2c0,0.1,0,0.1,0,0.2c0,0.1,0,0.1,0,0.1l-0.2,1.4h1.9v0.8h-1.9c-0.1,0.8-0.1,1.5-0.1,2.2c0,0.4,0,0.8,0,1.1
		c0,0.3,0.1,0.5,0.1,0.7c0.1,0.2,0.2,0.3,0.3,0.4c0.1,0.1,0.3,0.1,0.6,0.1c0.4,0,0.8-0.2,1.3-0.5l0.3,0.7c-0.6,0.4-1.2,0.7-1.8,0.7
		c-0.6,0-1.1-0.2-1.4-0.6c-0.3-0.4-0.4-1-0.4-1.8c0-0.3,0-0.7,0-1.2c0-0.5,0.1-1.1,0.1-1.7h-1.4v-0.8h1.4L81.4,440.9z"/>
	<path d="M86.4,448.5v-8.6h1.1c0,0,0,0,0,0s0,0,0,0c0,0,0,0.1-0.1,0.1c0,0-0.1,0.1-0.1,0.2v3.4c0.2-0.4,0.5-0.7,0.9-0.9
		s0.7-0.3,1.1-0.3c0.3,0,0.5,0,0.7,0.1s0.4,0.2,0.6,0.4c0.2,0.2,0.3,0.5,0.4,0.8s0.1,0.7,0.1,1.1v3.6h-0.9v-3.6
		c0-0.6-0.1-1.1-0.3-1.3c-0.2-0.3-0.5-0.4-0.8-0.4c-0.2,0-0.4,0-0.6,0.1s-0.4,0.2-0.6,0.4c-0.2,0.2-0.3,0.3-0.4,0.6
		s-0.1,0.5-0.1,0.8v3.4H86.4z"/>
	<path d="M95.6,443.2c0.2,0.2,0.2,0.3,0.2,0.5s-0.1,0.4-0.2,0.5c-0.2,0.1-0.3,0.2-0.5,0.2c-0.2,0-0.4-0.1-0.5-0.2
		c-0.2-0.1-0.2-0.3-0.2-0.5c0-0.2,0.1-0.4,0.2-0.5c0.2-0.1,0.3-0.2,0.5-0.2C95.3,443,95.5,443,95.6,443.2z M95.6,447.3
		c0.2,0.2,0.2,0.3,0.2,0.5c0,0.2-0.1,0.4-0.2,0.5c-0.2,0.1-0.3,0.2-0.6,0.2c-0.2,0-0.4-0.1-0.5-0.2s-0.2-0.3-0.2-0.5
		c0-0.2,0.1-0.4,0.2-0.5c0.2-0.1,0.3-0.2,0.5-0.2C95.3,447.1,95.5,447.2,95.6,447.3z"/>
	<path d="M110.6,441.3l-0.6,0.8c0,0-0.1-0.1-0.1-0.1c0-0.1,0-0.1,0-0.1c-0.2-0.2-0.4-0.4-0.7-0.6c-0.3-0.1-0.6-0.2-1-0.2
		c-0.4,0-0.7,0.1-1,0.4c-0.3,0.2-0.4,0.5-0.4,0.8c0,0.2,0,0.4,0.1,0.5c0.1,0.1,0.2,0.3,0.3,0.4c0.1,0.1,0.3,0.3,0.6,0.4
		c0.3,0.1,0.6,0.3,1,0.4c0.4,0.2,0.7,0.3,1,0.5c0.3,0.2,0.5,0.3,0.6,0.5c0.2,0.2,0.3,0.4,0.3,0.6s0.1,0.4,0.1,0.7
		c0,0.3-0.1,0.6-0.2,0.8c-0.1,0.3-0.3,0.5-0.5,0.8c-0.2,0.2-0.5,0.4-0.8,0.5c-0.3,0.1-0.7,0.2-1.2,0.2c-1,0-1.9-0.3-2.5-1l0.5-0.9
		c0,0,0.1,0.1,0.1,0.1s0,0.1,0,0.1c0.2,0.3,0.5,0.5,0.8,0.6c0.3,0.2,0.7,0.3,1.2,0.3c0.2,0,0.5,0,0.7-0.1c0.2-0.1,0.4-0.2,0.5-0.3
		c0.1-0.1,0.3-0.3,0.4-0.5c0.1-0.2,0.1-0.4,0.1-0.6c0-0.2,0-0.3-0.1-0.4c-0.1-0.1-0.1-0.3-0.3-0.4c-0.1-0.1-0.3-0.2-0.6-0.4
		c-0.2-0.1-0.6-0.3-0.9-0.4c-0.4-0.2-0.8-0.3-1.1-0.5c-0.3-0.2-0.5-0.3-0.7-0.5c-0.2-0.2-0.3-0.4-0.4-0.6c-0.1-0.2-0.1-0.4-0.1-0.6
		c0-0.3,0.1-0.6,0.2-0.8c0.1-0.3,0.3-0.5,0.5-0.7c0.2-0.2,0.5-0.3,0.8-0.5c0.3-0.1,0.6-0.2,1-0.2c0.4,0,0.9,0.1,1.2,0.3
		C110,440.8,110.4,441,110.6,441.3z"/>
	<path d="M114.8,442.4c0.4,0,0.7,0.1,1,0.2c0.3,0.1,0.6,0.3,0.9,0.6c0.2,0.3,0.4,0.6,0.6,1c0.1,0.4,0.2,0.8,0.2,1.3
		c0,0.5-0.1,0.9-0.2,1.3s-0.3,0.7-0.6,1c-0.2,0.3-0.5,0.5-0.9,0.6c-0.3,0.1-0.7,0.2-1.1,0.2c-0.4,0-0.7-0.1-1.1-0.2
		c-0.3-0.2-0.6-0.4-0.9-0.6s-0.5-0.6-0.6-1c-0.1-0.4-0.2-0.8-0.2-1.2c0-0.4,0.1-0.9,0.2-1.2c0.2-0.4,0.4-0.7,0.6-1s0.6-0.5,0.9-0.7
		C114.1,442.5,114.4,442.4,114.8,442.4z M116.5,445.5c0-0.4,0-0.7-0.1-1c-0.1-0.3-0.2-0.5-0.4-0.7s-0.4-0.4-0.6-0.5
		c-0.2-0.1-0.4-0.2-0.7-0.2c-0.2,0-0.5,0.1-0.7,0.2s-0.4,0.3-0.6,0.5c-0.2,0.2-0.3,0.4-0.4,0.7s-0.1,0.6-0.1,1c0,0.3,0,0.7,0.1,0.9
		s0.2,0.5,0.4,0.7c0.2,0.2,0.3,0.4,0.6,0.5c0.2,0.1,0.4,0.2,0.7,0.2s0.5-0.1,0.7-0.2c0.2-0.1,0.4-0.2,0.6-0.4
		c0.2-0.2,0.3-0.4,0.4-0.7C116.5,446.2,116.5,445.9,116.5,445.5z"/>
	<path d="M118.5,448.5v-5.9h0.9v0.6c0.1-0.2,0.3-0.4,0.5-0.5c0.2-0.1,0.4-0.2,0.7-0.2c0.3,0,0.5,0.1,0.7,0.2
		c0.2,0.2,0.3,0.4,0.4,0.6c0.1-0.3,0.3-0.5,0.5-0.6c0.2-0.2,0.5-0.2,0.8-0.2c0.4,0,0.7,0.1,0.9,0.4s0.3,0.7,0.3,1.1v4.6h-0.9v-4.2
		c0-0.3,0-0.5,0-0.6c0-0.2-0.1-0.3-0.1-0.4s-0.1-0.1-0.2-0.2c-0.1,0-0.1,0-0.2,0c-0.1,0-0.2,0-0.3,0.1c-0.1,0.1-0.2,0.2-0.3,0.3
		c-0.1,0.1-0.2,0.3-0.2,0.5c-0.1,0.2-0.1,0.3-0.1,0.5v3.9h-0.9v-4.1c0-0.5,0-0.8-0.1-1c-0.1-0.2-0.2-0.2-0.5-0.2
		c-0.2,0-0.4,0.1-0.6,0.4c-0.2,0.2-0.3,0.6-0.3,1v4H118.5z"/>
	<path d="M125.7,443.2c0.5-0.6,1.2-0.8,2.1-0.8c0.7,0,1.3,0.2,1.7,0.6c0.4,0.4,0.6,1,0.6,1.8v3.7h-0.9v-0.6
		c-0.6,0.5-1.3,0.8-2.1,0.8c-0.3,0-0.6,0-0.8-0.1c-0.2-0.1-0.5-0.2-0.6-0.4c-0.2-0.2-0.3-0.3-0.4-0.5c-0.1-0.2-0.1-0.4-0.1-0.6
		c0-0.6,0.3-1.1,0.8-1.4c0.5-0.3,1.3-0.5,2.2-0.6h1.1v-0.2c0-0.6-0.1-1-0.4-1.2c-0.2-0.2-0.6-0.4-1.2-0.4c-0.6,0-1.2,0.2-1.6,0.7
		L125.7,443.2z M129.3,445.7h-0.2c-0.1,0-0.2,0-0.3,0c-0.1,0-0.2,0-0.3,0c-0.5,0-0.9,0-1.2,0.1c-0.3,0.1-0.5,0.2-0.7,0.3
		c-0.2,0.1-0.3,0.2-0.4,0.4c-0.1,0.1-0.1,0.3-0.1,0.5c0,0.3,0.1,0.5,0.4,0.7c0.2,0.2,0.5,0.3,0.9,0.3c0.3,0,0.5,0,0.7-0.1
		s0.4-0.2,0.5-0.3c0.2-0.1,0.3-0.2,0.4-0.4s0.2-0.2,0.2-0.3c0.1-0.2,0.1-0.4,0.1-0.7V445.7z"/>
	<path d="M132.1,439.8h2.6v7.9h1.7v0.8H132v-0.8h1.8v-7.1h-1.7V439.8z"/>
	<path d="M138.9,442.5h2.4v5.2h1.4v0.8h-3.8v-0.8h1.5v-4.4h-1.4V442.5z M140.3,440.1c0.1-0.1,0.3-0.2,0.5-0.2c0.2,0,0.3,0.1,0.5,0.2
		c0.1,0.1,0.2,0.3,0.2,0.5c0,0.2-0.1,0.3-0.2,0.5c-0.1,0.1-0.3,0.2-0.5,0.2c-0.2,0-0.3-0.1-0.5-0.2c-0.1-0.1-0.2-0.3-0.2-0.5
		C140.1,440.4,140.2,440.3,140.3,440.1z"/>
	<path d="M145.2,443.2c0.5-0.6,1.2-0.8,2.1-0.8c0.7,0,1.3,0.2,1.7,0.6c0.4,0.4,0.6,1,0.6,1.8v3.7h-0.9v-0.6
		c-0.6,0.5-1.3,0.8-2.1,0.8c-0.3,0-0.6,0-0.8-0.1c-0.2-0.1-0.5-0.2-0.6-0.4c-0.2-0.2-0.3-0.3-0.4-0.5c-0.1-0.2-0.1-0.4-0.1-0.6
		c0-0.6,0.3-1.1,0.8-1.4c0.5-0.3,1.3-0.5,2.2-0.6h1.1v-0.2c0-0.6-0.1-1-0.4-1.2c-0.2-0.2-0.6-0.4-1.2-0.4c-0.6,0-1.2,0.2-1.6,0.7
		L145.2,443.2z M148.8,445.7h-0.2c-0.1,0-0.2,0-0.3,0c-0.1,0-0.2,0-0.3,0c-0.5,0-0.9,0-1.2,0.1c-0.3,0.1-0.5,0.2-0.7,0.3
		c-0.2,0.1-0.3,0.2-0.4,0.4c-0.1,0.1-0.1,0.3-0.1,0.5c0,0.3,0.1,0.5,0.4,0.7c0.2,0.2,0.5,0.3,0.9,0.3c0.3,0,0.5,0,0.7-0.1
		s0.4-0.2,0.5-0.3c0.2-0.1,0.3-0.2,0.4-0.4s0.2-0.2,0.2-0.3c0.1-0.2,0.1-0.4,0.1-0.7V445.7z"/>
	<path d="M6.2,457.8c0-0.1,0-0.2,0-0.2c-0.2-0.3-0.4-0.5-0.7-0.7s-0.6-0.2-0.9-0.2c-0.3,0-0.6,0.1-0.8,0.2c-0.3,0.2-0.5,0.4-0.7,0.7
		c-0.2,0.3-0.4,0.6-0.5,1.1s-0.2,0.9-0.2,1.4c0,0.5,0.1,1,0.2,1.4c0.1,0.4,0.3,0.8,0.5,1.1c0.2,0.3,0.4,0.5,0.7,0.7
		c0.3,0.2,0.6,0.2,0.9,0.2c0.3,0,0.6-0.1,0.9-0.3c0.3-0.2,0.5-0.4,0.7-0.7l0.7,0.4c-0.1,0.2-0.3,0.4-0.5,0.6
		c-0.2,0.2-0.4,0.3-0.6,0.4c-0.2,0.1-0.4,0.2-0.6,0.3s-0.4,0.1-0.6,0.1c-0.5,0-0.9-0.1-1.2-0.2c-0.4-0.2-0.7-0.4-1-0.7
		c-0.3-0.3-0.5-0.8-0.7-1.3s-0.2-1.1-0.2-1.9c0-0.8,0.1-1.5,0.3-2c0.2-0.5,0.4-1,0.8-1.3c0.3-0.3,0.6-0.5,1-0.7s0.7-0.2,1-0.2
		c0.3,0,0.5,0,0.8,0.1c0.3,0.1,0.5,0.2,0.7,0.3c0.2,0.1,0.4,0.3,0.6,0.5c0.2,0.2,0.3,0.4,0.4,0.7l-0.9,0.4
		C6.2,457.9,6.2,457.9,6.2,457.8z"/>
	<path d="M8.7,458.8c0.5-0.6,1.2-0.8,2.1-0.8c0.7,0,1.3,0.2,1.7,0.6c0.4,0.4,0.6,1,0.6,1.8v3.7h-0.9v-0.7c-0.6,0.5-1.3,0.8-2.1,0.8
		c-0.3,0-0.6,0-0.8-0.1c-0.2-0.1-0.5-0.2-0.6-0.4c-0.2-0.2-0.3-0.3-0.4-0.5s-0.1-0.4-0.1-0.6c0-0.6,0.3-1.1,0.8-1.4
		c0.5-0.3,1.3-0.5,2.2-0.6h1.1v-0.2c0-0.6-0.1-1-0.4-1.2c-0.2-0.2-0.6-0.4-1.2-0.4c-0.6,0-1.2,0.2-1.6,0.7L8.7,458.8z M12.3,461.3
		h-0.2c-0.1,0-0.2,0-0.3,0s-0.2,0-0.3,0c-0.5,0-0.9,0-1.2,0.1c-0.3,0.1-0.5,0.2-0.7,0.3c-0.2,0.1-0.3,0.2-0.4,0.4s-0.1,0.3-0.1,0.5
		c0,0.3,0.1,0.5,0.4,0.7s0.5,0.3,0.9,0.3c0.3,0,0.5,0,0.7-0.1c0.2-0.1,0.4-0.2,0.5-0.3c0.2-0.1,0.3-0.2,0.4-0.4
		c0.1-0.1,0.2-0.2,0.2-0.3c0.1-0.2,0.1-0.4,0.1-0.7V461.3z"/>
	<path d="M14.8,458.1h0.9v3.3c0,0.4,0,0.7,0.1,1s0.2,0.5,0.3,0.6c0.1,0.2,0.3,0.3,0.4,0.3c0.2,0.1,0.3,0.1,0.5,0.1
		c0.2,0,0.4-0.1,0.6-0.2c0.2-0.1,0.4-0.2,0.5-0.4c0.2-0.2,0.3-0.4,0.4-0.6c0.1-0.3,0.1-0.6,0.1-0.9v-3.3h0.9v5.4
		c0,0.2,0,0.4,0.1,0.5h-1c0-0.1,0-0.1,0-0.2c0-0.1,0-0.2,0-0.3l0-0.5c-0.2,0.3-0.5,0.6-0.8,0.8c-0.3,0.2-0.7,0.3-1.1,0.3
		c-0.3,0-0.6-0.1-0.8-0.2c-0.2-0.1-0.5-0.3-0.7-0.5c-0.2-0.2-0.3-0.5-0.4-0.9c-0.1-0.3-0.1-0.8-0.1-1.2L14.8,458.1z"/>
	<path d="M26.1,458.9l-0.5,0.8c0,0-0.1,0-0.1-0.1s0-0.1,0-0.1c-0.2-0.2-0.4-0.4-0.7-0.6c-0.3-0.2-0.6-0.3-1-0.3
		c-0.2,0-0.3,0-0.5,0.1s-0.3,0.1-0.4,0.2c-0.1,0.1-0.2,0.2-0.3,0.3s-0.1,0.2-0.1,0.4c0,0.1,0,0.2,0.1,0.3c0.1,0.1,0.1,0.2,0.2,0.2
		c0.1,0.1,0.3,0.2,0.5,0.2c0.2,0.1,0.5,0.2,0.8,0.3c0.8,0.2,1.3,0.4,1.6,0.7c0.3,0.3,0.5,0.6,0.5,1c0,0.3-0.1,0.5-0.2,0.7
		c-0.1,0.2-0.3,0.4-0.5,0.6c-0.2,0.2-0.5,0.3-0.8,0.4s-0.6,0.1-1,0.1c-1,0-1.8-0.3-2.5-0.9l0.5-0.9c0,0,0,0.1,0.1,0.1
		c0,0.1,0,0.1,0.1,0.2s0.1,0.2,0.3,0.3s0.4,0.2,0.6,0.3c0.1,0.1,0.3,0.1,0.4,0.1c0.2,0,0.3,0,0.5,0c0.2,0,0.4,0,0.5-0.1
		c0.2,0,0.3-0.1,0.5-0.2c0.1-0.1,0.3-0.2,0.3-0.3s0.1-0.3,0.1-0.4c0-0.2-0.1-0.4-0.3-0.6s-0.6-0.3-1.2-0.5c-0.4-0.1-0.6-0.2-0.8-0.2
		c-0.3-0.1-0.5-0.2-0.7-0.3c-0.1-0.1-0.3-0.2-0.4-0.3c-0.1-0.1-0.2-0.3-0.3-0.4c-0.1-0.2-0.1-0.3-0.1-0.5c0-0.2,0.1-0.4,0.2-0.6
		c0.1-0.2,0.3-0.4,0.5-0.5c0.2-0.1,0.4-0.3,0.7-0.4c0.3-0.1,0.6-0.1,0.9-0.1C24.8,458,25.5,458.3,26.1,458.9z"/>
	<path d="M30.4,458c0.3,0,0.6,0.1,0.9,0.2c0.3,0.1,0.6,0.3,0.8,0.5c0.2,0.2,0.4,0.5,0.5,0.9s0.2,0.8,0.2,1.3c0,0.1,0,0.1,0,0.2
		s0,0.1,0,0.2h-4.2c0,0.4,0.1,0.8,0.2,1c0.1,0.3,0.3,0.5,0.5,0.7c0.2,0.2,0.4,0.3,0.6,0.4c0.2,0.1,0.5,0.1,0.7,0.1
		c0.6,0,1.1-0.2,1.5-0.7l0.5,0.5c-0.5,0.6-1.2,0.9-2.1,0.9c-0.4,0-0.8-0.1-1.2-0.2c-0.4-0.1-0.7-0.3-0.9-0.6c-0.3-0.3-0.4-0.6-0.6-1
		c-0.1-0.4-0.2-0.8-0.2-1.3c0-0.5,0.1-0.9,0.2-1.3c0.1-0.4,0.3-0.7,0.6-1c0.2-0.3,0.5-0.5,0.9-0.6C29.6,458.1,30,458,30.4,458z
		 M28.6,460.5h3.3c0,0,0-0.1,0-0.1s0-0.1,0-0.1c0-0.2,0-0.4-0.1-0.6c-0.1-0.2-0.2-0.4-0.3-0.5c-0.1-0.1-0.3-0.3-0.5-0.3
		c-0.2-0.1-0.4-0.1-0.6-0.1c-0.4,0-0.8,0.1-1.1,0.4C28.9,459.4,28.6,459.9,28.6,460.5z"/>
	<path d="M43.3,458c0.4,0,0.7,0.1,1,0.2c0.3,0.1,0.6,0.3,0.9,0.6s0.4,0.6,0.6,1s0.2,0.8,0.2,1.3c0,0.5-0.1,0.9-0.2,1.3
		c-0.1,0.4-0.3,0.7-0.6,1c-0.2,0.3-0.5,0.5-0.9,0.6c-0.3,0.1-0.7,0.2-1.1,0.2c-0.4,0-0.7-0.1-1.1-0.2s-0.6-0.4-0.9-0.6
		c-0.3-0.3-0.5-0.6-0.6-1c-0.1-0.4-0.2-0.8-0.2-1.2s0.1-0.9,0.2-1.2c0.2-0.4,0.4-0.7,0.6-1c0.3-0.3,0.6-0.5,0.9-0.6
		C42.6,458.1,42.9,458,43.3,458z M45,461.1c0-0.4,0-0.7-0.1-1c-0.1-0.3-0.2-0.5-0.4-0.7s-0.4-0.4-0.6-0.5c-0.2-0.1-0.4-0.2-0.7-0.2
		c-0.2,0-0.5,0.1-0.7,0.2c-0.2,0.1-0.4,0.3-0.6,0.5c-0.2,0.2-0.3,0.4-0.4,0.7c-0.1,0.3-0.1,0.6-0.1,1c0,0.3,0,0.7,0.1,0.9
		c0.1,0.3,0.2,0.5,0.4,0.7c0.2,0.2,0.3,0.4,0.6,0.5c0.2,0.1,0.4,0.2,0.7,0.2s0.5,0,0.7-0.1c0.2-0.1,0.4-0.2,0.6-0.4
		c0.2-0.2,0.3-0.4,0.4-0.7C45,461.8,45,461.5,45,461.1z"/>
	<path d="M50.9,455.4c0.8,0,1.4,0.3,1.8,0.8l-0.4,0.9c-0.1,0-0.1,0-0.1-0.1s0-0.1,0-0.2c-0.1-0.2-0.3-0.4-0.6-0.5
		c-0.2-0.1-0.5-0.2-0.7-0.2c-0.2,0-0.4,0-0.6,0.1c-0.2,0.1-0.3,0.2-0.4,0.3s-0.2,0.3-0.3,0.6s-0.1,0.6-0.1,0.9v0.5h2v0.8h-2v4.8
		h-0.9v-4.8h-1.3v-0.8h1.3v-0.6c0-0.5,0.1-0.9,0.2-1.2c0.1-0.3,0.3-0.6,0.5-0.8c0.2-0.2,0.5-0.3,0.8-0.4S50.6,455.4,50.9,455.4z"/>
	<path d="M64.3,459v-3.6h1c0,0.1,0,0.1-0.1,0.2c0,0.1-0.1,0.1-0.1,0.2l0,7.7c0,0.2,0,0.4,0.1,0.5h-0.9c0-0.1-0.1-0.3-0.1-0.4v-0.5
		c-0.2,0.3-0.4,0.6-0.8,0.8c-0.3,0.2-0.7,0.3-1,0.3c-0.3,0-0.6-0.1-0.9-0.2s-0.5-0.3-0.8-0.6s-0.4-0.6-0.5-1
		c-0.1-0.4-0.2-0.9-0.2-1.4c0-0.5,0.1-1,0.2-1.4s0.3-0.7,0.6-0.9c0.2-0.2,0.5-0.4,0.8-0.5c0.3-0.1,0.6-0.2,0.9-0.2
		c0.4,0,0.8,0.1,1.1,0.3C63.9,458.4,64.2,458.7,64.3,459z M61.6,459.2c-0.4,0.3-0.6,0.9-0.6,1.7c0,0.7,0.1,1.3,0.4,1.8
		c0.3,0.5,0.7,0.7,1.2,0.7c0.1,0,0.3,0,0.4-0.1c0.1,0,0.3-0.1,0.4-0.2s0.2-0.2,0.3-0.3c0.1-0.1,0.2-0.3,0.2-0.4
		c0.1-0.3,0.1-0.7,0.1-1.3c0-0.3,0-0.6,0-0.8c0-0.2-0.1-0.4-0.1-0.6c-0.1-0.2-0.1-0.3-0.2-0.4c-0.1-0.1-0.2-0.2-0.3-0.3
		c-0.2-0.1-0.3-0.2-0.4-0.2s-0.3-0.1-0.4-0.1c-0.2,0-0.5,0-0.6,0.1C61.9,458.9,61.7,459,61.6,459.2z"/>
	<path d="M69.4,458c0.3,0,0.6,0.1,0.9,0.2c0.3,0.1,0.6,0.3,0.8,0.5c0.2,0.2,0.4,0.5,0.5,0.9s0.2,0.8,0.2,1.3c0,0.1,0,0.1,0,0.2
		s0,0.1,0,0.2h-4.2c0,0.4,0.1,0.8,0.2,1c0.1,0.3,0.3,0.5,0.5,0.7c0.2,0.2,0.4,0.3,0.6,0.4c0.2,0.1,0.5,0.1,0.7,0.1
		c0.6,0,1.1-0.2,1.5-0.7l0.5,0.5c-0.5,0.6-1.2,0.9-2.1,0.9c-0.4,0-0.8-0.1-1.2-0.2c-0.4-0.1-0.7-0.3-0.9-0.6c-0.3-0.3-0.4-0.6-0.6-1
		c-0.1-0.4-0.2-0.8-0.2-1.3c0-0.5,0.1-0.9,0.2-1.3c0.1-0.4,0.3-0.7,0.6-1c0.2-0.3,0.5-0.5,0.9-0.6C68.6,458.1,69,458,69.4,458z
		 M67.6,460.5h3.3c0,0,0-0.1,0-0.1s0-0.1,0-0.1c0-0.2,0-0.4-0.1-0.6c-0.1-0.2-0.2-0.4-0.3-0.5c-0.1-0.1-0.3-0.3-0.5-0.3
		c-0.2-0.1-0.4-0.1-0.6-0.1c-0.4,0-0.8,0.1-1.1,0.4C67.9,459.4,67.6,459.9,67.6,460.5z"/>
	<path d="M73.7,458.8c0.5-0.6,1.2-0.8,2.1-0.8c0.7,0,1.3,0.2,1.7,0.6c0.4,0.4,0.6,1,0.6,1.8v3.7h-0.9v-0.7c-0.6,0.5-1.3,0.8-2.1,0.8
		c-0.3,0-0.6,0-0.8-0.1c-0.2-0.1-0.5-0.2-0.6-0.4c-0.2-0.2-0.3-0.3-0.4-0.5s-0.1-0.4-0.1-0.6c0-0.6,0.3-1.1,0.8-1.4
		c0.5-0.3,1.3-0.5,2.2-0.6h1.1v-0.2c0-0.6-0.1-1-0.4-1.2c-0.2-0.2-0.6-0.4-1.2-0.4c-0.6,0-1.2,0.2-1.6,0.7L73.7,458.8z M77.3,461.3
		h-0.2c-0.1,0-0.2,0-0.3,0s-0.2,0-0.3,0c-0.5,0-0.9,0-1.2,0.1c-0.3,0.1-0.5,0.2-0.7,0.3c-0.2,0.1-0.3,0.2-0.4,0.4s-0.1,0.3-0.1,0.5
		c0,0.3,0.1,0.5,0.4,0.7s0.5,0.3,0.9,0.3c0.3,0,0.5,0,0.7-0.1c0.2-0.1,0.4-0.2,0.5-0.3c0.2-0.1,0.3-0.2,0.4-0.4
		c0.1-0.1,0.2-0.2,0.2-0.3c0.1-0.2,0.1-0.4,0.1-0.7V461.3z"/>
	<path d="M81.4,456.5l1-0.2c0,0.1,0,0.1,0,0.2c0,0.1,0,0.1,0,0.1l-0.2,1.4h1.9v0.8h-1.9c-0.1,0.8-0.1,1.5-0.1,2.2c0,0.4,0,0.8,0,1.1
		c0,0.3,0.1,0.5,0.1,0.7c0.1,0.2,0.2,0.3,0.3,0.4c0.1,0.1,0.3,0.1,0.6,0.1c0.4,0,0.8-0.2,1.3-0.5l0.3,0.7c-0.6,0.4-1.2,0.7-1.8,0.7
		c-0.6,0-1.1-0.2-1.4-0.6s-0.4-1-0.4-1.8c0-0.3,0-0.7,0-1.2c0-0.5,0.1-1.1,0.1-1.7h-1.4v-0.8h1.4L81.4,456.5z"/>
	<path d="M86.4,464.1v-8.6h1.1c0,0,0,0,0,0s0,0,0,0c0,0,0,0.1-0.1,0.1s-0.1,0.1-0.1,0.2v3.4c0.2-0.4,0.5-0.7,0.9-0.9
		s0.7-0.3,1.1-0.3c0.3,0,0.5,0,0.7,0.1c0.2,0.1,0.4,0.2,0.6,0.4c0.2,0.2,0.3,0.5,0.4,0.8c0.1,0.3,0.1,0.7,0.1,1.1v3.6h-0.9v-3.6
		c0-0.6-0.1-1.1-0.3-1.3c-0.2-0.3-0.5-0.4-0.8-0.4c-0.2,0-0.4,0-0.6,0.1c-0.2,0.1-0.4,0.2-0.6,0.4s-0.3,0.3-0.4,0.6
		c-0.1,0.2-0.1,0.5-0.1,0.8v3.4H86.4z"/>
	<path d="M95.6,458.8c0.2,0.2,0.2,0.3,0.2,0.5c0,0.2-0.1,0.4-0.2,0.5c-0.2,0.1-0.3,0.2-0.5,0.2c-0.2,0-0.4-0.1-0.5-0.2
		c-0.2-0.1-0.2-0.3-0.2-0.5c0-0.2,0.1-0.4,0.2-0.5c0.2-0.1,0.3-0.2,0.5-0.2C95.3,458.6,95.5,458.6,95.6,458.8z M95.6,462.9
		c0.2,0.2,0.2,0.3,0.2,0.5c0,0.2-0.1,0.4-0.2,0.5c-0.2,0.1-0.3,0.2-0.6,0.2c-0.2,0-0.4-0.1-0.5-0.2s-0.2-0.3-0.2-0.5
		s0.1-0.4,0.2-0.5c0.2-0.1,0.3-0.2,0.5-0.2C95.3,462.7,95.5,462.8,95.6,462.9z"/>
	<path d="M105.7,456h1.9c0.7,0,1.2,0.1,1.6,0.3c0.4,0.2,0.7,0.5,1,0.8s0.5,0.8,0.6,1.3c0.1,0.5,0.2,1.1,0.2,1.7
		c0,0.6-0.1,1.2-0.2,1.7c-0.2,0.5-0.4,0.9-0.6,1.3c-0.3,0.4-0.6,0.6-1.1,0.8c-0.4,0.2-1,0.3-1.6,0.3h-1.7V456z M106.5,456.7v6.6h0.8
		c0.9,0,1.6-0.3,2-0.8c0.4-0.6,0.6-1.4,0.6-2.4c0-1.1-0.2-1.9-0.6-2.5c-0.4-0.6-1-0.9-1.9-0.9H106.5z"/>
	<path d="M112.7,458.8c0.5-0.6,1.2-0.8,2.1-0.8c0.7,0,1.3,0.2,1.7,0.6c0.4,0.4,0.6,1,0.6,1.8v3.7h-0.9v-0.7
		c-0.6,0.5-1.3,0.8-2.1,0.8c-0.3,0-0.6,0-0.8-0.1c-0.2-0.1-0.5-0.2-0.6-0.4c-0.2-0.2-0.3-0.3-0.4-0.5s-0.1-0.4-0.1-0.6
		c0-0.6,0.3-1.1,0.8-1.4c0.5-0.3,1.3-0.5,2.2-0.6h1.1v-0.2c0-0.6-0.1-1-0.4-1.2c-0.2-0.2-0.6-0.4-1.2-0.4c-0.6,0-1.2,0.2-1.6,0.7
		L112.7,458.8z M116.3,461.3h-0.2c-0.1,0-0.2,0-0.3,0s-0.2,0-0.3,0c-0.5,0-0.9,0-1.2,0.1c-0.3,0.1-0.5,0.2-0.7,0.3
		c-0.2,0.1-0.3,0.2-0.4,0.4s-0.1,0.3-0.1,0.5c0,0.3,0.1,0.5,0.4,0.7s0.5,0.3,0.9,0.3c0.3,0,0.5,0,0.7-0.1c0.2-0.1,0.4-0.2,0.5-0.3
		c0.2-0.1,0.3-0.2,0.4-0.4c0.1-0.1,0.2-0.2,0.2-0.3c0.1-0.2,0.1-0.4,0.1-0.7V461.3z"/>
	<path d="M118.9,464.1v-5.9h0.9v1.1c0.2-0.4,0.5-0.7,0.9-0.9s0.7-0.3,1.1-0.3c0.3,0,0.5,0,0.7,0.1c0.2,0.1,0.4,0.2,0.6,0.4
		c0.2,0.2,0.3,0.5,0.4,0.8c0.1,0.3,0.1,0.7,0.1,1.1v3.6h-0.9v-3.6c0-0.6-0.1-1.1-0.3-1.3c-0.2-0.3-0.5-0.4-0.8-0.4
		c-0.2,0-0.4,0-0.6,0.1c-0.2,0.1-0.4,0.2-0.6,0.4c-0.2,0.2-0.3,0.4-0.4,0.6s-0.2,0.5-0.2,0.8v3.4H118.9z"/>
	<path d="M128.9,458.5c0.4-0.4,0.9-0.5,1.5-0.5h0.2l0.1,0.8c-0.1,0-0.1,0-0.2,0c-0.1,0-0.1,0-0.2,0c-0.4,0-0.7,0.1-1,0.3
		c0.2,0.3,0.3,0.6,0.3,1c0,0.3-0.1,0.5-0.2,0.8c-0.1,0.2-0.3,0.5-0.5,0.7c-0.2,0.2-0.4,0.3-0.7,0.4c-0.3,0.1-0.5,0.2-0.8,0.2
		c-0.2,0-0.5,0-0.8-0.1c-0.3,0.3-0.4,0.5-0.4,0.7c0,0.1,0.1,0.3,0.3,0.3c0.2,0.1,0.4,0.1,0.7,0.1c0.2,0,0.3,0,0.5,0
		c0.2,0,0.3,0,0.5,0c0.4,0,0.7,0,1,0.1s0.5,0.2,0.7,0.3c0.2,0.1,0.3,0.3,0.4,0.5c0.1,0.2,0.1,0.4,0.1,0.6c0,0.2-0.1,0.5-0.2,0.7
		c-0.1,0.2-0.3,0.4-0.5,0.6c-0.2,0.2-0.5,0.3-0.9,0.4c-0.3,0.1-0.7,0.1-1.2,0.1c-0.5,0-0.9,0-1.2-0.1s-0.6-0.2-0.8-0.3
		s-0.4-0.3-0.5-0.4c-0.1-0.2-0.2-0.3-0.2-0.5c0-0.5,0.3-0.9,1-1.3c-0.3-0.2-0.5-0.4-0.5-0.8c0-0.4,0.2-0.7,0.7-1.1
		c-0.3-0.2-0.5-0.4-0.6-0.7c-0.2-0.3-0.2-0.6-0.2-0.9c0-0.3,0.1-0.6,0.2-0.8s0.3-0.5,0.5-0.7c0.2-0.2,0.4-0.3,0.7-0.4
		c0.3-0.1,0.5-0.2,0.8-0.2C128,457.9,128.5,458.1,128.9,458.5z M126.6,463.8c-0.5,0.3-0.7,0.6-0.7,0.9c0,0.2,0,0.3,0.1,0.4
		s0.2,0.2,0.4,0.3c0.2,0.1,0.4,0.1,0.6,0.2s0.5,0.1,0.7,0.1c0.5,0,1-0.1,1.3-0.3c0.3-0.2,0.5-0.4,0.5-0.8c0-0.2-0.1-0.4-0.3-0.5
		c-0.2-0.1-0.5-0.2-0.8-0.2c0,0-0.1,0-0.1,0s-0.1,0-0.1,0c-0.3,0-0.6,0-0.9,0C127,463.8,126.8,463.8,126.6,463.8z M126.5,459.1
		c-0.1,0.1-0.2,0.3-0.3,0.4s-0.1,0.3-0.1,0.5c0,0.2,0,0.3,0.1,0.5c0.1,0.2,0.2,0.3,0.3,0.4c0.1,0.1,0.3,0.2,0.4,0.3
		c0.2,0.1,0.3,0.1,0.5,0.1c0.2,0,0.4,0,0.5-0.1c0.2-0.1,0.3-0.2,0.4-0.3c0.1-0.1,0.2-0.3,0.3-0.4c0.1-0.2,0.1-0.3,0.1-0.5
		c0-0.2,0-0.3-0.1-0.5c-0.1-0.2-0.2-0.3-0.3-0.4c-0.1-0.1-0.3-0.2-0.4-0.3c-0.2-0.1-0.3-0.1-0.5-0.1
		C127.1,458.7,126.8,458.8,126.5,459.1z"/>
	<path d="M134.4,458c0.3,0,0.6,0.1,0.9,0.2c0.3,0.1,0.6,0.3,0.8,0.5c0.2,0.2,0.4,0.5,0.5,0.9s0.2,0.8,0.2,1.3c0,0.1,0,0.1,0,0.2
		s0,0.1,0,0.2h-4.2c0,0.4,0.1,0.8,0.2,1c0.1,0.3,0.3,0.5,0.5,0.7c0.2,0.2,0.4,0.3,0.6,0.4c0.2,0.1,0.5,0.1,0.7,0.1
		c0.6,0,1.1-0.2,1.5-0.7l0.5,0.5c-0.5,0.6-1.2,0.9-2.1,0.9c-0.4,0-0.8-0.1-1.2-0.2c-0.4-0.1-0.7-0.3-0.9-0.6c-0.3-0.3-0.4-0.6-0.6-1
		c-0.1-0.4-0.2-0.8-0.2-1.3c0-0.5,0.1-0.9,0.2-1.3c0.1-0.4,0.3-0.7,0.6-1c0.2-0.3,0.5-0.5,0.9-0.6C133.6,458.1,134,458,134.4,458z
		 M132.6,460.5h3.3c0,0,0-0.1,0-0.1s0-0.1,0-0.1c0-0.2,0-0.4-0.1-0.6c-0.1-0.2-0.2-0.4-0.3-0.5c-0.1-0.1-0.3-0.3-0.5-0.3
		c-0.2-0.1-0.4-0.1-0.6-0.1c-0.4,0-0.8,0.1-1.1,0.4C132.9,459.4,132.6,459.9,132.6,460.5z"/>
	<path d="M138.8,458.1h1l0,1.1c0.2-0.4,0.5-0.7,0.9-1c0.4-0.2,0.8-0.3,1.3-0.3c0.6,0,1.2,0.2,1.6,0.6l-0.4,0.9
		c-0.1-0.1-0.2-0.2-0.3-0.3c-0.1-0.1-0.2-0.2-0.3-0.2c-0.1-0.1-0.2-0.1-0.3-0.1c-0.1,0-0.2-0.1-0.4-0.1c-0.3,0-0.6,0.1-0.8,0.2
		c-0.3,0.1-0.5,0.3-0.7,0.5s-0.3,0.5-0.5,0.8c-0.1,0.3-0.2,0.6-0.2,0.9v2.9h-0.9V458.1z"/>
	<path d="M147.3,458c0.4,0,0.7,0.1,1,0.2c0.3,0.1,0.6,0.3,0.9,0.6s0.4,0.6,0.6,1s0.2,0.8,0.2,1.3c0,0.5-0.1,0.9-0.2,1.3
		c-0.1,0.4-0.3,0.7-0.6,1c-0.2,0.3-0.5,0.5-0.9,0.6c-0.3,0.1-0.7,0.2-1.1,0.2c-0.4,0-0.7-0.1-1.1-0.2s-0.6-0.4-0.9-0.6
		c-0.3-0.3-0.5-0.6-0.6-1c-0.1-0.4-0.2-0.8-0.2-1.2s0.1-0.9,0.2-1.2c0.2-0.4,0.4-0.7,0.6-1c0.3-0.3,0.6-0.5,0.9-0.6
		C146.6,458.1,146.9,458,147.3,458z M149,461.1c0-0.4,0-0.7-0.1-1c-0.1-0.3-0.2-0.5-0.4-0.7s-0.4-0.4-0.6-0.5
		c-0.2-0.1-0.4-0.2-0.7-0.2c-0.2,0-0.5,0.1-0.7,0.2c-0.2,0.1-0.4,0.3-0.6,0.5c-0.2,0.2-0.3,0.4-0.4,0.7c-0.1,0.3-0.1,0.6-0.1,1
		c0,0.3,0,0.7,0.1,0.9c0.1,0.3,0.2,0.5,0.4,0.7c0.2,0.2,0.3,0.4,0.6,0.5c0.2,0.1,0.4,0.2,0.7,0.2s0.5,0,0.7-0.1
		c0.2-0.1,0.4-0.2,0.6-0.4c0.2-0.2,0.3-0.4,0.4-0.7C149,461.8,149,461.5,149,461.1z"/>
	<path d="M151.3,458.1h0.9v3.3c0,0.4,0,0.7,0.1,1s0.2,0.5,0.3,0.6c0.1,0.2,0.3,0.3,0.4,0.3c0.2,0.1,0.3,0.1,0.5,0.1
		c0.2,0,0.4-0.1,0.6-0.2c0.2-0.1,0.4-0.2,0.5-0.4c0.2-0.2,0.3-0.4,0.4-0.6c0.1-0.3,0.1-0.6,0.1-0.9v-3.3h0.9v5.4
		c0,0.2,0,0.4,0.1,0.5h-1c0-0.1,0-0.1,0-0.2c0-0.1,0-0.2,0-0.3l0-0.5c-0.2,0.3-0.5,0.6-0.8,0.8c-0.3,0.2-0.7,0.3-1.1,0.3
		c-0.3,0-0.6-0.1-0.8-0.2c-0.2-0.1-0.5-0.3-0.7-0.5c-0.2-0.2-0.3-0.5-0.4-0.9c-0.1-0.3-0.1-0.8-0.1-1.2L151.3,458.1z"/>
	<path d="M162.6,458.9l-0.5,0.8c0,0-0.1,0-0.1-0.1s0-0.1,0-0.1c-0.2-0.2-0.4-0.4-0.7-0.6c-0.3-0.2-0.6-0.3-1-0.3
		c-0.2,0-0.3,0-0.5,0.1s-0.3,0.1-0.4,0.2c-0.1,0.1-0.2,0.2-0.3,0.3s-0.1,0.2-0.1,0.4c0,0.1,0,0.2,0.1,0.3c0.1,0.1,0.1,0.2,0.2,0.2
		c0.1,0.1,0.3,0.2,0.5,0.2c0.2,0.1,0.5,0.2,0.8,0.3c0.8,0.2,1.3,0.4,1.6,0.7c0.3,0.3,0.5,0.6,0.5,1c0,0.3-0.1,0.5-0.2,0.7
		c-0.1,0.2-0.3,0.4-0.5,0.6c-0.2,0.2-0.5,0.3-0.8,0.4s-0.6,0.1-1,0.1c-1,0-1.8-0.3-2.5-0.9l0.5-0.9c0,0,0,0.1,0.1,0.1
		c0,0.1,0,0.1,0.1,0.2s0.1,0.2,0.3,0.3s0.4,0.2,0.6,0.3c0.1,0.1,0.3,0.1,0.4,0.1c0.2,0,0.3,0,0.5,0c0.2,0,0.4,0,0.5-0.1
		c0.2,0,0.3-0.1,0.5-0.2c0.1-0.1,0.3-0.2,0.3-0.3s0.1-0.3,0.1-0.4c0-0.2-0.1-0.4-0.3-0.6s-0.6-0.3-1.2-0.5c-0.4-0.1-0.6-0.2-0.8-0.2
		c-0.3-0.1-0.5-0.2-0.7-0.3c-0.1-0.1-0.3-0.2-0.4-0.3c-0.1-0.1-0.2-0.3-0.3-0.4c-0.1-0.2-0.1-0.3-0.1-0.5c0-0.2,0.1-0.4,0.2-0.6
		c0.1-0.2,0.3-0.4,0.5-0.5c0.2-0.1,0.4-0.3,0.7-0.4c0.3-0.1,0.6-0.1,0.9-0.1C161.3,458,162,458.3,162.6,458.9z"/>
	<path d="M172.4,456.5l1-0.2c0,0.1,0,0.1,0,0.2c0,0.1,0,0.1,0,0.1l-0.2,1.4h1.9v0.8h-1.9c-0.1,0.8-0.1,1.5-0.1,2.2
		c0,0.4,0,0.8,0,1.1c0,0.3,0.1,0.5,0.1,0.7c0.1,0.2,0.2,0.3,0.3,0.4c0.1,0.1,0.3,0.1,0.6,0.1c0.4,0,0.8-0.2,1.3-0.5l0.3,0.7
		c-0.6,0.4-1.2,0.7-1.8,0.7c-0.6,0-1.1-0.2-1.4-0.6s-0.4-1-0.4-1.8c0-0.3,0-0.7,0-1.2c0-0.5,0.1-1.1,0.1-1.7h-1.4v-0.8h1.4
		L172.4,456.5z"/>
	<path d="M177.7,458.8c0.5-0.6,1.2-0.8,2.1-0.8c0.7,0,1.3,0.2,1.7,0.6c0.4,0.4,0.6,1,0.6,1.8v3.7h-0.9v-0.7
		c-0.6,0.5-1.3,0.8-2.1,0.8c-0.3,0-0.6,0-0.8-0.1c-0.2-0.1-0.5-0.2-0.6-0.4c-0.2-0.2-0.3-0.3-0.4-0.5s-0.1-0.4-0.1-0.6
		c0-0.6,0.3-1.1,0.8-1.4c0.5-0.3,1.3-0.5,2.2-0.6h1.1v-0.2c0-0.6-0.1-1-0.4-1.2c-0.2-0.2-0.6-0.4-1.2-0.4c-0.6,0-1.2,0.2-1.6,0.7
		L177.7,458.8z M181.3,461.3h-0.2c-0.1,0-0.2,0-0.3,0s-0.2,0-0.3,0c-0.5,0-0.9,0-1.2,0.1c-0.3,0.1-0.5,0.2-0.7,0.3
		c-0.2,0.1-0.3,0.2-0.4,0.4s-0.1,0.3-0.1,0.5c0,0.3,0.1,0.5,0.4,0.7s0.5,0.3,0.9,0.3c0.3,0,0.5,0,0.7-0.1c0.2-0.1,0.4-0.2,0.5-0.3
		c0.2-0.1,0.3-0.2,0.4-0.4c0.1-0.1,0.2-0.2,0.2-0.3c0.1-0.2,0.1-0.4,0.1-0.7V461.3z"/>
	<path d="M188.6,458.9l-0.5,0.8c0,0-0.1,0-0.1-0.1s0-0.1,0-0.1c-0.2-0.2-0.4-0.4-0.7-0.6c-0.3-0.2-0.6-0.3-1-0.3
		c-0.2,0-0.3,0-0.5,0.1s-0.3,0.1-0.4,0.2c-0.1,0.1-0.2,0.2-0.3,0.3s-0.1,0.2-0.1,0.4c0,0.1,0,0.2,0.1,0.3c0.1,0.1,0.1,0.2,0.2,0.2
		c0.1,0.1,0.3,0.2,0.5,0.2c0.2,0.1,0.5,0.2,0.8,0.3c0.8,0.2,1.3,0.4,1.6,0.7c0.3,0.3,0.5,0.6,0.5,1c0,0.3-0.1,0.5-0.2,0.7
		c-0.1,0.2-0.3,0.4-0.5,0.6c-0.2,0.2-0.5,0.3-0.8,0.4s-0.6,0.1-1,0.1c-1,0-1.8-0.3-2.5-0.9l0.5-0.9c0,0,0,0.1,0.1,0.1
		c0,0.1,0,0.1,0.1,0.2s0.1,0.2,0.3,0.3s0.4,0.2,0.6,0.3c0.1,0.1,0.3,0.1,0.4,0.1c0.2,0,0.3,0,0.5,0c0.2,0,0.4,0,0.5-0.1
		c0.2,0,0.3-0.1,0.5-0.2c0.1-0.1,0.3-0.2,0.3-0.3s0.1-0.3,0.1-0.4c0-0.2-0.1-0.4-0.3-0.6s-0.6-0.3-1.2-0.5c-0.4-0.1-0.6-0.2-0.8-0.2
		c-0.3-0.1-0.5-0.2-0.7-0.3c-0.1-0.1-0.3-0.2-0.4-0.3c-0.1-0.1-0.2-0.3-0.3-0.4c-0.1-0.2-0.1-0.3-0.1-0.5c0-0.2,0.1-0.4,0.2-0.6
		c0.1-0.2,0.3-0.4,0.5-0.5c0.2-0.1,0.4-0.3,0.7-0.4c0.3-0.1,0.6-0.1,0.9-0.1C187.3,458,188,458.3,188.6,458.9z"/>
	<path d="M190.3,455.4h1.1c0,0.1,0,0.1-0.1,0.2s-0.1,0.1-0.1,0.2v5.1l3-2.8c0.2,0,0.4,0.1,0.7,0.1h0.3l-2.5,2.4l2.9,3.5l-1.2,0.1
		l-2.4-3l-0.8,0.7v2.3h-0.9V455.4z"/>
</g>
<rect x="1.4" y="41.4" class="st0" width="500.3" height="333.6"/>
<g>
	<path d="M194,211.5v-5.9h0.9v1.1c0.2-0.4,0.5-0.7,0.9-0.9c0.4-0.2,0.7-0.3,1.1-0.3c0.3,0,0.5,0,0.7,0.1c0.2,0.1,0.4,0.2,0.6,0.4
		c0.2,0.2,0.3,0.5,0.4,0.8s0.1,0.7,0.1,1.1v3.6h-0.9v-3.6c0-0.6-0.1-1.1-0.3-1.3c-0.2-0.3-0.5-0.4-0.8-0.4c-0.2,0-0.4,0-0.6,0.1
		c-0.2,0.1-0.4,0.2-0.6,0.4c-0.2,0.2-0.3,0.4-0.4,0.6c-0.1,0.2-0.2,0.5-0.2,0.8v3.4H194z"/>
	<path d="M202.9,205.4c0.4,0,0.7,0.1,1,0.2c0.3,0.1,0.6,0.3,0.9,0.6s0.4,0.6,0.6,1s0.2,0.8,0.2,1.3c0,0.5-0.1,0.9-0.2,1.3
		s-0.3,0.7-0.6,1c-0.2,0.3-0.5,0.5-0.9,0.6c-0.3,0.1-0.7,0.2-1.1,0.2c-0.4,0-0.7-0.1-1.1-0.2c-0.3-0.2-0.6-0.4-0.9-0.6
		s-0.5-0.6-0.6-1c-0.1-0.4-0.2-0.8-0.2-1.2s0.1-0.9,0.2-1.2c0.2-0.4,0.4-0.7,0.6-1s0.6-0.5,0.9-0.6
		C202.2,205.5,202.5,205.4,202.9,205.4z M204.6,208.5c0-0.4,0-0.7-0.1-1c-0.1-0.3-0.2-0.5-0.4-0.7s-0.4-0.4-0.6-0.5
		c-0.2-0.1-0.4-0.2-0.7-0.2c-0.2,0-0.5,0.1-0.7,0.2s-0.4,0.3-0.6,0.5c-0.2,0.2-0.3,0.4-0.4,0.7s-0.1,0.6-0.1,1c0,0.3,0,0.7,0.1,0.9
		s0.2,0.5,0.4,0.7c0.2,0.2,0.3,0.4,0.6,0.5c0.2,0.1,0.4,0.2,0.7,0.2s0.5,0,0.7-0.1c0.2-0.1,0.4-0.2,0.6-0.4c0.2-0.2,0.3-0.4,0.4-0.7
		C204.6,209.2,204.6,208.9,204.6,208.5z"/>
	<path d="M213.8,206.2c0.5-0.6,1.2-0.8,2.1-0.8c0.7,0,1.3,0.2,1.7,0.6c0.4,0.4,0.6,1,0.6,1.8v3.7h-0.9v-0.6
		c-0.6,0.5-1.3,0.8-2.1,0.8c-0.3,0-0.6,0-0.8-0.1c-0.2-0.1-0.5-0.2-0.6-0.4c-0.2-0.2-0.3-0.3-0.4-0.5c-0.1-0.2-0.1-0.4-0.1-0.6
		c0-0.6,0.3-1.1,0.8-1.4c0.5-0.3,1.3-0.5,2.2-0.6h1.1v-0.2c0-0.6-0.1-1-0.4-1.2c-0.2-0.2-0.6-0.4-1.2-0.4c-0.6,0-1.2,0.2-1.6,0.7
		L213.8,206.2z M217.4,208.7h-0.2c-0.1,0-0.2,0-0.3,0s-0.2,0-0.3,0c-0.5,0-0.9,0-1.2,0.1c-0.3,0.1-0.5,0.2-0.7,0.3
		c-0.2,0.1-0.3,0.2-0.4,0.4s-0.1,0.3-0.1,0.5c0,0.3,0.1,0.5,0.4,0.7c0.2,0.2,0.5,0.3,0.9,0.3c0.3,0,0.5,0,0.7-0.1s0.4-0.2,0.5-0.3
		c0.2-0.1,0.3-0.2,0.4-0.4s0.2-0.2,0.2-0.3c0.1-0.2,0.1-0.4,0.1-0.7V208.7z"/>
	<path d="M219.7,205.9l-0.1-0.3h1.1c0,0.1,0,0.1,0,0.2c0,0,0,0.1,0,0.1c0,0,0,0,0,0l1.7,4.3l1-2.2c0.2-0.5,0.4-0.9,0.5-1.3
		c0.1-0.4,0.2-0.8,0.3-1.1h0.8c-0.2,0.7-0.5,1.6-0.9,2.6l-1.4,3.4H222L219.7,205.9z"/>
	<path d="M226.8,206.2c0.5-0.6,1.2-0.8,2.1-0.8c0.7,0,1.3,0.2,1.7,0.6c0.4,0.4,0.6,1,0.6,1.8v3.7h-0.9v-0.6
		c-0.6,0.5-1.3,0.8-2.1,0.8c-0.3,0-0.6,0-0.8-0.1c-0.2-0.1-0.5-0.2-0.6-0.4c-0.2-0.2-0.3-0.3-0.4-0.5c-0.1-0.2-0.1-0.4-0.1-0.6
		c0-0.6,0.3-1.1,0.8-1.4c0.5-0.3,1.3-0.5,2.2-0.6h1.1v-0.2c0-0.6-0.1-1-0.4-1.2c-0.2-0.2-0.6-0.4-1.2-0.4c-0.6,0-1.2,0.2-1.6,0.7
		L226.8,206.2z M230.4,208.7h-0.2c-0.1,0-0.2,0-0.3,0s-0.2,0-0.3,0c-0.5,0-0.9,0-1.2,0.1c-0.3,0.1-0.5,0.2-0.7,0.3
		c-0.2,0.1-0.3,0.2-0.4,0.4s-0.1,0.3-0.1,0.5c0,0.3,0.1,0.5,0.4,0.7c0.2,0.2,0.5,0.3,0.9,0.3c0.3,0,0.5,0,0.7-0.1s0.4-0.2,0.5-0.3
		c0.2-0.1,0.3-0.2,0.4-0.4s0.2-0.2,0.2-0.3c0.1-0.2,0.1-0.4,0.1-0.7V208.7z"/>
	<path d="M233.5,205.5h2.4v5.2h1.4v0.8h-3.8v-0.8h1.5v-4.4h-1.4V205.5z M234.9,203.2c0.1-0.1,0.3-0.2,0.5-0.2c0.2,0,0.3,0.1,0.5,0.2
		c0.1,0.1,0.2,0.3,0.2,0.5s-0.1,0.3-0.2,0.5c-0.1,0.1-0.3,0.2-0.5,0.2c-0.2,0-0.3-0.1-0.5-0.2c-0.1-0.1-0.2-0.3-0.2-0.5
		C234.7,203.4,234.8,203.3,234.9,203.2z"/>
	<path d="M239.7,202.8h2.6v7.9h1.7v0.8h-4.4v-0.8h1.8v-7.1h-1.7V202.8z"/>
	<path d="M246.3,206.2c0.5-0.6,1.2-0.8,2.1-0.8c0.7,0,1.3,0.2,1.7,0.6c0.4,0.4,0.6,1,0.6,1.8v3.7h-0.9v-0.6
		c-0.6,0.5-1.3,0.8-2.1,0.8c-0.3,0-0.6,0-0.8-0.1c-0.2-0.1-0.5-0.2-0.6-0.4c-0.2-0.2-0.3-0.3-0.4-0.5c-0.1-0.2-0.1-0.4-0.1-0.6
		c0-0.6,0.3-1.1,0.8-1.4c0.5-0.3,1.3-0.5,2.2-0.6h1.1v-0.2c0-0.6-0.1-1-0.4-1.2c-0.2-0.2-0.6-0.4-1.2-0.4c-0.6,0-1.2,0.2-1.6,0.7
		L246.3,206.2z M249.9,208.7h-0.2c-0.1,0-0.2,0-0.3,0s-0.2,0-0.3,0c-0.5,0-0.9,0-1.2,0.1c-0.3,0.1-0.5,0.2-0.7,0.3
		c-0.2,0.1-0.3,0.2-0.4,0.4s-0.1,0.3-0.1,0.5c0,0.3,0.1,0.5,0.4,0.7c0.2,0.2,0.5,0.3,0.9,0.3c0.3,0,0.5,0,0.7-0.1s0.4-0.2,0.5-0.3
		c0.2-0.1,0.3-0.2,0.4-0.4s0.2-0.2,0.2-0.3c0.1-0.2,0.1-0.4,0.1-0.7V208.7z"/>
	<path d="M252.4,202.8h1.1v0c0,0,0,0.1-0.1,0.1s-0.1,0.1-0.1,0.1v3.3c0.2-0.3,0.4-0.6,0.8-0.8c0.3-0.2,0.7-0.3,1-0.3
		c0.3,0,0.6,0.1,0.9,0.2c0.3,0.1,0.6,0.3,0.8,0.6c0.2,0.3,0.4,0.6,0.5,1c0.1,0.4,0.2,0.8,0.2,1.3c0,0.5-0.1,1-0.2,1.4
		s-0.3,0.7-0.6,1c-0.2,0.3-0.5,0.5-0.8,0.6c-0.3,0.1-0.6,0.2-0.9,0.2c-0.4,0-0.7-0.1-1-0.2c-0.3-0.2-0.6-0.4-0.8-0.7l-0.3,0.8h-0.6
		V202.8z M254,210.6c0.2,0.1,0.3,0.1,0.4,0.2c0.1,0,0.3,0,0.4,0c0.2,0,0.4,0,0.6-0.1c0.2-0.1,0.4-0.2,0.6-0.3
		c0.2-0.2,0.3-0.4,0.4-0.7c0.1-0.3,0.2-0.6,0.2-1c0-0.8-0.2-1.4-0.5-1.8c-0.3-0.4-0.8-0.6-1.4-0.6c-0.2,0-0.5,0.1-0.7,0.2
		c-0.2,0.2-0.4,0.4-0.5,0.6c-0.1,0.3-0.2,0.7-0.2,1.3c0,0.4,0,0.7,0,0.9s0.1,0.5,0.1,0.6c0.1,0.2,0.1,0.3,0.2,0.4
		S253.8,210.5,254,210.6z"/>
	<path d="M259.2,202.8h2.6v7.9h1.7v0.8h-4.4v-0.8h1.8v-7.1h-1.7V202.8z"/>
	<path d="M267.9,205.4c0.3,0,0.6,0.1,0.9,0.2c0.3,0.1,0.6,0.3,0.8,0.5c0.2,0.2,0.4,0.5,0.5,0.9c0.1,0.4,0.2,0.8,0.2,1.3
		c0,0.1,0,0.1,0,0.2c0,0.1,0,0.1,0,0.2h-4.2c0,0.4,0.1,0.8,0.2,1c0.1,0.3,0.3,0.5,0.5,0.7s0.4,0.3,0.6,0.4c0.2,0.1,0.5,0.1,0.7,0.1
		c0.6,0,1.1-0.2,1.5-0.7l0.5,0.5c-0.5,0.6-1.2,0.9-2.1,0.9c-0.4,0-0.8-0.1-1.2-0.2c-0.4-0.1-0.7-0.3-0.9-0.6c-0.3-0.3-0.4-0.6-0.6-1
		s-0.2-0.8-0.2-1.3c0-0.5,0.1-0.9,0.2-1.3c0.1-0.4,0.3-0.7,0.6-1c0.2-0.3,0.5-0.5,0.9-0.6S267.6,205.4,267.9,205.4z M266.2,207.9
		h3.3c0,0,0-0.1,0-0.1c0,0,0-0.1,0-0.1c0-0.2,0-0.4-0.1-0.6c-0.1-0.2-0.2-0.4-0.3-0.5c-0.1-0.1-0.3-0.3-0.5-0.3s-0.4-0.1-0.6-0.1
		c-0.4,0-0.8,0.1-1.1,0.4C266.4,206.8,266.2,207.3,266.2,207.9z"/>
	<path d="M278.4,205.5h0.9v0.9c0.2-0.3,0.5-0.6,0.8-0.8c0.3-0.2,0.7-0.3,1-0.3c0.3,0,0.6,0.1,0.9,0.2s0.6,0.3,0.8,0.6
		s0.4,0.6,0.5,0.9c0.1,0.4,0.2,0.8,0.2,1.4s-0.1,1-0.2,1.4c-0.1,0.4-0.3,0.7-0.6,1c-0.2,0.3-0.5,0.5-0.8,0.6s-0.6,0.2-0.9,0.2
		c-0.4,0-0.7-0.1-1-0.2s-0.6-0.4-0.8-0.7v3h-0.9V205.5z M279.3,209c0,0.6,0.2,1.1,0.4,1.4s0.6,0.4,1,0.4c0.2,0,0.4,0,0.7-0.1
		c0.2-0.1,0.4-0.2,0.6-0.4c0.2-0.2,0.3-0.4,0.4-0.7s0.2-0.6,0.2-1c0-0.8-0.2-1.3-0.5-1.8s-0.8-0.6-1.3-0.7c-0.2,0-0.4,0-0.5,0.1
		c-0.2,0.1-0.3,0.2-0.5,0.3c-0.1,0.1-0.3,0.3-0.4,0.6s-0.1,0.5-0.1,0.9V209z"/>
	<path d="M285,211.5v-8.6h1.1c0,0,0,0,0,0c0,0,0,0,0,0c0,0,0,0.1-0.1,0.1c0,0-0.1,0.1-0.1,0.2v3.4c0.2-0.4,0.5-0.7,0.9-0.9
		c0.4-0.2,0.7-0.3,1.1-0.3c0.3,0,0.5,0,0.7,0.1c0.2,0.1,0.4,0.2,0.6,0.4c0.2,0.2,0.3,0.5,0.4,0.8s0.1,0.7,0.1,1.1v3.6h-0.9v-3.6
		c0-0.6-0.1-1.1-0.3-1.3c-0.2-0.3-0.5-0.4-0.8-0.4c-0.2,0-0.4,0-0.6,0.1c-0.2,0.1-0.4,0.2-0.6,0.4s-0.3,0.3-0.4,0.6
		c-0.1,0.2-0.1,0.5-0.1,0.8v3.4H285z"/>
	<path d="M293.9,205.4c0.4,0,0.7,0.1,1,0.2c0.3,0.1,0.6,0.3,0.9,0.6c0.2,0.3,0.4,0.6,0.6,1c0.1,0.4,0.2,0.8,0.2,1.3
		c0,0.5-0.1,0.9-0.2,1.3s-0.3,0.7-0.6,1c-0.2,0.3-0.5,0.5-0.9,0.6s-0.7,0.2-1.1,0.2c-0.4,0-0.7-0.1-1.1-0.2
		c-0.3-0.2-0.6-0.4-0.9-0.6c-0.3-0.3-0.5-0.6-0.6-1c-0.1-0.4-0.2-0.8-0.2-1.2s0.1-0.9,0.2-1.2s0.4-0.7,0.6-1s0.6-0.5,0.9-0.6
		C293.2,205.5,293.5,205.4,293.9,205.4z M295.6,208.5c0-0.4,0-0.7-0.1-1c-0.1-0.3-0.2-0.5-0.4-0.7c-0.2-0.2-0.4-0.4-0.6-0.5
		c-0.2-0.1-0.4-0.2-0.7-0.2s-0.5,0.1-0.7,0.2c-0.2,0.1-0.4,0.3-0.6,0.5s-0.3,0.4-0.4,0.7c-0.1,0.3-0.1,0.6-0.1,1
		c0,0.3,0,0.7,0.1,0.9c0.1,0.3,0.2,0.5,0.4,0.7s0.3,0.4,0.6,0.5s0.4,0.2,0.7,0.2c0.2,0,0.5,0,0.7-0.1c0.2-0.1,0.4-0.2,0.6-0.4
		c0.2-0.2,0.3-0.4,0.4-0.7S295.6,208.9,295.6,208.5z"/>
	<path d="M299.5,204l1-0.2c0,0.1,0,0.1,0,0.2c0,0.1,0,0.1,0,0.1l-0.2,1.4h2v0.8h-2c-0.1,0.8-0.1,1.5-0.1,2.2c0,0.4,0,0.8,0,1.1
		s0.1,0.5,0.1,0.7c0.1,0.2,0.2,0.3,0.3,0.4c0.1,0.1,0.3,0.1,0.6,0.1c0.4,0,0.8-0.2,1.3-0.5l0.3,0.7c-0.6,0.4-1.2,0.7-1.8,0.7
		c-0.6,0-1.1-0.2-1.4-0.6s-0.4-1-0.4-1.8c0-0.3,0-0.7,0-1.2c0-0.5,0.1-1.1,0.1-1.7H298v-0.8h1.4L299.5,204z"/>
	<path d="M306.9,205.4c0.4,0,0.7,0.1,1,0.2c0.3,0.1,0.6,0.3,0.9,0.6c0.2,0.3,0.4,0.6,0.6,1c0.1,0.4,0.2,0.8,0.2,1.3
		c0,0.5-0.1,0.9-0.2,1.3s-0.3,0.7-0.6,1c-0.2,0.3-0.5,0.5-0.9,0.6s-0.7,0.2-1.1,0.2c-0.4,0-0.7-0.1-1.1-0.2
		c-0.3-0.2-0.6-0.4-0.9-0.6c-0.3-0.3-0.5-0.6-0.6-1c-0.1-0.4-0.2-0.8-0.2-1.2s0.1-0.9,0.2-1.2s0.4-0.7,0.6-1s0.6-0.5,0.9-0.6
		C306.2,205.5,306.5,205.4,306.9,205.4z M308.6,208.5c0-0.4,0-0.7-0.1-1c-0.1-0.3-0.2-0.5-0.4-0.7c-0.2-0.2-0.4-0.4-0.6-0.5
		c-0.2-0.1-0.4-0.2-0.7-0.2s-0.5,0.1-0.7,0.2c-0.2,0.1-0.4,0.3-0.6,0.5s-0.3,0.4-0.4,0.7c-0.1,0.3-0.1,0.6-0.1,1
		c0,0.3,0,0.7,0.1,0.9c0.1,0.3,0.2,0.5,0.4,0.7s0.3,0.4,0.6,0.5s0.4,0.2,0.7,0.2c0.2,0,0.5,0,0.7-0.1c0.2-0.1,0.4-0.2,0.6-0.4
		c0.2-0.2,0.3-0.4,0.4-0.7S308.6,208.9,308.6,208.5z"/>
</g>
<g>
	<path d="M294.2,393.1l-0.6,0.8c0,0-0.1-0.1-0.1-0.1c0-0.1,0-0.1,0-0.1c-0.2-0.2-0.4-0.4-0.7-0.6c-0.3-0.1-0.6-0.2-1-0.2
		c-0.4,0-0.7,0.1-1,0.4c-0.3,0.2-0.4,0.5-0.4,0.8c0,0.2,0,0.4,0.1,0.5c0.1,0.1,0.2,0.3,0.3,0.4c0.1,0.1,0.3,0.3,0.6,0.4
		c0.3,0.1,0.6,0.3,1,0.4c0.4,0.2,0.7,0.3,1,0.5c0.3,0.2,0.5,0.3,0.6,0.5c0.2,0.2,0.3,0.4,0.3,0.6c0.1,0.2,0.1,0.4,0.1,0.7
		c0,0.3-0.1,0.6-0.2,0.8c-0.1,0.3-0.3,0.5-0.5,0.8c-0.2,0.2-0.5,0.4-0.8,0.5c-0.3,0.1-0.7,0.2-1.2,0.2c-1,0-1.9-0.3-2.5-1l0.5-0.9
		c0,0,0.1,0.1,0.1,0.1s0,0.1,0,0.1c0.2,0.3,0.5,0.5,0.8,0.6c0.3,0.2,0.7,0.3,1.2,0.3c0.2,0,0.5,0,0.7-0.1c0.2-0.1,0.4-0.2,0.5-0.3
		c0.1-0.1,0.3-0.3,0.4-0.5c0.1-0.2,0.1-0.4,0.1-0.6c0-0.2,0-0.3-0.1-0.4c-0.1-0.1-0.1-0.3-0.3-0.4c-0.1-0.1-0.3-0.2-0.6-0.4
		c-0.2-0.1-0.6-0.3-0.9-0.4c-0.4-0.2-0.8-0.3-1.1-0.5c-0.3-0.2-0.5-0.3-0.7-0.5c-0.2-0.2-0.3-0.4-0.4-0.6c-0.1-0.2-0.1-0.4-0.1-0.6
		c0-0.3,0.1-0.6,0.2-0.8s0.3-0.5,0.5-0.7c0.2-0.2,0.5-0.3,0.8-0.5s0.6-0.2,1-0.2c0.4,0,0.9,0.1,1.2,0.3
		C293.5,392.5,293.9,392.8,294.2,393.1z"/>
	<path d="M298.3,394.2c0.4,0,0.7,0.1,1,0.2c0.3,0.1,0.6,0.3,0.9,0.6c0.2,0.3,0.4,0.6,0.6,1c0.1,0.4,0.2,0.8,0.2,1.3
		c0,0.5-0.1,0.9-0.2,1.3s-0.3,0.7-0.6,1c-0.2,0.3-0.5,0.5-0.9,0.6s-0.7,0.2-1.1,0.2c-0.4,0-0.7-0.1-1.1-0.2
		c-0.3-0.2-0.6-0.4-0.9-0.6c-0.3-0.3-0.5-0.6-0.6-1c-0.1-0.4-0.2-0.8-0.2-1.2c0-0.4,0.1-0.9,0.2-1.2c0.2-0.4,0.4-0.7,0.6-1
		s0.6-0.5,0.9-0.7C297.6,394.3,297.9,394.2,298.3,394.2z M300,397.3c0-0.4,0-0.7-0.1-1c-0.1-0.3-0.2-0.5-0.4-0.7
		c-0.2-0.2-0.4-0.4-0.6-0.5c-0.2-0.1-0.4-0.2-0.7-0.2s-0.5,0.1-0.7,0.2c-0.2,0.1-0.4,0.3-0.6,0.5s-0.3,0.4-0.4,0.7
		c-0.1,0.3-0.1,0.6-0.1,1c0,0.3,0,0.7,0.1,0.9c0.1,0.3,0.2,0.5,0.4,0.7s0.3,0.4,0.6,0.5c0.2,0.1,0.4,0.2,0.7,0.2
		c0.2,0,0.5-0.1,0.7-0.2c0.2-0.1,0.4-0.2,0.6-0.4s0.3-0.4,0.4-0.7S300,397.7,300,397.3z"/>
	<path d="M302.3,394.3h0.9v3.3c0,0.4,0,0.7,0.1,1c0.1,0.3,0.2,0.5,0.3,0.6c0.1,0.2,0.3,0.3,0.4,0.3s0.3,0.1,0.5,0.1
		c0.2,0,0.4-0.1,0.6-0.2c0.2-0.1,0.4-0.2,0.5-0.4s0.3-0.4,0.4-0.6s0.1-0.6,0.1-0.9v-3.3h0.9v5.4c0,0.2,0,0.4,0.1,0.5h-1
		c0-0.1,0-0.1,0-0.2c0-0.1,0-0.2,0-0.3l0-0.5c-0.2,0.3-0.5,0.6-0.8,0.8c-0.3,0.2-0.7,0.3-1.1,0.3c-0.3,0-0.6-0.1-0.8-0.2
		s-0.5-0.3-0.7-0.5c-0.2-0.2-0.3-0.5-0.4-0.9c-0.1-0.3-0.2-0.8-0.2-1.2L302.3,394.3z"/>
	<path d="M309.3,394.3h1l0,1.1c0.2-0.4,0.5-0.7,0.9-1c0.4-0.2,0.8-0.3,1.3-0.3c0.6,0,1.2,0.2,1.6,0.6l-0.4,0.9
		c-0.1-0.1-0.2-0.2-0.3-0.3c-0.1-0.1-0.2-0.2-0.3-0.2c-0.1-0.1-0.2-0.1-0.3-0.1c-0.1,0-0.2-0.1-0.4-0.1c-0.3,0-0.6,0.1-0.8,0.2
		c-0.3,0.1-0.5,0.3-0.7,0.5c-0.2,0.2-0.3,0.5-0.5,0.8s-0.2,0.6-0.2,0.9v2.9h-0.9V394.3z"/>
	<path d="M320.4,395.3l-0.7,0.8c0,0-0.1-0.1-0.1-0.1s0-0.1,0-0.1c0-0.1,0-0.1-0.1-0.2s-0.2-0.2-0.3-0.3c-0.3-0.2-0.7-0.4-1.2-0.4
		c-0.3,0-0.5,0.1-0.7,0.2c-0.2,0.1-0.4,0.3-0.6,0.4c-0.2,0.2-0.3,0.4-0.4,0.7c-0.1,0.3-0.2,0.6-0.2,0.9c0,0.3,0.1,0.6,0.2,0.9
		c0.1,0.3,0.2,0.5,0.4,0.7s0.4,0.4,0.7,0.5c0.3,0.1,0.5,0.2,0.8,0.2c0.6,0,1.1-0.2,1.6-0.7l0.5,0.6c-0.6,0.6-1.3,0.9-2.2,0.9
		c-0.4,0-0.8-0.1-1.2-0.2s-0.7-0.4-0.9-0.7c-0.3-0.3-0.5-0.6-0.6-1c-0.1-0.4-0.2-0.8-0.2-1.2c0-0.4,0.1-0.9,0.2-1.2
		c0.1-0.4,0.4-0.7,0.6-1c0.3-0.3,0.6-0.5,0.9-0.6c0.4-0.2,0.8-0.2,1.2-0.2c0.5,0,0.9,0.1,1.3,0.3C319.9,394.7,320.2,395,320.4,395.3
		z"/>
	<path d="M324.4,394.2c0.3,0,0.6,0.1,0.9,0.2c0.3,0.1,0.6,0.3,0.8,0.5c0.2,0.2,0.4,0.5,0.5,0.9c0.1,0.4,0.2,0.8,0.2,1.3
		c0,0.1,0,0.1,0,0.2c0,0.1,0,0.1,0,0.2h-4.2c0,0.4,0.1,0.8,0.2,1c0.1,0.3,0.3,0.5,0.5,0.7c0.2,0.2,0.4,0.3,0.6,0.4
		c0.2,0.1,0.5,0.1,0.7,0.1c0.6,0,1.1-0.2,1.5-0.7l0.5,0.5c-0.5,0.6-1.2,0.9-2.1,0.9c-0.4,0-0.8-0.1-1.2-0.2
		c-0.4-0.1-0.7-0.3-0.9-0.6s-0.4-0.6-0.6-1c-0.1-0.4-0.2-0.8-0.2-1.3c0-0.5,0.1-0.9,0.2-1.3c0.1-0.4,0.3-0.7,0.6-1s0.5-0.5,0.9-0.6
		S324,394.2,324.4,394.2z M322.6,396.7h3.3c0,0,0-0.1,0-0.1c0,0,0-0.1,0-0.1c0-0.2,0-0.4-0.1-0.6c-0.1-0.2-0.2-0.4-0.3-0.5
		s-0.3-0.3-0.5-0.3c-0.2-0.1-0.4-0.1-0.6-0.1c-0.4,0-0.8,0.1-1.1,0.4C322.9,395.6,322.7,396.1,322.6,396.7z"/>
	<path d="M331.1,395c0.2,0.2,0.2,0.3,0.2,0.5s-0.1,0.4-0.2,0.5c-0.2,0.1-0.3,0.2-0.5,0.2c-0.2,0-0.4-0.1-0.5-0.2
		c-0.2-0.1-0.2-0.3-0.2-0.5c0-0.2,0.1-0.4,0.2-0.5c0.2-0.1,0.3-0.2,0.5-0.2S331,394.8,331.1,395z M331.1,399.1
		c0.2,0.2,0.2,0.3,0.2,0.5c0,0.2-0.1,0.4-0.2,0.5c-0.2,0.1-0.3,0.2-0.6,0.2s-0.4-0.1-0.5-0.2s-0.2-0.3-0.2-0.5
		c0-0.2,0.1-0.4,0.2-0.5s0.3-0.2,0.5-0.2S331,399,331.1,399.1z"/>
	<path d="M293.7,409.6c0-0.1,0-0.2,0-0.2c-0.2-0.3-0.4-0.5-0.7-0.7s-0.6-0.2-0.9-0.2c-0.3,0-0.6,0.1-0.8,0.2
		c-0.3,0.2-0.5,0.4-0.7,0.7c-0.2,0.3-0.4,0.6-0.5,1.1c-0.1,0.4-0.2,0.9-0.2,1.4c0,0.5,0.1,1,0.2,1.4c0.1,0.4,0.3,0.8,0.5,1.1
		c0.2,0.3,0.4,0.5,0.7,0.7c0.3,0.2,0.6,0.2,0.9,0.2c0.3,0,0.6-0.1,0.9-0.3c0.3-0.2,0.5-0.4,0.7-0.7l0.7,0.4
		c-0.1,0.2-0.3,0.4-0.5,0.6c-0.2,0.2-0.4,0.3-0.6,0.4c-0.2,0.1-0.4,0.2-0.6,0.3c-0.2,0.1-0.4,0.1-0.6,0.1c-0.5,0-0.9-0.1-1.2-0.2
		c-0.4-0.2-0.7-0.4-1-0.7c-0.3-0.3-0.5-0.8-0.7-1.3c-0.2-0.5-0.2-1.1-0.2-1.9c0-0.8,0.1-1.5,0.3-2c0.2-0.5,0.4-1,0.8-1.3
		c0.3-0.3,0.6-0.5,1-0.7c0.4-0.1,0.7-0.2,1-0.2c0.3,0,0.5,0,0.8,0.1c0.3,0.1,0.5,0.2,0.7,0.3c0.2,0.1,0.4,0.3,0.6,0.5
		c0.2,0.2,0.3,0.4,0.4,0.7l-0.9,0.4C293.7,409.7,293.7,409.6,293.7,409.6z"/>
	<path d="M295.8,407.8h2.6c0.5,0,0.8,0.1,1.2,0.2s0.6,0.3,0.8,0.5c0.2,0.2,0.4,0.5,0.5,0.7s0.2,0.6,0.2,0.9c0,0.3-0.1,0.6-0.2,0.9
		c-0.1,0.3-0.2,0.5-0.4,0.7c-0.2,0.2-0.4,0.4-0.8,0.5c-0.3,0.1-0.7,0.2-1.1,0.2h-1.7v3.6h-0.9V407.8z M296.7,408.6v2.9h1.6
		c0.6,0,1-0.1,1.3-0.4c0.2-0.3,0.4-0.6,0.4-1c0-0.2-0.1-0.4-0.1-0.6c-0.1-0.2-0.2-0.3-0.3-0.5c-0.1-0.1-0.3-0.2-0.5-0.3
		c-0.2-0.1-0.4-0.1-0.7-0.1H296.7z"/>
	<path d="M303.7,407.8h3.7v0.8h-1.2v4.6c0,0.5,0,1-0.1,1.3c-0.1,0.4-0.3,0.7-0.5,0.9s-0.5,0.4-0.7,0.5c-0.3,0.1-0.5,0.2-0.8,0.2
		c-0.8,0-1.4-0.3-1.9-0.9l0.6-0.7c0,0,0,0.1,0,0.1c0,0.1,0,0.1,0,0.1l0.2,0.2c0,0,0.1,0.1,0.2,0.1c0.1,0,0.2,0.1,0.3,0.1
		c0.1,0,0.2,0.1,0.3,0.1c0.1,0,0.2,0,0.3,0c0.4,0,0.7-0.2,0.9-0.5c0.2-0.3,0.3-0.8,0.3-1.6v-4.6h-1.6V407.8z"/>
	<path d="M319.3,410.8v-3.6h1c0,0.1,0,0.1-0.1,0.2c0,0.1-0.1,0.1-0.1,0.2l0,7.7c0,0.2,0,0.4,0.1,0.5h-0.9c0-0.1-0.1-0.3-0.1-0.4
		v-0.5c-0.2,0.3-0.4,0.6-0.8,0.8c-0.3,0.2-0.7,0.3-1,0.3c-0.3,0-0.6-0.1-0.9-0.2c-0.3-0.1-0.5-0.3-0.8-0.6c-0.2-0.3-0.4-0.6-0.5-1
		s-0.2-0.9-0.2-1.4c0-0.5,0.1-1,0.2-1.4c0.1-0.4,0.3-0.7,0.6-0.9s0.5-0.4,0.8-0.5s0.6-0.2,0.9-0.2c0.4,0,0.8,0.1,1.1,0.3
		C318.9,410.2,319.2,410.5,319.3,410.8z M316.6,411c-0.4,0.3-0.6,0.9-0.6,1.7c0,0.7,0.1,1.3,0.4,1.8s0.7,0.7,1.2,0.7
		c0.1,0,0.3,0,0.4-0.1c0.1,0,0.3-0.1,0.4-0.2c0.1-0.1,0.2-0.2,0.3-0.3c0.1-0.1,0.2-0.3,0.2-0.4c0.1-0.3,0.1-0.7,0.1-1.3
		c0-0.3,0-0.6,0-0.8s-0.1-0.4-0.1-0.6s-0.1-0.3-0.2-0.4s-0.2-0.2-0.3-0.3c-0.2-0.1-0.3-0.2-0.4-0.2s-0.3-0.1-0.4-0.1
		c-0.2,0-0.5,0-0.6,0.1C316.9,410.7,316.7,410.8,316.6,411z"/>
	<path d="M322.2,410.6c0.5-0.6,1.2-0.8,2.1-0.8c0.7,0,1.3,0.2,1.7,0.6c0.4,0.4,0.6,1,0.6,1.8v3.7h-0.9v-0.7
		c-0.6,0.5-1.3,0.8-2.1,0.8c-0.3,0-0.6,0-0.8-0.1c-0.2-0.1-0.5-0.2-0.6-0.4c-0.2-0.2-0.3-0.3-0.4-0.5s-0.1-0.4-0.1-0.6
		c0-0.6,0.3-1.1,0.8-1.4c0.5-0.3,1.3-0.5,2.2-0.6h1.1v-0.2c0-0.6-0.1-1-0.4-1.2c-0.2-0.2-0.6-0.4-1.2-0.4c-0.6,0-1.2,0.2-1.6,0.7
		L322.2,410.6z M325.8,413.1h-0.2c-0.1,0-0.2,0-0.3,0s-0.2,0-0.3,0c-0.5,0-0.9,0-1.2,0.1c-0.3,0.1-0.5,0.2-0.7,0.3
		c-0.2,0.1-0.3,0.2-0.4,0.4c-0.1,0.1-0.1,0.3-0.1,0.5c0,0.3,0.1,0.5,0.4,0.7c0.2,0.2,0.5,0.3,0.9,0.3c0.3,0,0.5,0,0.7-0.1
		c0.2-0.1,0.4-0.2,0.5-0.3c0.2-0.1,0.3-0.2,0.4-0.4c0.1-0.1,0.2-0.2,0.2-0.3c0.1-0.2,0.1-0.4,0.1-0.7V413.1z"/>
	<path d="M329.9,408.3l1-0.2c0,0.1,0,0.1,0,0.2c0,0.1,0,0.1,0,0.1l-0.2,1.4h2v0.8h-2c-0.1,0.8-0.1,1.5-0.1,2.2c0,0.4,0,0.8,0,1.1
		s0.1,0.5,0.1,0.7c0.1,0.2,0.2,0.3,0.3,0.4c0.1,0.1,0.3,0.1,0.6,0.1c0.4,0,0.8-0.2,1.3-0.5l0.3,0.7c-0.6,0.4-1.2,0.7-1.8,0.7
		c-0.6,0-1.1-0.2-1.4-0.6s-0.4-1-0.4-1.8c0-0.3,0-0.7,0-1.2c0-0.5,0.1-1.1,0.1-1.7h-1.4v-0.8h1.4L329.9,408.3z"/>
	<path d="M335.2,410.6c0.5-0.6,1.2-0.8,2.1-0.8c0.7,0,1.3,0.2,1.7,0.6c0.4,0.4,0.6,1,0.6,1.8v3.7h-0.9v-0.7
		c-0.6,0.5-1.3,0.8-2.1,0.8c-0.3,0-0.6,0-0.8-0.1c-0.2-0.1-0.5-0.2-0.6-0.4c-0.2-0.2-0.3-0.3-0.4-0.5s-0.1-0.4-0.1-0.6
		c0-0.6,0.3-1.1,0.8-1.4c0.5-0.3,1.3-0.5,2.2-0.6h1.1v-0.2c0-0.6-0.1-1-0.4-1.2c-0.2-0.2-0.6-0.4-1.2-0.4c-0.6,0-1.2,0.2-1.6,0.7
		L335.2,410.6z M338.8,413.1h-0.2c-0.1,0-0.2,0-0.3,0s-0.2,0-0.3,0c-0.5,0-0.9,0-1.2,0.1c-0.3,0.1-0.5,0.2-0.7,0.3
		c-0.2,0.1-0.3,0.2-0.4,0.4c-0.1,0.1-0.1,0.3-0.1,0.5c0,0.3,0.1,0.5,0.4,0.7c0.2,0.2,0.5,0.3,0.9,0.3c0.3,0,0.5,0,0.7-0.1
		c0.2-0.1,0.4-0.2,0.5-0.3c0.2-0.1,0.3-0.2,0.4-0.4c0.1-0.1,0.2-0.2,0.2-0.3c0.1-0.2,0.1-0.4,0.1-0.7V413.1z"/>
	<path d="M341.3,407.2h1.1v0c0,0,0,0.1-0.1,0.1s-0.1,0.1-0.1,0.1v3.3c0.2-0.3,0.4-0.6,0.8-0.8c0.3-0.2,0.7-0.3,1-0.3
		c0.3,0,0.6,0.1,0.9,0.2c0.3,0.1,0.6,0.3,0.8,0.6c0.2,0.3,0.4,0.6,0.5,1c0.1,0.4,0.2,0.8,0.2,1.3c0,0.5-0.1,1-0.2,1.4
		s-0.3,0.7-0.6,1c-0.2,0.3-0.5,0.5-0.8,0.6c-0.3,0.1-0.6,0.2-0.9,0.2c-0.4,0-0.7-0.1-1-0.2c-0.3-0.2-0.6-0.4-0.8-0.7l-0.3,0.8h-0.6
		V407.2z M342.9,414.9c0.2,0.1,0.3,0.1,0.4,0.2c0.1,0,0.3,0,0.4,0c0.2,0,0.4,0,0.6-0.1c0.2-0.1,0.4-0.2,0.6-0.3
		c0.2-0.2,0.3-0.4,0.4-0.7s0.2-0.6,0.2-1c0-0.8-0.2-1.4-0.5-1.8c-0.3-0.4-0.8-0.6-1.4-0.6c-0.2,0-0.5,0.1-0.7,0.2
		c-0.2,0.2-0.4,0.4-0.5,0.6c-0.1,0.3-0.2,0.7-0.2,1.3c0,0.4,0,0.7,0,0.9s0.1,0.5,0.1,0.6c0.1,0.2,0.1,0.3,0.2,0.4
		S342.8,414.8,342.9,414.9z"/>
	<path d="M348.2,410.6c0.5-0.6,1.2-0.8,2.1-0.8c0.7,0,1.3,0.2,1.7,0.6c0.4,0.4,0.6,1,0.6,1.8v3.7h-0.9v-0.7
		c-0.6,0.5-1.3,0.8-2.1,0.8c-0.3,0-0.6,0-0.8-0.1c-0.2-0.1-0.5-0.2-0.6-0.4c-0.2-0.2-0.3-0.3-0.4-0.5s-0.1-0.4-0.1-0.6
		c0-0.6,0.3-1.1,0.8-1.4c0.5-0.3,1.3-0.5,2.2-0.6h1.1v-0.2c0-0.6-0.1-1-0.4-1.2c-0.2-0.2-0.6-0.4-1.2-0.4c-0.6,0-1.2,0.2-1.6,0.7
		L348.2,410.6z M351.8,413.1h-0.2c-0.1,0-0.2,0-0.3,0s-0.2,0-0.3,0c-0.5,0-0.9,0-1.2,0.1c-0.3,0.1-0.5,0.2-0.7,0.3
		c-0.2,0.1-0.3,0.2-0.4,0.4c-0.1,0.1-0.1,0.3-0.1,0.5c0,0.3,0.1,0.5,0.4,0.7c0.2,0.2,0.5,0.3,0.9,0.3c0.3,0,0.5,0,0.7-0.1
		c0.2-0.1,0.4-0.2,0.5-0.3c0.2-0.1,0.3-0.2,0.4-0.4c0.1-0.1,0.2-0.2,0.2-0.3c0.1-0.2,0.1-0.4,0.1-0.7V413.1z"/>
	<path d="M359.1,410.7l-0.5,0.8c0,0-0.1,0-0.1-0.1s0-0.1,0-0.1c-0.2-0.2-0.4-0.4-0.7-0.6c-0.3-0.2-0.6-0.3-1-0.3
		c-0.2,0-0.3,0-0.5,0.1c-0.2,0-0.3,0.1-0.4,0.2s-0.2,0.2-0.3,0.3c-0.1,0.1-0.1,0.2-0.1,0.4c0,0.1,0,0.2,0.1,0.3
		c0.1,0.1,0.1,0.2,0.2,0.2c0.1,0.1,0.3,0.2,0.5,0.2c0.2,0.1,0.5,0.2,0.8,0.3c0.8,0.2,1.3,0.4,1.6,0.7s0.5,0.6,0.5,1
		c0,0.3-0.1,0.5-0.2,0.7c-0.1,0.2-0.3,0.4-0.5,0.6c-0.2,0.2-0.5,0.3-0.8,0.4c-0.3,0.1-0.6,0.1-1,0.1c-1,0-1.8-0.3-2.5-0.9l0.5-0.9
		c0,0,0,0.1,0.1,0.1c0,0.1,0,0.1,0.1,0.2c0.1,0.1,0.1,0.2,0.3,0.3s0.4,0.2,0.6,0.3c0.1,0.1,0.3,0.1,0.4,0.1c0.2,0,0.3,0,0.5,0
		c0.2,0,0.4,0,0.5-0.1c0.2,0,0.3-0.1,0.5-0.2c0.1-0.1,0.3-0.2,0.3-0.3c0.1-0.1,0.1-0.3,0.1-0.4c0-0.2-0.1-0.4-0.3-0.6
		c-0.2-0.2-0.6-0.3-1.2-0.5c-0.4-0.1-0.6-0.2-0.8-0.2c-0.3-0.1-0.5-0.2-0.7-0.3c-0.1-0.1-0.3-0.2-0.4-0.3c-0.1-0.1-0.2-0.3-0.3-0.4
		c-0.1-0.2-0.1-0.3-0.1-0.5c0-0.2,0.1-0.4,0.2-0.6c0.1-0.2,0.3-0.4,0.5-0.5c0.2-0.1,0.4-0.3,0.7-0.4s0.6-0.1,0.9-0.1
		C357.8,409.8,358.6,410.1,359.1,410.7z"/>
	<path d="M363.4,409.8c0.3,0,0.6,0.1,0.9,0.2c0.3,0.1,0.6,0.3,0.8,0.5c0.2,0.2,0.4,0.5,0.5,0.9c0.1,0.4,0.2,0.8,0.2,1.3
		c0,0.1,0,0.1,0,0.2c0,0.1,0,0.1,0,0.2h-4.2c0,0.4,0.1,0.8,0.2,1c0.1,0.3,0.3,0.5,0.5,0.7s0.4,0.3,0.6,0.4c0.2,0.1,0.5,0.1,0.7,0.1
		c0.6,0,1.1-0.2,1.5-0.7l0.5,0.5c-0.5,0.6-1.2,0.9-2.1,0.9c-0.4,0-0.8-0.1-1.2-0.2c-0.4-0.1-0.7-0.3-0.9-0.6c-0.3-0.3-0.4-0.6-0.6-1
		s-0.2-0.8-0.2-1.3c0-0.5,0.1-0.9,0.2-1.3c0.1-0.4,0.3-0.7,0.6-1c0.2-0.3,0.5-0.5,0.9-0.6S363,409.8,363.4,409.8z M361.6,412.3h3.3
		c0,0,0-0.1,0-0.1c0,0,0-0.1,0-0.1c0-0.2,0-0.4-0.1-0.6c-0.1-0.2-0.2-0.4-0.3-0.5c-0.1-0.1-0.3-0.3-0.5-0.3s-0.4-0.1-0.6-0.1
		c-0.4,0-0.8,0.1-1.1,0.4C361.9,411.2,361.7,411.7,361.6,412.3z"/>
	<path d="M373.9,411.3h4.7v0.9h-4.7V411.3z"/>
	<path d="M388.2,407.8h3.7v0.8h-1.2v4.6c0,0.5,0,1-0.1,1.3c-0.1,0.4-0.3,0.7-0.5,0.9s-0.5,0.4-0.7,0.5c-0.3,0.1-0.5,0.2-0.8,0.2
		c-0.8,0-1.4-0.3-1.9-0.9l0.6-0.7c0,0,0,0.1,0,0.1c0,0.1,0,0.1,0,0.1l0.2,0.2c0,0,0.1,0.1,0.2,0.1c0.1,0,0.2,0.1,0.3,0.1
		c0.1,0,0.2,0.1,0.3,0.1c0.1,0,0.2,0,0.3,0c0.4,0,0.7-0.2,0.9-0.5c0.2-0.3,0.3-0.8,0.3-1.6v-4.6h-1.6V407.8z"/>
	<path d="M395.8,409.8c0.4,0,0.7,0.1,1,0.2c0.3,0.1,0.6,0.3,0.9,0.6c0.2,0.3,0.4,0.6,0.6,1c0.1,0.4,0.2,0.8,0.2,1.3
		c0,0.5-0.1,0.9-0.2,1.3c-0.1,0.4-0.3,0.7-0.6,1c-0.2,0.3-0.5,0.5-0.9,0.6c-0.3,0.1-0.7,0.2-1.1,0.2c-0.4,0-0.7-0.1-1.1-0.2
		c-0.3-0.2-0.6-0.4-0.9-0.6c-0.3-0.3-0.5-0.6-0.6-1c-0.1-0.4-0.2-0.8-0.2-1.2s0.1-0.9,0.2-1.2s0.4-0.7,0.6-1
		c0.3-0.3,0.6-0.5,0.9-0.6C395.1,409.9,395.4,409.8,395.8,409.8z M397.5,412.9c0-0.4,0-0.7-0.1-1c-0.1-0.3-0.2-0.5-0.4-0.7
		c-0.2-0.2-0.4-0.4-0.6-0.5c-0.2-0.1-0.4-0.2-0.7-0.2s-0.5,0.1-0.7,0.2c-0.2,0.1-0.4,0.3-0.6,0.5s-0.3,0.4-0.4,0.7
		c-0.1,0.3-0.1,0.6-0.1,1c0,0.3,0,0.7,0.1,0.9c0.1,0.3,0.2,0.5,0.4,0.7c0.2,0.2,0.3,0.4,0.6,0.5s0.4,0.2,0.7,0.2
		c0.2,0,0.5,0,0.7-0.1c0.2-0.1,0.4-0.2,0.6-0.4s0.3-0.4,0.4-0.7C397.5,413.6,397.5,413.3,397.5,412.9z"/>
	<path d="M399.8,409.9h0.9v3.3c0,0.4,0,0.7,0.1,1c0.1,0.3,0.2,0.5,0.3,0.6c0.1,0.2,0.3,0.3,0.4,0.3c0.2,0.1,0.3,0.1,0.5,0.1
		c0.2,0,0.4-0.1,0.6-0.2c0.2-0.1,0.4-0.2,0.5-0.4c0.2-0.2,0.3-0.4,0.4-0.6c0.1-0.3,0.1-0.6,0.1-0.9v-3.3h0.9v5.4
		c0,0.2,0,0.4,0.1,0.5h-1c0-0.1,0-0.1,0-0.2s0-0.2,0-0.3l0-0.5c-0.2,0.3-0.5,0.6-0.8,0.8c-0.3,0.2-0.7,0.3-1.1,0.3
		c-0.3,0-0.6-0.1-0.8-0.2c-0.2-0.1-0.5-0.3-0.7-0.5c-0.2-0.2-0.3-0.5-0.4-0.9c-0.1-0.3-0.2-0.8-0.2-1.2L399.8,409.9z"/>
	<path d="M406.8,409.9h1l0,1.1c0.2-0.4,0.5-0.7,0.9-1c0.4-0.2,0.8-0.3,1.3-0.3c0.6,0,1.2,0.2,1.6,0.6l-0.4,0.9
		c-0.1-0.1-0.2-0.2-0.3-0.3s-0.2-0.2-0.3-0.2c-0.1-0.1-0.2-0.1-0.3-0.1s-0.2-0.1-0.4-0.1c-0.3,0-0.6,0.1-0.8,0.2
		c-0.3,0.1-0.5,0.3-0.7,0.5c-0.2,0.2-0.3,0.5-0.5,0.8c-0.1,0.3-0.2,0.6-0.2,0.9v2.9h-0.9V409.9z"/>
	<path d="M412.9,415.9v-5.9h0.9v1.1c0.2-0.4,0.5-0.7,0.9-0.9s0.7-0.3,1.1-0.3c0.3,0,0.5,0,0.7,0.1c0.2,0.1,0.4,0.2,0.6,0.4
		c0.2,0.2,0.3,0.5,0.4,0.8c0.1,0.3,0.1,0.7,0.1,1.1v3.6h-0.9v-3.6c0-0.6-0.1-1.1-0.3-1.3c-0.2-0.3-0.5-0.4-0.8-0.4
		c-0.2,0-0.4,0-0.6,0.1c-0.2,0.1-0.4,0.2-0.6,0.4c-0.2,0.2-0.3,0.4-0.4,0.6c-0.1,0.2-0.2,0.5-0.2,0.8v3.4H412.9z"/>
	<path d="M419.7,410.6c0.5-0.6,1.2-0.8,2.1-0.8c0.7,0,1.3,0.2,1.7,0.6c0.4,0.4,0.6,1,0.6,1.8v3.7h-0.9v-0.7
		c-0.6,0.5-1.3,0.8-2.1,0.8c-0.3,0-0.6,0-0.8-0.1c-0.2-0.1-0.5-0.2-0.6-0.4c-0.2-0.2-0.3-0.3-0.4-0.5s-0.1-0.4-0.1-0.6
		c0-0.6,0.3-1.1,0.8-1.4c0.5-0.3,1.3-0.5,2.2-0.6h1.1v-0.2c0-0.6-0.1-1-0.4-1.2c-0.2-0.2-0.6-0.4-1.2-0.4c-0.6,0-1.2,0.2-1.6,0.7
		L419.7,410.6z M423.3,413.1h-0.2c-0.1,0-0.2,0-0.3,0s-0.2,0-0.3,0c-0.5,0-0.9,0-1.2,0.1c-0.3,0.1-0.5,0.2-0.7,0.3
		c-0.2,0.1-0.3,0.2-0.4,0.4c-0.1,0.1-0.1,0.3-0.1,0.5c0,0.3,0.1,0.5,0.4,0.7c0.2,0.2,0.5,0.3,0.9,0.3c0.3,0,0.5,0,0.7-0.1
		c0.2-0.1,0.4-0.2,0.5-0.3c0.2-0.1,0.3-0.2,0.4-0.4c0.1-0.1,0.2-0.2,0.2-0.3c0.1-0.2,0.1-0.4,0.1-0.7V413.1z"/>
	<path d="M426.1,407.2h2.6v7.9h1.7v0.8H426v-0.8h1.8V408h-1.7V407.2z"/>
	<path d="M432.9,409.9h2.4v5.2h1.4v0.8h-3.8v-0.8h1.5v-4.4h-1.4V409.9z M434.3,407.5c0.1-0.1,0.3-0.2,0.5-0.2s0.3,0.1,0.5,0.2
		c0.1,0.1,0.2,0.3,0.2,0.5s-0.1,0.3-0.2,0.5c-0.1,0.1-0.3,0.2-0.5,0.2s-0.3-0.1-0.5-0.2c-0.1-0.1-0.2-0.3-0.2-0.5
		C434.1,407.8,434.2,407.7,434.3,407.5z"/>
	<path d="M443.6,410.7l-0.5,0.8c0,0-0.1,0-0.1-0.1s0-0.1,0-0.1c-0.2-0.2-0.4-0.4-0.7-0.6c-0.3-0.2-0.6-0.3-1-0.3
		c-0.2,0-0.3,0-0.5,0.1c-0.2,0-0.3,0.1-0.4,0.2s-0.2,0.2-0.3,0.3c-0.1,0.1-0.1,0.2-0.1,0.4c0,0.1,0,0.2,0.1,0.3
		c0.1,0.1,0.1,0.2,0.2,0.2c0.1,0.1,0.3,0.2,0.5,0.2c0.2,0.1,0.5,0.2,0.8,0.3c0.8,0.2,1.3,0.4,1.6,0.7s0.5,0.6,0.5,1
		c0,0.3-0.1,0.5-0.2,0.7c-0.1,0.2-0.3,0.4-0.5,0.6c-0.2,0.2-0.5,0.3-0.8,0.4c-0.3,0.1-0.6,0.1-1,0.1c-1,0-1.8-0.3-2.5-0.9l0.5-0.9
		c0,0,0,0.1,0.1,0.1c0,0.1,0,0.1,0.1,0.2c0.1,0.1,0.1,0.2,0.3,0.3s0.4,0.2,0.6,0.3c0.1,0.1,0.3,0.1,0.4,0.1c0.2,0,0.3,0,0.5,0
		c0.2,0,0.4,0,0.5-0.1c0.2,0,0.3-0.1,0.5-0.2c0.1-0.1,0.3-0.2,0.3-0.3c0.1-0.1,0.1-0.3,0.1-0.4c0-0.2-0.1-0.4-0.3-0.6
		c-0.2-0.2-0.6-0.3-1.2-0.5c-0.4-0.1-0.6-0.2-0.8-0.2c-0.3-0.1-0.5-0.2-0.7-0.3c-0.1-0.1-0.3-0.2-0.4-0.3c-0.1-0.1-0.2-0.3-0.3-0.4
		c-0.1-0.2-0.1-0.3-0.1-0.5c0-0.2,0.1-0.4,0.2-0.6c0.1-0.2,0.3-0.4,0.5-0.5c0.2-0.1,0.4-0.3,0.7-0.4s0.6-0.1,0.9-0.1
		C442.3,409.8,443.1,410.1,443.6,410.7z"/>
	<path d="M446.9,408.3l1-0.2c0,0.1,0,0.1,0,0.2c0,0.1,0,0.1,0,0.1l-0.2,1.4h2v0.8h-2c-0.1,0.8-0.1,1.5-0.1,2.2c0,0.4,0,0.8,0,1.1
		s0.1,0.5,0.1,0.7c0.1,0.2,0.2,0.3,0.3,0.4c0.1,0.1,0.3,0.1,0.6,0.1c0.4,0,0.8-0.2,1.3-0.5l0.3,0.7c-0.6,0.4-1.2,0.7-1.8,0.7
		c-0.6,0-1.1-0.2-1.4-0.6s-0.4-1-0.4-1.8c0-0.3,0-0.7,0-1.2c0-0.5,0.1-1.1,0.1-1.7h-1.4v-0.8h1.4L446.9,408.3z"/>
	<path d="M456.6,410.7l-0.5,0.8c0,0-0.1,0-0.1-0.1s0-0.1,0-0.1c-0.2-0.2-0.4-0.4-0.7-0.6c-0.3-0.2-0.6-0.3-1-0.3
		c-0.2,0-0.3,0-0.5,0.1c-0.2,0-0.3,0.1-0.4,0.2s-0.2,0.2-0.3,0.3c-0.1,0.1-0.1,0.2-0.1,0.4c0,0.1,0,0.2,0.1,0.3
		c0.1,0.1,0.1,0.2,0.2,0.2c0.1,0.1,0.3,0.2,0.5,0.2c0.2,0.1,0.5,0.2,0.8,0.3c0.8,0.2,1.3,0.4,1.6,0.7s0.5,0.6,0.5,1
		c0,0.3-0.1,0.5-0.2,0.7c-0.1,0.2-0.3,0.4-0.5,0.6c-0.2,0.2-0.5,0.3-0.8,0.4c-0.3,0.1-0.6,0.1-1,0.1c-1,0-1.8-0.3-2.5-0.9l0.5-0.9
		c0,0,0,0.1,0.1,0.1c0,0.1,0,0.1,0.1,0.2c0.1,0.1,0.1,0.2,0.3,0.3s0.4,0.2,0.6,0.3c0.1,0.1,0.3,0.1,0.4,0.1c0.2,0,0.3,0,0.5,0
		c0.2,0,0.4,0,0.5-0.1c0.2,0,0.3-0.1,0.5-0.2c0.1-0.1,0.3-0.2,0.3-0.3c0.1-0.1,0.1-0.3,0.1-0.4c0-0.2-0.1-0.4-0.3-0.6
		c-0.2-0.2-0.6-0.3-1.2-0.5c-0.4-0.1-0.6-0.2-0.8-0.2c-0.3-0.1-0.5-0.2-0.7-0.3c-0.1-0.1-0.3-0.2-0.4-0.3c-0.1-0.1-0.2-0.3-0.3-0.4
		c-0.1-0.2-0.1-0.3-0.1-0.5c0-0.2,0.1-0.4,0.2-0.6c0.1-0.2,0.3-0.4,0.5-0.5c0.2-0.1,0.4-0.3,0.7-0.4s0.6-0.1,0.9-0.1
		C455.3,409.8,456.1,410.1,456.6,410.7z"/>
	<path d="M464.9,407.2h1.1c0,0.1,0,0.1-0.1,0.2s-0.1,0.1-0.1,0.2v5.1l3-2.8c0.2,0,0.4,0.1,0.7,0.1h0.3l-2.5,2.4l2.9,3.5l-1.2,0.1
		l-2.4-3l-0.8,0.7v2.3h-0.9V407.2z"/>
	<path d="M471.9,409.9h2.4v5.2h1.4v0.8h-3.8v-0.8h1.5v-4.4h-1.4V409.9z M473.3,407.5c0.1-0.1,0.3-0.2,0.5-0.2s0.3,0.1,0.5,0.2
		c0.1,0.1,0.2,0.3,0.2,0.5s-0.1,0.3-0.2,0.5c-0.1,0.1-0.3,0.2-0.5,0.2s-0.3-0.1-0.5-0.2c-0.1-0.1-0.2-0.3-0.2-0.5
		C473.1,407.8,473.2,407.7,473.3,407.5z"/>
	<path d="M478.1,407.2h2.6v7.9h1.7v0.8H478v-0.8h1.8V408h-1.7V407.2z"/>
	<path d="M484.6,407.2h2.6v7.9h1.7v0.8h-4.4v-0.8h1.8V408h-1.7V407.2z"/>
	<path d="M493.4,409.8c0.3,0,0.6,0.1,0.9,0.2c0.3,0.1,0.6,0.3,0.8,0.5c0.2,0.2,0.4,0.5,0.5,0.9c0.1,0.4,0.2,0.8,0.2,1.3
		c0,0.1,0,0.1,0,0.2c0,0.1,0,0.1,0,0.2h-4.2c0,0.4,0.1,0.8,0.2,1c0.1,0.3,0.3,0.5,0.5,0.7s0.4,0.3,0.6,0.4c0.2,0.1,0.5,0.1,0.7,0.1
		c0.6,0,1.1-0.2,1.5-0.7l0.5,0.5c-0.5,0.6-1.2,0.9-2.1,0.9c-0.4,0-0.8-0.1-1.2-0.2c-0.4-0.1-0.7-0.3-0.9-0.6c-0.3-0.3-0.4-0.6-0.6-1
		s-0.2-0.8-0.2-1.3c0-0.5,0.1-0.9,0.2-1.3c0.1-0.4,0.3-0.7,0.6-1c0.2-0.3,0.5-0.5,0.9-0.6S493,409.8,493.4,409.8z M491.6,412.3h3.3
		c0,0,0-0.1,0-0.1c0,0,0-0.1,0-0.1c0-0.2,0-0.4-0.1-0.6c-0.1-0.2-0.2-0.4-0.3-0.5c-0.1-0.1-0.3-0.3-0.5-0.3s-0.4-0.1-0.6-0.1
		c-0.4,0-0.8,0.1-1.1,0.4C491.9,411.2,491.7,411.7,491.6,412.3z"/>
	<path d="M501.3,410.8v-3.6h1c0,0.1,0,0.1-0.1,0.2c0,0.1-0.1,0.1-0.1,0.2l0,7.7c0,0.2,0,0.4,0.1,0.5h-0.9c0-0.1-0.1-0.3-0.1-0.4
		v-0.5c-0.2,0.3-0.4,0.6-0.8,0.8c-0.3,0.2-0.7,0.3-1,0.3c-0.3,0-0.6-0.1-0.9-0.2c-0.3-0.1-0.5-0.3-0.8-0.6c-0.2-0.3-0.4-0.6-0.5-1
		s-0.2-0.9-0.2-1.4c0-0.5,0.1-1,0.2-1.4c0.1-0.4,0.3-0.7,0.6-0.9s0.5-0.4,0.8-0.5s0.6-0.2,0.9-0.2c0.4,0,0.8,0.1,1.1,0.3
		C500.9,410.2,501.2,410.5,501.3,410.8z M498.6,411c-0.4,0.3-0.6,0.9-0.6,1.7c0,0.7,0.1,1.3,0.4,1.8s0.7,0.7,1.2,0.7
		c0.1,0,0.3,0,0.4-0.1c0.1,0,0.3-0.1,0.4-0.2c0.1-0.1,0.2-0.2,0.3-0.3c0.1-0.1,0.2-0.3,0.2-0.4c0.1-0.3,0.1-0.7,0.1-1.3
		c0-0.3,0-0.6,0-0.8s-0.1-0.4-0.1-0.6s-0.1-0.3-0.2-0.4s-0.2-0.2-0.3-0.3c-0.2-0.1-0.3-0.2-0.4-0.2s-0.3-0.1-0.4-0.1
		c-0.2,0-0.5,0-0.6,0.1C498.9,410.7,498.7,410.8,498.6,411z"/>
	<path d="M294.1,426.3l-0.5,0.8c0,0-0.1,0-0.1-0.1c0-0.1,0-0.1,0-0.1c-0.2-0.2-0.4-0.4-0.7-0.6c-0.3-0.2-0.6-0.3-1-0.3
		c-0.2,0-0.3,0-0.5,0.1c-0.2,0-0.3,0.1-0.4,0.2c-0.1,0.1-0.2,0.2-0.3,0.3c-0.1,0.1-0.1,0.2-0.1,0.4c0,0.1,0,0.2,0.1,0.3
		c0.1,0.1,0.1,0.2,0.2,0.2c0.1,0.1,0.3,0.2,0.5,0.2c0.2,0.1,0.5,0.2,0.8,0.3c0.8,0.2,1.3,0.4,1.6,0.7c0.3,0.3,0.5,0.6,0.5,1
		c0,0.3-0.1,0.5-0.2,0.7s-0.3,0.4-0.5,0.6c-0.2,0.2-0.5,0.3-0.8,0.4c-0.3,0.1-0.6,0.1-1,0.1c-1,0-1.8-0.3-2.5-0.9l0.5-0.9
		c0,0,0,0.1,0.1,0.1c0,0.1,0,0.1,0.1,0.2c0.1,0.1,0.1,0.2,0.3,0.3c0.1,0.1,0.4,0.2,0.6,0.3c0.1,0.1,0.3,0.1,0.4,0.1
		c0.2,0,0.3,0,0.5,0c0.2,0,0.4,0,0.5-0.1c0.2,0,0.3-0.1,0.5-0.2c0.1-0.1,0.3-0.2,0.3-0.3c0.1-0.1,0.1-0.3,0.1-0.4
		c0-0.2-0.1-0.4-0.3-0.6c-0.2-0.2-0.6-0.3-1.2-0.5c-0.4-0.1-0.6-0.2-0.8-0.2c-0.3-0.1-0.5-0.2-0.7-0.3s-0.3-0.2-0.4-0.3
		c-0.1-0.1-0.2-0.3-0.3-0.4c-0.1-0.2-0.1-0.3-0.1-0.5c0-0.2,0.1-0.4,0.2-0.6c0.1-0.2,0.3-0.4,0.5-0.5c0.2-0.1,0.4-0.3,0.7-0.4
		c0.3-0.1,0.6-0.1,0.9-0.1C292.8,425.4,293.6,425.7,294.1,426.3z"/>
	<path d="M296.4,425.5h2.4v5.2h1.4v0.8h-3.8v-0.8h1.5v-4.4h-1.4V425.5z M297.8,423.1c0.1-0.1,0.3-0.2,0.5-0.2s0.3,0.1,0.5,0.2
		c0.1,0.1,0.2,0.3,0.2,0.5c0,0.2-0.1,0.3-0.2,0.5c-0.1,0.1-0.3,0.2-0.5,0.2s-0.3-0.1-0.5-0.2s-0.2-0.3-0.2-0.5
		C297.6,423.4,297.7,423.3,297.8,423.1z"/>
	<path d="M302.4,431.5v-5.9h0.9v1.1c0.2-0.4,0.5-0.7,0.9-0.9c0.4-0.2,0.7-0.3,1.1-0.3c0.3,0,0.5,0,0.7,0.1c0.2,0.1,0.4,0.2,0.6,0.4
		c0.2,0.2,0.3,0.5,0.4,0.8s0.1,0.7,0.1,1.1v3.6h-0.9v-3.6c0-0.6-0.1-1.1-0.3-1.3c-0.2-0.3-0.5-0.4-0.8-0.4c-0.2,0-0.4,0-0.6,0.1
		c-0.2,0.1-0.4,0.2-0.6,0.4c-0.2,0.2-0.3,0.4-0.4,0.6c-0.1,0.2-0.2,0.5-0.2,0.8v3.4H302.4z"/>
	<path d="M313.9,426.5l-0.7,0.8c0,0-0.1-0.1-0.1-0.1s0-0.1,0-0.1c0-0.1,0-0.1-0.1-0.2c-0.1-0.1-0.2-0.2-0.3-0.3
		c-0.3-0.2-0.7-0.4-1.2-0.4c-0.3,0-0.5,0.1-0.7,0.2s-0.4,0.3-0.6,0.4c-0.2,0.2-0.3,0.4-0.4,0.7c-0.1,0.3-0.2,0.6-0.2,0.9
		c0,0.3,0.1,0.6,0.2,0.9c0.1,0.3,0.2,0.5,0.4,0.7s0.4,0.4,0.7,0.5s0.5,0.2,0.8,0.2c0.6,0,1.1-0.2,1.6-0.7l0.5,0.6
		c-0.6,0.6-1.3,0.9-2.2,0.9c-0.4,0-0.8-0.1-1.2-0.2c-0.4-0.2-0.7-0.4-0.9-0.7c-0.3-0.3-0.5-0.6-0.6-1c-0.1-0.4-0.2-0.8-0.2-1.2
		c0-0.4,0.1-0.9,0.2-1.2c0.1-0.4,0.4-0.7,0.6-1c0.3-0.3,0.6-0.5,0.9-0.6c0.4-0.2,0.8-0.2,1.2-0.2c0.5,0,0.9,0.1,1.3,0.3
		S313.7,426.2,313.9,426.5z"/>
	<path d="M317.9,425.4c0.3,0,0.6,0.1,0.9,0.2c0.3,0.1,0.6,0.3,0.8,0.5c0.2,0.2,0.4,0.5,0.5,0.9c0.1,0.4,0.2,0.8,0.2,1.3
		c0,0.1,0,0.1,0,0.2c0,0.1,0,0.1,0,0.2H316c0,0.4,0.1,0.8,0.2,1s0.3,0.5,0.5,0.7c0.2,0.2,0.4,0.3,0.6,0.4c0.2,0.1,0.5,0.1,0.7,0.1
		c0.6,0,1.1-0.2,1.5-0.7l0.5,0.5c-0.5,0.6-1.2,0.9-2.1,0.9c-0.4,0-0.8-0.1-1.2-0.2c-0.4-0.1-0.7-0.3-0.9-0.6c-0.3-0.3-0.4-0.6-0.6-1
		c-0.1-0.4-0.2-0.8-0.2-1.3c0-0.5,0.1-0.9,0.2-1.3c0.1-0.4,0.3-0.7,0.6-1c0.2-0.3,0.5-0.5,0.9-0.6S317.5,425.4,317.9,425.4z
		 M316.1,427.9h3.3c0,0,0-0.1,0-0.1c0,0,0-0.1,0-0.1c0-0.2,0-0.4-0.1-0.6c-0.1-0.2-0.2-0.4-0.3-0.5c-0.1-0.1-0.3-0.3-0.5-0.3
		c-0.2-0.1-0.4-0.1-0.6-0.1c-0.4,0-0.8,0.1-1.1,0.4C316.4,426.8,316.2,427.3,316.1,427.9z"/>
	<path d="M331.4,423.3v8.1h-0.9v-7l-1.6,0.5l-0.2-0.5l2.1-1.1H331.4z"/>
	<path d="M336.8,431.6c-0.7,0-1.3-0.2-1.8-0.7l0.6-0.7c0,0,0.1,0.1,0.1,0.2s0.1,0.1,0.1,0.2c0.3,0.2,0.6,0.3,0.9,0.3
		c0.6,0,1.1-0.2,1.5-0.7c0.3-0.5,0.5-1.3,0.5-2.4c-0.2,0.3-0.4,0.5-0.7,0.6s-0.6,0.2-0.9,0.2c-0.3,0-0.6-0.1-0.9-0.2
		c-0.3-0.1-0.5-0.3-0.7-0.5c-0.2-0.2-0.4-0.5-0.5-0.8c-0.1-0.3-0.2-0.7-0.2-1s0.1-0.7,0.2-1.1c0.1-0.3,0.3-0.6,0.5-0.8
		c0.2-0.2,0.5-0.4,0.7-0.6c0.3-0.1,0.6-0.2,0.9-0.2c0.8,0,1.4,0.3,1.8,1c0.4,0.7,0.6,1.8,0.6,3.3c0,0.7-0.1,1.3-0.2,1.8
		c-0.2,0.5-0.4,0.9-0.6,1.2s-0.6,0.6-0.9,0.7S337.2,431.6,336.8,431.6z M338.7,426.7c0-0.1,0-0.1,0-0.2c0-0.1,0-0.1,0-0.2
		c0-0.3,0-0.6-0.1-0.9s-0.2-0.5-0.3-0.7s-0.3-0.3-0.5-0.5c-0.2-0.1-0.4-0.2-0.6-0.2c-0.4,0-0.8,0.2-1.1,0.5
		c-0.3,0.3-0.4,0.8-0.4,1.4c0,0.3,0,0.5,0.1,0.7s0.2,0.4,0.3,0.6c0.1,0.2,0.3,0.3,0.4,0.4c0.2,0.1,0.3,0.1,0.5,0.1
		c0.3,0,0.7-0.1,0.9-0.3C338.3,427.3,338.6,427,338.7,426.7z"/>
	<path d="M343.3,431.6c-0.7,0-1.3-0.2-1.8-0.7l0.6-0.7c0,0,0.1,0.1,0.1,0.2s0.1,0.1,0.1,0.2c0.3,0.2,0.6,0.3,0.9,0.3
		c0.6,0,1.1-0.2,1.5-0.7c0.3-0.5,0.5-1.3,0.5-2.4c-0.2,0.3-0.4,0.5-0.7,0.6s-0.6,0.2-0.9,0.2c-0.3,0-0.6-0.1-0.9-0.2
		c-0.3-0.1-0.5-0.3-0.7-0.5c-0.2-0.2-0.4-0.5-0.5-0.8c-0.1-0.3-0.2-0.7-0.2-1s0.1-0.7,0.2-1.1c0.1-0.3,0.3-0.6,0.5-0.8
		c0.2-0.2,0.5-0.4,0.7-0.6c0.3-0.1,0.6-0.2,0.9-0.2c0.8,0,1.4,0.3,1.8,1c0.4,0.7,0.6,1.8,0.6,3.3c0,0.7-0.1,1.3-0.2,1.8
		c-0.2,0.5-0.4,0.9-0.6,1.2s-0.6,0.6-0.9,0.7S343.7,431.6,343.3,431.6z M345.2,426.7c0-0.1,0-0.1,0-0.2c0-0.1,0-0.1,0-0.2
		c0-0.3,0-0.6-0.1-0.9s-0.2-0.5-0.3-0.7s-0.3-0.3-0.5-0.5c-0.2-0.1-0.4-0.2-0.6-0.2c-0.4,0-0.8,0.2-1.1,0.5
		c-0.3,0.3-0.4,0.8-0.4,1.4c0,0.3,0,0.5,0.1,0.7s0.2,0.4,0.3,0.6c0.1,0.2,0.3,0.3,0.4,0.4c0.2,0.1,0.3,0.1,0.5,0.1
		c0.3,0,0.7-0.1,0.9-0.3C344.8,427.3,345.1,427,345.2,426.7z"/>
	<path d="M348,424.6c0.2-0.4,0.6-0.7,1-1c0.4-0.2,0.8-0.3,1.3-0.3c0.3,0,0.6,0.1,0.9,0.2c0.3,0.1,0.5,0.3,0.8,0.5
		c0.2,0.2,0.4,0.5,0.5,0.7c0.1,0.3,0.2,0.6,0.2,0.9c0,0.3,0,0.5-0.1,0.7c-0.1,0.2-0.2,0.4-0.3,0.6s-0.3,0.4-0.4,0.6
		c-0.2,0.2-0.3,0.4-0.5,0.5l-0.8,0.7c-0.1,0.1-0.2,0.2-0.4,0.4s-0.3,0.3-0.4,0.5c-0.1,0.2-0.3,0.3-0.4,0.5c-0.1,0.2-0.2,0.4-0.3,0.5
		h3.4c0,0,0.1,0,0.1-0.1s0.1-0.1,0.1-0.1h0v0.9h-4.8v-0.6c0.3-0.6,0.7-1.2,1-1.6c0.4-0.5,0.7-0.8,1.1-1.2l0.6-0.6
		c0.2-0.2,0.4-0.4,0.5-0.6c0.1-0.2,0.2-0.3,0.3-0.5c0.1-0.2,0.1-0.3,0.2-0.4c0-0.1,0-0.3,0-0.4c0-0.2,0-0.4-0.1-0.6
		c-0.1-0.2-0.2-0.3-0.3-0.5s-0.3-0.3-0.5-0.3c-0.2-0.1-0.4-0.1-0.6-0.1c-0.2,0-0.4,0-0.6,0.1s-0.3,0.1-0.5,0.2
		c-0.1,0.1-0.2,0.2-0.3,0.3s-0.1,0.2-0.1,0.3c0,0.1,0,0.1-0.1,0.2L348,424.6z"/>
</g>
</svg>
