<?xml version="1.0" encoding="utf-8"?>
<!-- Generator: Adobe Illustrator 21.0.0, SVG Export Plug-In . SVG Version: 6.00 Build 0)  -->
<svg version="1.1" id="Livello_1" xmlns="http://www.w3.org/2000/svg" xmlns:xlink="http://www.w3.org/1999/xlink" x="0px" y="0px"
	 viewBox="0 0 503 468" style="enable-background:new 0 0 503 468;" xml:space="preserve">
<style type="text/css">
	.st0{fill:none;stroke:#000000;stroke-miterlimit:10;}
</style>
<g>
	<path d="M1.3,4.4h1.5l1.4,3.8l1.4-3.8h1.5v8.1H5.8V6.7L4.7,9.7h-1L2.6,6.7v5.9H1.3V4.4z"/>
	<path d="M8.7,6.5h2.8v4.9h1.3v1.1H8.7v-1.1h1.5V7.6H8.7V6.5z M10.9,3.8c0.1,0,0.2,0,0.3,0.1c0.1,0,0.2,0.1,0.3,0.2
		c0.1,0.1,0.1,0.2,0.2,0.3c0,0.1,0.1,0.2,0.1,0.3s0,0.2-0.1,0.3c0,0.1-0.1,0.2-0.2,0.3c-0.1,0.1-0.2,0.1-0.3,0.2S11,5.4,10.9,5.4
		s-0.2,0-0.4-0.1c-0.1,0-0.2-0.1-0.3-0.2C10.1,5.1,10.1,5,10,4.9C10,4.8,10,4.7,10,4.6c0-0.1,0-0.2,0.1-0.3c0-0.1,0.1-0.2,0.2-0.3
		c0.1-0.1,0.2-0.1,0.3-0.2C10.6,3.8,10.7,3.8,10.9,3.8z"/>
	<path d="M19,8.6C18.9,8.6,18.9,8.6,19,8.6c-0.1-0.1-0.1-0.1-0.1-0.1s0-0.1,0-0.1c0,0,0-0.1,0-0.1c-0.1-0.2-0.3-0.4-0.5-0.5
		c-0.2-0.1-0.5-0.2-0.8-0.2c-0.2,0-0.4,0-0.6,0.1c-0.2,0.1-0.4,0.2-0.5,0.4c-0.1,0.2-0.3,0.4-0.3,0.6c-0.1,0.2-0.1,0.5-0.1,0.8
		c0,0.3,0,0.6,0.1,0.8c0.1,0.2,0.2,0.5,0.3,0.6c0.1,0.2,0.3,0.3,0.5,0.4c0.2,0.1,0.4,0.2,0.7,0.2c0.1,0,0.2,0,0.4,0
		c0.1,0,0.3-0.1,0.4-0.1s0.3-0.1,0.4-0.3c0.1-0.1,0.3-0.2,0.4-0.4l0.8,1c-0.3,0.4-0.7,0.7-1.1,0.8c-0.4,0.2-0.8,0.3-1.3,0.3
		c-0.4,0-0.9-0.1-1.2-0.2c-0.4-0.2-0.7-0.4-1-0.7s-0.5-0.6-0.6-1c-0.2-0.4-0.2-0.8-0.2-1.3c0-0.5,0.1-0.9,0.2-1.3
		c0.1-0.4,0.4-0.7,0.6-1c0.3-0.3,0.6-0.5,1-0.7c0.4-0.2,0.8-0.3,1.3-0.3c0.3,0,0.5,0,0.7,0.1s0.5,0.1,0.7,0.2
		c0.2,0.1,0.4,0.2,0.6,0.4c0.2,0.1,0.3,0.3,0.5,0.5L19,8.6z"/>
	<path d="M21.2,12.5V3.8h1.7c0,0.1,0,0.1,0,0.1s0,0.1-0.1,0.1c0,0,0,0-0.1,0.1s0,0.1,0,0.1v3c0.2-0.2,0.5-0.4,0.7-0.5
		c0.3-0.1,0.6-0.2,0.9-0.2c0.3,0,0.6,0,0.8,0.1s0.5,0.2,0.6,0.4c0.2,0.2,0.3,0.5,0.4,0.8c0.1,0.3,0.1,0.7,0.1,1.2v3.7h-1.4V8.9
		c0-0.2,0-0.4-0.1-0.6S24.7,8,24.6,7.9c-0.1-0.1-0.2-0.2-0.3-0.2S24.1,7.5,24,7.5c-0.2,0-0.4,0-0.5,0.1C23.3,7.7,23.2,7.8,23,8
		c-0.1,0.1-0.2,0.3-0.3,0.5c-0.1,0.2-0.1,0.4-0.1,0.6v3.5H21.2z"/>
	<path d="M27.9,7.3c0.6-0.7,1.4-1,2.3-1c0.4,0,0.7,0,1,0.1s0.6,0.2,0.8,0.5c0.2,0.2,0.4,0.5,0.5,0.8c0.1,0.3,0.2,0.7,0.2,1.1v3.7
		h-1.4V12c-0.2,0.2-0.5,0.4-0.8,0.5c-0.3,0.1-0.6,0.2-0.9,0.2c-0.4,0-0.7,0-0.9-0.1c-0.3-0.1-0.5-0.2-0.6-0.4s-0.3-0.3-0.4-0.6
		c-0.1-0.2-0.1-0.4-0.1-0.7c0-0.3,0.1-0.6,0.2-0.9c0.1-0.3,0.3-0.5,0.6-0.7c0.3-0.2,0.6-0.3,1-0.4c0.4-0.1,0.8-0.2,1.3-0.2h0.8
		c0-0.5-0.1-0.8-0.3-1c-0.2-0.2-0.5-0.3-0.8-0.3c-0.5,0-1,0.3-1.5,0.8L27.9,7.3z M30.8,9.9c-0.4,0-0.7,0-0.9,0.1
		c-0.2,0.1-0.4,0.1-0.6,0.2S29,10.4,29,10.5c-0.1,0.1-0.1,0.2-0.1,0.4c0,0.1,0,0.2,0.1,0.3s0.1,0.2,0.2,0.2c0.1,0.1,0.2,0.1,0.3,0.2
		c0.1,0,0.2,0.1,0.3,0.1c0.2,0,0.4,0,0.5-0.1c0.2-0.1,0.3-0.2,0.4-0.3s0.2-0.2,0.3-0.3s0.1-0.2,0.2-0.3c0-0.1,0.1-0.2,0.1-0.3
		c0-0.1,0-0.3,0-0.5L30.8,9.9z"/>
	<path d="M36.8,6.3c0.4,0,0.7,0.1,1,0.2s0.6,0.3,0.8,0.6C38.8,7.3,39,7.7,39.1,8c0.1,0.4,0.2,0.8,0.2,1.3c0,0.1,0,0.2,0,0.3
		s0,0.2,0,0.3h-4c0,0.3,0.1,0.5,0.2,0.8c0.1,0.2,0.2,0.4,0.4,0.5c0.1,0.1,0.3,0.2,0.5,0.3c0.2,0.1,0.4,0.1,0.5,0.1
		c0.3,0,0.5-0.1,0.8-0.2c0.3-0.1,0.5-0.3,0.7-0.5l0.8,0.8c-0.6,0.7-1.4,1.1-2.3,1.1c-0.4,0-0.8-0.1-1.2-0.2c-0.4-0.1-0.7-0.4-1-0.6
		c-0.3-0.3-0.5-0.6-0.6-1c-0.2-0.4-0.2-0.8-0.2-1.3c0-0.5,0.1-1,0.2-1.4c0.1-0.4,0.3-0.7,0.6-1c0.3-0.3,0.6-0.5,0.9-0.6
		C36,6.4,36.3,6.3,36.8,6.3z M37.9,8.9c0-0.2,0-0.4-0.1-0.5c-0.1-0.2-0.1-0.3-0.2-0.5c-0.1-0.1-0.2-0.2-0.4-0.3
		c-0.2-0.1-0.3-0.1-0.5-0.1c-0.2,0-0.3,0-0.5,0.1c-0.1,0.1-0.3,0.2-0.4,0.3c-0.1,0.1-0.2,0.3-0.3,0.4c-0.1,0.2-0.1,0.4-0.1,0.6H37.9
		z"/>
	<path d="M40.9,3.8h3v7.6h1.7v1.1h-4.8v-1.1h1.7V4.9h-1.6V3.8z"/>
	<path d="M53.2,4.4h6v1.3h-2.3v6.8h-1.5V5.7h-2.2V4.4z"/>
	<path d="M64.5,8.5C64.4,8.5,64.4,8.4,64.5,8.5c-0.1,0-0.1-0.1-0.1-0.1c0,0,0-0.1,0-0.1c0,0,0-0.1,0-0.1C64.2,8.1,64.1,8,64,7.9
		c-0.1-0.1-0.2-0.2-0.4-0.2c-0.1-0.1-0.3-0.1-0.4-0.2c-0.2,0-0.3-0.1-0.5-0.1c-0.1,0-0.3,0-0.4,0c-0.1,0-0.2,0-0.3,0.1
		c-0.1,0-0.2,0.1-0.2,0.2c-0.1,0.1-0.1,0.2-0.1,0.2c0,0.1,0,0.2,0.1,0.3c0.1,0.1,0.1,0.1,0.3,0.2c0.1,0.1,0.3,0.1,0.4,0.2
		s0.4,0.1,0.6,0.2c0.7,0.2,1.3,0.5,1.6,0.8c0.3,0.3,0.5,0.7,0.5,1.1c0,0.3-0.1,0.5-0.2,0.8s-0.3,0.5-0.5,0.7
		c-0.2,0.2-0.5,0.3-0.8,0.4c-0.3,0.1-0.7,0.2-1.1,0.2c-0.5,0-1-0.1-1.4-0.2c-0.4-0.2-0.8-0.4-1.2-0.8l0.8-1.4c0.1,0,0.1,0,0.1,0.1
		c0,0.1,0.1,0.1,0.1,0.2c0.1,0.1,0.2,0.2,0.3,0.3c0.1,0.1,0.3,0.2,0.4,0.3s0.3,0.2,0.5,0.2c0.2,0.1,0.3,0.1,0.5,0.1
		c0.3,0,0.6,0,0.8-0.1c0.2-0.1,0.3-0.2,0.3-0.4c0-0.1,0-0.2-0.1-0.3s-0.1-0.1-0.2-0.2c-0.1-0.1-0.2-0.1-0.4-0.2
		c-0.1-0.1-0.3-0.1-0.5-0.2c-0.1,0-0.2-0.1-0.4-0.1c-0.1,0-0.2-0.1-0.4-0.1c-0.2-0.1-0.4-0.2-0.6-0.3c-0.2-0.1-0.3-0.2-0.5-0.4
		c-0.1-0.1-0.2-0.3-0.3-0.5c-0.1-0.2-0.1-0.4-0.1-0.6c0-0.2,0.1-0.4,0.2-0.6c0.1-0.2,0.3-0.4,0.5-0.6c0.2-0.2,0.5-0.3,0.8-0.4
		c0.3-0.1,0.6-0.2,1-0.2c0.5,0,0.9,0.1,1.3,0.2c0.4,0.2,0.8,0.4,1.1,0.8L64.5,8.5z"/>
	<path d="M66.7,12.5V3.8h1.7c0,0.1,0,0.1,0,0.1s0,0.1-0.1,0.1c0,0,0,0-0.1,0.1s0,0.1,0,0.1v3c0.2-0.2,0.5-0.4,0.7-0.5
		c0.3-0.1,0.6-0.2,0.9-0.2c0.3,0,0.6,0,0.8,0.1s0.5,0.2,0.6,0.4c0.2,0.2,0.3,0.5,0.4,0.8c0.1,0.3,0.1,0.7,0.1,1.2v3.7h-1.4V8.9
		c0-0.2,0-0.4-0.1-0.6S70.2,8,70.1,7.9c-0.1-0.1-0.2-0.2-0.3-0.2s-0.2-0.1-0.4-0.1c-0.2,0-0.4,0-0.5,0.1c-0.2,0.1-0.3,0.2-0.4,0.3
		c-0.1,0.1-0.2,0.3-0.3,0.5c-0.1,0.2-0.1,0.4-0.1,0.6v3.5H66.7z"/>
	<path d="M75.8,6.3c0.4,0,0.7,0.1,1,0.2s0.6,0.3,0.8,0.6C77.8,7.3,78,7.7,78.1,8c0.1,0.4,0.2,0.8,0.2,1.3c0,0.1,0,0.2,0,0.3
		s0,0.2,0,0.3h-4c0,0.3,0.1,0.5,0.2,0.8c0.1,0.2,0.2,0.4,0.4,0.5c0.1,0.1,0.3,0.2,0.5,0.3c0.2,0.1,0.4,0.1,0.5,0.1
		c0.3,0,0.5-0.1,0.8-0.2c0.3-0.1,0.5-0.3,0.7-0.5l0.8,0.8c-0.6,0.7-1.4,1.1-2.3,1.1c-0.4,0-0.8-0.1-1.2-0.2c-0.4-0.1-0.7-0.4-1-0.6
		c-0.3-0.3-0.5-0.6-0.6-1c-0.2-0.4-0.2-0.8-0.2-1.3c0-0.5,0.1-1,0.2-1.4c0.1-0.4,0.3-0.7,0.6-1c0.3-0.3,0.6-0.5,0.9-0.6
		C75,6.4,75.3,6.3,75.8,6.3z M76.9,8.9c0-0.2,0-0.4-0.1-0.5c-0.1-0.2-0.1-0.3-0.2-0.5c-0.1-0.1-0.2-0.2-0.4-0.3
		c-0.2-0.1-0.3-0.1-0.5-0.1c-0.2,0-0.3,0-0.5,0.1c-0.1,0.1-0.3,0.2-0.4,0.3c-0.1,0.1-0.2,0.3-0.3,0.4c-0.1,0.2-0.1,0.4-0.1,0.6H76.9
		z"/>
	<path d="M79.9,3.8h3v7.6h1.7v1.1h-4.8v-1.1h1.7V4.9h-1.6V3.8z"/>
	<path d="M88.8,6.3c0.4,0,0.7,0.1,1,0.2s0.6,0.3,0.8,0.6C90.8,7.3,91,7.7,91.1,8c0.1,0.4,0.2,0.8,0.2,1.3c0,0.1,0,0.2,0,0.3
		s0,0.2,0,0.3h-4c0,0.3,0.1,0.5,0.2,0.8c0.1,0.2,0.2,0.4,0.4,0.5c0.1,0.1,0.3,0.2,0.5,0.3c0.2,0.1,0.4,0.1,0.5,0.1
		c0.3,0,0.5-0.1,0.8-0.2c0.3-0.1,0.5-0.3,0.7-0.5l0.8,0.8c-0.6,0.7-1.4,1.1-2.3,1.1c-0.4,0-0.8-0.1-1.2-0.2c-0.4-0.1-0.7-0.4-1-0.6
		c-0.3-0.3-0.5-0.6-0.6-1c-0.2-0.4-0.2-0.8-0.2-1.3c0-0.5,0.1-1,0.2-1.4c0.1-0.4,0.3-0.7,0.6-1c0.3-0.3,0.6-0.5,0.9-0.6
		C88,6.4,88.3,6.3,88.8,6.3z M89.9,8.9c0-0.2,0-0.4-0.1-0.5c-0.1-0.2-0.1-0.3-0.2-0.5c-0.1-0.1-0.2-0.2-0.4-0.3
		c-0.2-0.1-0.3-0.1-0.5-0.1c-0.2,0-0.3,0-0.5,0.1c-0.1,0.1-0.3,0.2-0.4,0.3c-0.1,0.1-0.2,0.3-0.3,0.4c-0.1,0.2-0.1,0.4-0.1,0.6H89.9
		z"/>
	<path d="M95.9,12.3c0,0.7-0.5,1.5-1.4,2.4l-0.4-0.4c0.2-0.2,0.4-0.5,0.6-0.7c0.2-0.3,0.2-0.5,0.2-0.6c0-0.1,0-0.2-0.1-0.2
		c-0.1-0.1-0.1-0.1-0.2-0.2c-0.1-0.1-0.2-0.1-0.2-0.2c-0.1-0.1-0.1-0.2-0.1-0.3c0-0.2,0.1-0.4,0.2-0.5c0.1-0.1,0.3-0.2,0.6-0.2
		c0.2,0,0.4,0.1,0.6,0.3C95.8,11.7,95.9,12,95.9,12.3z"/>
	<path d="M4.2,22.1c0.4,0,0.7,0.1,1,0.2c0.3,0.1,0.6,0.3,0.9,0.6s0.4,0.6,0.6,1s0.2,0.8,0.2,1.3c0,0.5-0.1,0.9-0.2,1.3
		s-0.3,0.7-0.6,1c-0.2,0.3-0.5,0.5-0.9,0.6c-0.3,0.1-0.7,0.2-1.1,0.2c-0.4,0-0.7-0.1-1.1-0.2c-0.3-0.2-0.6-0.4-0.9-0.6
		s-0.5-0.6-0.6-1c-0.1-0.4-0.2-0.8-0.2-1.2s0.1-0.9,0.2-1.2c0.2-0.4,0.4-0.7,0.6-1s0.6-0.5,0.9-0.6C3.5,22.2,3.8,22.1,4.2,22.1z
		 M6,25.2c0-0.4,0-0.7-0.1-1c-0.1-0.3-0.2-0.5-0.4-0.7S5.1,23.1,4.8,23c-0.2-0.1-0.4-0.2-0.7-0.2c-0.2,0-0.5,0.1-0.7,0.2
		s-0.4,0.3-0.6,0.5c-0.2,0.2-0.3,0.4-0.4,0.7s-0.1,0.6-0.1,1c0,0.3,0,0.7,0.1,0.9s0.2,0.5,0.4,0.7c0.2,0.2,0.3,0.4,0.6,0.5
		c0.2,0.1,0.4,0.2,0.7,0.2s0.5,0,0.7-0.1c0.2-0.1,0.4-0.2,0.6-0.4c0.2-0.2,0.3-0.4,0.4-0.7C5.9,25.9,6,25.6,6,25.2z"/>
	<path d="M8.3,28.1v-5.9h0.9v1.1c0.2-0.4,0.5-0.7,0.9-0.9c0.4-0.2,0.7-0.3,1.1-0.3c0.3,0,0.5,0,0.7,0.1c0.2,0.1,0.4,0.2,0.6,0.4
		c0.2,0.2,0.3,0.5,0.4,0.8s0.1,0.7,0.1,1.1v3.6h-0.9v-3.6c0-0.6-0.1-1.1-0.3-1.3c-0.2-0.3-0.5-0.4-0.8-0.4c-0.2,0-0.4,0-0.6,0.1
		c-0.2,0.1-0.4,0.2-0.6,0.4c-0.2,0.2-0.3,0.4-0.4,0.6c-0.1,0.2-0.2,0.5-0.2,0.8v3.4H8.3z"/>
	<path d="M17.3,22.1c0.3,0,0.6,0.1,0.9,0.2c0.3,0.1,0.6,0.3,0.8,0.5c0.2,0.2,0.4,0.5,0.5,0.9s0.2,0.8,0.2,1.3c0,0.1,0,0.1,0,0.2
		s0,0.1,0,0.2h-4.2c0,0.4,0.1,0.8,0.2,1c0.1,0.3,0.3,0.5,0.5,0.7c0.2,0.2,0.4,0.3,0.6,0.4c0.2,0.1,0.5,0.1,0.7,0.1
		c0.6,0,1.1-0.2,1.5-0.7l0.5,0.5c-0.5,0.6-1.2,0.9-2.1,0.9c-0.4,0-0.8-0.1-1.2-0.2c-0.4-0.1-0.7-0.3-0.9-0.6c-0.3-0.3-0.4-0.6-0.6-1
		c-0.1-0.4-0.2-0.8-0.2-1.3c0-0.5,0.1-0.9,0.2-1.3s0.3-0.7,0.6-1c0.2-0.3,0.5-0.5,0.9-0.6C16.5,22.1,16.9,22.1,17.3,22.1z
		 M15.5,24.6h3.3c0,0,0-0.1,0-0.1c0,0,0-0.1,0-0.1c0-0.2,0-0.4-0.1-0.6c-0.1-0.2-0.2-0.4-0.3-0.5c-0.1-0.1-0.3-0.3-0.5-0.3
		c-0.2-0.1-0.4-0.1-0.6-0.1c-0.4,0-0.8,0.1-1.1,0.4C15.8,23.5,15.6,23.9,15.5,24.6z"/>
	<path d="M30.2,22.1c0.4,0,0.7,0.1,1,0.2c0.3,0.1,0.6,0.3,0.9,0.6c0.2,0.3,0.4,0.6,0.6,1s0.2,0.8,0.2,1.3c0,0.5-0.1,0.9-0.2,1.3
		s-0.3,0.7-0.6,1c-0.2,0.3-0.5,0.5-0.9,0.6c-0.3,0.1-0.7,0.2-1.1,0.2c-0.4,0-0.7-0.1-1.1-0.2c-0.3-0.2-0.6-0.4-0.9-0.6
		s-0.5-0.6-0.6-1c-0.1-0.4-0.2-0.8-0.2-1.2s0.1-0.9,0.2-1.2c0.2-0.4,0.4-0.7,0.6-1s0.6-0.5,0.9-0.6C29.5,22.2,29.8,22.1,30.2,22.1z
		 M32,25.2c0-0.4,0-0.7-0.1-1c-0.1-0.3-0.2-0.5-0.4-0.7s-0.4-0.4-0.6-0.5c-0.2-0.1-0.4-0.2-0.7-0.2c-0.2,0-0.5,0.1-0.7,0.2
		s-0.4,0.3-0.6,0.5c-0.2,0.2-0.3,0.4-0.4,0.7s-0.1,0.6-0.1,1c0,0.3,0,0.7,0.1,0.9s0.2,0.5,0.4,0.7c0.2,0.2,0.3,0.4,0.6,0.5
		c0.2,0.1,0.4,0.2,0.7,0.2s0.5,0,0.7-0.1c0.2-0.1,0.4-0.2,0.6-0.4c0.2-0.2,0.3-0.4,0.4-0.7C31.9,25.9,32,25.6,32,25.2z"/>
	<path d="M37.9,19.4c0.8,0,1.4,0.3,1.8,0.8l-0.4,0.9c-0.1,0-0.1,0-0.1-0.1s0-0.1,0-0.2c-0.1-0.2-0.3-0.4-0.6-0.5s-0.5-0.2-0.7-0.2
		c-0.2,0-0.4,0-0.6,0.1c-0.2,0.1-0.3,0.2-0.4,0.3s-0.2,0.3-0.3,0.6s-0.1,0.6-0.1,0.9v0.5h2v0.8h-2v4.8h-0.9v-4.8h-1.3v-0.8h1.3V22
		c0-0.5,0.1-0.9,0.2-1.2c0.1-0.3,0.3-0.6,0.5-0.8c0.2-0.2,0.5-0.3,0.8-0.4C37.2,19.5,37.5,19.4,37.9,19.4z"/>
	<path d="M47.3,28.1v-8.6h1.1c0,0,0,0,0,0s0,0,0,0c0,0,0,0.1-0.1,0.1c0,0-0.1,0.1-0.1,0.2v3.4c0.2-0.4,0.5-0.7,0.9-0.9
		c0.4-0.2,0.7-0.3,1.1-0.3c0.3,0,0.5,0,0.7,0.1c0.2,0.1,0.4,0.2,0.6,0.4c0.2,0.2,0.3,0.5,0.4,0.8s0.1,0.7,0.1,1.1v3.6h-0.9v-3.6
		c0-0.6-0.1-1.1-0.3-1.3c-0.2-0.3-0.5-0.4-0.8-0.4c-0.2,0-0.4,0-0.6,0.1c-0.2,0.1-0.4,0.2-0.6,0.4s-0.3,0.3-0.4,0.6
		c-0.1,0.2-0.1,0.5-0.1,0.8v3.4H47.3z"/>
	<path d="M54.3,22.2h2.4v5.2h1.4v0.8h-3.8v-0.8h1.5V23h-1.4V22.2z M55.7,19.8c0.1-0.1,0.3-0.2,0.5-0.2c0.2,0,0.3,0.1,0.5,0.2
		c0.1,0.1,0.2,0.3,0.2,0.5s-0.1,0.3-0.2,0.5c-0.1,0.1-0.3,0.2-0.5,0.2c-0.2,0-0.3-0.1-0.5-0.2c-0.1-0.1-0.2-0.3-0.2-0.5
		C55.5,20.1,55.6,19.9,55.7,19.8z"/>
	<path d="M65,23l-0.5,0.8c0,0-0.1,0-0.1-0.1c0-0.1,0-0.1,0-0.1c-0.2-0.2-0.4-0.4-0.7-0.6c-0.3-0.2-0.6-0.3-1-0.3
		c-0.2,0-0.3,0-0.5,0.1S62,22.9,61.9,23c-0.1,0.1-0.2,0.2-0.3,0.3s-0.1,0.2-0.1,0.4c0,0.1,0,0.2,0.1,0.3s0.1,0.2,0.2,0.2
		c0.1,0.1,0.3,0.2,0.5,0.2c0.2,0.1,0.5,0.2,0.8,0.3c0.8,0.2,1.3,0.4,1.6,0.7c0.3,0.3,0.5,0.6,0.5,1c0,0.3-0.1,0.5-0.2,0.7
		c-0.1,0.2-0.3,0.4-0.5,0.6c-0.2,0.2-0.5,0.3-0.8,0.4s-0.6,0.1-1,0.1c-1,0-1.8-0.3-2.5-0.9l0.5-0.9c0,0,0,0.1,0.1,0.1
		c0,0.1,0,0.1,0.1,0.2s0.1,0.2,0.3,0.3s0.4,0.2,0.6,0.3c0.1,0.1,0.3,0.1,0.4,0.1c0.2,0,0.3,0,0.5,0c0.2,0,0.4,0,0.5-0.1
		c0.2,0,0.3-0.1,0.5-0.2c0.1-0.1,0.3-0.2,0.3-0.3c0.1-0.1,0.1-0.3,0.1-0.4c0-0.2-0.1-0.4-0.3-0.6c-0.2-0.2-0.6-0.3-1.2-0.5
		c-0.4-0.1-0.6-0.2-0.8-0.2c-0.3-0.1-0.5-0.2-0.7-0.3c-0.1-0.1-0.3-0.2-0.4-0.3c-0.1-0.1-0.2-0.3-0.3-0.4c-0.1-0.2-0.1-0.3-0.1-0.5
		c0-0.2,0.1-0.4,0.2-0.6c0.1-0.2,0.3-0.4,0.5-0.5c0.2-0.1,0.4-0.3,0.7-0.4c0.3-0.1,0.6-0.1,0.9-0.1C63.7,22.1,64.5,22.4,65,23z"/>
	<path d="M73.5,19.5h2.6v7.9h1.7v0.8h-4.4v-0.8h1.8v-7.1h-1.7V19.5z"/>
	<path d="M80.1,22.9c0.5-0.6,1.2-0.8,2.1-0.8c0.7,0,1.3,0.2,1.7,0.6c0.4,0.4,0.6,1,0.6,1.8v3.7h-0.9v-0.6c-0.6,0.5-1.3,0.8-2.1,0.8
		c-0.3,0-0.6,0-0.8-0.1c-0.2-0.1-0.5-0.2-0.6-0.4c-0.2-0.2-0.3-0.3-0.4-0.5c-0.1-0.2-0.1-0.4-0.1-0.6c0-0.6,0.3-1.1,0.8-1.4
		c0.5-0.3,1.3-0.5,2.2-0.6h1.1v-0.2c0-0.6-0.1-1-0.4-1.2c-0.2-0.2-0.6-0.4-1.2-0.4c-0.6,0-1.2,0.2-1.6,0.7L80.1,22.9z M83.7,25.4
		h-0.2c-0.1,0-0.2,0-0.3,0s-0.2,0-0.3,0c-0.5,0-0.9,0-1.2,0.1c-0.3,0.1-0.5,0.2-0.7,0.3c-0.2,0.1-0.3,0.2-0.4,0.4s-0.1,0.3-0.1,0.5
		c0,0.3,0.1,0.5,0.4,0.7c0.2,0.2,0.5,0.3,0.9,0.3c0.3,0,0.5,0,0.7-0.1s0.4-0.2,0.5-0.3c0.2-0.1,0.3-0.2,0.4-0.4s0.2-0.2,0.2-0.3
		c0.1-0.2,0.1-0.4,0.1-0.7V25.4z"/>
	<path d="M87.9,20.6l1-0.2c0,0.1,0,0.1,0,0.2c0,0.1,0,0.1,0,0.1l-0.2,1.4h1.9V23h-1.9c-0.1,0.8-0.1,1.5-0.1,2.2c0,0.4,0,0.8,0,1.1
		c0,0.3,0.1,0.5,0.1,0.7c0.1,0.2,0.2,0.3,0.3,0.4c0.1,0.1,0.3,0.1,0.6,0.1c0.4,0,0.8-0.2,1.3-0.5l0.3,0.7c-0.6,0.4-1.2,0.7-1.8,0.7
		c-0.6,0-1.1-0.2-1.4-0.6s-0.4-1-0.4-1.8c0-0.3,0-0.7,0-1.2c0-0.5,0.1-1.1,0.1-1.7h-1.4v-0.8h1.4L87.9,20.6z"/>
	<path d="M95.3,22.1c0.3,0,0.6,0.1,0.9,0.2c0.3,0.1,0.6,0.3,0.8,0.5c0.2,0.2,0.4,0.5,0.5,0.9s0.2,0.8,0.2,1.3c0,0.1,0,0.1,0,0.2
		s0,0.1,0,0.2h-4.2c0,0.4,0.1,0.8,0.2,1c0.1,0.3,0.3,0.5,0.5,0.7c0.2,0.2,0.4,0.3,0.6,0.4c0.2,0.1,0.5,0.1,0.7,0.1
		c0.6,0,1.1-0.2,1.5-0.7l0.5,0.5c-0.5,0.6-1.2,0.9-2.1,0.9c-0.4,0-0.8-0.1-1.2-0.2c-0.4-0.1-0.7-0.3-0.9-0.6c-0.3-0.3-0.4-0.6-0.6-1
		c-0.1-0.4-0.2-0.8-0.2-1.3c0-0.5,0.1-0.9,0.2-1.3s0.3-0.7,0.6-1c0.2-0.3,0.5-0.5,0.9-0.6C94.5,22.1,94.9,22.1,95.3,22.1z
		 M93.5,24.6h3.3c0,0,0-0.1,0-0.1c0,0,0-0.1,0-0.1c0-0.2,0-0.4-0.1-0.6c-0.1-0.2-0.2-0.4-0.3-0.5c-0.1-0.1-0.3-0.3-0.5-0.3
		c-0.2-0.1-0.4-0.1-0.6-0.1c-0.4,0-0.8,0.1-1.1,0.4C93.8,23.5,93.6,23.9,93.5,24.6z"/>
	<path d="M104,23l-0.5,0.8c0,0-0.1,0-0.1-0.1c0-0.1,0-0.1,0-0.1c-0.2-0.2-0.4-0.4-0.7-0.6c-0.3-0.2-0.6-0.3-1-0.3
		c-0.2,0-0.3,0-0.5,0.1s-0.3,0.1-0.4,0.2c-0.1,0.1-0.2,0.2-0.3,0.3s-0.1,0.2-0.1,0.4c0,0.1,0,0.2,0.1,0.3s0.1,0.2,0.2,0.2
		c0.1,0.1,0.3,0.2,0.5,0.2c0.2,0.1,0.5,0.2,0.8,0.3c0.8,0.2,1.3,0.4,1.6,0.7c0.3,0.3,0.5,0.6,0.5,1c0,0.3-0.1,0.5-0.2,0.7
		c-0.1,0.2-0.3,0.4-0.5,0.6c-0.2,0.2-0.5,0.3-0.8,0.4s-0.6,0.1-1,0.1c-1,0-1.8-0.3-2.5-0.9l0.5-0.9c0,0,0,0.1,0.1,0.1
		c0,0.1,0,0.1,0.1,0.2s0.1,0.2,0.3,0.3s0.4,0.2,0.6,0.3c0.1,0.1,0.3,0.1,0.4,0.1c0.2,0,0.3,0,0.5,0c0.2,0,0.4,0,0.5-0.1
		c0.2,0,0.3-0.1,0.5-0.2c0.1-0.1,0.3-0.2,0.3-0.3c0.1-0.1,0.1-0.3,0.1-0.4c0-0.2-0.1-0.4-0.3-0.6c-0.2-0.2-0.6-0.3-1.2-0.5
		c-0.4-0.1-0.6-0.2-0.8-0.2c-0.3-0.1-0.5-0.2-0.7-0.3c-0.1-0.1-0.3-0.2-0.4-0.3c-0.1-0.1-0.2-0.3-0.3-0.4c-0.1-0.2-0.1-0.3-0.1-0.5
		c0-0.2,0.1-0.4,0.2-0.6c0.1-0.2,0.3-0.4,0.5-0.5c0.2-0.1,0.4-0.3,0.7-0.4c0.3-0.1,0.6-0.1,0.9-0.1C102.7,22.1,103.5,22.4,104,23z"
		/>
	<path d="M107.4,20.6l1-0.2c0,0.1,0,0.1,0,0.2c0,0.1,0,0.1,0,0.1l-0.2,1.4h1.9V23h-1.9c-0.1,0.8-0.1,1.5-0.1,2.2c0,0.4,0,0.8,0,1.1
		c0,0.3,0.1,0.5,0.1,0.7c0.1,0.2,0.2,0.3,0.3,0.4c0.1,0.1,0.3,0.1,0.6,0.1c0.4,0,0.8-0.2,1.3-0.5l0.3,0.7c-0.6,0.4-1.2,0.7-1.8,0.7
		c-0.6,0-1.1-0.2-1.4-0.6s-0.4-1-0.4-1.8c0-0.3,0-0.7,0-1.2c0-0.5,0.1-1.1,0.1-1.7h-1.4v-0.8h1.4L107.4,20.6z"/>
	<path d="M118.7,22.2h0.9v0.9c0.2-0.3,0.5-0.6,0.8-0.8c0.3-0.2,0.7-0.3,1-0.3c0.3,0,0.6,0.1,0.9,0.2s0.6,0.3,0.8,0.6
		c0.2,0.3,0.4,0.6,0.5,0.9c0.1,0.4,0.2,0.8,0.2,1.4s-0.1,1-0.2,1.4c-0.1,0.4-0.3,0.7-0.6,1c-0.2,0.3-0.5,0.5-0.8,0.6
		s-0.6,0.2-0.9,0.2c-0.4,0-0.7-0.1-1-0.2c-0.3-0.2-0.6-0.4-0.8-0.7v3h-0.9V22.2z M119.6,25.7c0,0.6,0.2,1.1,0.4,1.4s0.6,0.4,1,0.4
		c0.2,0,0.4,0,0.7-0.1s0.4-0.2,0.6-0.4c0.2-0.2,0.3-0.4,0.4-0.7c0.1-0.3,0.2-0.6,0.2-1c0-0.8-0.2-1.3-0.5-1.8
		c-0.3-0.4-0.8-0.6-1.3-0.7c-0.2,0-0.4,0-0.5,0.1c-0.2,0.1-0.3,0.2-0.5,0.3c-0.1,0.1-0.3,0.3-0.4,0.6s-0.1,0.5-0.1,0.9V25.7z"/>
	<path d="M125.3,28.1v-8.6h1.1c0,0,0,0,0,0s0,0,0,0c0,0,0,0.1-0.1,0.1c0,0-0.1,0.1-0.1,0.2v3.4c0.2-0.4,0.5-0.7,0.9-0.9
		c0.4-0.2,0.7-0.3,1.1-0.3c0.3,0,0.5,0,0.7,0.1c0.2,0.1,0.4,0.2,0.6,0.4c0.2,0.2,0.3,0.5,0.4,0.8s0.1,0.7,0.1,1.1v3.6h-0.9v-3.6
		c0-0.6-0.1-1.1-0.3-1.3c-0.2-0.3-0.5-0.4-0.8-0.4c-0.2,0-0.4,0-0.6,0.1c-0.2,0.1-0.4,0.2-0.6,0.4s-0.3,0.3-0.4,0.6
		c-0.1,0.2-0.1,0.5-0.1,0.8v3.4H125.3z"/>
	<path d="M134.2,22.1c0.4,0,0.7,0.1,1,0.2c0.3,0.1,0.6,0.3,0.9,0.6s0.4,0.6,0.6,1s0.2,0.8,0.2,1.3c0,0.5-0.1,0.9-0.2,1.3
		s-0.3,0.7-0.6,1c-0.2,0.3-0.5,0.5-0.9,0.6c-0.3,0.1-0.7,0.2-1.1,0.2c-0.4,0-0.7-0.1-1.1-0.2c-0.3-0.2-0.6-0.4-0.9-0.6
		s-0.5-0.6-0.6-1c-0.1-0.4-0.2-0.8-0.2-1.2s0.1-0.9,0.2-1.2c0.2-0.4,0.4-0.7,0.6-1s0.6-0.5,0.9-0.6
		C133.5,22.2,133.8,22.1,134.2,22.1z M136,25.2c0-0.4,0-0.7-0.1-1c-0.1-0.3-0.2-0.5-0.4-0.7s-0.4-0.4-0.6-0.5
		c-0.2-0.1-0.4-0.2-0.7-0.2c-0.2,0-0.5,0.1-0.7,0.2s-0.4,0.3-0.6,0.5c-0.2,0.2-0.3,0.4-0.4,0.7s-0.1,0.6-0.1,1c0,0.3,0,0.7,0.1,0.9
		s0.2,0.5,0.4,0.7c0.2,0.2,0.3,0.4,0.6,0.5c0.2,0.1,0.4,0.2,0.7,0.2s0.5,0,0.7-0.1c0.2-0.1,0.4-0.2,0.6-0.4c0.2-0.2,0.3-0.4,0.4-0.7
		C135.9,25.9,136,25.6,136,25.2z"/>
	<path d="M139.9,20.6l1-0.2c0,0.1,0,0.1,0,0.2c0,0.1,0,0.1,0,0.1l-0.2,1.4h1.9V23h-1.9c-0.1,0.8-0.1,1.5-0.1,2.2c0,0.4,0,0.8,0,1.1
		c0,0.3,0.1,0.5,0.1,0.7c0.1,0.2,0.2,0.3,0.3,0.4c0.1,0.1,0.3,0.1,0.6,0.1c0.4,0,0.8-0.2,1.3-0.5l0.3,0.7c-0.6,0.4-1.2,0.7-1.8,0.7
		c-0.6,0-1.1-0.2-1.4-0.6s-0.4-1-0.4-1.8c0-0.3,0-0.7,0-1.2c0-0.5,0.1-1.1,0.1-1.7h-1.4v-0.8h1.4L139.9,20.6z"/>
	<path d="M147.2,22.1c0.4,0,0.7,0.1,1,0.2c0.3,0.1,0.6,0.3,0.9,0.6s0.4,0.6,0.6,1s0.2,0.8,0.2,1.3c0,0.5-0.1,0.9-0.2,1.3
		s-0.3,0.7-0.6,1c-0.2,0.3-0.5,0.5-0.9,0.6c-0.3,0.1-0.7,0.2-1.1,0.2c-0.4,0-0.7-0.1-1.1-0.2c-0.3-0.2-0.6-0.4-0.9-0.6
		s-0.5-0.6-0.6-1c-0.1-0.4-0.2-0.8-0.2-1.2s0.1-0.9,0.2-1.2c0.2-0.4,0.4-0.7,0.6-1s0.6-0.5,0.9-0.6
		C146.5,22.2,146.8,22.1,147.2,22.1z M149,25.2c0-0.4,0-0.7-0.1-1c-0.1-0.3-0.2-0.5-0.4-0.7s-0.4-0.4-0.6-0.5
		c-0.2-0.1-0.4-0.2-0.7-0.2c-0.2,0-0.5,0.1-0.7,0.2s-0.4,0.3-0.6,0.5c-0.2,0.2-0.3,0.4-0.4,0.7s-0.1,0.6-0.1,1c0,0.3,0,0.7,0.1,0.9
		s0.2,0.5,0.4,0.7c0.2,0.2,0.3,0.4,0.6,0.5c0.2,0.1,0.4,0.2,0.7,0.2s0.5,0,0.7-0.1c0.2-0.1,0.4-0.2,0.6-0.4c0.2-0.2,0.3-0.4,0.4-0.7
		C148.9,25.9,149,25.6,149,25.2z"/>
	<path d="M156,23l-0.5,0.8c0,0-0.1,0-0.1-0.1c0-0.1,0-0.1,0-0.1c-0.2-0.2-0.4-0.4-0.7-0.6c-0.3-0.2-0.6-0.3-1-0.3
		c-0.2,0-0.3,0-0.5,0.1s-0.3,0.1-0.4,0.2c-0.1,0.1-0.2,0.2-0.3,0.3s-0.1,0.2-0.1,0.4c0,0.1,0,0.2,0.1,0.3s0.1,0.2,0.2,0.2
		c0.1,0.1,0.3,0.2,0.5,0.2c0.2,0.1,0.5,0.2,0.8,0.3c0.8,0.2,1.3,0.4,1.6,0.7c0.3,0.3,0.5,0.6,0.5,1c0,0.3-0.1,0.5-0.2,0.7
		c-0.1,0.2-0.3,0.4-0.5,0.6c-0.2,0.2-0.5,0.3-0.8,0.4s-0.6,0.1-1,0.1c-1,0-1.8-0.3-2.5-0.9l0.5-0.9c0,0,0,0.1,0.1,0.1
		c0,0.1,0,0.1,0.1,0.2s0.1,0.2,0.3,0.3s0.4,0.2,0.6,0.3c0.1,0.1,0.3,0.1,0.4,0.1c0.2,0,0.3,0,0.5,0c0.2,0,0.4,0,0.5-0.1
		c0.2,0,0.3-0.1,0.5-0.2c0.1-0.1,0.3-0.2,0.3-0.3c0.1-0.1,0.1-0.3,0.1-0.4c0-0.2-0.1-0.4-0.3-0.6c-0.2-0.2-0.6-0.3-1.2-0.5
		c-0.4-0.1-0.6-0.2-0.8-0.2c-0.3-0.1-0.5-0.2-0.7-0.3c-0.1-0.1-0.3-0.2-0.4-0.3c-0.1-0.1-0.2-0.3-0.3-0.4c-0.1-0.2-0.1-0.3-0.1-0.5
		c0-0.2,0.1-0.4,0.2-0.6c0.1-0.2,0.3-0.4,0.5-0.5c0.2-0.1,0.4-0.3,0.7-0.4c0.3-0.1,0.6-0.1,0.9-0.1C154.7,22.1,155.5,22.4,156,23z"
		/>
	<path d="M160.6,22.9c0.2,0.2,0.2,0.3,0.2,0.5c0,0.2-0.1,0.4-0.2,0.5c-0.2,0.1-0.3,0.2-0.5,0.2c-0.2,0-0.4-0.1-0.5-0.2
		c-0.2-0.1-0.2-0.3-0.2-0.5c0-0.2,0.1-0.4,0.2-0.5c0.2-0.1,0.3-0.2,0.5-0.2C160.2,22.6,160.4,22.7,160.6,22.9z M160.6,27
		c0.2,0.2,0.2,0.3,0.2,0.5c0,0.2-0.1,0.4-0.2,0.5c-0.2,0.1-0.3,0.2-0.6,0.2c-0.2,0-0.4-0.1-0.5-0.2c-0.1-0.1-0.2-0.3-0.2-0.5
		s0.1-0.4,0.2-0.5c0.2-0.1,0.3-0.2,0.5-0.2C160.2,26.8,160.4,26.9,160.6,27z"/>
</g>
<g>
	<path d="M1.6,401.5v-8.1h0.9l3.4,6v-6h1c0,0.1,0,0.1,0,0.2s0,0.1,0,0.2v7.8H6l-3.6-6.4v6.4H1.6z"/>
	<path d="M8.6,396.3c0.5-0.6,1.2-0.8,2.1-0.8c0.7,0,1.3,0.2,1.7,0.6s0.6,1,0.6,1.8v3.7h-0.9v-0.7c-0.6,0.5-1.3,0.8-2.1,0.8
		c-0.3,0-0.6,0-0.8-0.1c-0.2-0.1-0.5-0.2-0.6-0.4s-0.3-0.3-0.4-0.5S8,400.2,8,400c0-0.6,0.3-1.1,0.8-1.4c0.5-0.3,1.3-0.5,2.2-0.6
		h1.1v-0.2c0-0.6-0.1-1-0.4-1.2c-0.2-0.2-0.6-0.4-1.2-0.4c-0.6,0-1.2,0.2-1.6,0.7L8.6,396.3z M12.2,398.8H12c-0.1,0-0.2,0-0.3,0
		c-0.1,0-0.2,0-0.3,0c-0.5,0-0.9,0-1.2,0.1c-0.3,0.1-0.5,0.2-0.7,0.3c-0.2,0.1-0.3,0.2-0.4,0.4C9,399.6,9,399.8,9,400
		c0,0.3,0.1,0.5,0.4,0.7s0.5,0.3,0.9,0.3c0.3,0,0.5,0,0.7-0.1s0.4-0.2,0.5-0.3c0.2-0.1,0.3-0.2,0.4-0.4s0.2-0.2,0.2-0.3
		c0.1-0.2,0.1-0.4,0.1-0.7V398.8z"/>
	<path d="M16.4,394l1-0.2c0,0.1,0,0.1,0,0.2c0,0.1,0,0.1,0,0.1l-0.2,1.4h1.9v0.8h-1.9c-0.1,0.8-0.1,1.5-0.1,2.2c0,0.4,0,0.8,0,1.1
		c0,0.3,0.1,0.5,0.1,0.7c0.1,0.2,0.2,0.3,0.3,0.4c0.1,0.1,0.3,0.1,0.6,0.1c0.4,0,0.8-0.2,1.3-0.5l0.3,0.7c-0.6,0.4-1.2,0.7-1.8,0.7
		c-0.6,0-1.1-0.2-1.4-0.6c-0.3-0.4-0.4-1-0.4-1.8c0-0.3,0-0.7,0-1.2c0-0.5,0.1-1.1,0.1-1.7h-1.4v-0.8h1.4L16.4,394z"/>
	<path d="M21.8,395.6h2.4v5.2h1.4v0.8h-3.8v-0.8h1.5v-4.4h-1.4V395.6z M23.2,393.2c0.1-0.1,0.3-0.2,0.5-0.2c0.2,0,0.3,0.1,0.5,0.2
		s0.2,0.3,0.2,0.5c0,0.2-0.1,0.3-0.2,0.5s-0.3,0.2-0.5,0.2c-0.2,0-0.3-0.1-0.5-0.2s-0.2-0.3-0.2-0.5C23,393.5,23.1,393.3,23.2,393.2
		z"/>
	<path d="M30.2,395.5c0.4,0,0.7,0.1,1,0.2c0.3,0.1,0.6,0.3,0.9,0.6c0.2,0.3,0.4,0.6,0.6,1c0.1,0.4,0.2,0.8,0.2,1.3
		c0,0.5-0.1,0.9-0.2,1.3s-0.3,0.7-0.6,1c-0.2,0.3-0.5,0.5-0.9,0.6c-0.3,0.1-0.7,0.2-1.1,0.2c-0.4,0-0.7-0.1-1.1-0.2
		s-0.6-0.4-0.9-0.6s-0.5-0.6-0.6-1c-0.1-0.4-0.2-0.8-0.2-1.2c0-0.4,0.1-0.9,0.2-1.2c0.2-0.4,0.4-0.7,0.6-1s0.6-0.5,0.9-0.6
		S29.8,395.5,30.2,395.5z M32,398.6c0-0.4,0-0.7-0.1-1s-0.2-0.5-0.4-0.7s-0.4-0.4-0.6-0.5c-0.2-0.1-0.4-0.2-0.7-0.2
		c-0.2,0-0.5,0.1-0.7,0.2s-0.4,0.3-0.6,0.5c-0.2,0.2-0.3,0.4-0.4,0.7s-0.1,0.6-0.1,1c0,0.3,0,0.7,0.1,0.9s0.2,0.5,0.4,0.7
		c0.2,0.2,0.3,0.4,0.6,0.5c0.2,0.1,0.4,0.2,0.7,0.2s0.5,0,0.7-0.1c0.2-0.1,0.4-0.2,0.6-0.4c0.2-0.2,0.3-0.4,0.4-0.7
		C31.9,399.3,32,399,32,398.6z"/>
	<path d="M34.3,401.5v-5.9h0.9v1.1c0.2-0.4,0.5-0.7,0.9-0.9c0.4-0.2,0.7-0.3,1.1-0.3c0.3,0,0.5,0,0.7,0.1c0.2,0.1,0.4,0.2,0.6,0.4
		c0.2,0.2,0.3,0.5,0.4,0.8s0.1,0.7,0.1,1.1v3.6h-0.9V398c0-0.6-0.1-1.1-0.3-1.3c-0.2-0.3-0.5-0.4-0.8-0.4c-0.2,0-0.4,0-0.6,0.1
		c-0.2,0.1-0.4,0.2-0.6,0.4c-0.2,0.2-0.3,0.4-0.4,0.6c-0.1,0.2-0.2,0.5-0.2,0.8v3.4H34.3z"/>
	<path d="M41.1,396.3c0.5-0.6,1.2-0.8,2.1-0.8c0.7,0,1.3,0.2,1.7,0.6s0.6,1,0.6,1.8v3.7h-0.9v-0.7c-0.6,0.5-1.3,0.8-2.1,0.8
		c-0.3,0-0.6,0-0.8-0.1c-0.2-0.1-0.5-0.2-0.6-0.4s-0.3-0.3-0.4-0.5s-0.1-0.4-0.1-0.6c0-0.6,0.3-1.1,0.8-1.4c0.5-0.3,1.3-0.5,2.2-0.6
		h1.1v-0.2c0-0.6-0.1-1-0.4-1.2c-0.2-0.2-0.6-0.4-1.2-0.4c-0.6,0-1.2,0.2-1.6,0.7L41.1,396.3z M44.7,398.8h-0.2c-0.1,0-0.2,0-0.3,0
		c-0.1,0-0.2,0-0.3,0c-0.5,0-0.9,0-1.2,0.1c-0.3,0.1-0.5,0.2-0.7,0.3c-0.2,0.1-0.3,0.2-0.4,0.4c-0.1,0.1-0.1,0.3-0.1,0.5
		c0,0.3,0.1,0.5,0.4,0.7s0.5,0.3,0.9,0.3c0.3,0,0.5,0,0.7-0.1s0.4-0.2,0.5-0.3c0.2-0.1,0.3-0.2,0.4-0.4s0.2-0.2,0.2-0.3
		c0.1-0.2,0.1-0.4,0.1-0.7V398.8z"/>
	<path d="M47.5,392.9h2.6v7.9h1.7v0.8h-4.4v-0.8h1.8v-7.1h-1.7V392.9z"/>
	<path d="M54.3,395.6h2.4v5.2h1.4v0.8h-3.8v-0.8h1.5v-4.4h-1.4V395.6z M55.7,393.2c0.1-0.1,0.3-0.2,0.5-0.2c0.2,0,0.3,0.1,0.5,0.2
		s0.2,0.3,0.2,0.5c0,0.2-0.1,0.3-0.2,0.5s-0.3,0.2-0.5,0.2c-0.2,0-0.3-0.1-0.5-0.2s-0.2-0.3-0.2-0.5
		C55.5,393.5,55.6,393.3,55.7,393.2z"/>
	<path d="M61.9,394l1-0.2c0,0.1,0,0.1,0,0.2c0,0.1,0,0.1,0,0.1l-0.2,1.4h1.9v0.8h-1.9c-0.1,0.8-0.1,1.5-0.1,2.2c0,0.4,0,0.8,0,1.1
		c0,0.3,0.1,0.5,0.1,0.7c0.1,0.2,0.2,0.3,0.3,0.4c0.1,0.1,0.3,0.1,0.6,0.1c0.4,0,0.8-0.2,1.3-0.5l0.3,0.7c-0.6,0.4-1.2,0.7-1.8,0.7
		c-0.6,0-1.1-0.2-1.4-0.6c-0.3-0.4-0.4-1-0.4-1.8c0-0.3,0-0.7,0-1.2c0-0.5,0.1-1.1,0.1-1.7h-1.4v-0.8h1.4L61.9,394z"/>
	<path d="M66.7,396l-0.2-0.4h1.1c0,0.1,0,0.1,0,0.2c0,0,0,0.1,0,0.1c0,0,0,0.1,0,0.1l1.8,4.4l1.1-3.2c0.1-0.3,0.2-0.6,0.3-0.9
		s0.1-0.5,0.2-0.7h1c-0.1,0.2-0.2,0.5-0.3,0.8c-0.1,0.3-0.2,0.6-0.3,0.9l-1.6,4.3l-0.2,0.7c-0.2,0.6-0.5,1-0.8,1.2
		c-0.3,0.2-0.7,0.4-1.1,0.4c-0.6,0-1-0.2-1.4-0.5l0.5-0.8c0,0,0,0.1,0.1,0.1c0,0.1,0,0.1,0,0.1c0.1,0.1,0.1,0.1,0.2,0.2
		c0.1,0,0.1,0.1,0.2,0.1c0.1,0,0.2,0.1,0.3,0.1c0.3,0,0.5-0.1,0.7-0.2c0.2-0.2,0.4-0.4,0.6-0.9l0.2-0.4L66.7,396z"/>
	<path d="M76.1,396.3c0.2,0.2,0.2,0.3,0.2,0.5c0,0.2-0.1,0.4-0.2,0.5c-0.2,0.1-0.3,0.2-0.5,0.2c-0.2,0-0.4-0.1-0.5-0.2
		c-0.2-0.1-0.2-0.3-0.2-0.5c0-0.2,0.1-0.4,0.2-0.5c0.2-0.1,0.3-0.2,0.5-0.2C75.7,396,75.9,396.1,76.1,396.3z M76.1,400.4
		c0.2,0.2,0.2,0.3,0.2,0.5s-0.1,0.4-0.2,0.5c-0.2,0.1-0.3,0.2-0.6,0.2c-0.2,0-0.4-0.1-0.5-0.2c-0.1-0.1-0.2-0.3-0.2-0.5
		c0-0.2,0.1-0.4,0.2-0.5c0.2-0.1,0.3-0.2,0.5-0.2C75.7,400.2,75.9,400.3,76.1,400.4z"/>
	<path d="M85.6,401.5l2.9-8.2h0.1l3.1,8.2h-0.9l-0.9-2.4h-2.6l-0.8,2.4H85.6z M89.7,398.5l-1.1-3.1l-1,3.1H89.7z"/>
	<path d="M96.4,392.8c0.8,0,1.4,0.3,1.8,0.8l-0.4,0.9c-0.1,0-0.1,0-0.1-0.1s0-0.1,0-0.2c-0.1-0.2-0.3-0.4-0.6-0.5s-0.5-0.2-0.7-0.2
		c-0.2,0-0.4,0-0.6,0.1c-0.2,0.1-0.3,0.2-0.4,0.3s-0.2,0.3-0.3,0.6s-0.1,0.6-0.1,0.9v0.5h2v0.8h-2v4.8H94v-4.8h-1.3V396H94v-0.6
		c0-0.5,0.1-0.9,0.2-1.2c0.1-0.3,0.3-0.6,0.5-0.8c0.2-0.2,0.5-0.3,0.8-0.4S96,392.8,96.4,392.8z"/>
	<path d="M99.7,395.6h1l0,1.1c0.2-0.4,0.5-0.7,0.9-1c0.4-0.2,0.8-0.3,1.3-0.3c0.6,0,1.2,0.2,1.6,0.7l-0.4,0.9
		c-0.1-0.1-0.2-0.2-0.3-0.3c-0.1-0.1-0.2-0.2-0.3-0.2c-0.1-0.1-0.2-0.1-0.3-0.1c-0.1,0-0.2-0.1-0.4-0.1c-0.3,0-0.6,0.1-0.8,0.2
		s-0.5,0.3-0.7,0.5c-0.2,0.2-0.3,0.5-0.5,0.8c-0.1,0.3-0.2,0.6-0.2,0.9v2.9h-0.9V395.6z"/>
	<path d="M106.3,395.6h2.4v5.2h1.4v0.8h-3.8v-0.8h1.5v-4.4h-1.4V395.6z M107.7,393.2c0.1-0.1,0.3-0.2,0.5-0.2c0.2,0,0.3,0.1,0.5,0.2
		s0.2,0.3,0.2,0.5c0,0.2-0.1,0.3-0.2,0.5s-0.3,0.2-0.5,0.2c-0.2,0-0.3-0.1-0.5-0.2s-0.2-0.3-0.2-0.5
		C107.5,393.5,107.6,393.3,107.7,393.2z"/>
	<path d="M117.4,396.6l-0.7,0.8c0,0-0.1-0.1-0.1-0.1c0,0,0-0.1,0-0.1c0-0.1,0-0.1-0.1-0.2c-0.1-0.1-0.2-0.2-0.3-0.3
		c-0.3-0.2-0.7-0.4-1.2-0.4c-0.3,0-0.5,0.1-0.7,0.2c-0.2,0.1-0.4,0.3-0.6,0.4c-0.2,0.2-0.3,0.4-0.4,0.7c-0.1,0.3-0.2,0.6-0.2,0.9
		c0,0.3,0.1,0.6,0.2,0.9c0.1,0.3,0.2,0.5,0.4,0.7c0.2,0.2,0.4,0.4,0.7,0.5s0.5,0.2,0.8,0.2c0.6,0,1.1-0.2,1.6-0.7l0.5,0.6
		c-0.6,0.6-1.3,0.9-2.2,0.9c-0.4,0-0.8-0.1-1.2-0.2c-0.4-0.2-0.7-0.4-0.9-0.7c-0.3-0.3-0.5-0.6-0.6-1c-0.1-0.4-0.2-0.8-0.2-1.2
		c0-0.4,0.1-0.9,0.2-1.2c0.1-0.4,0.4-0.7,0.6-1s0.6-0.5,0.9-0.6c0.4-0.2,0.8-0.2,1.2-0.2c0.5,0,0.9,0.1,1.3,0.3
		C116.8,396,117.1,396.2,117.4,396.6z"/>
	<path d="M119.1,396.3c0.5-0.6,1.2-0.8,2.1-0.8c0.7,0,1.3,0.2,1.7,0.6s0.6,1,0.6,1.8v3.7h-0.9v-0.7c-0.6,0.5-1.3,0.8-2.1,0.8
		c-0.3,0-0.6,0-0.8-0.1c-0.2-0.1-0.5-0.2-0.6-0.4s-0.3-0.3-0.4-0.5s-0.1-0.4-0.1-0.6c0-0.6,0.3-1.1,0.8-1.4c0.5-0.3,1.3-0.5,2.2-0.6
		h1.1v-0.2c0-0.6-0.1-1-0.4-1.2c-0.2-0.2-0.6-0.4-1.2-0.4c-0.6,0-1.2,0.2-1.6,0.7L119.1,396.3z M122.7,398.8h-0.2
		c-0.1,0-0.2,0-0.3,0c-0.1,0-0.2,0-0.3,0c-0.5,0-0.9,0-1.2,0.1c-0.3,0.1-0.5,0.2-0.7,0.3c-0.2,0.1-0.3,0.2-0.4,0.4
		c-0.1,0.1-0.1,0.3-0.1,0.5c0,0.3,0.1,0.5,0.4,0.7s0.5,0.3,0.9,0.3c0.3,0,0.5,0,0.7-0.1s0.4-0.2,0.5-0.3c0.2-0.1,0.3-0.2,0.4-0.4
		s0.2-0.2,0.2-0.3c0.1-0.2,0.1-0.4,0.1-0.7V398.8z"/>
	<path d="M125.3,401.5v-5.9h0.9v1.1c0.2-0.4,0.5-0.7,0.9-0.9c0.4-0.2,0.7-0.3,1.1-0.3c0.3,0,0.5,0,0.7,0.1c0.2,0.1,0.4,0.2,0.6,0.4
		c0.2,0.2,0.3,0.5,0.4,0.8s0.1,0.7,0.1,1.1v3.6h-0.9V398c0-0.6-0.1-1.1-0.3-1.3c-0.2-0.3-0.5-0.4-0.8-0.4c-0.2,0-0.4,0-0.6,0.1
		c-0.2,0.1-0.4,0.2-0.6,0.4c-0.2,0.2-0.3,0.4-0.4,0.6c-0.1,0.2-0.2,0.5-0.2,0.8v3.4H125.3z"/>
	<path d="M4.2,417.3c-0.4,0-0.8-0.1-1.2-0.3c-0.4-0.2-0.7-0.5-0.9-0.9c-0.3-0.4-0.5-0.8-0.6-1.3s-0.2-1.1-0.2-1.7s0.1-1.2,0.2-1.7
		c0.1-0.5,0.3-0.9,0.6-1.3c0.3-0.4,0.6-0.6,0.9-0.8c0.4-0.2,0.8-0.3,1.2-0.3c0.4,0,0.7,0.1,1.1,0.2c0.3,0.2,0.6,0.4,0.9,0.7
		c0.3,0.3,0.5,0.8,0.6,1.3c0.1,0.5,0.2,1.1,0.2,1.9c0,0.8-0.1,1.4-0.2,2s-0.4,1-0.6,1.3c-0.3,0.3-0.6,0.6-0.9,0.7
		C4.9,417.2,4.6,417.3,4.2,417.3z M2.9,415.7c0.4,0.5,0.9,0.7,1.3,0.7c0.2,0,0.5,0,0.7-0.1s0.4-0.3,0.6-0.5s0.3-0.6,0.4-1
		c0.1-0.4,0.2-1,0.2-1.6c0-0.6-0.1-1.2-0.2-1.6c-0.1-0.4-0.3-0.7-0.5-1c-0.2-0.2-0.4-0.4-0.6-0.5c-0.2-0.1-0.4-0.2-0.7-0.2
		c-0.3,0-0.5,0-0.7,0.1c-0.2,0.1-0.4,0.3-0.6,0.5c-0.2,0.2-0.4,0.6-0.5,1c-0.1,0.4-0.2,0.9-0.2,1.6c0,0.6,0.1,1.1,0.2,1.6
		C2.5,415,2.7,415.4,2.9,415.7z"/>
	<path d="M8.7,411.2h1l0,1.1c0.2-0.4,0.5-0.7,0.9-1c0.4-0.2,0.8-0.3,1.3-0.3c0.6,0,1.2,0.2,1.6,0.7l-0.4,0.9
		c-0.1-0.1-0.2-0.2-0.3-0.3c-0.1-0.1-0.2-0.2-0.3-0.2c-0.1-0.1-0.2-0.1-0.3-0.1c-0.1,0-0.2-0.1-0.4-0.1c-0.3,0-0.6,0.1-0.8,0.2
		s-0.5,0.3-0.7,0.5s-0.3,0.5-0.5,0.8c-0.1,0.3-0.2,0.6-0.2,0.9v2.9H8.7V411.2z"/>
	<path d="M18.3,411.6c0.4-0.4,0.9-0.5,1.5-0.5H20l0.1,0.8c-0.1,0-0.1,0-0.2,0c-0.1,0-0.1,0-0.2,0c-0.4,0-0.7,0.1-1,0.3
		c0.2,0.3,0.3,0.6,0.3,1c0,0.3-0.1,0.5-0.2,0.8c-0.1,0.2-0.3,0.5-0.5,0.7c-0.2,0.2-0.4,0.3-0.7,0.4c-0.3,0.1-0.5,0.2-0.8,0.2
		c-0.2,0-0.5,0-0.8-0.1c-0.3,0.3-0.4,0.5-0.4,0.7c0,0.1,0.1,0.3,0.3,0.3c0.2,0.1,0.4,0.1,0.7,0.1c0.2,0,0.3,0,0.5,0s0.3,0,0.5,0
		c0.4,0,0.7,0,1,0.1c0.3,0.1,0.5,0.2,0.7,0.3s0.3,0.3,0.4,0.5c0.1,0.2,0.1,0.4,0.1,0.6c0,0.2-0.1,0.5-0.2,0.7
		c-0.1,0.2-0.3,0.4-0.5,0.6c-0.2,0.2-0.5,0.3-0.9,0.4c-0.3,0.1-0.7,0.1-1.2,0.1c-0.5,0-0.9,0-1.2-0.1c-0.3-0.1-0.6-0.2-0.8-0.3
		c-0.2-0.1-0.4-0.3-0.5-0.4c-0.1-0.2-0.2-0.3-0.2-0.5c0-0.5,0.3-0.9,1-1.3c-0.3-0.2-0.5-0.4-0.5-0.8c0-0.4,0.2-0.7,0.7-1.1
		c-0.3-0.2-0.5-0.4-0.6-0.7c-0.2-0.3-0.2-0.6-0.2-0.9c0-0.3,0.1-0.6,0.2-0.8c0.1-0.3,0.3-0.5,0.5-0.7c0.2-0.2,0.4-0.3,0.7-0.4
		c0.3-0.1,0.5-0.2,0.8-0.2C17.5,411,17.9,411.2,18.3,411.6z M16,416.8c-0.5,0.3-0.7,0.6-0.7,0.9c0,0.2,0,0.3,0.1,0.4
		c0.1,0.1,0.2,0.2,0.4,0.3c0.2,0.1,0.4,0.1,0.6,0.2s0.5,0.1,0.7,0.1c0.5,0,1-0.1,1.3-0.3c0.3-0.2,0.5-0.4,0.5-0.8
		c0-0.2-0.1-0.4-0.3-0.5c-0.2-0.1-0.5-0.2-0.8-0.2c0,0-0.1,0-0.1,0s-0.1,0-0.1,0c-0.3,0-0.6,0-0.9,0C16.4,416.9,16.2,416.9,16,416.8
		z M15.9,412.2c-0.1,0.1-0.2,0.3-0.3,0.4c-0.1,0.2-0.1,0.3-0.1,0.5s0,0.3,0.1,0.5c0.1,0.2,0.2,0.3,0.3,0.4c0.1,0.1,0.3,0.2,0.4,0.3
		c0.2,0.1,0.3,0.1,0.5,0.1c0.2,0,0.4,0,0.5-0.1c0.2-0.1,0.3-0.2,0.4-0.3c0.1-0.1,0.2-0.3,0.3-0.4c0.1-0.2,0.1-0.3,0.1-0.5
		s0-0.3-0.1-0.5s-0.2-0.3-0.3-0.4c-0.1-0.1-0.3-0.2-0.4-0.3c-0.2-0.1-0.3-0.1-0.5-0.1C16.5,411.8,16.2,411.9,15.9,412.2z"/>
	<path d="M21.6,411.9c0.5-0.6,1.2-0.8,2.1-0.8c0.7,0,1.3,0.2,1.7,0.6c0.4,0.4,0.6,1,0.6,1.8v3.7h-0.9v-0.6c-0.6,0.5-1.3,0.8-2.1,0.8
		c-0.3,0-0.6,0-0.8-0.1c-0.2-0.1-0.5-0.2-0.6-0.4s-0.3-0.3-0.4-0.5c-0.1-0.2-0.1-0.4-0.1-0.6c0-0.6,0.3-1.1,0.8-1.4
		c0.5-0.3,1.3-0.5,2.2-0.6h1.1v-0.2c0-0.6-0.1-1-0.4-1.2c-0.2-0.2-0.6-0.4-1.2-0.4c-0.6,0-1.2,0.2-1.6,0.7L21.6,411.9z M25.2,414.4
		H25c-0.1,0-0.2,0-0.3,0s-0.2,0-0.3,0c-0.5,0-0.9,0-1.2,0.1c-0.3,0.1-0.5,0.2-0.7,0.3s-0.3,0.2-0.4,0.4s-0.1,0.3-0.1,0.5
		c0,0.3,0.1,0.5,0.4,0.7c0.2,0.2,0.5,0.3,0.9,0.3c0.3,0,0.5,0,0.7-0.1c0.2-0.1,0.4-0.2,0.5-0.3c0.2-0.1,0.3-0.2,0.4-0.4
		c0.1-0.1,0.2-0.2,0.2-0.3c0.1-0.2,0.1-0.4,0.1-0.7V414.4z"/>
	<path d="M27.8,417.1v-5.9h0.9v1.1c0.2-0.4,0.5-0.7,0.9-0.9c0.4-0.2,0.7-0.3,1.1-0.3c0.3,0,0.5,0,0.7,0.1c0.2,0.1,0.4,0.2,0.6,0.4
		c0.2,0.2,0.3,0.5,0.4,0.8c0.1,0.3,0.1,0.7,0.1,1.1v3.6h-0.9v-3.6c0-0.6-0.1-1.1-0.3-1.3c-0.2-0.3-0.5-0.4-0.8-0.4
		c-0.2,0-0.4,0-0.6,0.1c-0.2,0.1-0.4,0.2-0.6,0.4c-0.2,0.2-0.3,0.4-0.4,0.6c-0.1,0.2-0.2,0.5-0.2,0.8v3.4H27.8z"/>
	<path d="M34.8,411.2h2.4v5.2h1.4v0.8h-3.8v-0.8h1.5V412h-1.4V411.2z M36.2,408.8c0.1-0.1,0.3-0.2,0.5-0.2c0.2,0,0.3,0.1,0.5,0.2
		s0.2,0.3,0.2,0.5s-0.1,0.3-0.2,0.5c-0.1,0.1-0.3,0.2-0.5,0.2c-0.2,0-0.3-0.1-0.5-0.2c-0.1-0.1-0.2-0.3-0.2-0.5
		C36,409.1,36.1,408.9,36.2,408.8z"/>
	<path d="M40.8,411.2h4.6v0.6l-3.6,4.5h3.5c0.1,0,0.1,0,0.2,0s0.1,0,0.2,0v0.9h-5.2v-0.6l3.7-4.5h-3.4V411.2z"/>
	<path d="M47.6,411.9c0.5-0.6,1.2-0.8,2.1-0.8c0.7,0,1.3,0.2,1.7,0.6c0.4,0.4,0.6,1,0.6,1.8v3.7h-0.9v-0.6c-0.6,0.5-1.3,0.8-2.1,0.8
		c-0.3,0-0.6,0-0.8-0.1c-0.2-0.1-0.5-0.2-0.6-0.4s-0.3-0.3-0.4-0.5c-0.1-0.2-0.1-0.4-0.1-0.6c0-0.6,0.3-1.1,0.8-1.4
		c0.5-0.3,1.3-0.5,2.2-0.6h1.1v-0.2c0-0.6-0.1-1-0.4-1.2c-0.2-0.2-0.6-0.4-1.2-0.4c-0.6,0-1.2,0.2-1.6,0.7L47.6,411.9z M51.2,414.4
		H51c-0.1,0-0.2,0-0.3,0s-0.2,0-0.3,0c-0.5,0-0.9,0-1.2,0.1c-0.3,0.1-0.5,0.2-0.7,0.3s-0.3,0.2-0.4,0.4s-0.1,0.3-0.1,0.5
		c0,0.3,0.1,0.5,0.4,0.7c0.2,0.2,0.5,0.3,0.9,0.3c0.3,0,0.5,0,0.7-0.1c0.2-0.1,0.4-0.2,0.5-0.3c0.2-0.1,0.3-0.2,0.4-0.4
		c0.1-0.1,0.2-0.2,0.2-0.3c0.1-0.2,0.1-0.4,0.1-0.7V414.4z"/>
	<path d="M55.4,409.6l1-0.2c0,0.1,0,0.1,0,0.2c0,0.1,0,0.1,0,0.1l-0.2,1.4h1.9v0.8h-1.9c-0.1,0.8-0.1,1.5-0.1,2.2c0,0.4,0,0.8,0,1.1
		c0,0.3,0.1,0.5,0.1,0.7c0.1,0.2,0.2,0.3,0.3,0.4c0.1,0.1,0.3,0.1,0.6,0.1c0.4,0,0.8-0.2,1.3-0.5l0.3,0.7c-0.6,0.4-1.2,0.7-1.8,0.7
		c-0.6,0-1.1-0.2-1.4-0.6s-0.4-1-0.4-1.8c0-0.3,0-0.7,0-1.2c0-0.5,0.1-1.1,0.1-1.7h-1.4v-0.8h1.4L55.4,409.6z"/>
	<path d="M60.8,411.2h2.4v5.2h1.4v0.8h-3.8v-0.8h1.5V412h-1.4V411.2z M62.2,408.8c0.1-0.1,0.3-0.2,0.5-0.2c0.2,0,0.3,0.1,0.5,0.2
		s0.2,0.3,0.2,0.5s-0.1,0.3-0.2,0.5c-0.1,0.1-0.3,0.2-0.5,0.2c-0.2,0-0.3-0.1-0.5-0.2c-0.1-0.1-0.2-0.3-0.2-0.5
		C62,409.1,62.1,408.9,62.2,408.8z"/>
	<path d="M69.2,411.1c0.4,0,0.7,0.1,1,0.2c0.3,0.1,0.6,0.3,0.9,0.6s0.4,0.6,0.6,1s0.2,0.8,0.2,1.3c0,0.5-0.1,0.9-0.2,1.3
		c-0.1,0.4-0.3,0.7-0.6,1c-0.2,0.3-0.5,0.5-0.9,0.6c-0.3,0.1-0.7,0.2-1.1,0.2c-0.4,0-0.7-0.1-1.1-0.2c-0.3-0.2-0.6-0.4-0.9-0.6
		c-0.3-0.3-0.5-0.6-0.6-1c-0.1-0.4-0.2-0.8-0.2-1.2s0.1-0.9,0.2-1.2c0.2-0.4,0.4-0.7,0.6-1c0.3-0.3,0.6-0.5,0.9-0.7
		S68.8,411.1,69.2,411.1z M71,414.2c0-0.4,0-0.7-0.1-1c-0.1-0.3-0.2-0.5-0.4-0.7s-0.4-0.4-0.6-0.5c-0.2-0.1-0.4-0.2-0.7-0.2
		c-0.2,0-0.5,0.1-0.7,0.2c-0.2,0.1-0.4,0.3-0.6,0.5c-0.2,0.2-0.3,0.4-0.4,0.7c-0.1,0.3-0.1,0.6-0.1,1c0,0.3,0,0.7,0.1,0.9
		c0.1,0.3,0.2,0.5,0.4,0.7c0.2,0.2,0.3,0.4,0.6,0.5c0.2,0.1,0.4,0.2,0.7,0.2s0.5,0,0.7-0.1c0.2-0.1,0.4-0.2,0.6-0.4
		c0.2-0.2,0.3-0.4,0.4-0.7C70.9,414.9,71,414.6,71,414.2z"/>
	<path d="M73.3,417.1v-5.9h0.9v1.1c0.2-0.4,0.5-0.7,0.9-0.9c0.4-0.2,0.7-0.3,1.1-0.3c0.3,0,0.5,0,0.7,0.1c0.2,0.1,0.4,0.2,0.6,0.4
		c0.2,0.2,0.3,0.5,0.4,0.8c0.1,0.3,0.1,0.7,0.1,1.1v3.6h-0.9v-3.6c0-0.6-0.1-1.1-0.3-1.3c-0.2-0.3-0.5-0.4-0.8-0.4
		c-0.2,0-0.4,0-0.6,0.1c-0.2,0.1-0.4,0.2-0.6,0.4c-0.2,0.2-0.3,0.4-0.4,0.6c-0.1,0.2-0.2,0.5-0.2,0.8v3.4H73.3z"/>
	<path d="M82.6,411.9c0.2,0.2,0.2,0.3,0.2,0.5s-0.1,0.4-0.2,0.5c-0.2,0.1-0.3,0.2-0.5,0.2c-0.2,0-0.4-0.1-0.5-0.2
		c-0.2-0.1-0.2-0.3-0.2-0.5c0-0.2,0.1-0.4,0.2-0.5c0.2-0.1,0.3-0.2,0.5-0.2C82.2,411.6,82.4,411.7,82.6,411.9z M82.6,416
		c0.2,0.2,0.2,0.3,0.2,0.5s-0.1,0.4-0.2,0.5c-0.2,0.1-0.3,0.2-0.6,0.2c-0.2,0-0.4-0.1-0.5-0.2c-0.1-0.1-0.2-0.3-0.2-0.5
		s0.1-0.4,0.2-0.5c0.2-0.1,0.3-0.2,0.5-0.2C82.2,415.8,82.4,415.9,82.6,416z"/>
	<path d="M92.9,409h4.7v0.8h-3.7v2.5h3v0.8h-3v4h-0.9V409z"/>
	<path d="M99.7,411.2h1l0,1.1c0.2-0.4,0.5-0.7,0.9-1c0.4-0.2,0.8-0.3,1.3-0.3c0.6,0,1.2,0.2,1.6,0.7l-0.4,0.9
		c-0.1-0.1-0.2-0.2-0.3-0.3c-0.1-0.1-0.2-0.2-0.3-0.2c-0.1-0.1-0.2-0.1-0.3-0.1c-0.1,0-0.2-0.1-0.4-0.1c-0.3,0-0.6,0.1-0.8,0.2
		s-0.5,0.3-0.7,0.5s-0.3,0.5-0.5,0.8c-0.1,0.3-0.2,0.6-0.2,0.9v2.9h-0.9V411.2z"/>
	<path d="M108.3,411.1c0.3,0,0.6,0.1,0.9,0.2c0.3,0.1,0.6,0.3,0.8,0.5c0.2,0.2,0.4,0.5,0.5,0.9s0.2,0.8,0.2,1.3c0,0.1,0,0.1,0,0.2
		s0,0.1,0,0.2h-4.2c0,0.4,0.1,0.8,0.2,1c0.1,0.3,0.3,0.5,0.5,0.7c0.2,0.2,0.4,0.3,0.6,0.4c0.2,0.1,0.5,0.1,0.7,0.1
		c0.6,0,1.1-0.2,1.5-0.7l0.5,0.5c-0.5,0.6-1.2,0.9-2.1,0.9c-0.4,0-0.8-0.1-1.2-0.2c-0.4-0.1-0.7-0.3-0.9-0.6c-0.3-0.3-0.4-0.6-0.6-1
		c-0.1-0.4-0.2-0.8-0.2-1.3c0-0.5,0.1-0.9,0.2-1.3c0.1-0.4,0.3-0.7,0.6-1c0.2-0.3,0.5-0.5,0.9-0.6
		C107.5,411.1,107.9,411.1,108.3,411.1z M106.5,413.6h3.3c0,0,0-0.1,0-0.1c0,0,0-0.1,0-0.1c0-0.2,0-0.4-0.1-0.6
		c-0.1-0.2-0.2-0.4-0.3-0.5s-0.3-0.3-0.5-0.3c-0.2-0.1-0.4-0.1-0.6-0.1c-0.4,0-0.8,0.1-1.1,0.4C106.8,412.5,106.6,412.9,106.5,413.6
		z"/>
	<path d="M114.8,411.1c0.3,0,0.6,0.1,0.9,0.2c0.3,0.1,0.6,0.3,0.8,0.5c0.2,0.2,0.4,0.5,0.5,0.9s0.2,0.8,0.2,1.3c0,0.1,0,0.1,0,0.2
		s0,0.1,0,0.2h-4.2c0,0.4,0.1,0.8,0.2,1c0.1,0.3,0.3,0.5,0.5,0.7c0.2,0.2,0.4,0.3,0.6,0.4c0.2,0.1,0.5,0.1,0.7,0.1
		c0.6,0,1.1-0.2,1.5-0.7l0.5,0.5c-0.5,0.6-1.2,0.9-2.1,0.9c-0.4,0-0.8-0.1-1.2-0.2c-0.4-0.1-0.7-0.3-0.9-0.6c-0.3-0.3-0.4-0.6-0.6-1
		c-0.1-0.4-0.2-0.8-0.2-1.3c0-0.5,0.1-0.9,0.2-1.3c0.1-0.4,0.3-0.7,0.6-1c0.2-0.3,0.5-0.5,0.9-0.6
		C114,411.1,114.4,411.1,114.8,411.1z M113,413.6h3.3c0,0,0-0.1,0-0.1c0,0,0-0.1,0-0.1c0-0.2,0-0.4-0.1-0.6
		c-0.1-0.2-0.2-0.4-0.3-0.5s-0.3-0.3-0.5-0.3c-0.2-0.1-0.4-0.1-0.6-0.1c-0.4,0-0.8,0.1-1.1,0.4C113.3,412.5,113.1,412.9,113,413.6z"
		/>
	<path d="M119,408.5h2.6v7.9h1.7v0.8h-4.4v-0.8h1.8v-7.1H119V408.5z"/>
	<path d="M125.6,411.9c0.5-0.6,1.2-0.8,2.1-0.8c0.7,0,1.3,0.2,1.7,0.6c0.4,0.4,0.6,1,0.6,1.8v3.7h-0.9v-0.6
		c-0.6,0.5-1.3,0.8-2.1,0.8c-0.3,0-0.6,0-0.8-0.1c-0.2-0.1-0.5-0.2-0.6-0.4s-0.3-0.3-0.4-0.5c-0.1-0.2-0.1-0.4-0.1-0.6
		c0-0.6,0.3-1.1,0.8-1.4c0.5-0.3,1.3-0.5,2.2-0.6h1.1v-0.2c0-0.6-0.1-1-0.4-1.2c-0.2-0.2-0.6-0.4-1.2-0.4c-0.6,0-1.2,0.2-1.6,0.7
		L125.6,411.9z M129.2,414.4H129c-0.1,0-0.2,0-0.3,0s-0.2,0-0.3,0c-0.5,0-0.9,0-1.2,0.1c-0.3,0.1-0.5,0.2-0.7,0.3s-0.3,0.2-0.4,0.4
		s-0.1,0.3-0.1,0.5c0,0.3,0.1,0.5,0.4,0.7c0.2,0.2,0.5,0.3,0.9,0.3c0.3,0,0.5,0,0.7-0.1c0.2-0.1,0.4-0.2,0.5-0.3
		c0.2-0.1,0.3-0.2,0.4-0.4c0.1-0.1,0.2-0.2,0.2-0.3c0.1-0.2,0.1-0.4,0.1-0.7V414.4z"/>
	<path d="M131.8,417.1v-5.9h0.9v1.1c0.2-0.4,0.5-0.7,0.9-0.9c0.4-0.2,0.7-0.3,1.1-0.3c0.3,0,0.5,0,0.7,0.1c0.2,0.1,0.4,0.2,0.6,0.4
		c0.2,0.2,0.3,0.5,0.4,0.8c0.1,0.3,0.1,0.7,0.1,1.1v3.6h-0.9v-3.6c0-0.6-0.1-1.1-0.3-1.3c-0.2-0.3-0.5-0.4-0.8-0.4
		c-0.2,0-0.4,0-0.6,0.1c-0.2,0.1-0.4,0.2-0.6,0.4c-0.2,0.2-0.3,0.4-0.4,0.6c-0.1,0.2-0.2,0.5-0.2,0.8v3.4H131.8z"/>
	<path d="M143.4,412.2l-0.7,0.8c0,0-0.1-0.1-0.1-0.1c0,0,0-0.1,0-0.1c0-0.1,0-0.1-0.1-0.2c-0.1-0.1-0.2-0.2-0.3-0.3
		c-0.3-0.2-0.7-0.4-1.2-0.4c-0.3,0-0.5,0.1-0.7,0.2c-0.2,0.1-0.4,0.3-0.6,0.4c-0.2,0.2-0.3,0.4-0.4,0.7c-0.1,0.3-0.2,0.6-0.2,0.9
		s0.1,0.6,0.2,0.9c0.1,0.3,0.2,0.5,0.4,0.7c0.2,0.2,0.4,0.4,0.7,0.5c0.3,0.1,0.5,0.2,0.8,0.2c0.6,0,1.1-0.2,1.6-0.7l0.5,0.6
		c-0.6,0.6-1.3,0.9-2.2,0.9c-0.4,0-0.8-0.1-1.2-0.2c-0.4-0.2-0.7-0.4-0.9-0.7s-0.5-0.6-0.6-1c-0.1-0.4-0.2-0.8-0.2-1.2
		c0-0.4,0.1-0.9,0.2-1.2c0.1-0.4,0.4-0.7,0.6-1c0.3-0.3,0.6-0.5,0.9-0.6c0.4-0.2,0.8-0.2,1.2-0.2c0.5,0,0.9,0.1,1.3,0.3
		C142.8,411.6,143.1,411.8,143.4,412.2z"/>
	<path d="M147.3,411.1c0.3,0,0.6,0.1,0.9,0.2c0.3,0.1,0.6,0.3,0.8,0.5c0.2,0.2,0.4,0.5,0.5,0.9s0.2,0.8,0.2,1.3c0,0.1,0,0.1,0,0.2
		s0,0.1,0,0.2h-4.2c0,0.4,0.1,0.8,0.2,1c0.1,0.3,0.3,0.5,0.5,0.7c0.2,0.2,0.4,0.3,0.6,0.4c0.2,0.1,0.5,0.1,0.7,0.1
		c0.6,0,1.1-0.2,1.5-0.7l0.5,0.5c-0.5,0.6-1.2,0.9-2.1,0.9c-0.4,0-0.8-0.1-1.2-0.2c-0.4-0.1-0.7-0.3-0.9-0.6c-0.3-0.3-0.4-0.6-0.6-1
		c-0.1-0.4-0.2-0.8-0.2-1.3c0-0.5,0.1-0.9,0.2-1.3c0.1-0.4,0.3-0.7,0.6-1c0.2-0.3,0.5-0.5,0.9-0.6
		C146.5,411.1,146.9,411.1,147.3,411.1z M145.5,413.6h3.3c0,0,0-0.1,0-0.1c0,0,0-0.1,0-0.1c0-0.2,0-0.4-0.1-0.6
		c-0.1-0.2-0.2-0.4-0.3-0.5s-0.3-0.3-0.5-0.3c-0.2-0.1-0.4-0.1-0.6-0.1c-0.4,0-0.8,0.1-1.1,0.4C145.8,412.5,145.6,412.9,145.5,413.6
		z"/>
	<path d="M1.7,440.2h2.6c0.5,0,0.8,0.1,1.2,0.2c0.3,0.1,0.6,0.3,0.8,0.5c0.2,0.2,0.4,0.5,0.5,0.7s0.2,0.6,0.2,0.9
		c0,0.3-0.1,0.6-0.2,0.9s-0.2,0.5-0.4,0.7c-0.2,0.2-0.4,0.4-0.8,0.5c-0.3,0.1-0.7,0.2-1.1,0.2H2.6v3.6H1.7V440.2z M2.6,441.1v2.9
		h1.6c0.6,0,1-0.1,1.3-0.4s0.4-0.6,0.4-1c0-0.2-0.1-0.4-0.1-0.6s-0.2-0.3-0.3-0.5c-0.1-0.1-0.3-0.2-0.5-0.3
		c-0.2-0.1-0.4-0.1-0.7-0.1H2.6z"/>
	<path d="M8.5,439.7h2.6v7.9h1.7v0.8H8.4v-0.8h1.8v-7.1H8.5V439.7z"/>
	<path d="M15.1,443.1c0.5-0.6,1.2-0.8,2.1-0.8c0.7,0,1.3,0.2,1.7,0.6c0.4,0.4,0.6,1,0.6,1.8v3.7h-0.9v-0.6c-0.6,0.5-1.3,0.8-2.1,0.8
		c-0.3,0-0.6,0-0.8-0.1c-0.2-0.1-0.5-0.2-0.6-0.4c-0.2-0.2-0.3-0.3-0.4-0.5c-0.1-0.2-0.1-0.4-0.1-0.6c0-0.6,0.3-1.1,0.8-1.4
		c0.5-0.3,1.3-0.5,2.2-0.6h1.1v-0.2c0-0.6-0.1-1-0.4-1.2c-0.2-0.2-0.6-0.4-1.2-0.4c-0.6,0-1.2,0.2-1.6,0.7L15.1,443.1z M18.7,445.6
		h-0.2c-0.1,0-0.2,0-0.3,0c-0.1,0-0.2,0-0.3,0c-0.5,0-0.9,0-1.2,0.1c-0.3,0.1-0.5,0.2-0.7,0.3c-0.2,0.1-0.3,0.2-0.4,0.4
		c-0.1,0.1-0.1,0.3-0.1,0.5c0,0.3,0.1,0.5,0.4,0.7c0.2,0.2,0.5,0.3,0.9,0.3c0.3,0,0.5,0,0.7-0.1s0.4-0.2,0.5-0.3
		c0.2-0.1,0.3-0.2,0.4-0.4s0.2-0.2,0.2-0.3c0.1-0.2,0.1-0.4,0.1-0.7V445.6z"/>
	<path d="M26.4,443.4l-0.7,0.8c0,0-0.1-0.1-0.1-0.1c0,0,0-0.1,0-0.1c0-0.1,0-0.1-0.1-0.2c-0.1-0.1-0.2-0.2-0.3-0.3
		c-0.3-0.2-0.7-0.4-1.2-0.4c-0.3,0-0.5,0.1-0.7,0.2c-0.2,0.1-0.4,0.3-0.6,0.4c-0.2,0.2-0.3,0.4-0.4,0.7c-0.1,0.3-0.2,0.6-0.2,0.9
		c0,0.3,0.1,0.6,0.2,0.9c0.1,0.3,0.2,0.5,0.4,0.7c0.2,0.2,0.4,0.4,0.7,0.5c0.3,0.1,0.5,0.2,0.8,0.2c0.6,0,1.1-0.2,1.6-0.7l0.5,0.6
		c-0.6,0.6-1.3,0.9-2.2,0.9c-0.4,0-0.8-0.1-1.2-0.2c-0.4-0.2-0.7-0.4-0.9-0.7s-0.5-0.6-0.6-1c-0.1-0.4-0.2-0.8-0.2-1.2
		c0-0.4,0.1-0.9,0.2-1.2c0.1-0.4,0.4-0.7,0.6-1s0.6-0.5,0.9-0.6c0.4-0.2,0.8-0.2,1.2-0.2c0.5,0,0.9,0.1,1.3,0.3
		C25.8,442.8,26.1,443,26.4,443.4z"/>
	<path d="M30.3,442.3c0.3,0,0.6,0.1,0.9,0.2c0.3,0.1,0.6,0.3,0.8,0.5c0.2,0.2,0.4,0.5,0.5,0.9s0.2,0.8,0.2,1.3c0,0.1,0,0.1,0,0.2
		c0,0.1,0,0.1,0,0.2h-4.2c0,0.4,0.1,0.8,0.2,1c0.1,0.3,0.3,0.5,0.5,0.7c0.2,0.2,0.4,0.3,0.6,0.4c0.2,0.1,0.5,0.1,0.7,0.1
		c0.6,0,1.1-0.2,1.5-0.7l0.5,0.5c-0.5,0.6-1.2,0.9-2.1,0.9c-0.4,0-0.8-0.1-1.2-0.2c-0.4-0.1-0.7-0.3-0.9-0.6c-0.3-0.3-0.4-0.6-0.6-1
		c-0.1-0.4-0.2-0.8-0.2-1.3c0-0.5,0.1-0.9,0.2-1.3s0.3-0.7,0.6-1s0.5-0.5,0.9-0.6C29.5,442.3,29.9,442.3,30.3,442.3z M28.5,444.8
		h3.3c0,0,0-0.1,0-0.1c0,0,0-0.1,0-0.1c0-0.2,0-0.4-0.1-0.6c-0.1-0.2-0.2-0.4-0.3-0.5s-0.3-0.3-0.5-0.3c-0.2-0.1-0.4-0.1-0.6-0.1
		c-0.4,0-0.8,0.1-1.1,0.4C28.8,443.7,28.6,444.1,28.5,444.8z"/>
	<path d="M43.2,442.3c0.4,0,0.7,0.1,1,0.2c0.3,0.1,0.6,0.3,0.9,0.6c0.2,0.3,0.4,0.6,0.6,1c0.1,0.4,0.2,0.8,0.2,1.3
		c0,0.5-0.1,0.9-0.2,1.3s-0.3,0.7-0.6,1c-0.2,0.3-0.5,0.5-0.9,0.6c-0.3,0.1-0.7,0.2-1.1,0.2c-0.4,0-0.7-0.1-1.1-0.2
		c-0.3-0.2-0.6-0.4-0.9-0.6s-0.5-0.6-0.6-1c-0.1-0.4-0.2-0.8-0.2-1.2c0-0.4,0.1-0.9,0.2-1.2c0.2-0.4,0.4-0.7,0.6-1s0.6-0.5,0.9-0.7
		C42.5,442.4,42.8,442.3,43.2,442.3z M45,445.4c0-0.4,0-0.7-0.1-1c-0.1-0.3-0.2-0.5-0.4-0.7s-0.4-0.4-0.6-0.5
		c-0.2-0.1-0.4-0.2-0.7-0.2c-0.2,0-0.5,0.1-0.7,0.2s-0.4,0.3-0.6,0.5c-0.2,0.2-0.3,0.4-0.4,0.7s-0.1,0.6-0.1,1c0,0.3,0,0.7,0.1,0.9
		s0.2,0.5,0.4,0.7c0.2,0.2,0.3,0.4,0.6,0.5c0.2,0.1,0.4,0.2,0.7,0.2s0.5-0.1,0.7-0.2c0.2-0.1,0.4-0.2,0.6-0.4
		c0.2-0.2,0.3-0.4,0.4-0.7C44.9,446.1,45,445.8,45,445.4z"/>
	<path d="M50.9,439.6c0.8,0,1.4,0.3,1.8,0.8l-0.4,0.9c-0.1,0-0.1,0-0.1-0.1s0-0.1,0-0.2c-0.1-0.2-0.3-0.4-0.6-0.5s-0.5-0.2-0.7-0.2
		c-0.2,0-0.4,0-0.6,0.1s-0.3,0.2-0.4,0.3s-0.2,0.3-0.3,0.6s-0.1,0.6-0.1,0.9v0.5h2v0.8h-2v4.8h-0.9v-4.8h-1.3v-0.8h1.3v-0.6
		c0-0.5,0.1-0.9,0.2-1.2c0.1-0.3,0.3-0.6,0.5-0.8c0.2-0.2,0.5-0.3,0.8-0.4C50.2,439.7,50.5,439.6,50.9,439.6z"/>
	<path d="M64.2,443.3v-3.6h1c0,0.1,0,0.1-0.1,0.2c0,0.1-0.1,0.1-0.1,0.2l0,7.7c0,0.2,0,0.4,0.1,0.5h-0.9c0-0.1-0.1-0.3-0.1-0.4v-0.5
		c-0.2,0.3-0.4,0.6-0.8,0.8c-0.3,0.2-0.7,0.3-1,0.3c-0.3,0-0.6-0.1-0.9-0.2c-0.3-0.1-0.5-0.3-0.8-0.6c-0.2-0.3-0.4-0.6-0.5-1
		c-0.1-0.4-0.2-0.9-0.2-1.4c0-0.5,0.1-1,0.2-1.4c0.1-0.4,0.3-0.7,0.6-0.9c0.2-0.2,0.5-0.4,0.8-0.5c0.3-0.1,0.6-0.2,0.9-0.2
		c0.4,0,0.8,0.1,1.1,0.3C63.9,442.7,64.1,443,64.2,443.3z M61.5,443.4c-0.4,0.3-0.6,0.9-0.6,1.7c0,0.7,0.1,1.3,0.4,1.8
		c0.3,0.5,0.7,0.7,1.2,0.7c0.1,0,0.3,0,0.4-0.1c0.1,0,0.3-0.1,0.4-0.2s0.2-0.2,0.3-0.3c0.1-0.1,0.2-0.3,0.2-0.4
		c0.1-0.3,0.1-0.7,0.1-1.3c0-0.3,0-0.6,0-0.8c0-0.2-0.1-0.4-0.1-0.6c-0.1-0.2-0.1-0.3-0.2-0.4c-0.1-0.1-0.2-0.2-0.3-0.3
		c-0.2-0.1-0.3-0.2-0.4-0.2s-0.3-0.1-0.4-0.1c-0.2,0-0.5,0-0.6,0.1C61.8,443.2,61.7,443.3,61.5,443.4z"/>
	<path d="M69.3,442.3c0.3,0,0.6,0.1,0.9,0.2c0.3,0.1,0.6,0.3,0.8,0.5c0.2,0.2,0.4,0.5,0.5,0.9s0.2,0.8,0.2,1.3c0,0.1,0,0.1,0,0.2
		c0,0.1,0,0.1,0,0.2h-4.2c0,0.4,0.1,0.8,0.2,1c0.1,0.3,0.3,0.5,0.5,0.7c0.2,0.2,0.4,0.3,0.6,0.4c0.2,0.1,0.5,0.1,0.7,0.1
		c0.6,0,1.1-0.2,1.5-0.7l0.5,0.5c-0.5,0.6-1.2,0.9-2.1,0.9c-0.4,0-0.8-0.1-1.2-0.2c-0.4-0.1-0.7-0.3-0.9-0.6c-0.3-0.3-0.4-0.6-0.6-1
		c-0.1-0.4-0.2-0.8-0.2-1.3c0-0.5,0.1-0.9,0.2-1.3s0.3-0.7,0.6-1s0.5-0.5,0.9-0.6C68.5,442.3,68.9,442.3,69.3,442.3z M67.5,444.8
		h3.3c0,0,0-0.1,0-0.1c0,0,0-0.1,0-0.1c0-0.2,0-0.4-0.1-0.6c-0.1-0.2-0.2-0.4-0.3-0.5s-0.3-0.3-0.5-0.3c-0.2-0.1-0.4-0.1-0.6-0.1
		c-0.4,0-0.8,0.1-1.1,0.4C67.8,443.7,67.6,444.1,67.5,444.8z"/>
	<path d="M73.6,443.1c0.5-0.6,1.2-0.8,2.1-0.8c0.7,0,1.3,0.2,1.7,0.6c0.4,0.4,0.6,1,0.6,1.8v3.7h-0.9v-0.6c-0.6,0.5-1.3,0.8-2.1,0.8
		c-0.3,0-0.6,0-0.8-0.1c-0.2-0.1-0.5-0.2-0.6-0.4c-0.2-0.2-0.3-0.3-0.4-0.5c-0.1-0.2-0.1-0.4-0.1-0.6c0-0.6,0.3-1.1,0.8-1.4
		c0.5-0.3,1.3-0.5,2.2-0.6h1.1v-0.2c0-0.6-0.1-1-0.4-1.2c-0.2-0.2-0.6-0.4-1.2-0.4c-0.6,0-1.2,0.2-1.6,0.7L73.6,443.1z M77.2,445.6
		H77c-0.1,0-0.2,0-0.3,0c-0.1,0-0.2,0-0.3,0c-0.5,0-0.9,0-1.2,0.1c-0.3,0.1-0.5,0.2-0.7,0.3c-0.2,0.1-0.3,0.2-0.4,0.4
		c-0.1,0.1-0.1,0.3-0.1,0.5c0,0.3,0.1,0.5,0.4,0.7c0.2,0.2,0.5,0.3,0.9,0.3c0.3,0,0.5,0,0.7-0.1s0.4-0.2,0.5-0.3
		c0.2-0.1,0.3-0.2,0.4-0.4s0.2-0.2,0.2-0.3c0.1-0.2,0.1-0.4,0.1-0.7V445.6z"/>
	<path d="M81.4,440.8l1-0.2c0,0.1,0,0.1,0,0.2c0,0.1,0,0.1,0,0.1l-0.2,1.4h1.9v0.8h-1.9c-0.1,0.8-0.1,1.5-0.1,2.2c0,0.4,0,0.8,0,1.1
		c0,0.3,0.1,0.5,0.1,0.7c0.1,0.2,0.2,0.3,0.3,0.4c0.1,0.1,0.3,0.1,0.6,0.1c0.4,0,0.8-0.2,1.3-0.5l0.3,0.7c-0.6,0.4-1.2,0.7-1.8,0.7
		c-0.6,0-1.1-0.2-1.4-0.6c-0.3-0.4-0.4-1-0.4-1.8c0-0.3,0-0.7,0-1.2c0-0.5,0.1-1.1,0.1-1.7h-1.4v-0.8h1.4L81.4,440.8z"/>
	<path d="M86.3,448.3v-8.6h1.1c0,0,0,0,0,0s0,0,0,0c0,0,0,0.1-0.1,0.1c0,0-0.1,0.1-0.1,0.2v3.4c0.2-0.4,0.5-0.7,0.9-0.9
		s0.7-0.3,1.1-0.3c0.3,0,0.5,0,0.7,0.1s0.4,0.2,0.6,0.4c0.2,0.2,0.3,0.5,0.4,0.8s0.1,0.7,0.1,1.1v3.6h-0.9v-3.6
		c0-0.6-0.1-1.1-0.3-1.3c-0.2-0.3-0.5-0.4-0.8-0.4c-0.2,0-0.4,0-0.6,0.1s-0.4,0.2-0.6,0.4c-0.2,0.2-0.3,0.3-0.4,0.6
		s-0.1,0.5-0.1,0.8v3.4H86.3z"/>
	<path d="M95.6,443.1c0.2,0.2,0.2,0.3,0.2,0.5s-0.1,0.4-0.2,0.5c-0.2,0.1-0.3,0.2-0.5,0.2c-0.2,0-0.4-0.1-0.5-0.2
		c-0.2-0.1-0.2-0.3-0.2-0.5c0-0.2,0.1-0.4,0.2-0.5c0.2-0.1,0.3-0.2,0.5-0.2C95.2,442.8,95.4,442.9,95.6,443.1z M95.6,447.2
		c0.2,0.2,0.2,0.3,0.2,0.5c0,0.2-0.1,0.4-0.2,0.5c-0.2,0.1-0.3,0.2-0.6,0.2c-0.2,0-0.4-0.1-0.5-0.2s-0.2-0.3-0.2-0.5
		c0-0.2,0.1-0.4,0.2-0.5c0.2-0.1,0.3-0.2,0.5-0.2C95.2,447,95.4,447.1,95.6,447.2z"/>
	<path d="M110.6,441.2L110,442c0,0-0.1-0.1-0.1-0.1c0-0.1,0-0.1,0-0.1c-0.2-0.2-0.4-0.4-0.7-0.6c-0.3-0.1-0.6-0.2-1-0.2
		c-0.4,0-0.7,0.1-1,0.4c-0.3,0.2-0.4,0.5-0.4,0.8c0,0.2,0,0.4,0.1,0.5c0.1,0.1,0.2,0.3,0.3,0.4c0.1,0.1,0.3,0.3,0.6,0.4
		c0.3,0.1,0.6,0.3,1,0.4c0.4,0.2,0.7,0.3,1,0.5c0.3,0.2,0.5,0.3,0.6,0.5c0.2,0.2,0.3,0.4,0.3,0.6s0.1,0.4,0.1,0.7
		c0,0.3-0.1,0.6-0.2,0.8c-0.1,0.3-0.3,0.5-0.5,0.8c-0.2,0.2-0.5,0.4-0.8,0.5c-0.3,0.1-0.7,0.2-1.2,0.2c-1,0-1.9-0.3-2.5-1l0.5-0.9
		c0,0,0.1,0.1,0.1,0.1s0,0.1,0,0.1c0.2,0.3,0.5,0.5,0.8,0.6c0.3,0.2,0.7,0.3,1.2,0.3c0.2,0,0.5,0,0.7-0.1c0.2-0.1,0.4-0.2,0.5-0.3
		c0.1-0.1,0.3-0.3,0.4-0.5c0.1-0.2,0.1-0.4,0.1-0.6c0-0.2,0-0.3-0.1-0.4c-0.1-0.1-0.1-0.3-0.3-0.4c-0.1-0.1-0.3-0.2-0.6-0.4
		c-0.2-0.1-0.6-0.3-0.9-0.4c-0.4-0.2-0.8-0.3-1.1-0.5c-0.3-0.2-0.5-0.3-0.7-0.5c-0.2-0.2-0.3-0.4-0.4-0.6c-0.1-0.2-0.1-0.4-0.1-0.6
		c0-0.3,0.1-0.6,0.2-0.8c0.1-0.3,0.3-0.5,0.5-0.7c0.2-0.2,0.5-0.3,0.8-0.5c0.3-0.1,0.6-0.2,1-0.2c0.4,0,0.9,0.1,1.2,0.3
		C110,440.6,110.3,440.9,110.6,441.2z"/>
	<path d="M114.7,442.3c0.4,0,0.7,0.1,1,0.2c0.3,0.1,0.6,0.3,0.9,0.6c0.2,0.3,0.4,0.6,0.6,1c0.1,0.4,0.2,0.8,0.2,1.3
		c0,0.5-0.1,0.9-0.2,1.3s-0.3,0.7-0.6,1c-0.2,0.3-0.5,0.5-0.9,0.6c-0.3,0.1-0.7,0.2-1.1,0.2c-0.4,0-0.7-0.1-1.1-0.2
		c-0.3-0.2-0.6-0.4-0.9-0.6s-0.5-0.6-0.6-1c-0.1-0.4-0.2-0.8-0.2-1.2c0-0.4,0.1-0.9,0.2-1.2c0.2-0.4,0.4-0.7,0.6-1s0.6-0.5,0.9-0.7
		C114,442.4,114.3,442.3,114.7,442.3z M116.5,445.4c0-0.4,0-0.7-0.1-1c-0.1-0.3-0.2-0.5-0.4-0.7s-0.4-0.4-0.6-0.5
		c-0.2-0.1-0.4-0.2-0.7-0.2c-0.2,0-0.5,0.1-0.7,0.2s-0.4,0.3-0.6,0.5c-0.2,0.2-0.3,0.4-0.4,0.7s-0.1,0.6-0.1,1c0,0.3,0,0.7,0.1,0.9
		s0.2,0.5,0.4,0.7c0.2,0.2,0.3,0.4,0.6,0.5c0.2,0.1,0.4,0.2,0.7,0.2s0.5-0.1,0.7-0.2c0.2-0.1,0.4-0.2,0.6-0.4
		c0.2-0.2,0.3-0.4,0.4-0.7C116.4,446.1,116.5,445.8,116.5,445.4z"/>
	<path d="M118.7,442.4h0.9v3.3c0,0.4,0,0.7,0.1,1s0.2,0.5,0.3,0.6c0.1,0.2,0.3,0.3,0.4,0.3s0.3,0.1,0.5,0.1c0.2,0,0.4-0.1,0.6-0.2
		c0.2-0.1,0.4-0.2,0.5-0.4s0.3-0.4,0.4-0.6s0.1-0.6,0.1-0.9v-3.3h0.9v5.4c0,0.2,0,0.4,0.1,0.5h-1c0-0.1,0-0.1,0-0.2
		c0-0.1,0-0.2,0-0.3l0-0.5c-0.2,0.3-0.5,0.6-0.8,0.8c-0.3,0.2-0.7,0.3-1.1,0.3c-0.3,0-0.6-0.1-0.8-0.2c-0.2-0.1-0.5-0.3-0.7-0.5
		c-0.2-0.2-0.3-0.5-0.4-0.9c-0.1-0.3-0.1-0.8-0.1-1.2L118.7,442.4z"/>
	<path d="M126.9,440.8l1-0.2c0,0.1,0,0.1,0,0.2c0,0.1,0,0.1,0,0.1l-0.2,1.4h1.9v0.8h-1.9c-0.1,0.8-0.1,1.5-0.1,2.2
		c0,0.4,0,0.8,0,1.1c0,0.3,0.1,0.5,0.1,0.7c0.1,0.2,0.2,0.3,0.3,0.4c0.1,0.1,0.3,0.1,0.6,0.1c0.4,0,0.8-0.2,1.3-0.5l0.3,0.7
		c-0.6,0.4-1.2,0.7-1.8,0.7c-0.6,0-1.1-0.2-1.4-0.6c-0.3-0.4-0.4-1-0.4-1.8c0-0.3,0-0.7,0-1.2c0-0.5,0.1-1.1,0.1-1.7h-1.4v-0.8h1.4
		L126.9,440.8z"/>
	<path d="M131.8,448.3v-8.6h1.1c0,0,0,0,0,0s0,0,0,0c0,0,0,0.1-0.1,0.1c0,0-0.1,0.1-0.1,0.2v3.4c0.2-0.4,0.5-0.7,0.9-0.9
		s0.7-0.3,1.1-0.3c0.3,0,0.5,0,0.7,0.1s0.4,0.2,0.6,0.4c0.2,0.2,0.3,0.5,0.4,0.8s0.1,0.7,0.1,1.1v3.6h-0.9v-3.6
		c0-0.6-0.1-1.1-0.3-1.3c-0.2-0.3-0.5-0.4-0.8-0.4c-0.2,0-0.4,0-0.6,0.1s-0.4,0.2-0.6,0.4c-0.2,0.2-0.3,0.3-0.4,0.6
		s-0.1,0.5-0.1,0.8v3.4H131.8z"/>
	<path d="M144.1,448.3l2.9-8.2h0.1l3.1,8.2h-0.9l-0.9-2.4h-2.6l-0.8,2.4H144.1z M148.2,445.3l-1.1-3.1l-1,3.1H148.2z"/>
	<path d="M154.9,439.6c0.8,0,1.4,0.3,1.8,0.8l-0.4,0.9c-0.1,0-0.1,0-0.1-0.1s0-0.1,0-0.2c-0.1-0.2-0.3-0.4-0.6-0.5s-0.5-0.2-0.7-0.2
		c-0.2,0-0.4,0-0.6,0.1s-0.3,0.2-0.4,0.3s-0.2,0.3-0.3,0.6s-0.1,0.6-0.1,0.9v0.5h2v0.8h-2v4.8h-0.9v-4.8h-1.3v-0.8h1.3v-0.6
		c0-0.5,0.1-0.9,0.2-1.2c0.1-0.3,0.3-0.6,0.5-0.8c0.2-0.2,0.5-0.3,0.8-0.4C154.2,439.7,154.5,439.6,154.9,439.6z"/>
	<path d="M158.2,442.4h1l0,1.1c0.2-0.4,0.5-0.7,0.9-1c0.4-0.2,0.8-0.3,1.3-0.3c0.6,0,1.2,0.2,1.6,0.6l-0.4,0.9
		c-0.1-0.1-0.2-0.2-0.3-0.3c-0.1-0.1-0.2-0.2-0.3-0.2c-0.1-0.1-0.2-0.1-0.3-0.1c-0.1,0-0.2-0.1-0.4-0.1c-0.3,0-0.6,0.1-0.8,0.2
		c-0.3,0.1-0.5,0.3-0.7,0.5c-0.2,0.2-0.3,0.5-0.5,0.8s-0.2,0.6-0.2,0.9v2.9h-0.9V442.4z"/>
	<path d="M164.8,442.4h2.4v5.2h1.4v0.8h-3.8v-0.8h1.5v-4.4h-1.4V442.4z M166.2,440c0.1-0.1,0.3-0.2,0.5-0.2c0.2,0,0.3,0.1,0.5,0.2
		c0.1,0.1,0.2,0.3,0.2,0.5c0,0.2-0.1,0.3-0.2,0.5c-0.1,0.1-0.3,0.2-0.5,0.2c-0.2,0-0.3-0.1-0.5-0.2c-0.1-0.1-0.2-0.3-0.2-0.5
		C166,440.3,166.1,440.1,166.2,440z"/>
	<path d="M175.9,443.4l-0.7,0.8c0,0-0.1-0.1-0.1-0.1c0,0,0-0.1,0-0.1c0-0.1,0-0.1-0.1-0.2c-0.1-0.1-0.2-0.2-0.3-0.3
		c-0.3-0.2-0.7-0.4-1.2-0.4c-0.3,0-0.5,0.1-0.7,0.2c-0.2,0.1-0.4,0.3-0.6,0.4c-0.2,0.2-0.3,0.4-0.4,0.7c-0.1,0.3-0.2,0.6-0.2,0.9
		c0,0.3,0.1,0.6,0.2,0.9c0.1,0.3,0.2,0.5,0.4,0.7c0.2,0.2,0.4,0.4,0.7,0.5c0.3,0.1,0.5,0.2,0.8,0.2c0.6,0,1.1-0.2,1.6-0.7l0.5,0.6
		c-0.6,0.6-1.3,0.9-2.2,0.9c-0.4,0-0.8-0.1-1.2-0.2c-0.4-0.2-0.7-0.4-0.9-0.7s-0.5-0.6-0.6-1c-0.1-0.4-0.2-0.8-0.2-1.2
		c0-0.4,0.1-0.9,0.2-1.2c0.1-0.4,0.4-0.7,0.6-1s0.6-0.5,0.9-0.6c0.4-0.2,0.8-0.2,1.2-0.2c0.5,0,0.9,0.1,1.3,0.3
		C175.3,442.8,175.6,443,175.9,443.4z"/>
	<path d="M177.6,443.1c0.5-0.6,1.2-0.8,2.1-0.8c0.7,0,1.3,0.2,1.7,0.6c0.4,0.4,0.6,1,0.6,1.8v3.7h-0.9v-0.6
		c-0.6,0.5-1.3,0.8-2.1,0.8c-0.3,0-0.6,0-0.8-0.1c-0.2-0.1-0.5-0.2-0.6-0.4c-0.2-0.2-0.3-0.3-0.4-0.5c-0.1-0.2-0.1-0.4-0.1-0.6
		c0-0.6,0.3-1.1,0.8-1.4c0.5-0.3,1.3-0.5,2.2-0.6h1.1v-0.2c0-0.6-0.1-1-0.4-1.2c-0.2-0.2-0.6-0.4-1.2-0.4c-0.6,0-1.2,0.2-1.6,0.7
		L177.6,443.1z M181.2,445.6H181c-0.1,0-0.2,0-0.3,0c-0.1,0-0.2,0-0.3,0c-0.5,0-0.9,0-1.2,0.1c-0.3,0.1-0.5,0.2-0.7,0.3
		c-0.2,0.1-0.3,0.2-0.4,0.4c-0.1,0.1-0.1,0.3-0.1,0.5c0,0.3,0.1,0.5,0.4,0.7c0.2,0.2,0.5,0.3,0.9,0.3c0.3,0,0.5,0,0.7-0.1
		s0.4-0.2,0.5-0.3c0.2-0.1,0.3-0.2,0.4-0.4s0.2-0.2,0.2-0.3c0.1-0.2,0.1-0.4,0.1-0.7V445.6z"/>
	<path d="M6.1,457.7c0-0.1,0-0.2,0-0.2c-0.2-0.3-0.4-0.5-0.7-0.7s-0.6-0.2-0.9-0.2c-0.3,0-0.6,0.1-0.8,0.2c-0.3,0.2-0.5,0.4-0.7,0.7
		c-0.2,0.3-0.4,0.6-0.5,1.1s-0.2,0.9-0.2,1.4c0,0.5,0.1,1,0.2,1.4c0.1,0.4,0.3,0.8,0.5,1.1c0.2,0.3,0.4,0.5,0.7,0.7
		c0.3,0.2,0.6,0.2,0.9,0.2c0.3,0,0.6-0.1,0.9-0.3c0.3-0.2,0.5-0.4,0.7-0.7l0.7,0.4c-0.1,0.2-0.3,0.4-0.5,0.6
		c-0.2,0.2-0.4,0.3-0.6,0.4c-0.2,0.1-0.4,0.2-0.6,0.3s-0.4,0.1-0.6,0.1c-0.5,0-0.9-0.1-1.2-0.2c-0.4-0.2-0.7-0.4-1-0.7
		c-0.3-0.3-0.5-0.8-0.7-1.3s-0.2-1.1-0.2-1.9c0-0.8,0.1-1.5,0.3-2c0.2-0.5,0.4-1,0.8-1.3c0.3-0.3,0.6-0.5,1-0.7s0.7-0.2,1-0.2
		c0.3,0,0.5,0,0.8,0.1c0.3,0.1,0.5,0.2,0.7,0.3c0.2,0.1,0.4,0.3,0.6,0.5c0.2,0.2,0.3,0.4,0.4,0.7l-0.9,0.4
		C6.1,457.8,6.1,457.7,6.1,457.7z"/>
	<path d="M8.6,458.7c0.5-0.6,1.2-0.8,2.1-0.8c0.7,0,1.3,0.2,1.7,0.6c0.4,0.4,0.6,1,0.6,1.8v3.7h-0.9v-0.7c-0.6,0.5-1.3,0.8-2.1,0.8
		c-0.3,0-0.6,0-0.8-0.1c-0.2-0.1-0.5-0.2-0.6-0.4c-0.2-0.2-0.3-0.3-0.4-0.5S8,462.6,8,462.4c0-0.6,0.3-1.1,0.8-1.4
		c0.5-0.3,1.3-0.5,2.2-0.6h1.1v-0.2c0-0.6-0.1-1-0.4-1.2c-0.2-0.2-0.6-0.4-1.2-0.4c-0.6,0-1.2,0.2-1.6,0.7L8.6,458.7z M12.2,461.2
		H12c-0.1,0-0.2,0-0.3,0s-0.2,0-0.3,0c-0.5,0-0.9,0-1.2,0.1c-0.3,0.1-0.5,0.2-0.7,0.3c-0.2,0.1-0.3,0.2-0.4,0.4S9,462.2,9,462.4
		c0,0.3,0.1,0.5,0.4,0.7s0.5,0.3,0.9,0.3c0.3,0,0.5,0,0.7-0.1c0.2-0.1,0.4-0.2,0.5-0.3c0.2-0.1,0.3-0.2,0.4-0.4
		c0.1-0.1,0.2-0.2,0.2-0.3c0.1-0.2,0.1-0.4,0.1-0.7V461.2z"/>
	<path d="M14.7,458h0.9v3.3c0,0.4,0,0.7,0.1,1s0.2,0.5,0.3,0.6c0.1,0.2,0.3,0.3,0.4,0.3c0.2,0.1,0.3,0.1,0.5,0.1
		c0.2,0,0.4-0.1,0.6-0.2c0.2-0.1,0.4-0.2,0.5-0.4c0.2-0.2,0.3-0.4,0.4-0.6c0.1-0.3,0.1-0.6,0.1-0.9V458h0.9v5.4c0,0.2,0,0.4,0.1,0.5
		h-1c0-0.1,0-0.1,0-0.2c0-0.1,0-0.2,0-0.3l0-0.5c-0.2,0.3-0.5,0.6-0.8,0.8c-0.3,0.2-0.7,0.3-1.1,0.3c-0.3,0-0.6-0.1-0.8-0.2
		c-0.2-0.1-0.5-0.3-0.7-0.5c-0.2-0.2-0.3-0.5-0.4-0.9c-0.1-0.3-0.1-0.8-0.1-1.2L14.7,458z"/>
	<path d="M26,458.8l-0.5,0.8c0,0-0.1,0-0.1-0.1s0-0.1,0-0.1c-0.2-0.2-0.4-0.4-0.7-0.6c-0.3-0.2-0.6-0.3-1-0.3c-0.2,0-0.3,0-0.5,0.1
		s-0.3,0.1-0.4,0.2c-0.1,0.1-0.2,0.2-0.3,0.3s-0.1,0.2-0.1,0.4c0,0.1,0,0.2,0.1,0.3c0.1,0.1,0.1,0.2,0.2,0.2
		c0.1,0.1,0.3,0.2,0.5,0.2c0.2,0.1,0.5,0.2,0.8,0.3c0.8,0.2,1.3,0.4,1.6,0.7c0.3,0.3,0.5,0.6,0.5,1c0,0.3-0.1,0.5-0.2,0.7
		c-0.1,0.2-0.3,0.4-0.5,0.6c-0.2,0.2-0.5,0.3-0.8,0.4s-0.6,0.1-1,0.1c-1,0-1.8-0.3-2.5-0.9l0.5-0.9c0,0,0,0.1,0.1,0.1
		c0,0.1,0,0.1,0.1,0.2s0.1,0.2,0.3,0.3s0.4,0.2,0.6,0.3c0.1,0.1,0.3,0.1,0.4,0.1c0.2,0,0.3,0,0.5,0c0.2,0,0.4,0,0.5-0.1
		c0.2,0,0.3-0.1,0.5-0.2c0.1-0.1,0.3-0.2,0.3-0.3s0.1-0.3,0.1-0.4c0-0.2-0.1-0.4-0.3-0.6s-0.6-0.3-1.2-0.5c-0.4-0.1-0.6-0.2-0.8-0.2
		c-0.3-0.1-0.5-0.2-0.7-0.3c-0.1-0.1-0.3-0.2-0.4-0.3c-0.1-0.1-0.2-0.3-0.3-0.4c-0.1-0.2-0.1-0.3-0.1-0.5c0-0.2,0.1-0.4,0.2-0.6
		c0.1-0.2,0.3-0.4,0.5-0.5c0.2-0.1,0.4-0.3,0.7-0.4c0.3-0.1,0.6-0.1,0.9-0.1C24.7,457.9,25.5,458.2,26,458.8z"/>
	<path d="M30.3,457.9c0.3,0,0.6,0.1,0.9,0.2c0.3,0.1,0.6,0.3,0.8,0.5c0.2,0.2,0.4,0.5,0.5,0.9s0.2,0.8,0.2,1.3c0,0.1,0,0.1,0,0.2
		s0,0.1,0,0.2h-4.2c0,0.4,0.1,0.8,0.2,1c0.1,0.3,0.3,0.5,0.5,0.7c0.2,0.2,0.4,0.3,0.6,0.4c0.2,0.1,0.5,0.1,0.7,0.1
		c0.6,0,1.1-0.2,1.5-0.7l0.5,0.5c-0.5,0.6-1.2,0.9-2.1,0.9c-0.4,0-0.8-0.1-1.2-0.2c-0.4-0.1-0.7-0.3-0.9-0.6c-0.3-0.3-0.4-0.6-0.6-1
		c-0.1-0.4-0.2-0.8-0.2-1.3c0-0.5,0.1-0.9,0.2-1.3c0.1-0.4,0.3-0.7,0.6-1c0.2-0.3,0.5-0.5,0.9-0.6C29.5,457.9,29.9,457.9,30.3,457.9
		z M28.5,460.4h3.3c0,0,0-0.1,0-0.1s0-0.1,0-0.1c0-0.2,0-0.4-0.1-0.6c-0.1-0.2-0.2-0.4-0.3-0.5c-0.1-0.1-0.3-0.3-0.5-0.3
		c-0.2-0.1-0.4-0.1-0.6-0.1c-0.4,0-0.8,0.1-1.1,0.4C28.8,459.3,28.6,459.7,28.5,460.4z"/>
	<path d="M43.2,457.9c0.4,0,0.7,0.1,1,0.2c0.3,0.1,0.6,0.3,0.9,0.6s0.4,0.6,0.6,1s0.2,0.8,0.2,1.3c0,0.5-0.1,0.9-0.2,1.3
		c-0.1,0.4-0.3,0.7-0.6,1c-0.2,0.3-0.5,0.5-0.9,0.6c-0.3,0.1-0.7,0.2-1.1,0.2c-0.4,0-0.7-0.1-1.1-0.2s-0.6-0.4-0.9-0.6
		c-0.3-0.3-0.5-0.6-0.6-1c-0.1-0.4-0.2-0.8-0.2-1.2s0.1-0.9,0.2-1.2c0.2-0.4,0.4-0.7,0.6-1c0.3-0.3,0.6-0.5,0.9-0.6
		C42.5,458,42.8,457.9,43.2,457.9z M45,461c0-0.4,0-0.7-0.1-1c-0.1-0.3-0.2-0.5-0.4-0.7s-0.4-0.4-0.6-0.5c-0.2-0.1-0.4-0.2-0.7-0.2
		c-0.2,0-0.5,0.1-0.7,0.2c-0.2,0.1-0.4,0.3-0.6,0.5c-0.2,0.2-0.3,0.4-0.4,0.7c-0.1,0.3-0.1,0.6-0.1,1c0,0.3,0,0.7,0.1,0.9
		c0.1,0.3,0.2,0.5,0.4,0.7c0.2,0.2,0.3,0.4,0.6,0.5c0.2,0.1,0.4,0.2,0.7,0.2s0.5,0,0.7-0.1c0.2-0.1,0.4-0.2,0.6-0.4
		c0.2-0.2,0.3-0.4,0.4-0.7C44.9,461.7,45,461.4,45,461z"/>
	<path d="M50.9,455.2c0.8,0,1.4,0.3,1.8,0.8l-0.4,0.9c-0.1,0-0.1,0-0.1-0.1s0-0.1,0-0.2c-0.1-0.2-0.3-0.4-0.6-0.5
		c-0.2-0.1-0.5-0.2-0.7-0.2c-0.2,0-0.4,0-0.6,0.1c-0.2,0.1-0.3,0.2-0.4,0.3s-0.2,0.3-0.3,0.6s-0.1,0.6-0.1,0.9v0.5h2v0.8h-2v4.8
		h-0.9v-4.8h-1.3v-0.8h1.3v-0.6c0-0.5,0.1-0.9,0.2-1.2c0.1-0.3,0.3-0.6,0.5-0.8c0.2-0.2,0.5-0.3,0.8-0.4S50.5,455.2,50.9,455.2z"/>
	<path d="M64.2,458.9v-3.6h1c0,0.1,0,0.1-0.1,0.2c0,0.1-0.1,0.1-0.1,0.2l0,7.7c0,0.2,0,0.4,0.1,0.5h-0.9c0-0.1-0.1-0.3-0.1-0.4V463
		c-0.2,0.3-0.4,0.6-0.8,0.8c-0.3,0.2-0.7,0.3-1,0.3c-0.3,0-0.6-0.1-0.9-0.2s-0.5-0.3-0.8-0.6s-0.4-0.6-0.5-1
		c-0.1-0.4-0.2-0.9-0.2-1.4c0-0.5,0.1-1,0.2-1.4s0.3-0.7,0.6-0.9c0.2-0.2,0.5-0.4,0.8-0.5c0.3-0.1,0.6-0.2,0.9-0.2
		c0.4,0,0.8,0.1,1.1,0.3C63.9,458.3,64.1,458.6,64.2,458.9z M61.5,459c-0.4,0.3-0.6,0.9-0.6,1.7c0,0.7,0.1,1.3,0.4,1.8
		c0.3,0.5,0.7,0.7,1.2,0.7c0.1,0,0.3,0,0.4-0.1c0.1,0,0.3-0.1,0.4-0.2s0.2-0.2,0.3-0.3c0.1-0.1,0.2-0.3,0.2-0.4
		c0.1-0.3,0.1-0.7,0.1-1.3c0-0.3,0-0.6,0-0.8c0-0.2-0.1-0.4-0.1-0.6c-0.1-0.2-0.1-0.3-0.2-0.4c-0.1-0.1-0.2-0.2-0.3-0.3
		c-0.2-0.1-0.3-0.2-0.4-0.2s-0.3-0.1-0.4-0.1c-0.2,0-0.5,0-0.6,0.1C61.8,458.8,61.7,458.9,61.5,459z"/>
	<path d="M69.3,457.9c0.3,0,0.6,0.1,0.9,0.2c0.3,0.1,0.6,0.3,0.8,0.5c0.2,0.2,0.4,0.5,0.5,0.9s0.2,0.8,0.2,1.3c0,0.1,0,0.1,0,0.2
		s0,0.1,0,0.2h-4.2c0,0.4,0.1,0.8,0.2,1c0.1,0.3,0.3,0.5,0.5,0.7c0.2,0.2,0.4,0.3,0.6,0.4c0.2,0.1,0.5,0.1,0.7,0.1
		c0.6,0,1.1-0.2,1.5-0.7l0.5,0.5c-0.5,0.6-1.2,0.9-2.1,0.9c-0.4,0-0.8-0.1-1.2-0.2c-0.4-0.1-0.7-0.3-0.9-0.6c-0.3-0.3-0.4-0.6-0.6-1
		c-0.1-0.4-0.2-0.8-0.2-1.3c0-0.5,0.1-0.9,0.2-1.3c0.1-0.4,0.3-0.7,0.6-1c0.2-0.3,0.5-0.5,0.9-0.6C68.5,457.9,68.9,457.9,69.3,457.9
		z M67.5,460.4h3.3c0,0,0-0.1,0-0.1s0-0.1,0-0.1c0-0.2,0-0.4-0.1-0.6c-0.1-0.2-0.2-0.4-0.3-0.5c-0.1-0.1-0.3-0.3-0.5-0.3
		c-0.2-0.1-0.4-0.1-0.6-0.1c-0.4,0-0.8,0.1-1.1,0.4C67.8,459.3,67.6,459.7,67.5,460.4z"/>
	<path d="M73.6,458.7c0.5-0.6,1.2-0.8,2.1-0.8c0.7,0,1.3,0.2,1.7,0.6c0.4,0.4,0.6,1,0.6,1.8v3.7h-0.9v-0.7c-0.6,0.5-1.3,0.8-2.1,0.8
		c-0.3,0-0.6,0-0.8-0.1c-0.2-0.1-0.5-0.2-0.6-0.4c-0.2-0.2-0.3-0.3-0.4-0.5s-0.1-0.4-0.1-0.6c0-0.6,0.3-1.1,0.8-1.4
		c0.5-0.3,1.3-0.5,2.2-0.6h1.1v-0.2c0-0.6-0.1-1-0.4-1.2c-0.2-0.2-0.6-0.4-1.2-0.4c-0.6,0-1.2,0.2-1.6,0.7L73.6,458.7z M77.2,461.2
		H77c-0.1,0-0.2,0-0.3,0s-0.2,0-0.3,0c-0.5,0-0.9,0-1.2,0.1c-0.3,0.1-0.5,0.2-0.7,0.3c-0.2,0.1-0.3,0.2-0.4,0.4s-0.1,0.3-0.1,0.5
		c0,0.3,0.1,0.5,0.4,0.7s0.5,0.3,0.9,0.3c0.3,0,0.5,0,0.7-0.1c0.2-0.1,0.4-0.2,0.5-0.3c0.2-0.1,0.3-0.2,0.4-0.4
		c0.1-0.1,0.2-0.2,0.2-0.3c0.1-0.2,0.1-0.4,0.1-0.7V461.2z"/>
	<path d="M81.4,456.4l1-0.2c0,0.1,0,0.1,0,0.2c0,0.1,0,0.1,0,0.1l-0.2,1.4h1.9v0.8h-1.9c-0.1,0.8-0.1,1.5-0.1,2.2c0,0.4,0,0.8,0,1.1
		c0,0.3,0.1,0.5,0.1,0.7c0.1,0.2,0.2,0.3,0.3,0.4c0.1,0.1,0.3,0.1,0.6,0.1c0.4,0,0.8-0.2,1.3-0.5l0.3,0.7c-0.6,0.4-1.2,0.7-1.8,0.7
		c-0.6,0-1.1-0.2-1.4-0.6s-0.4-1-0.4-1.8c0-0.3,0-0.7,0-1.2c0-0.5,0.1-1.1,0.1-1.7h-1.4V458h1.4L81.4,456.4z"/>
	<path d="M86.3,463.9v-8.6h1.1c0,0,0,0,0,0s0,0,0,0c0,0,0,0.1-0.1,0.1s-0.1,0.1-0.1,0.2v3.4c0.2-0.4,0.5-0.7,0.9-0.9
		s0.7-0.3,1.1-0.3c0.3,0,0.5,0,0.7,0.1c0.2,0.1,0.4,0.2,0.6,0.4c0.2,0.2,0.3,0.5,0.4,0.8c0.1,0.3,0.1,0.7,0.1,1.1v3.6h-0.9v-3.6
		c0-0.6-0.1-1.1-0.3-1.3c-0.2-0.3-0.5-0.4-0.8-0.4c-0.2,0-0.4,0-0.6,0.1c-0.2,0.1-0.4,0.2-0.6,0.4s-0.3,0.3-0.4,0.6
		c-0.1,0.2-0.1,0.5-0.1,0.8v3.4H86.3z"/>
	<path d="M95.6,458.7c0.2,0.2,0.2,0.3,0.2,0.5c0,0.2-0.1,0.4-0.2,0.5c-0.2,0.1-0.3,0.2-0.5,0.2c-0.2,0-0.4-0.1-0.5-0.2
		c-0.2-0.1-0.2-0.3-0.2-0.5c0-0.2,0.1-0.4,0.2-0.5c0.2-0.1,0.3-0.2,0.5-0.2C95.2,458.4,95.4,458.5,95.6,458.7z M95.6,462.8
		c0.2,0.2,0.2,0.3,0.2,0.5c0,0.2-0.1,0.4-0.2,0.5c-0.2,0.1-0.3,0.2-0.6,0.2c-0.2,0-0.4-0.1-0.5-0.2s-0.2-0.3-0.2-0.5
		s0.1-0.4,0.2-0.5c0.2-0.1,0.3-0.2,0.5-0.2C95.2,462.6,95.4,462.7,95.6,462.8z"/>
	<path d="M105.4,455.8h0.7l2,4l2-4h0.7v8.1H110v-6.1l-1.8,3.3h-0.4l-1.6-3.2v6.1h-0.8V455.8z"/>
	<path d="M112.2,458h0.9v3.3c0,0.4,0,0.7,0.1,1s0.2,0.5,0.3,0.6c0.1,0.2,0.3,0.3,0.4,0.3c0.2,0.1,0.3,0.1,0.5,0.1
		c0.2,0,0.4-0.1,0.6-0.2c0.2-0.1,0.4-0.2,0.5-0.4c0.2-0.2,0.3-0.4,0.4-0.6c0.1-0.3,0.1-0.6,0.1-0.9V458h0.9v5.4c0,0.2,0,0.4,0.1,0.5
		h-1c0-0.1,0-0.1,0-0.2c0-0.1,0-0.2,0-0.3l0-0.5c-0.2,0.3-0.5,0.6-0.8,0.8c-0.3,0.2-0.7,0.3-1.1,0.3c-0.3,0-0.6-0.1-0.8-0.2
		c-0.2-0.1-0.5-0.3-0.7-0.5c-0.2-0.2-0.3-0.5-0.4-0.9c-0.1-0.3-0.1-0.8-0.1-1.2L112.2,458z"/>
	<path d="M119.2,458h1l0,1.1c0.2-0.4,0.5-0.7,0.9-1c0.4-0.2,0.8-0.3,1.3-0.3c0.6,0,1.2,0.2,1.6,0.6l-0.4,0.9
		c-0.1-0.1-0.2-0.2-0.3-0.3c-0.1-0.1-0.2-0.2-0.3-0.2c-0.1-0.1-0.2-0.1-0.3-0.1c-0.1,0-0.2-0.1-0.4-0.1c-0.3,0-0.6,0.1-0.8,0.2
		c-0.3,0.1-0.5,0.3-0.7,0.5s-0.3,0.5-0.5,0.8c-0.1,0.3-0.2,0.6-0.2,0.9v2.9h-0.9V458z"/>
	<path d="M129.2,458.9v-3.6h1c0,0.1,0,0.1-0.1,0.2c0,0.1-0.1,0.1-0.1,0.2l0,7.7c0,0.2,0,0.4,0.1,0.5h-0.9c0-0.1-0.1-0.3-0.1-0.4V463
		c-0.2,0.3-0.4,0.6-0.8,0.8c-0.3,0.2-0.7,0.3-1,0.3c-0.3,0-0.6-0.1-0.9-0.2s-0.5-0.3-0.8-0.6s-0.4-0.6-0.5-1
		c-0.1-0.4-0.2-0.9-0.2-1.4c0-0.5,0.1-1,0.2-1.4s0.3-0.7,0.6-0.9c0.2-0.2,0.5-0.4,0.8-0.5c0.3-0.1,0.6-0.2,0.9-0.2
		c0.4,0,0.8,0.1,1.1,0.3C128.9,458.3,129.1,458.6,129.2,458.9z M126.5,459c-0.4,0.3-0.6,0.9-0.6,1.7c0,0.7,0.1,1.3,0.4,1.8
		c0.3,0.5,0.7,0.7,1.2,0.7c0.1,0,0.3,0,0.4-0.1c0.1,0,0.3-0.1,0.4-0.2s0.2-0.2,0.3-0.3c0.1-0.1,0.2-0.3,0.2-0.4
		c0.1-0.3,0.1-0.7,0.1-1.3c0-0.3,0-0.6,0-0.8c0-0.2-0.1-0.4-0.1-0.6c-0.1-0.2-0.1-0.3-0.2-0.4c-0.1-0.1-0.2-0.2-0.3-0.3
		c-0.2-0.1-0.3-0.2-0.4-0.2c-0.1,0-0.3-0.1-0.4-0.1c-0.2,0-0.5,0-0.6,0.1C126.8,458.8,126.7,458.9,126.5,459z"/>
	<path d="M134.3,457.9c0.3,0,0.6,0.1,0.9,0.2c0.3,0.1,0.6,0.3,0.8,0.5c0.2,0.2,0.4,0.5,0.5,0.9s0.2,0.8,0.2,1.3c0,0.1,0,0.1,0,0.2
		s0,0.1,0,0.2h-4.2c0,0.4,0.1,0.8,0.2,1c0.1,0.3,0.3,0.5,0.5,0.7c0.2,0.2,0.4,0.3,0.6,0.4c0.2,0.1,0.5,0.1,0.7,0.1
		c0.6,0,1.1-0.2,1.5-0.7l0.5,0.5c-0.5,0.6-1.2,0.9-2.1,0.9c-0.4,0-0.8-0.1-1.2-0.2c-0.4-0.1-0.7-0.3-0.9-0.6c-0.3-0.3-0.4-0.6-0.6-1
		c-0.1-0.4-0.2-0.8-0.2-1.3c0-0.5,0.1-0.9,0.2-1.3c0.1-0.4,0.3-0.7,0.6-1c0.2-0.3,0.5-0.5,0.9-0.6
		C133.5,457.9,133.9,457.9,134.3,457.9z M132.5,460.4h3.3c0,0,0-0.1,0-0.1s0-0.1,0-0.1c0-0.2,0-0.4-0.1-0.6
		c-0.1-0.2-0.2-0.4-0.3-0.5c-0.1-0.1-0.3-0.3-0.5-0.3c-0.2-0.1-0.4-0.1-0.6-0.1c-0.4,0-0.8,0.1-1.1,0.4
		C132.8,459.3,132.6,459.7,132.5,460.4z"/>
	<path d="M138.7,458h1l0,1.1c0.2-0.4,0.5-0.7,0.9-1c0.4-0.2,0.8-0.3,1.3-0.3c0.6,0,1.2,0.2,1.6,0.6l-0.4,0.9
		c-0.1-0.1-0.2-0.2-0.3-0.3c-0.1-0.1-0.2-0.2-0.3-0.2c-0.1-0.1-0.2-0.1-0.3-0.1c-0.1,0-0.2-0.1-0.4-0.1c-0.3,0-0.6,0.1-0.8,0.2
		c-0.3,0.1-0.5,0.3-0.7,0.5s-0.3,0.5-0.5,0.8c-0.1,0.3-0.2,0.6-0.2,0.9v2.9h-0.9V458z"/>
</g>
<rect x="1.3" y="41.3" class="st0" width="500.3" height="333.6"/>
<g>
	<path d="M193.9,211.4v-5.9h0.9v1.1c0.2-0.4,0.5-0.7,0.9-0.9c0.4-0.2,0.7-0.3,1.1-0.3c0.3,0,0.5,0,0.7,0.1c0.2,0.1,0.4,0.2,0.6,0.4
		c0.2,0.2,0.3,0.5,0.4,0.8s0.1,0.7,0.1,1.1v3.6h-0.9v-3.6c0-0.6-0.1-1.1-0.3-1.3c-0.2-0.3-0.5-0.4-0.8-0.4c-0.2,0-0.4,0-0.6,0.1
		c-0.2,0.1-0.4,0.2-0.6,0.4c-0.2,0.2-0.3,0.4-0.4,0.6c-0.1,0.2-0.2,0.5-0.2,0.8v3.4H193.9z"/>
	<path d="M202.8,205.3c0.4,0,0.7,0.1,1,0.2c0.3,0.1,0.6,0.3,0.9,0.6s0.4,0.6,0.6,1s0.2,0.8,0.2,1.3c0,0.5-0.1,0.9-0.2,1.3
		s-0.3,0.7-0.6,1c-0.2,0.3-0.5,0.5-0.9,0.6c-0.3,0.1-0.7,0.2-1.1,0.2c-0.4,0-0.7-0.1-1.1-0.2c-0.3-0.2-0.6-0.4-0.9-0.6
		s-0.5-0.6-0.6-1c-0.1-0.4-0.2-0.8-0.2-1.2s0.1-0.9,0.2-1.2c0.2-0.4,0.4-0.7,0.6-1s0.6-0.5,0.9-0.6
		C202.1,205.4,202.4,205.3,202.8,205.3z M204.5,208.4c0-0.4,0-0.7-0.1-1c-0.1-0.3-0.2-0.5-0.4-0.7s-0.4-0.4-0.6-0.5
		c-0.2-0.1-0.4-0.2-0.7-0.2c-0.2,0-0.5,0.1-0.7,0.2s-0.4,0.3-0.6,0.5c-0.2,0.2-0.3,0.4-0.4,0.7s-0.1,0.6-0.1,1c0,0.3,0,0.7,0.1,0.9
		s0.2,0.5,0.4,0.7c0.2,0.2,0.3,0.4,0.6,0.5c0.2,0.1,0.4,0.2,0.7,0.2s0.5,0,0.7-0.1c0.2-0.1,0.4-0.2,0.6-0.4c0.2-0.2,0.3-0.4,0.4-0.7
		C204.5,209.1,204.5,208.8,204.5,208.4z"/>
	<path d="M213.7,206.1c0.5-0.6,1.2-0.8,2.1-0.8c0.7,0,1.3,0.2,1.7,0.6c0.4,0.4,0.6,1,0.6,1.8v3.7h-0.9v-0.6
		c-0.6,0.5-1.3,0.8-2.1,0.8c-0.3,0-0.6,0-0.8-0.1c-0.2-0.1-0.5-0.2-0.6-0.4c-0.2-0.2-0.3-0.3-0.4-0.5c-0.1-0.2-0.1-0.4-0.1-0.6
		c0-0.6,0.3-1.1,0.8-1.4c0.5-0.3,1.3-0.5,2.2-0.6h1.1v-0.2c0-0.6-0.1-1-0.4-1.2c-0.2-0.2-0.6-0.4-1.2-0.4c-0.6,0-1.2,0.2-1.6,0.7
		L213.7,206.1z M217.3,208.6h-0.2c-0.1,0-0.2,0-0.3,0s-0.2,0-0.3,0c-0.5,0-0.9,0-1.2,0.1c-0.3,0.1-0.5,0.2-0.7,0.3
		c-0.2,0.1-0.3,0.2-0.4,0.4s-0.1,0.3-0.1,0.5c0,0.3,0.1,0.5,0.4,0.7c0.2,0.2,0.5,0.3,0.9,0.3c0.3,0,0.5,0,0.7-0.1s0.4-0.2,0.5-0.3
		c0.2-0.1,0.3-0.2,0.4-0.4s0.2-0.2,0.2-0.3c0.1-0.2,0.1-0.4,0.1-0.7V208.6z"/>
	<path d="M219.6,205.7l-0.1-0.3h1.1c0,0.1,0,0.1,0,0.2c0,0,0,0.1,0,0.1c0,0,0,0,0,0l1.7,4.3l1-2.2c0.2-0.5,0.4-0.9,0.5-1.3
		c0.1-0.4,0.2-0.8,0.3-1.1h0.8c-0.2,0.7-0.5,1.6-0.9,2.6l-1.4,3.4h-0.7L219.6,205.7z"/>
	<path d="M226.7,206.1c0.5-0.6,1.2-0.8,2.1-0.8c0.7,0,1.3,0.2,1.7,0.6c0.4,0.4,0.6,1,0.6,1.8v3.7h-0.9v-0.6
		c-0.6,0.5-1.3,0.8-2.1,0.8c-0.3,0-0.6,0-0.8-0.1c-0.2-0.1-0.5-0.2-0.6-0.4c-0.2-0.2-0.3-0.3-0.4-0.5c-0.1-0.2-0.1-0.4-0.1-0.6
		c0-0.6,0.3-1.1,0.8-1.4c0.5-0.3,1.3-0.5,2.2-0.6h1.1v-0.2c0-0.6-0.1-1-0.4-1.2c-0.2-0.2-0.6-0.4-1.2-0.4c-0.6,0-1.2,0.2-1.6,0.7
		L226.7,206.1z M230.3,208.6h-0.2c-0.1,0-0.2,0-0.3,0s-0.2,0-0.3,0c-0.5,0-0.9,0-1.2,0.1c-0.3,0.1-0.5,0.2-0.7,0.3
		c-0.2,0.1-0.3,0.2-0.4,0.4s-0.1,0.3-0.1,0.5c0,0.3,0.1,0.5,0.4,0.7c0.2,0.2,0.5,0.3,0.9,0.3c0.3,0,0.5,0,0.7-0.1s0.4-0.2,0.5-0.3
		c0.2-0.1,0.3-0.2,0.4-0.4s0.2-0.2,0.2-0.3c0.1-0.2,0.1-0.4,0.1-0.7V208.6z"/>
	<path d="M233.4,205.4h2.4v5.2h1.4v0.8h-3.8v-0.8h1.5v-4.4h-1.4V205.4z M234.8,203c0.1-0.1,0.3-0.2,0.5-0.2c0.2,0,0.3,0.1,0.5,0.2
		c0.1,0.1,0.2,0.3,0.2,0.5s-0.1,0.3-0.2,0.5c-0.1,0.1-0.3,0.2-0.5,0.2c-0.2,0-0.3-0.1-0.5-0.2c-0.1-0.1-0.2-0.3-0.2-0.5
		C234.6,203.3,234.7,203.2,234.8,203z"/>
	<path d="M239.6,202.7h2.6v7.9h1.7v0.8h-4.4v-0.8h1.8v-7.1h-1.7V202.7z"/>
	<path d="M246.2,206.1c0.5-0.6,1.2-0.8,2.1-0.8c0.7,0,1.3,0.2,1.7,0.6c0.4,0.4,0.6,1,0.6,1.8v3.7h-0.9v-0.6
		c-0.6,0.5-1.3,0.8-2.1,0.8c-0.3,0-0.6,0-0.8-0.1c-0.2-0.1-0.5-0.2-0.6-0.4c-0.2-0.2-0.3-0.3-0.4-0.5c-0.1-0.2-0.1-0.4-0.1-0.6
		c0-0.6,0.3-1.1,0.8-1.4c0.5-0.3,1.3-0.5,2.2-0.6h1.1v-0.2c0-0.6-0.1-1-0.4-1.2c-0.2-0.2-0.6-0.4-1.2-0.4c-0.6,0-1.2,0.2-1.6,0.7
		L246.2,206.1z M249.8,208.6h-0.2c-0.1,0-0.2,0-0.3,0s-0.2,0-0.3,0c-0.5,0-0.9,0-1.2,0.1c-0.3,0.1-0.5,0.2-0.7,0.3
		c-0.2,0.1-0.3,0.2-0.4,0.4s-0.1,0.3-0.1,0.5c0,0.3,0.1,0.5,0.4,0.7c0.2,0.2,0.5,0.3,0.9,0.3c0.3,0,0.5,0,0.7-0.1s0.4-0.2,0.5-0.3
		c0.2-0.1,0.3-0.2,0.4-0.4s0.2-0.2,0.2-0.3c0.1-0.2,0.1-0.4,0.1-0.7V208.6z"/>
	<path d="M252.3,202.7h1.1v0c0,0,0,0.1-0.1,0.1s-0.1,0.1-0.1,0.1v3.3c0.2-0.3,0.4-0.6,0.8-0.8c0.3-0.2,0.7-0.3,1-0.3
		c0.3,0,0.6,0.1,0.9,0.2c0.3,0.1,0.6,0.3,0.8,0.6c0.2,0.3,0.4,0.6,0.5,1c0.1,0.4,0.2,0.8,0.2,1.3c0,0.5-0.1,1-0.2,1.4
		s-0.3,0.7-0.6,1c-0.2,0.3-0.5,0.5-0.8,0.6c-0.3,0.1-0.6,0.2-0.9,0.2c-0.4,0-0.7-0.1-1-0.2c-0.3-0.2-0.6-0.4-0.8-0.7l-0.3,0.8h-0.6
		V202.7z M253.9,210.4c0.2,0.1,0.3,0.1,0.4,0.2c0.1,0,0.3,0,0.4,0c0.2,0,0.4,0,0.6-0.1c0.2-0.1,0.4-0.2,0.6-0.3
		c0.2-0.2,0.3-0.4,0.4-0.7c0.1-0.3,0.2-0.6,0.2-1c0-0.8-0.2-1.4-0.5-1.8c-0.3-0.4-0.8-0.6-1.4-0.6c-0.2,0-0.5,0.1-0.7,0.2
		c-0.2,0.2-0.4,0.4-0.5,0.6c-0.1,0.3-0.2,0.7-0.2,1.3c0,0.4,0,0.7,0,0.9s0.1,0.5,0.1,0.6c0.1,0.2,0.1,0.3,0.2,0.4
		S253.8,210.3,253.9,210.4z"/>
	<path d="M259.1,202.7h2.6v7.9h1.7v0.8H259v-0.8h1.8v-7.1h-1.7V202.7z"/>
	<path d="M267.9,205.3c0.3,0,0.6,0.1,0.9,0.2c0.3,0.1,0.6,0.3,0.8,0.5c0.2,0.2,0.4,0.5,0.5,0.9c0.1,0.4,0.2,0.8,0.2,1.3
		c0,0.1,0,0.1,0,0.2c0,0.1,0,0.1,0,0.2H266c0,0.4,0.1,0.8,0.2,1c0.1,0.3,0.3,0.5,0.5,0.7s0.4,0.3,0.6,0.4c0.2,0.1,0.5,0.1,0.7,0.1
		c0.6,0,1.1-0.2,1.5-0.7l0.5,0.5c-0.5,0.6-1.2,0.9-2.1,0.9c-0.4,0-0.8-0.1-1.2-0.2c-0.4-0.1-0.7-0.3-0.9-0.6c-0.3-0.3-0.4-0.6-0.6-1
		s-0.2-0.8-0.2-1.3c0-0.5,0.1-0.9,0.2-1.3c0.1-0.4,0.3-0.7,0.6-1c0.2-0.3,0.5-0.5,0.9-0.6S267.5,205.3,267.9,205.3z M266.1,207.8
		h3.3c0,0,0-0.1,0-0.1c0,0,0-0.1,0-0.1c0-0.2,0-0.4-0.1-0.6c-0.1-0.2-0.2-0.4-0.3-0.5c-0.1-0.1-0.3-0.3-0.5-0.3s-0.4-0.1-0.6-0.1
		c-0.4,0-0.8,0.1-1.1,0.4C266.4,206.7,266.2,207.2,266.1,207.8z"/>
	<path d="M278.3,205.4h0.9v0.9c0.2-0.3,0.5-0.6,0.8-0.8c0.3-0.2,0.7-0.3,1-0.3c0.3,0,0.6,0.1,0.9,0.2s0.6,0.3,0.8,0.6
		s0.4,0.6,0.5,0.9c0.1,0.4,0.2,0.8,0.2,1.4s-0.1,1-0.2,1.4c-0.1,0.4-0.3,0.7-0.6,1c-0.2,0.3-0.5,0.5-0.8,0.6s-0.6,0.2-0.9,0.2
		c-0.4,0-0.7-0.1-1-0.2s-0.6-0.4-0.8-0.7v3h-0.9V205.4z M279.2,208.9c0,0.6,0.2,1.1,0.4,1.4s0.6,0.4,1,0.4c0.2,0,0.4,0,0.7-0.1
		c0.2-0.1,0.4-0.2,0.6-0.4c0.2-0.2,0.3-0.4,0.4-0.7s0.2-0.6,0.2-1c0-0.8-0.2-1.3-0.5-1.8s-0.8-0.6-1.3-0.7c-0.2,0-0.4,0-0.5,0.1
		c-0.2,0.1-0.3,0.2-0.5,0.3c-0.1,0.1-0.3,0.3-0.4,0.6s-0.1,0.5-0.1,0.9V208.9z"/>
	<path d="M284.9,211.4v-8.6h1.1c0,0,0,0,0,0c0,0,0,0,0,0c0,0,0,0.1-0.1,0.1c0,0-0.1,0.1-0.1,0.2v3.4c0.2-0.4,0.5-0.7,0.9-0.9
		c0.4-0.2,0.7-0.3,1.1-0.3c0.3,0,0.5,0,0.7,0.1c0.2,0.1,0.4,0.2,0.6,0.4c0.2,0.2,0.3,0.5,0.4,0.8s0.1,0.7,0.1,1.1v3.6h-0.9v-3.6
		c0-0.6-0.1-1.1-0.3-1.3c-0.2-0.3-0.5-0.4-0.8-0.4c-0.2,0-0.4,0-0.6,0.1c-0.2,0.1-0.4,0.2-0.6,0.4s-0.3,0.3-0.4,0.6
		c-0.1,0.2-0.1,0.5-0.1,0.8v3.4H284.9z"/>
	<path d="M293.8,205.3c0.4,0,0.7,0.1,1,0.2c0.3,0.1,0.6,0.3,0.9,0.6c0.2,0.3,0.4,0.6,0.6,1c0.1,0.4,0.2,0.8,0.2,1.3
		c0,0.5-0.1,0.9-0.2,1.3s-0.3,0.7-0.6,1c-0.2,0.3-0.5,0.5-0.9,0.6s-0.7,0.2-1.1,0.2c-0.4,0-0.7-0.1-1.1-0.2
		c-0.3-0.2-0.6-0.4-0.9-0.6c-0.3-0.3-0.5-0.6-0.6-1c-0.1-0.4-0.2-0.8-0.2-1.2s0.1-0.9,0.2-1.2s0.4-0.7,0.6-1s0.6-0.5,0.9-0.6
		C293.1,205.4,293.4,205.3,293.8,205.3z M295.5,208.4c0-0.4,0-0.7-0.1-1c-0.1-0.3-0.2-0.5-0.4-0.7c-0.2-0.2-0.4-0.4-0.6-0.5
		c-0.2-0.1-0.4-0.2-0.7-0.2s-0.5,0.1-0.7,0.2c-0.2,0.1-0.4,0.3-0.6,0.5s-0.3,0.4-0.4,0.7c-0.1,0.3-0.1,0.6-0.1,1
		c0,0.3,0,0.7,0.1,0.9c0.1,0.3,0.2,0.5,0.4,0.7s0.3,0.4,0.6,0.5s0.4,0.2,0.7,0.2c0.2,0,0.5,0,0.7-0.1c0.2-0.1,0.4-0.2,0.6-0.4
		c0.2-0.2,0.3-0.4,0.4-0.7S295.5,208.8,295.5,208.4z"/>
	<path d="M299.4,203.8l1-0.2c0,0.1,0,0.1,0,0.2c0,0.1,0,0.1,0,0.1l-0.2,1.4h2v0.8h-2c-0.1,0.8-0.1,1.5-0.1,2.2c0,0.4,0,0.8,0,1.1
		s0.1,0.5,0.1,0.7c0.1,0.2,0.2,0.3,0.3,0.4c0.1,0.1,0.3,0.1,0.6,0.1c0.4,0,0.8-0.2,1.3-0.5l0.3,0.7c-0.6,0.4-1.2,0.7-1.8,0.7
		c-0.6,0-1.1-0.2-1.4-0.6s-0.4-1-0.4-1.8c0-0.3,0-0.7,0-1.2c0-0.5,0.1-1.1,0.1-1.7h-1.4v-0.8h1.4L299.4,203.8z"/>
	<path d="M306.8,205.3c0.4,0,0.7,0.1,1,0.2c0.3,0.1,0.6,0.3,0.9,0.6c0.2,0.3,0.4,0.6,0.6,1c0.1,0.4,0.2,0.8,0.2,1.3
		c0,0.5-0.1,0.9-0.2,1.3s-0.3,0.7-0.6,1c-0.2,0.3-0.5,0.5-0.9,0.6s-0.7,0.2-1.1,0.2c-0.4,0-0.7-0.1-1.1-0.2
		c-0.3-0.2-0.6-0.4-0.9-0.6c-0.3-0.3-0.5-0.6-0.6-1c-0.1-0.4-0.2-0.8-0.2-1.2s0.1-0.9,0.2-1.2s0.4-0.7,0.6-1s0.6-0.5,0.9-0.6
		C306.1,205.4,306.4,205.3,306.8,205.3z M308.5,208.4c0-0.4,0-0.7-0.1-1c-0.1-0.3-0.2-0.5-0.4-0.7c-0.2-0.2-0.4-0.4-0.6-0.5
		c-0.2-0.1-0.4-0.2-0.7-0.2s-0.5,0.1-0.7,0.2c-0.2,0.1-0.4,0.3-0.6,0.5s-0.3,0.4-0.4,0.7c-0.1,0.3-0.1,0.6-0.1,1
		c0,0.3,0,0.7,0.1,0.9c0.1,0.3,0.2,0.5,0.4,0.7s0.3,0.4,0.6,0.5s0.4,0.2,0.7,0.2c0.2,0,0.5,0,0.7-0.1c0.2-0.1,0.4-0.2,0.6-0.4
		c0.2-0.2,0.3-0.4,0.4-0.7S308.5,208.8,308.5,208.4z"/>
</g>
<g>
	<path d="M294.2,394.7l-0.6,0.8c0,0-0.1-0.1-0.1-0.1c0-0.1,0-0.1,0-0.1c-0.2-0.2-0.4-0.4-0.7-0.6c-0.3-0.1-0.6-0.2-1-0.2
		c-0.4,0-0.7,0.1-1,0.4c-0.3,0.2-0.4,0.5-0.4,0.8c0,0.2,0,0.4,0.1,0.5c0.1,0.1,0.2,0.3,0.3,0.4c0.1,0.1,0.3,0.3,0.6,0.4
		c0.3,0.1,0.6,0.3,1,0.4c0.4,0.2,0.7,0.3,1,0.5c0.3,0.2,0.5,0.3,0.6,0.5c0.2,0.2,0.3,0.4,0.3,0.6c0.1,0.2,0.1,0.4,0.1,0.7
		c0,0.3-0.1,0.6-0.2,0.8c-0.1,0.3-0.3,0.5-0.5,0.8c-0.2,0.2-0.5,0.4-0.8,0.5s-0.7,0.2-1.2,0.2c-1,0-1.9-0.3-2.5-1l0.5-0.9
		c0,0,0.1,0.1,0.1,0.1s0,0.1,0,0.1c0.2,0.3,0.5,0.5,0.8,0.6c0.3,0.2,0.7,0.3,1.2,0.3c0.2,0,0.5,0,0.7-0.1c0.2-0.1,0.4-0.2,0.5-0.3
		c0.1-0.1,0.3-0.3,0.4-0.5c0.1-0.2,0.1-0.4,0.1-0.6c0-0.2,0-0.3-0.1-0.4c-0.1-0.1-0.1-0.3-0.3-0.4c-0.1-0.1-0.3-0.2-0.6-0.4
		c-0.2-0.1-0.6-0.3-0.9-0.4c-0.4-0.2-0.8-0.3-1.1-0.5c-0.3-0.2-0.5-0.3-0.7-0.5c-0.2-0.2-0.3-0.4-0.4-0.6c-0.1-0.2-0.1-0.4-0.1-0.7
		c0-0.3,0.1-0.6,0.2-0.8c0.1-0.3,0.3-0.5,0.5-0.7c0.2-0.2,0.5-0.3,0.8-0.5s0.6-0.2,1-0.2c0.4,0,0.9,0.1,1.2,0.3
		C293.5,394.1,293.9,394.3,294.2,394.7z"/>
	<path d="M298.3,395.7c0.4,0,0.7,0.1,1,0.2c0.3,0.1,0.6,0.3,0.9,0.6c0.2,0.3,0.4,0.6,0.6,1c0.1,0.4,0.2,0.8,0.2,1.3
		c0,0.5-0.1,0.9-0.2,1.3s-0.3,0.7-0.6,1c-0.2,0.3-0.5,0.5-0.9,0.6s-0.7,0.2-1.1,0.2c-0.4,0-0.7-0.1-1.1-0.2
		c-0.3-0.2-0.6-0.4-0.9-0.6c-0.3-0.3-0.5-0.6-0.6-1c-0.1-0.4-0.2-0.8-0.2-1.2c0-0.4,0.1-0.9,0.2-1.2c0.2-0.4,0.4-0.7,0.6-1
		s0.6-0.5,0.9-0.6S297.9,395.7,298.3,395.7z M300,398.9c0-0.4,0-0.7-0.1-1s-0.2-0.5-0.4-0.7c-0.2-0.2-0.4-0.4-0.6-0.5
		c-0.2-0.1-0.4-0.2-0.7-0.2s-0.5,0.1-0.7,0.2c-0.2,0.1-0.4,0.3-0.6,0.5s-0.3,0.4-0.4,0.7c-0.1,0.3-0.1,0.6-0.1,1
		c0,0.3,0,0.7,0.1,0.9c0.1,0.3,0.2,0.5,0.4,0.7s0.3,0.4,0.6,0.5c0.2,0.1,0.4,0.2,0.7,0.2c0.2,0,0.5,0,0.7-0.1
		c0.2-0.1,0.4-0.2,0.6-0.4c0.2-0.2,0.3-0.4,0.4-0.7S300,399.2,300,398.9z"/>
	<path d="M302.3,395.9h0.9v3.3c0,0.4,0,0.7,0.1,1c0.1,0.3,0.2,0.5,0.3,0.6c0.1,0.2,0.3,0.3,0.4,0.3s0.3,0.1,0.5,0.1
		c0.2,0,0.4-0.1,0.6-0.2c0.2-0.1,0.4-0.2,0.5-0.4c0.2-0.2,0.3-0.4,0.4-0.6s0.1-0.6,0.1-0.9v-3.3h0.9v5.4c0,0.2,0,0.4,0.1,0.5h-1
		c0-0.1,0-0.1,0-0.2c0-0.1,0-0.2,0-0.3l0-0.5c-0.2,0.3-0.5,0.6-0.8,0.8c-0.3,0.2-0.7,0.3-1.1,0.3c-0.3,0-0.6-0.1-0.8-0.2
		s-0.5-0.3-0.7-0.5c-0.2-0.2-0.3-0.5-0.4-0.9c-0.1-0.3-0.2-0.8-0.2-1.2L302.3,395.9z"/>
	<path d="M309.3,395.9h1l0,1.1c0.2-0.4,0.5-0.7,0.9-1c0.4-0.2,0.8-0.3,1.3-0.3c0.6,0,1.2,0.2,1.6,0.7l-0.4,0.9
		c-0.1-0.1-0.2-0.2-0.3-0.3c-0.1-0.1-0.2-0.2-0.3-0.2c-0.1-0.1-0.2-0.1-0.3-0.1c-0.1,0-0.2-0.1-0.4-0.1c-0.3,0-0.6,0.1-0.8,0.2
		c-0.3,0.1-0.5,0.3-0.7,0.5c-0.2,0.2-0.3,0.5-0.5,0.8c-0.1,0.3-0.2,0.6-0.2,0.9v2.9h-0.9V395.9z"/>
	<path d="M320.4,396.8l-0.7,0.8c0,0-0.1-0.1-0.1-0.1s0-0.1,0-0.1c0-0.1,0-0.1-0.1-0.2c-0.1-0.1-0.2-0.2-0.3-0.3
		c-0.3-0.2-0.7-0.4-1.2-0.4c-0.3,0-0.5,0.1-0.7,0.2s-0.4,0.3-0.6,0.4c-0.2,0.2-0.3,0.4-0.4,0.7c-0.1,0.3-0.2,0.6-0.2,0.9
		c0,0.3,0.1,0.6,0.2,0.9c0.1,0.3,0.2,0.5,0.4,0.7s0.4,0.4,0.7,0.5s0.5,0.2,0.8,0.2c0.6,0,1.1-0.2,1.6-0.7l0.5,0.6
		c-0.6,0.6-1.3,0.9-2.2,0.9c-0.4,0-0.8-0.1-1.2-0.2c-0.4-0.2-0.7-0.4-0.9-0.7c-0.3-0.3-0.5-0.6-0.6-1c-0.1-0.4-0.2-0.8-0.2-1.2
		c0-0.4,0.1-0.9,0.2-1.2c0.1-0.4,0.4-0.7,0.6-1c0.3-0.3,0.6-0.5,0.9-0.6c0.4-0.2,0.8-0.2,1.2-0.2c0.5,0,0.9,0.1,1.3,0.3
		S320.2,396.5,320.4,396.8z"/>
	<path d="M324.4,395.7c0.3,0,0.6,0.1,0.9,0.2c0.3,0.1,0.6,0.3,0.8,0.5c0.2,0.2,0.4,0.5,0.5,0.9c0.1,0.4,0.2,0.8,0.2,1.3
		c0,0.1,0,0.1,0,0.2c0,0.1,0,0.1,0,0.2h-4.2c0,0.4,0.1,0.8,0.2,1s0.3,0.5,0.5,0.7c0.2,0.2,0.4,0.3,0.6,0.4c0.2,0.1,0.5,0.1,0.7,0.1
		c0.6,0,1.1-0.2,1.5-0.7l0.5,0.5c-0.5,0.6-1.2,0.9-2.1,0.9c-0.4,0-0.8-0.1-1.2-0.2c-0.4-0.1-0.7-0.3-0.9-0.6c-0.3-0.3-0.4-0.6-0.6-1
		c-0.1-0.4-0.2-0.8-0.2-1.3c0-0.5,0.1-0.9,0.2-1.3c0.1-0.4,0.3-0.7,0.6-1c0.2-0.3,0.5-0.5,0.9-0.6S324,395.7,324.4,395.7z
		 M322.6,398.2h3.3c0,0,0-0.1,0-0.1c0,0,0-0.1,0-0.1c0-0.2,0-0.4-0.1-0.6c-0.1-0.2-0.2-0.4-0.3-0.5c-0.1-0.1-0.3-0.3-0.5-0.3
		c-0.2-0.1-0.4-0.1-0.6-0.1c-0.4,0-0.8,0.1-1.1,0.4C322.9,397.1,322.7,397.6,322.6,398.2z"/>
	<path d="M331.1,396.5c0.2,0.2,0.2,0.3,0.2,0.5c0,0.2-0.1,0.4-0.2,0.5c-0.2,0.1-0.3,0.2-0.5,0.2c-0.2,0-0.4-0.1-0.5-0.2
		c-0.2-0.1-0.2-0.3-0.2-0.5c0-0.2,0.1-0.4,0.2-0.5c0.2-0.1,0.3-0.2,0.5-0.2S331,396.4,331.1,396.5z M331.1,400.7
		c0.2,0.2,0.2,0.3,0.2,0.5s-0.1,0.4-0.2,0.5c-0.2,0.1-0.3,0.2-0.6,0.2s-0.4-0.1-0.5-0.2c-0.1-0.1-0.2-0.3-0.2-0.5
		c0-0.2,0.1-0.4,0.2-0.5s0.3-0.2,0.5-0.2S331,400.5,331.1,400.7z"/>
	<path d="M293.7,411.1c0-0.1,0-0.2,0-0.2c-0.2-0.3-0.4-0.5-0.7-0.7c-0.3-0.2-0.6-0.2-0.9-0.2c-0.3,0-0.6,0.1-0.8,0.2
		c-0.3,0.2-0.5,0.4-0.7,0.7c-0.2,0.3-0.4,0.6-0.5,1.1c-0.1,0.4-0.2,0.9-0.2,1.4c0,0.5,0.1,1,0.2,1.4c0.1,0.4,0.3,0.8,0.5,1.1
		c0.2,0.3,0.4,0.5,0.7,0.7c0.3,0.2,0.6,0.2,0.9,0.2c0.3,0,0.6-0.1,0.9-0.3c0.3-0.2,0.5-0.4,0.7-0.7l0.7,0.4
		c-0.1,0.2-0.3,0.4-0.5,0.6c-0.2,0.2-0.4,0.3-0.6,0.4c-0.2,0.1-0.4,0.2-0.6,0.3c-0.2,0.1-0.4,0.1-0.6,0.1c-0.5,0-0.9-0.1-1.2-0.2
		c-0.4-0.2-0.7-0.4-1-0.7c-0.3-0.3-0.5-0.8-0.7-1.3c-0.2-0.5-0.2-1.1-0.2-1.9c0-0.8,0.1-1.5,0.3-2c0.2-0.5,0.4-1,0.8-1.3
		c0.3-0.3,0.6-0.5,1-0.7c0.4-0.1,0.7-0.2,1-0.2c0.3,0,0.5,0,0.8,0.1s0.5,0.2,0.7,0.3c0.2,0.1,0.4,0.3,0.6,0.5s0.3,0.4,0.4,0.7
		l-0.9,0.4C293.7,411.2,293.7,411.2,293.7,411.1z"/>
	<path d="M295.8,409.3h2.6c0.5,0,0.8,0.1,1.2,0.2c0.3,0.1,0.6,0.3,0.8,0.5c0.2,0.2,0.4,0.5,0.5,0.7s0.2,0.6,0.2,0.9
		c0,0.3-0.1,0.6-0.2,0.9c-0.1,0.3-0.2,0.5-0.4,0.7c-0.2,0.2-0.4,0.4-0.8,0.5c-0.3,0.1-0.7,0.2-1.1,0.2h-1.7v3.6h-0.9V409.3z
		 M296.7,410.2v2.9h1.6c0.6,0,1-0.1,1.3-0.4s0.4-0.6,0.4-1c0-0.2-0.1-0.4-0.1-0.6c-0.1-0.2-0.2-0.3-0.3-0.5
		c-0.1-0.1-0.3-0.2-0.5-0.3c-0.2-0.1-0.4-0.1-0.7-0.1H296.7z"/>
	<path d="M303.7,409.3h3.7v0.8h-1.2v4.6c0,0.5,0,1-0.1,1.3c-0.1,0.4-0.3,0.7-0.5,0.9s-0.5,0.4-0.7,0.5c-0.3,0.1-0.5,0.1-0.8,0.1
		c-0.8,0-1.4-0.3-1.9-0.9l0.6-0.7c0,0,0,0.1,0,0.1c0,0.1,0,0.1,0,0.1l0.2,0.2c0,0,0.1,0.1,0.2,0.1c0.1,0,0.2,0.1,0.3,0.1
		c0.1,0,0.2,0.1,0.3,0.1c0.1,0,0.2,0,0.3,0c0.4,0,0.7-0.2,0.9-0.5c0.2-0.3,0.3-0.8,0.3-1.6v-4.6h-1.6V409.3z"/>
	<path d="M319.3,412.3v-3.6h1c0,0.1,0,0.1-0.1,0.2c0,0.1-0.1,0.1-0.1,0.2l0,7.7c0,0.2,0,0.4,0.1,0.5h-0.9c0-0.1-0.1-0.3-0.1-0.4
		v-0.5c-0.2,0.3-0.4,0.6-0.8,0.8s-0.7,0.3-1,0.3c-0.3,0-0.6-0.1-0.9-0.2c-0.3-0.1-0.5-0.3-0.8-0.6c-0.2-0.3-0.4-0.6-0.5-1
		s-0.2-0.9-0.2-1.4c0-0.5,0.1-1,0.2-1.4c0.1-0.4,0.3-0.7,0.6-0.9s0.5-0.4,0.8-0.5c0.3-0.1,0.6-0.2,0.9-0.2c0.4,0,0.8,0.1,1.1,0.3
		C318.9,411.8,319.2,412,319.3,412.3z M316.6,412.5c-0.4,0.3-0.6,0.9-0.6,1.7c0,0.7,0.1,1.3,0.4,1.8c0.3,0.5,0.7,0.7,1.2,0.7
		c0.1,0,0.3,0,0.4-0.1c0.1,0,0.3-0.1,0.4-0.2c0.1-0.1,0.2-0.2,0.3-0.3c0.1-0.1,0.2-0.3,0.2-0.4c0.1-0.3,0.1-0.7,0.1-1.3
		c0-0.3,0-0.6,0-0.8s-0.1-0.4-0.1-0.6s-0.1-0.3-0.2-0.4c-0.1-0.1-0.2-0.2-0.3-0.3c-0.2-0.1-0.3-0.2-0.4-0.2c-0.1,0-0.3-0.1-0.4-0.1
		c-0.2,0-0.5,0-0.6,0.1C316.9,412.2,316.7,412.3,316.6,412.5z"/>
	<path d="M322.2,412.2c0.5-0.6,1.2-0.8,2.1-0.8c0.7,0,1.3,0.2,1.7,0.6c0.4,0.4,0.6,1,0.6,1.8v3.7h-0.9v-0.6
		c-0.6,0.5-1.3,0.8-2.1,0.8c-0.3,0-0.6,0-0.8-0.1c-0.2-0.1-0.5-0.2-0.6-0.4c-0.2-0.2-0.3-0.3-0.4-0.5c-0.1-0.2-0.1-0.4-0.1-0.6
		c0-0.6,0.3-1.1,0.8-1.4c0.5-0.3,1.3-0.5,2.2-0.6h1.1v-0.2c0-0.6-0.1-1-0.4-1.2c-0.2-0.2-0.6-0.4-1.2-0.4c-0.6,0-1.2,0.2-1.6,0.7
		L322.2,412.2z M325.8,414.6h-0.2c-0.1,0-0.2,0-0.3,0s-0.2,0-0.3,0c-0.5,0-0.9,0-1.2,0.1c-0.3,0.1-0.5,0.2-0.7,0.3
		c-0.2,0.1-0.3,0.2-0.4,0.4c-0.1,0.1-0.1,0.3-0.1,0.5c0,0.3,0.1,0.5,0.4,0.7c0.2,0.2,0.5,0.3,0.9,0.3c0.3,0,0.5,0,0.7-0.1
		c0.2-0.1,0.4-0.2,0.5-0.3c0.2-0.1,0.3-0.2,0.4-0.4c0.1-0.1,0.2-0.2,0.2-0.3c0.1-0.2,0.1-0.4,0.1-0.7V414.6z"/>
	<path d="M329.9,409.9l1-0.2c0,0.1,0,0.1,0,0.2c0,0.1,0,0.1,0,0.1l-0.2,1.4h2v0.8h-2c-0.1,0.8-0.1,1.5-0.1,2.2c0,0.4,0,0.8,0,1.1
		s0.1,0.5,0.1,0.7c0.1,0.2,0.2,0.3,0.3,0.4c0.1,0.1,0.3,0.1,0.6,0.1c0.4,0,0.8-0.2,1.3-0.5l0.3,0.7c-0.6,0.4-1.2,0.7-1.8,0.7
		c-0.6,0-1.1-0.2-1.4-0.6s-0.4-1-0.4-1.8c0-0.3,0-0.7,0-1.2c0-0.5,0.1-1.1,0.1-1.7h-1.4v-0.8h1.4L329.9,409.9z"/>
	<path d="M335.2,412.2c0.5-0.6,1.2-0.8,2.1-0.8c0.7,0,1.3,0.2,1.7,0.6c0.4,0.4,0.6,1,0.6,1.8v3.7h-0.9v-0.6
		c-0.6,0.5-1.3,0.8-2.1,0.8c-0.3,0-0.6,0-0.8-0.1c-0.2-0.1-0.5-0.2-0.6-0.4c-0.2-0.2-0.3-0.3-0.4-0.5c-0.1-0.2-0.1-0.4-0.1-0.6
		c0-0.6,0.3-1.1,0.8-1.4c0.5-0.3,1.3-0.5,2.2-0.6h1.1v-0.2c0-0.6-0.1-1-0.4-1.2c-0.2-0.2-0.6-0.4-1.2-0.4c-0.6,0-1.2,0.2-1.6,0.7
		L335.2,412.2z M338.8,414.6h-0.2c-0.1,0-0.2,0-0.3,0s-0.2,0-0.3,0c-0.5,0-0.9,0-1.2,0.1c-0.3,0.1-0.5,0.2-0.7,0.3
		c-0.2,0.1-0.3,0.2-0.4,0.4c-0.1,0.1-0.1,0.3-0.1,0.5c0,0.3,0.1,0.5,0.4,0.7c0.2,0.2,0.5,0.3,0.9,0.3c0.3,0,0.5,0,0.7-0.1
		c0.2-0.1,0.4-0.2,0.5-0.3c0.2-0.1,0.3-0.2,0.4-0.4c0.1-0.1,0.2-0.2,0.2-0.3c0.1-0.2,0.1-0.4,0.1-0.7V414.6z"/>
	<path d="M341.3,408.8h1.1v0c0,0,0,0.1-0.1,0.1s-0.1,0.1-0.1,0.1v3.3c0.2-0.3,0.4-0.6,0.8-0.8c0.3-0.2,0.7-0.3,1-0.3
		c0.3,0,0.6,0.1,0.9,0.2c0.3,0.1,0.6,0.3,0.8,0.6c0.2,0.3,0.4,0.6,0.5,1s0.2,0.8,0.2,1.3c0,0.5-0.1,1-0.2,1.4s-0.3,0.7-0.6,1
		c-0.2,0.3-0.5,0.5-0.8,0.6c-0.3,0.1-0.6,0.2-0.9,0.2c-0.4,0-0.7-0.1-1-0.2c-0.3-0.2-0.6-0.4-0.8-0.7l-0.3,0.8h-0.6V408.8z
		 M342.9,416.5c0.2,0.1,0.3,0.1,0.4,0.2c0.1,0,0.3,0,0.4,0c0.2,0,0.4,0,0.6-0.1c0.2-0.1,0.4-0.2,0.6-0.3s0.3-0.4,0.4-0.7
		c0.1-0.3,0.2-0.6,0.2-1c0-0.8-0.2-1.4-0.5-1.8c-0.3-0.4-0.8-0.6-1.4-0.6c-0.2,0-0.5,0.1-0.7,0.2c-0.2,0.2-0.4,0.4-0.5,0.6
		c-0.1,0.3-0.2,0.7-0.2,1.3c0,0.4,0,0.7,0,0.9s0.1,0.5,0.1,0.6c0.1,0.2,0.1,0.3,0.2,0.4S342.8,416.4,342.9,416.5z"/>
	<path d="M348.2,412.2c0.5-0.6,1.2-0.8,2.1-0.8c0.7,0,1.3,0.2,1.7,0.6c0.4,0.4,0.6,1,0.6,1.8v3.7h-0.9v-0.6
		c-0.6,0.5-1.3,0.8-2.1,0.8c-0.3,0-0.6,0-0.8-0.1c-0.2-0.1-0.5-0.2-0.6-0.4c-0.2-0.2-0.3-0.3-0.4-0.5c-0.1-0.2-0.1-0.4-0.1-0.6
		c0-0.6,0.3-1.1,0.8-1.4c0.5-0.3,1.3-0.5,2.2-0.6h1.1v-0.2c0-0.6-0.1-1-0.4-1.2c-0.2-0.2-0.6-0.4-1.2-0.4c-0.6,0-1.2,0.2-1.6,0.7
		L348.2,412.2z M351.8,414.6h-0.2c-0.1,0-0.2,0-0.3,0s-0.2,0-0.3,0c-0.5,0-0.9,0-1.2,0.1c-0.3,0.1-0.5,0.2-0.7,0.3
		c-0.2,0.1-0.3,0.2-0.4,0.4c-0.1,0.1-0.1,0.3-0.1,0.5c0,0.3,0.1,0.5,0.4,0.7c0.2,0.2,0.5,0.3,0.9,0.3c0.3,0,0.5,0,0.7-0.1
		c0.2-0.1,0.4-0.2,0.5-0.3c0.2-0.1,0.3-0.2,0.4-0.4c0.1-0.1,0.2-0.2,0.2-0.3c0.1-0.2,0.1-0.4,0.1-0.7V414.6z"/>
	<path d="M359.1,412.2l-0.5,0.8c0,0-0.1,0-0.1-0.1c0-0.1,0-0.1,0-0.1c-0.2-0.2-0.4-0.4-0.7-0.6c-0.3-0.2-0.6-0.3-1-0.3
		c-0.2,0-0.3,0-0.5,0.1c-0.2,0-0.3,0.1-0.4,0.2s-0.2,0.2-0.3,0.3c-0.1,0.1-0.1,0.2-0.1,0.4c0,0.1,0,0.2,0.1,0.3
		c0.1,0.1,0.1,0.2,0.2,0.2s0.3,0.2,0.5,0.2c0.2,0.1,0.5,0.2,0.8,0.3c0.8,0.2,1.3,0.4,1.6,0.7s0.5,0.6,0.5,1c0,0.3-0.1,0.5-0.2,0.7
		c-0.1,0.2-0.3,0.4-0.5,0.6c-0.2,0.2-0.5,0.3-0.8,0.4c-0.3,0.1-0.6,0.2-1,0.2c-1,0-1.8-0.3-2.5-0.9l0.5-0.9c0,0,0,0.1,0.1,0.1
		c0,0.1,0,0.1,0.1,0.2c0.1,0.1,0.1,0.2,0.3,0.3s0.4,0.2,0.6,0.3c0.1,0.1,0.3,0.1,0.4,0.1s0.3,0,0.5,0c0.2,0,0.4,0,0.5-0.1
		c0.2,0,0.3-0.1,0.5-0.2c0.1-0.1,0.3-0.2,0.3-0.3c0.1-0.1,0.1-0.3,0.1-0.4c0-0.2-0.1-0.4-0.3-0.6c-0.2-0.2-0.6-0.3-1.2-0.5
		c-0.4-0.1-0.6-0.2-0.8-0.2c-0.3-0.1-0.5-0.2-0.7-0.3s-0.3-0.2-0.4-0.3c-0.1-0.1-0.2-0.3-0.3-0.4c-0.1-0.2-0.1-0.3-0.1-0.5
		c0-0.2,0.1-0.4,0.2-0.6c0.1-0.2,0.3-0.4,0.5-0.5c0.2-0.1,0.4-0.3,0.7-0.4s0.6-0.1,0.9-0.1C357.8,411.3,358.6,411.6,359.1,412.2z"/>
	<path d="M363.4,411.3c0.3,0,0.6,0.1,0.9,0.2c0.3,0.1,0.6,0.3,0.8,0.5c0.2,0.2,0.4,0.5,0.5,0.9c0.1,0.4,0.2,0.8,0.2,1.3
		c0,0.1,0,0.1,0,0.2c0,0.1,0,0.1,0,0.2h-4.2c0,0.4,0.1,0.8,0.2,1s0.3,0.5,0.5,0.7s0.4,0.3,0.6,0.4c0.2,0.1,0.5,0.1,0.7,0.1
		c0.6,0,1.1-0.2,1.5-0.7l0.5,0.5c-0.5,0.6-1.2,0.9-2.1,0.9c-0.4,0-0.8-0.1-1.2-0.2c-0.4-0.1-0.7-0.3-0.9-0.6s-0.4-0.6-0.6-1
		s-0.2-0.8-0.2-1.3c0-0.5,0.1-0.9,0.2-1.3c0.1-0.4,0.3-0.7,0.6-1c0.2-0.3,0.5-0.5,0.9-0.6S363,411.3,363.4,411.3z M361.6,413.8h3.3
		c0,0,0-0.1,0-0.1c0,0,0-0.1,0-0.1c0-0.2,0-0.4-0.1-0.6c-0.1-0.2-0.2-0.4-0.3-0.5s-0.3-0.3-0.5-0.3s-0.4-0.1-0.6-0.1
		c-0.4,0-0.8,0.1-1.1,0.4C361.9,412.7,361.7,413.2,361.6,413.8z"/>
	<path d="M373.9,412.9h4.7v0.9h-4.7V412.9z"/>
	<path d="M388.2,409.3h3.7v0.8h-1.2v4.6c0,0.5,0,1-0.1,1.3c-0.1,0.4-0.3,0.7-0.5,0.9s-0.5,0.4-0.7,0.5c-0.3,0.1-0.5,0.1-0.8,0.1
		c-0.8,0-1.4-0.3-1.9-0.9l0.6-0.7c0,0,0,0.1,0,0.1c0,0.1,0,0.1,0,0.1l0.2,0.2c0,0,0.1,0.1,0.2,0.1c0.1,0,0.2,0.1,0.3,0.1
		c0.1,0,0.2,0.1,0.3,0.1c0.1,0,0.2,0,0.3,0c0.4,0,0.7-0.2,0.9-0.5c0.2-0.3,0.3-0.8,0.3-1.6v-4.6h-1.6V409.3z"/>
	<path d="M395.8,411.3c0.4,0,0.7,0.1,1,0.2c0.3,0.1,0.6,0.3,0.9,0.6c0.2,0.3,0.4,0.6,0.6,1c0.1,0.4,0.2,0.8,0.2,1.3
		c0,0.5-0.1,0.9-0.2,1.3c-0.1,0.4-0.3,0.7-0.6,1c-0.2,0.3-0.5,0.5-0.9,0.6c-0.3,0.1-0.7,0.2-1.1,0.2c-0.4,0-0.7-0.1-1.1-0.2
		c-0.3-0.2-0.6-0.4-0.9-0.6c-0.3-0.3-0.5-0.6-0.6-1c-0.1-0.4-0.2-0.8-0.2-1.2s0.1-0.9,0.2-1.2s0.4-0.7,0.6-1
		c0.3-0.3,0.6-0.5,0.9-0.7S395.4,411.3,395.8,411.3z M397.5,414.5c0-0.4,0-0.7-0.1-1c-0.1-0.3-0.2-0.5-0.4-0.7
		c-0.2-0.2-0.4-0.4-0.6-0.5c-0.2-0.1-0.4-0.2-0.7-0.2s-0.5,0.1-0.7,0.2c-0.2,0.1-0.4,0.3-0.6,0.5s-0.3,0.4-0.4,0.7
		c-0.1,0.3-0.1,0.6-0.1,1c0,0.3,0,0.7,0.1,0.9c0.1,0.3,0.2,0.5,0.4,0.7c0.2,0.2,0.3,0.4,0.6,0.5s0.4,0.2,0.7,0.2
		c0.2,0,0.5,0,0.7-0.1c0.2-0.1,0.4-0.2,0.6-0.4c0.2-0.2,0.3-0.4,0.4-0.7C397.5,415.1,397.5,414.8,397.5,414.5z"/>
	<path d="M399.8,411.5h0.9v3.3c0,0.4,0,0.7,0.1,1c0.1,0.3,0.2,0.5,0.3,0.6c0.1,0.2,0.3,0.3,0.4,0.3c0.2,0.1,0.3,0.1,0.5,0.1
		c0.2,0,0.4-0.1,0.6-0.2s0.4-0.2,0.5-0.4s0.3-0.4,0.4-0.6c0.1-0.3,0.1-0.6,0.1-0.9v-3.3h0.9v5.4c0,0.2,0,0.4,0.1,0.5h-1
		c0-0.1,0-0.1,0-0.2c0-0.1,0-0.2,0-0.3l0-0.5c-0.2,0.3-0.5,0.6-0.8,0.8c-0.3,0.2-0.7,0.3-1.1,0.3c-0.3,0-0.6-0.1-0.8-0.2
		c-0.2-0.1-0.5-0.3-0.7-0.5c-0.2-0.2-0.3-0.5-0.4-0.9c-0.1-0.3-0.2-0.8-0.2-1.2L399.8,411.5z"/>
	<path d="M406.8,411.5h1l0,1.1c0.2-0.4,0.5-0.7,0.9-1c0.4-0.2,0.8-0.3,1.3-0.3c0.6,0,1.2,0.2,1.6,0.7l-0.4,0.9
		c-0.1-0.1-0.2-0.2-0.3-0.3c-0.1-0.1-0.2-0.2-0.3-0.2c-0.1-0.1-0.2-0.1-0.3-0.1s-0.2-0.1-0.4-0.1c-0.3,0-0.6,0.1-0.8,0.2
		c-0.3,0.1-0.5,0.3-0.7,0.5c-0.2,0.2-0.3,0.5-0.5,0.8c-0.1,0.3-0.2,0.6-0.2,0.9v2.9h-0.9V411.5z"/>
	<path d="M412.9,417.4v-5.9h0.9v1.1c0.2-0.4,0.5-0.7,0.9-0.9c0.4-0.2,0.7-0.3,1.1-0.3c0.3,0,0.5,0,0.7,0.1c0.2,0.1,0.4,0.2,0.6,0.4
		c0.2,0.2,0.3,0.5,0.4,0.8c0.1,0.3,0.1,0.7,0.1,1.1v3.6h-0.9v-3.6c0-0.6-0.1-1.1-0.3-1.3c-0.2-0.3-0.5-0.4-0.8-0.4
		c-0.2,0-0.4,0-0.6,0.1c-0.2,0.1-0.4,0.2-0.6,0.4c-0.2,0.2-0.3,0.4-0.4,0.6c-0.1,0.2-0.2,0.5-0.2,0.8v3.4H412.9z"/>
	<path d="M419.7,412.2c0.5-0.6,1.2-0.8,2.1-0.8c0.7,0,1.3,0.2,1.7,0.6c0.4,0.4,0.6,1,0.6,1.8v3.7h-0.9v-0.6
		c-0.6,0.5-1.3,0.8-2.1,0.8c-0.3,0-0.6,0-0.8-0.1c-0.2-0.1-0.5-0.2-0.6-0.4c-0.2-0.2-0.3-0.3-0.4-0.5c-0.1-0.2-0.1-0.4-0.1-0.6
		c0-0.6,0.3-1.1,0.8-1.4c0.5-0.3,1.3-0.5,2.2-0.6h1.1v-0.2c0-0.6-0.1-1-0.4-1.2c-0.2-0.2-0.6-0.4-1.2-0.4c-0.6,0-1.2,0.2-1.6,0.7
		L419.7,412.2z M423.3,414.6h-0.2c-0.1,0-0.2,0-0.3,0s-0.2,0-0.3,0c-0.5,0-0.9,0-1.2,0.1c-0.3,0.1-0.5,0.2-0.7,0.3
		c-0.2,0.1-0.3,0.2-0.4,0.4c-0.1,0.1-0.1,0.3-0.1,0.5c0,0.3,0.1,0.5,0.4,0.7c0.2,0.2,0.5,0.3,0.9,0.3c0.3,0,0.5,0,0.7-0.1
		c0.2-0.1,0.4-0.2,0.5-0.3c0.2-0.1,0.3-0.2,0.4-0.4c0.1-0.1,0.2-0.2,0.2-0.3c0.1-0.2,0.1-0.4,0.1-0.7V414.6z"/>
	<path d="M426.1,408.8h2.6v7.9h1.7v0.8H426v-0.8h1.8v-7.1h-1.7V408.8z"/>
	<path d="M432.9,411.5h2.4v5.2h1.4v0.8h-3.8v-0.8h1.5v-4.4h-1.4V411.5z M434.3,409.1c0.1-0.1,0.3-0.2,0.5-0.2s0.3,0.1,0.5,0.2
		c0.1,0.1,0.2,0.3,0.2,0.5s-0.1,0.3-0.2,0.5c-0.1,0.1-0.3,0.2-0.5,0.2s-0.3-0.1-0.5-0.2c-0.1-0.1-0.2-0.3-0.2-0.5
		C434.1,409.4,434.2,409.2,434.3,409.1z"/>
	<path d="M443.6,412.2l-0.5,0.8c0,0-0.1,0-0.1-0.1c0-0.1,0-0.1,0-0.1c-0.2-0.2-0.4-0.4-0.7-0.6c-0.3-0.2-0.6-0.3-1-0.3
		c-0.2,0-0.3,0-0.5,0.1c-0.2,0-0.3,0.1-0.4,0.2s-0.2,0.2-0.3,0.3c-0.1,0.1-0.1,0.2-0.1,0.4c0,0.1,0,0.2,0.1,0.3
		c0.1,0.1,0.1,0.2,0.2,0.2s0.3,0.2,0.5,0.2c0.2,0.1,0.5,0.2,0.8,0.3c0.8,0.2,1.3,0.4,1.6,0.7s0.5,0.6,0.5,1c0,0.3-0.1,0.5-0.2,0.7
		c-0.1,0.2-0.3,0.4-0.5,0.6c-0.2,0.2-0.5,0.3-0.8,0.4c-0.3,0.1-0.6,0.2-1,0.2c-1,0-1.8-0.3-2.5-0.9l0.5-0.9c0,0,0,0.1,0.1,0.1
		c0,0.1,0,0.1,0.1,0.2c0.1,0.1,0.1,0.2,0.3,0.3s0.4,0.2,0.6,0.3c0.1,0.1,0.3,0.1,0.4,0.1s0.3,0,0.5,0c0.2,0,0.4,0,0.5-0.1
		c0.2,0,0.3-0.1,0.5-0.2c0.1-0.1,0.3-0.2,0.3-0.3c0.1-0.1,0.1-0.3,0.1-0.4c0-0.2-0.1-0.4-0.3-0.6c-0.2-0.2-0.6-0.3-1.2-0.5
		c-0.4-0.1-0.6-0.2-0.8-0.2c-0.3-0.1-0.5-0.2-0.7-0.3s-0.3-0.2-0.4-0.3c-0.1-0.1-0.2-0.3-0.3-0.4c-0.1-0.2-0.1-0.3-0.1-0.5
		c0-0.2,0.1-0.4,0.2-0.6c0.1-0.2,0.3-0.4,0.5-0.5c0.2-0.1,0.4-0.3,0.7-0.4s0.6-0.1,0.9-0.1C442.3,411.3,443.1,411.6,443.6,412.2z"/>
	<path d="M446.9,409.9l1-0.2c0,0.1,0,0.1,0,0.2c0,0.1,0,0.1,0,0.1l-0.2,1.4h2v0.8h-2c-0.1,0.8-0.1,1.5-0.1,2.2c0,0.4,0,0.8,0,1.1
		s0.1,0.5,0.1,0.7c0.1,0.2,0.2,0.3,0.3,0.4c0.1,0.1,0.3,0.1,0.6,0.1c0.4,0,0.8-0.2,1.3-0.5l0.3,0.7c-0.6,0.4-1.2,0.7-1.8,0.7
		c-0.6,0-1.1-0.2-1.4-0.6s-0.4-1-0.4-1.8c0-0.3,0-0.7,0-1.2c0-0.5,0.1-1.1,0.1-1.7h-1.4v-0.8h1.4L446.9,409.9z"/>
	<path d="M456.6,412.2l-0.5,0.8c0,0-0.1,0-0.1-0.1c0-0.1,0-0.1,0-0.1c-0.2-0.2-0.4-0.4-0.7-0.6c-0.3-0.2-0.6-0.3-1-0.3
		c-0.2,0-0.3,0-0.5,0.1c-0.2,0-0.3,0.1-0.4,0.2s-0.2,0.2-0.3,0.3c-0.1,0.1-0.1,0.2-0.1,0.4c0,0.1,0,0.2,0.1,0.3
		c0.1,0.1,0.1,0.2,0.2,0.2s0.3,0.2,0.5,0.2c0.2,0.1,0.5,0.2,0.8,0.3c0.8,0.2,1.3,0.4,1.6,0.7s0.5,0.6,0.5,1c0,0.3-0.1,0.5-0.2,0.7
		c-0.1,0.2-0.3,0.4-0.5,0.6c-0.2,0.2-0.5,0.3-0.8,0.4c-0.3,0.1-0.6,0.2-1,0.2c-1,0-1.8-0.3-2.5-0.9l0.5-0.9c0,0,0,0.1,0.1,0.1
		c0,0.1,0,0.1,0.1,0.2c0.1,0.1,0.1,0.2,0.3,0.3s0.4,0.2,0.6,0.3c0.1,0.1,0.3,0.1,0.4,0.1s0.3,0,0.5,0c0.2,0,0.4,0,0.5-0.1
		c0.2,0,0.3-0.1,0.5-0.2c0.1-0.1,0.3-0.2,0.3-0.3c0.1-0.1,0.1-0.3,0.1-0.4c0-0.2-0.1-0.4-0.3-0.6c-0.2-0.2-0.6-0.3-1.2-0.5
		c-0.4-0.1-0.6-0.2-0.8-0.2c-0.3-0.1-0.5-0.2-0.7-0.3s-0.3-0.2-0.4-0.3c-0.1-0.1-0.2-0.3-0.3-0.4c-0.1-0.2-0.1-0.3-0.1-0.5
		c0-0.2,0.1-0.4,0.2-0.6c0.1-0.2,0.3-0.4,0.5-0.5c0.2-0.1,0.4-0.3,0.7-0.4s0.6-0.1,0.9-0.1C455.3,411.3,456.1,411.6,456.6,412.2z"/>
	<path d="M464.9,408.8h1.1c0,0.1,0,0.1-0.1,0.2c0,0.1-0.1,0.1-0.1,0.2v5.1l3-2.8c0.2,0,0.4,0.1,0.7,0.1h0.3l-2.5,2.4l2.9,3.5
		l-1.2,0.1l-2.4-3l-0.8,0.7v2.2h-0.9V408.8z"/>
	<path d="M471.9,411.5h2.4v5.2h1.4v0.8h-3.8v-0.8h1.5v-4.4h-1.4V411.5z M473.3,409.1c0.1-0.1,0.3-0.2,0.5-0.2s0.3,0.1,0.5,0.2
		c0.1,0.1,0.2,0.3,0.2,0.5s-0.1,0.3-0.2,0.5c-0.1,0.1-0.3,0.2-0.5,0.2s-0.3-0.1-0.5-0.2c-0.1-0.1-0.2-0.3-0.2-0.5
		C473.1,409.4,473.2,409.2,473.3,409.1z"/>
	<path d="M478.1,408.8h2.6v7.9h1.7v0.8H478v-0.8h1.8v-7.1h-1.7V408.8z"/>
	<path d="M484.6,408.8h2.6v7.9h1.7v0.8h-4.4v-0.8h1.8v-7.1h-1.7V408.8z"/>
	<path d="M493.4,411.3c0.3,0,0.6,0.1,0.9,0.2c0.3,0.1,0.6,0.3,0.8,0.5c0.2,0.2,0.4,0.5,0.5,0.9c0.1,0.4,0.2,0.8,0.2,1.3
		c0,0.1,0,0.1,0,0.2c0,0.1,0,0.1,0,0.2h-4.2c0,0.4,0.1,0.8,0.2,1s0.3,0.5,0.5,0.7s0.4,0.3,0.6,0.4c0.2,0.1,0.5,0.1,0.7,0.1
		c0.6,0,1.1-0.2,1.5-0.7l0.5,0.5c-0.5,0.6-1.2,0.9-2.1,0.9c-0.4,0-0.8-0.1-1.2-0.2c-0.4-0.1-0.7-0.3-0.9-0.6s-0.4-0.6-0.6-1
		s-0.2-0.8-0.2-1.3c0-0.5,0.1-0.9,0.2-1.3c0.1-0.4,0.3-0.7,0.6-1c0.2-0.3,0.5-0.5,0.9-0.6S493,411.3,493.4,411.3z M491.6,413.8h3.3
		c0,0,0-0.1,0-0.1c0,0,0-0.1,0-0.1c0-0.2,0-0.4-0.1-0.6c-0.1-0.2-0.2-0.4-0.3-0.5s-0.3-0.3-0.5-0.3s-0.4-0.1-0.6-0.1
		c-0.4,0-0.8,0.1-1.1,0.4C491.9,412.7,491.7,413.2,491.6,413.8z"/>
	<path d="M501.3,412.3v-3.6h1c0,0.1,0,0.1-0.1,0.2c0,0.1-0.1,0.1-0.1,0.2l0,7.7c0,0.2,0,0.4,0.1,0.5h-0.9c0-0.1-0.1-0.3-0.1-0.4
		v-0.5c-0.2,0.3-0.4,0.6-0.8,0.8s-0.7,0.3-1,0.3c-0.3,0-0.6-0.1-0.9-0.2c-0.3-0.1-0.5-0.3-0.8-0.6c-0.2-0.3-0.4-0.6-0.5-1
		s-0.2-0.9-0.2-1.4c0-0.5,0.1-1,0.2-1.4c0.1-0.4,0.3-0.7,0.6-0.9s0.5-0.4,0.8-0.5c0.3-0.1,0.6-0.2,0.9-0.2c0.4,0,0.8,0.1,1.1,0.3
		C500.9,411.8,501.2,412,501.3,412.3z M498.6,412.5c-0.4,0.3-0.6,0.9-0.6,1.7c0,0.7,0.1,1.3,0.4,1.8c0.3,0.5,0.7,0.7,1.2,0.7
		c0.1,0,0.3,0,0.4-0.1c0.1,0,0.3-0.1,0.4-0.2c0.1-0.1,0.2-0.2,0.3-0.3c0.1-0.1,0.2-0.3,0.2-0.4c0.1-0.3,0.1-0.7,0.1-1.3
		c0-0.3,0-0.6,0-0.8s-0.1-0.4-0.1-0.6s-0.1-0.3-0.2-0.4c-0.1-0.1-0.2-0.2-0.3-0.3c-0.2-0.1-0.3-0.2-0.4-0.2c-0.1,0-0.3-0.1-0.4-0.1
		c-0.2,0-0.5,0-0.6,0.1C498.9,412.2,498.7,412.3,498.6,412.5z"/>
	<path d="M294.1,427.9l-0.5,0.8c0,0-0.1,0-0.1-0.1s0-0.1,0-0.1c-0.2-0.2-0.4-0.4-0.7-0.6c-0.3-0.2-0.6-0.3-1-0.3
		c-0.2,0-0.3,0-0.5,0.1c-0.2,0-0.3,0.1-0.4,0.2c-0.1,0.1-0.2,0.2-0.3,0.3c-0.1,0.1-0.1,0.2-0.1,0.4c0,0.1,0,0.2,0.1,0.3
		c0.1,0.1,0.1,0.2,0.2,0.2s0.3,0.2,0.5,0.2c0.2,0.1,0.5,0.2,0.8,0.3c0.8,0.2,1.3,0.4,1.6,0.7c0.3,0.3,0.5,0.6,0.5,1
		c0,0.3-0.1,0.5-0.2,0.7s-0.3,0.4-0.5,0.6s-0.5,0.3-0.8,0.4c-0.3,0.1-0.6,0.1-1,0.1c-1,0-1.8-0.3-2.5-0.9l0.5-0.9c0,0,0,0.1,0.1,0.1
		s0,0.1,0.1,0.2c0.1,0.1,0.1,0.2,0.3,0.3c0.1,0.1,0.4,0.2,0.6,0.3c0.1,0.1,0.3,0.1,0.4,0.1c0.2,0,0.3,0,0.5,0c0.2,0,0.4,0,0.5-0.1
		c0.2,0,0.3-0.1,0.5-0.2c0.1-0.1,0.3-0.2,0.3-0.3c0.1-0.1,0.1-0.3,0.1-0.4c0-0.2-0.1-0.4-0.3-0.6c-0.2-0.2-0.6-0.3-1.2-0.5
		c-0.4-0.1-0.6-0.2-0.8-0.2c-0.3-0.1-0.5-0.2-0.7-0.3c-0.1-0.1-0.3-0.2-0.4-0.3s-0.2-0.3-0.3-0.4c-0.1-0.2-0.1-0.3-0.1-0.5
		c0-0.2,0.1-0.4,0.2-0.6c0.1-0.2,0.3-0.4,0.5-0.5c0.2-0.1,0.4-0.3,0.7-0.4c0.3-0.1,0.6-0.1,0.9-0.1
		C292.8,426.9,293.6,427.2,294.1,427.9z"/>
	<path d="M296.4,427.1h2.4v5.2h1.4v0.8h-3.8v-0.8h1.5v-4.4h-1.4V427.1z M297.8,424.7c0.1-0.1,0.3-0.2,0.5-0.2s0.3,0.1,0.5,0.2
		c0.1,0.1,0.2,0.3,0.2,0.5c0,0.2-0.1,0.3-0.2,0.5c-0.1,0.1-0.3,0.2-0.5,0.2s-0.3-0.1-0.5-0.2c-0.1-0.1-0.2-0.3-0.2-0.5
		C297.6,425,297.7,424.8,297.8,424.7z"/>
	<path d="M302.4,433v-5.9h0.9v1.1c0.2-0.4,0.5-0.7,0.9-0.9s0.7-0.3,1.1-0.3c0.3,0,0.5,0,0.7,0.1s0.4,0.2,0.6,0.4
		c0.2,0.2,0.3,0.5,0.4,0.8s0.1,0.7,0.1,1.1v3.6h-0.9v-3.6c0-0.6-0.1-1.1-0.3-1.3c-0.2-0.3-0.5-0.4-0.8-0.4c-0.2,0-0.4,0-0.6,0.1
		s-0.4,0.2-0.6,0.4c-0.2,0.2-0.3,0.4-0.4,0.6c-0.1,0.2-0.2,0.5-0.2,0.8v3.4H302.4z"/>
	<path d="M313.9,428l-0.7,0.8c0,0-0.1-0.1-0.1-0.1s0-0.1,0-0.1c0-0.1,0-0.1-0.1-0.2s-0.2-0.2-0.3-0.3c-0.3-0.2-0.7-0.4-1.2-0.4
		c-0.3,0-0.5,0.1-0.7,0.2c-0.2,0.1-0.4,0.3-0.6,0.4c-0.2,0.2-0.3,0.4-0.4,0.7c-0.1,0.3-0.2,0.6-0.2,0.9c0,0.3,0.1,0.6,0.2,0.9
		c0.1,0.3,0.2,0.5,0.4,0.7s0.4,0.4,0.7,0.5c0.3,0.1,0.5,0.2,0.8,0.2c0.6,0,1.1-0.2,1.6-0.7l0.5,0.6c-0.6,0.6-1.3,0.9-2.2,0.9
		c-0.4,0-0.8-0.1-1.2-0.2s-0.7-0.4-0.9-0.7c-0.3-0.3-0.5-0.6-0.6-1c-0.1-0.4-0.2-0.8-0.2-1.2c0-0.4,0.1-0.9,0.2-1.2
		c0.1-0.4,0.4-0.7,0.6-1c0.3-0.3,0.6-0.5,0.9-0.6c0.4-0.2,0.8-0.2,1.2-0.2c0.5,0,0.9,0.1,1.3,0.3C313.4,427.4,313.7,427.7,313.9,428
		z"/>
	<path d="M317.9,426.9c0.3,0,0.6,0.1,0.9,0.2c0.3,0.1,0.6,0.3,0.8,0.5c0.2,0.2,0.4,0.5,0.5,0.9c0.1,0.4,0.2,0.8,0.2,1.3
		c0,0.1,0,0.1,0,0.2c0,0.1,0,0.1,0,0.2H316c0,0.4,0.1,0.8,0.2,1c0.1,0.3,0.3,0.5,0.5,0.7c0.2,0.2,0.4,0.3,0.6,0.4
		c0.2,0.1,0.5,0.1,0.7,0.1c0.6,0,1.1-0.2,1.5-0.7l0.5,0.5c-0.5,0.6-1.2,0.9-2.1,0.9c-0.4,0-0.8-0.1-1.2-0.2
		c-0.4-0.1-0.7-0.3-0.9-0.6s-0.4-0.6-0.6-1c-0.1-0.4-0.2-0.8-0.2-1.3c0-0.5,0.1-0.9,0.2-1.3c0.1-0.4,0.3-0.7,0.6-1s0.5-0.5,0.9-0.6
		S317.5,426.9,317.9,426.9z M316.1,429.4h3.3c0,0,0-0.1,0-0.1c0,0,0-0.1,0-0.1c0-0.2,0-0.4-0.1-0.6c-0.1-0.2-0.2-0.4-0.3-0.5
		s-0.3-0.3-0.5-0.3c-0.2-0.1-0.4-0.1-0.6-0.1c-0.4,0-0.8,0.1-1.1,0.4C316.4,428.3,316.2,428.8,316.1,429.4z"/>
	<path d="M331.4,424.9v8.1h-0.9v-7l-1.6,0.5l-0.2-0.5l2.1-1.1H331.4z"/>
	<path d="M336.8,433.1c-0.7,0-1.3-0.2-1.8-0.7l0.6-0.7c0,0,0.1,0.1,0.1,0.2s0.1,0.1,0.1,0.2c0.3,0.2,0.6,0.3,0.9,0.3
		c0.6,0,1.1-0.2,1.5-0.7c0.3-0.5,0.5-1.3,0.5-2.4c-0.2,0.3-0.4,0.5-0.7,0.6c-0.3,0.2-0.6,0.2-0.9,0.2c-0.3,0-0.6-0.1-0.9-0.2
		c-0.3-0.1-0.5-0.3-0.7-0.5c-0.2-0.2-0.4-0.5-0.5-0.8c-0.1-0.3-0.2-0.7-0.2-1c0-0.4,0.1-0.7,0.2-1.1c0.1-0.3,0.3-0.6,0.5-0.8
		c0.2-0.2,0.5-0.4,0.7-0.6c0.3-0.1,0.6-0.2,0.9-0.2c0.8,0,1.4,0.3,1.8,1c0.4,0.7,0.6,1.8,0.6,3.3c0,0.7-0.1,1.3-0.2,1.8
		c-0.2,0.5-0.4,0.9-0.6,1.2c-0.3,0.3-0.6,0.6-0.9,0.7S337.2,433.1,336.8,433.1z M338.7,428.3c0-0.1,0-0.1,0-0.2c0-0.1,0-0.1,0-0.2
		c0-0.3,0-0.6-0.1-0.9s-0.2-0.5-0.3-0.7c-0.1-0.2-0.3-0.3-0.5-0.5c-0.2-0.1-0.4-0.2-0.6-0.2c-0.4,0-0.8,0.2-1.1,0.5
		c-0.3,0.3-0.4,0.8-0.4,1.4c0,0.3,0,0.5,0.1,0.7c0.1,0.2,0.2,0.4,0.3,0.6c0.1,0.2,0.3,0.3,0.4,0.4s0.3,0.1,0.5,0.1
		c0.3,0,0.7-0.1,0.9-0.3C338.3,428.8,338.6,428.6,338.7,428.3z"/>
	<path d="M343.3,433.1c-0.7,0-1.3-0.2-1.8-0.7l0.6-0.7c0,0,0.1,0.1,0.1,0.2s0.1,0.1,0.1,0.2c0.3,0.2,0.6,0.3,0.9,0.3
		c0.6,0,1.1-0.2,1.5-0.7c0.3-0.5,0.5-1.3,0.5-2.4c-0.2,0.3-0.4,0.5-0.7,0.6c-0.3,0.2-0.6,0.2-0.9,0.2c-0.3,0-0.6-0.1-0.9-0.2
		c-0.3-0.1-0.5-0.3-0.7-0.5c-0.2-0.2-0.4-0.5-0.5-0.8c-0.1-0.3-0.2-0.7-0.2-1c0-0.4,0.1-0.7,0.2-1.1c0.1-0.3,0.3-0.6,0.5-0.8
		c0.2-0.2,0.5-0.4,0.7-0.6c0.3-0.1,0.6-0.2,0.9-0.2c0.8,0,1.4,0.3,1.8,1c0.4,0.7,0.6,1.8,0.6,3.3c0,0.7-0.1,1.3-0.2,1.8
		c-0.2,0.5-0.4,0.9-0.6,1.2c-0.3,0.3-0.6,0.6-0.9,0.7S343.7,433.1,343.3,433.1z M345.2,428.3c0-0.1,0-0.1,0-0.2c0-0.1,0-0.1,0-0.2
		c0-0.3,0-0.6-0.1-0.9s-0.2-0.5-0.3-0.7c-0.1-0.2-0.3-0.3-0.5-0.5c-0.2-0.1-0.4-0.2-0.6-0.2c-0.4,0-0.8,0.2-1.1,0.5
		c-0.3,0.3-0.4,0.8-0.4,1.4c0,0.3,0,0.5,0.1,0.7c0.1,0.2,0.2,0.4,0.3,0.6c0.1,0.2,0.3,0.3,0.4,0.4s0.3,0.1,0.5,0.1
		c0.3,0,0.7-0.1,0.9-0.3C344.8,428.8,345.1,428.6,345.2,428.3z"/>
	<path d="M348,426.2c0.2-0.4,0.6-0.7,1-1c0.4-0.2,0.8-0.3,1.3-0.3c0.3,0,0.6,0.1,0.9,0.2s0.5,0.3,0.8,0.5c0.2,0.2,0.4,0.5,0.5,0.7
		c0.1,0.3,0.2,0.6,0.2,0.9c0,0.3,0,0.5-0.1,0.7c-0.1,0.2-0.2,0.4-0.3,0.6s-0.3,0.4-0.4,0.6c-0.2,0.2-0.3,0.4-0.5,0.5l-0.8,0.7
		c-0.1,0.1-0.2,0.2-0.4,0.4c-0.1,0.1-0.3,0.3-0.4,0.5c-0.1,0.2-0.3,0.3-0.4,0.5s-0.2,0.4-0.3,0.5h3.4c0,0,0.1,0,0.1-0.1
		s0.1-0.1,0.1-0.1h0v0.9h-4.8v-0.6c0.3-0.6,0.7-1.2,1-1.6c0.4-0.5,0.7-0.8,1.1-1.2l0.6-0.6c0.2-0.2,0.4-0.4,0.5-0.6
		c0.1-0.2,0.2-0.3,0.3-0.5c0.1-0.2,0.1-0.3,0.2-0.4c0-0.1,0-0.3,0-0.4c0-0.2,0-0.4-0.1-0.6c-0.1-0.2-0.2-0.3-0.3-0.5
		s-0.3-0.3-0.5-0.3c-0.2-0.1-0.4-0.1-0.6-0.1c-0.2,0-0.4,0-0.6,0.1c-0.2,0.1-0.3,0.1-0.5,0.2c-0.1,0.1-0.2,0.2-0.3,0.3
		c-0.1,0.1-0.1,0.2-0.1,0.3c0,0.1,0,0.1-0.1,0.2L348,426.2z"/>
</g>
</svg>
