<?xml version="1.0" encoding="utf-8"?>
<!-- Generator: Adobe Illustrator 21.0.0, SVG Export Plug-In . SVG Version: 6.00 Build 0)  -->
<svg version="1.1" id="Livello_1" xmlns="http://www.w3.org/2000/svg" xmlns:xlink="http://www.w3.org/1999/xlink" x="0px" y="0px"
	 viewBox="0 0 503 468.5" style="enable-background:new 0 0 503 468.5;" xml:space="preserve">
<style type="text/css">
	.st0{fill:none;stroke:#000000;stroke-miterlimit:10;}
</style>
<g>
	<path d="M5.9,6.8c-0.1,0-0.1,0-0.1,0c0,0,0,0-0.1-0.1c0,0,0-0.1,0-0.1c0,0,0-0.1-0.1-0.1C5.4,6.2,5.2,6,5,5.9S4.4,5.7,4.1,5.7
		c-0.2,0-0.3,0-0.4,0.1C3.5,5.8,3.4,5.9,3.3,6C3.2,6,3.2,6.1,3.1,6.2c0,0.1-0.1,0.2-0.1,0.3c0,0.1,0,0.3,0.1,0.4
		c0,0.1,0.1,0.2,0.3,0.4c0.1,0.1,0.3,0.2,0.5,0.4C4.1,7.8,4.4,8,4.8,8.1c0.4,0.2,0.8,0.3,1,0.5C6.1,8.8,6.3,9,6.4,9.2
		c0.2,0.2,0.3,0.4,0.3,0.6c0.1,0.2,0.1,0.5,0.1,0.7c0,0.3-0.1,0.6-0.2,0.9c-0.1,0.3-0.3,0.6-0.5,0.8c-0.2,0.2-0.5,0.4-0.9,0.6
		S4.5,13,4,13c-0.6,0-1.1-0.1-1.5-0.3c-0.5-0.2-0.9-0.5-1.2-0.9L2,10.5c0.1,0,0.1,0,0.1,0.1c0,0,0.1,0.1,0.1,0.1s0,0.1,0.1,0.1
		s0,0.1,0.1,0.1c0.1,0.1,0.2,0.2,0.3,0.3c0.1,0.1,0.2,0.2,0.4,0.3s0.3,0.1,0.5,0.2c0.2,0,0.4,0.1,0.6,0.1c0.4,0,0.7-0.1,0.9-0.3
		c0.2-0.2,0.3-0.5,0.3-0.9c0-0.1,0-0.2-0.1-0.4c-0.1-0.1-0.1-0.2-0.3-0.3C5,9.8,4.8,9.7,4.6,9.6C4.4,9.5,4.1,9.4,3.8,9.3
		c-0.4-0.2-0.8-0.3-1-0.5S2.3,8.4,2.1,8.2C1.9,8,1.8,7.7,1.7,7.5S1.5,7,1.5,6.8c0-0.3,0.1-0.6,0.2-0.9s0.3-0.5,0.5-0.7
		c0.2-0.2,0.5-0.4,0.8-0.5c0.3-0.1,0.7-0.2,1.1-0.2c0.5,0,1,0.1,1.4,0.3s0.8,0.5,1.1,0.9L5.9,6.8z"/>
	<path d="M8.4,7.6c0.6-0.7,1.4-1,2.3-1c0.4,0,0.7,0,1,0.1s0.6,0.2,0.8,0.5C12.7,7.4,12.9,7.7,13,8c0.1,0.3,0.2,0.7,0.2,1.1v3.7h-1.4
		v-0.5c-0.2,0.2-0.5,0.4-0.8,0.5C10.6,12.9,10.3,13,10,13c-0.4,0-0.7,0-0.9-0.1c-0.3-0.1-0.5-0.2-0.6-0.4s-0.3-0.3-0.4-0.6
		c-0.1-0.2-0.1-0.4-0.1-0.7c0-0.3,0.1-0.6,0.2-0.9c0.1-0.3,0.3-0.5,0.6-0.7c0.3-0.2,0.6-0.3,1-0.4c0.4-0.1,0.8-0.2,1.3-0.2h0.8
		c0-0.5-0.1-0.8-0.3-1c-0.2-0.2-0.5-0.3-0.8-0.3c-0.5,0-1,0.3-1.5,0.8L8.4,7.6z M11.3,10.1c-0.4,0-0.7,0-0.9,0.1
		c-0.2,0.1-0.4,0.1-0.6,0.2s-0.2,0.2-0.3,0.3c-0.1,0.1-0.1,0.2-0.1,0.4c0,0.1,0,0.2,0.1,0.3s0.1,0.2,0.2,0.2
		c0.1,0.1,0.2,0.1,0.3,0.2c0.1,0,0.2,0.1,0.3,0.1c0.2,0,0.4,0,0.5-0.1c0.2-0.1,0.3-0.2,0.4-0.3s0.2-0.2,0.3-0.3s0.1-0.2,0.2-0.3
		c0-0.1,0.1-0.2,0.1-0.3c0-0.1,0-0.3,0-0.5L11.3,10.1z"/>
	<path d="M16.9,6.6c0.1,0,0.3,0,0.4,0c0.1,0,0.3,0.1,0.4,0.1S17.9,6.9,18,7c0.1,0.1,0.2,0.2,0.3,0.3V6.7h1.4V15h-1.5v-2.6
		c-0.1,0.1-0.2,0.2-0.3,0.3c-0.1,0.1-0.2,0.1-0.4,0.2c-0.1,0.1-0.3,0.1-0.4,0.1c-0.1,0-0.3,0-0.4,0c-0.4,0-0.7-0.1-1-0.2
		c-0.3-0.2-0.6-0.4-0.8-0.7c-0.2-0.3-0.4-0.6-0.5-1s-0.2-0.8-0.2-1.3s0.1-0.9,0.2-1.3s0.3-0.7,0.5-1s0.5-0.5,0.8-0.6
		C16.2,6.7,16.5,6.6,16.9,6.6z M17,7.8c-0.2,0-0.3,0-0.5,0.1c-0.2,0.1-0.3,0.2-0.4,0.4s-0.2,0.4-0.3,0.6c-0.1,0.2-0.1,0.5-0.1,0.8
		c0,0.3,0,0.6,0.1,0.8s0.2,0.5,0.3,0.7c0.1,0.2,0.3,0.3,0.4,0.4c0.2,0.1,0.3,0.1,0.5,0.1c0.4,0,0.7-0.2,0.9-0.5s0.3-0.8,0.3-1.5
		c0-0.3,0-0.6-0.1-0.9c-0.1-0.2-0.1-0.5-0.2-0.6c-0.1-0.2-0.2-0.3-0.4-0.3C17.4,7.8,17.2,7.8,17,7.8z"/>
	<path d="M21.7,6.7h2.8v4.9h1.3v1.1h-4.2v-1.1h1.5V7.9h-1.4V6.7z M23.9,4c0.1,0,0.2,0,0.3,0.1c0.1,0,0.2,0.1,0.3,0.2
		c0.1,0.1,0.1,0.2,0.2,0.3c0,0.1,0.1,0.2,0.1,0.3s0,0.2-0.1,0.3c0,0.1-0.1,0.2-0.2,0.3c-0.1,0.1-0.2,0.1-0.3,0.2S24,5.7,23.9,5.7
		s-0.2,0-0.4-0.1c-0.1,0-0.2-0.1-0.3-0.2c-0.1-0.1-0.1-0.2-0.2-0.3C23,5.1,23,5,23,4.8c0-0.1,0-0.2,0.1-0.3c0-0.1,0.1-0.2,0.2-0.3
		c0.1-0.1,0.2-0.1,0.3-0.2C23.6,4,23.7,4,23.9,4z"/>
	<path d="M27.6,4h1.6c0,0.1,0,0.1,0,0.1s0,0.1-0.1,0.1c0,0,0,0-0.1,0.1s0,0.1,0,0.1v2.9c0.2-0.2,0.4-0.4,0.7-0.5
		c0.2-0.1,0.5-0.2,0.7-0.2c0.3,0,0.7,0.1,1,0.2s0.6,0.3,0.8,0.6c0.2,0.3,0.4,0.6,0.6,0.9C32.9,8.7,33,9.1,33,9.6
		c0,0.6-0.1,1-0.2,1.5c-0.1,0.4-0.3,0.8-0.6,1.1c-0.2,0.3-0.5,0.5-0.8,0.6s-0.6,0.2-1,0.2c-0.3,0-0.6-0.1-0.9-0.2
		c-0.3-0.1-0.5-0.3-0.7-0.6l-0.2,0.6h-1V4z M29,9.7c0,0.4,0,0.7,0.1,1c0.1,0.3,0.1,0.5,0.2,0.6c0.1,0.2,0.2,0.3,0.4,0.4
		c0.1,0.1,0.3,0.1,0.5,0.1c0.1,0,0.3,0,0.5-0.1s0.3-0.2,0.4-0.3s0.2-0.4,0.3-0.6c0.1-0.2,0.1-0.6,0.1-0.9c0-0.4,0-0.7-0.1-1
		c-0.1-0.3-0.2-0.5-0.4-0.7c-0.1-0.1-0.2-0.2-0.4-0.3c-0.1-0.1-0.3-0.1-0.5-0.1c-0.2,0-0.4,0.1-0.6,0.2c-0.1,0.1-0.3,0.2-0.3,0.4
		c-0.1,0.2-0.1,0.4-0.2,0.6C29,9.2,29,9.4,29,9.7z"/>
	<path d="M42,12.8h-1.5V4.7h1.6c0,0,0,0,0,0.1c0,0,0,0,0,0.1c0,0,0,0,0,0.1S42,5,42,5s0,0.1,0,0.2v2.6l2.8-3.2
		c0.1,0,0.3,0.1,0.4,0.1s0.2,0,0.3,0h0.9l-3,3.4l3.1,4.6l-1.8,0.1l-2.4-3.8L42,9.5V12.8z"/>
	<path d="M47.2,12.8V4h1.7c0,0.1,0,0.1,0,0.1s0,0.1-0.1,0.1c0,0,0,0-0.1,0.1s0,0.1,0,0.1v3c0.2-0.2,0.5-0.4,0.7-0.5
		c0.3-0.1,0.6-0.2,0.9-0.2c0.3,0,0.6,0,0.8,0.1s0.5,0.2,0.6,0.4C51.9,7.4,52,7.6,52.1,8c0.1,0.3,0.1,0.7,0.1,1.2v3.7h-1.4V9.1
		c0-0.2,0-0.4-0.1-0.6s-0.1-0.3-0.2-0.4c-0.1-0.1-0.2-0.2-0.3-0.2S50.1,7.8,50,7.8c-0.2,0-0.4,0-0.5,0.1C49.3,8,49.2,8.1,49,8.2
		c-0.1,0.1-0.2,0.3-0.3,0.5c-0.1,0.2-0.1,0.4-0.1,0.6v3.5H47.2z"/>
	<path d="M53.9,7.6c0.6-0.7,1.4-1,2.3-1c0.4,0,0.7,0,1,0.1S57.8,7,58,7.2c0.2,0.2,0.4,0.5,0.5,0.8c0.1,0.3,0.2,0.7,0.2,1.1v3.7h-1.4
		v-0.5c-0.2,0.2-0.5,0.4-0.8,0.5c-0.3,0.1-0.6,0.2-0.9,0.2c-0.4,0-0.7,0-0.9-0.1c-0.3-0.1-0.5-0.2-0.6-0.4s-0.3-0.3-0.4-0.6
		c-0.1-0.2-0.1-0.4-0.1-0.7c0-0.3,0.1-0.6,0.2-0.9c0.1-0.3,0.3-0.5,0.6-0.7c0.3-0.2,0.6-0.3,1-0.4c0.4-0.1,0.8-0.2,1.3-0.2h0.8
		c0-0.5-0.1-0.8-0.3-1c-0.2-0.2-0.5-0.3-0.8-0.3c-0.5,0-1,0.3-1.5,0.8L53.9,7.6z M56.8,10.1c-0.4,0-0.7,0-0.9,0.1
		c-0.2,0.1-0.4,0.1-0.6,0.2S55,10.6,55,10.8c-0.1,0.1-0.1,0.2-0.1,0.4c0,0.1,0,0.2,0.1,0.3s0.1,0.2,0.2,0.2c0.1,0.1,0.2,0.1,0.3,0.2
		c0.1,0,0.2,0.1,0.3,0.1c0.2,0,0.4,0,0.5-0.1c0.2-0.1,0.3-0.2,0.4-0.3s0.2-0.2,0.3-0.3s0.1-0.2,0.2-0.3c0-0.1,0.1-0.2,0.1-0.3
		c0-0.1,0-0.3,0-0.5L56.8,10.1z"/>
	<path d="M60.2,12.8V6.7h1.5v0.6c0.2-0.2,0.5-0.4,0.7-0.5c0.3-0.1,0.6-0.2,0.9-0.2c0.3,0,0.6,0,0.8,0.1c0.2,0.1,0.5,0.2,0.6,0.4
		C64.9,7.4,65,7.6,65.1,8c0.1,0.3,0.1,0.7,0.1,1.2v3.7h-1.4V9.1c0-0.2,0-0.4-0.1-0.6s-0.1-0.3-0.2-0.4c-0.1-0.1-0.2-0.2-0.3-0.2
		S63.1,7.8,63,7.8c-0.2,0-0.4,0-0.5,0.1C62.3,8,62.2,8.1,62,8.2c-0.1,0.1-0.2,0.3-0.3,0.5c-0.1,0.2-0.1,0.4-0.1,0.6v3.5H60.2z"/>
	<path d="M69.9,12.5c0,0.7-0.5,1.5-1.4,2.4l-0.4-0.4c0.2-0.2,0.4-0.5,0.6-0.7c0.2-0.3,0.2-0.5,0.2-0.6c0-0.1,0-0.2-0.1-0.2
		c-0.1-0.1-0.1-0.1-0.2-0.2c-0.1-0.1-0.2-0.1-0.2-0.2c-0.1-0.1-0.1-0.2-0.1-0.3c0-0.2,0.1-0.4,0.2-0.5c0.1-0.1,0.3-0.2,0.6-0.2
		c0.2,0,0.4,0.1,0.6,0.3C69.8,12,69.9,12.2,69.9,12.5z"/>
	<path d="M4.2,22.3c0.4,0,0.7,0.1,1,0.2c0.3,0.1,0.6,0.3,0.9,0.6s0.4,0.6,0.6,1s0.2,0.8,0.2,1.3c0,0.5-0.1,0.9-0.2,1.3
		s-0.3,0.7-0.6,1c-0.2,0.3-0.5,0.5-0.9,0.6c-0.3,0.1-0.7,0.2-1.1,0.2c-0.4,0-0.7-0.1-1.1-0.2c-0.3-0.2-0.6-0.4-0.9-0.6
		s-0.5-0.6-0.6-1c-0.1-0.4-0.2-0.8-0.2-1.2s0.1-0.9,0.2-1.2c0.2-0.4,0.4-0.7,0.6-1s0.6-0.5,0.9-0.6C3.5,22.4,3.8,22.3,4.2,22.3z
		 M6,25.5c0-0.4,0-0.7-0.1-1c-0.1-0.3-0.2-0.5-0.4-0.7s-0.4-0.4-0.6-0.5c-0.2-0.1-0.4-0.2-0.7-0.2c-0.2,0-0.5,0.1-0.7,0.2
		s-0.4,0.3-0.6,0.5c-0.2,0.2-0.3,0.4-0.4,0.7s-0.1,0.6-0.1,1c0,0.3,0,0.7,0.1,0.9s0.2,0.5,0.4,0.7c0.2,0.2,0.3,0.4,0.6,0.5
		c0.2,0.1,0.4,0.2,0.7,0.2s0.5,0,0.7-0.1c0.2-0.1,0.4-0.2,0.6-0.4c0.2-0.2,0.3-0.4,0.4-0.7C5.9,26.1,6,25.8,6,25.5z"/>
	<path d="M8.3,28.4v-5.9h0.9v1.1c0.2-0.4,0.5-0.7,0.9-0.9c0.4-0.2,0.7-0.3,1.1-0.3c0.3,0,0.5,0,0.7,0.1c0.2,0.1,0.4,0.2,0.6,0.4
		c0.2,0.2,0.3,0.5,0.4,0.8s0.1,0.7,0.1,1.1v3.6h-0.9v-3.6c0-0.6-0.1-1.1-0.3-1.3c-0.2-0.3-0.5-0.4-0.8-0.4c-0.2,0-0.4,0-0.6,0.1
		c-0.2,0.1-0.4,0.2-0.6,0.4c-0.2,0.2-0.3,0.4-0.4,0.6c-0.1,0.2-0.2,0.5-0.2,0.8v3.4H8.3z"/>
	<path d="M17.3,22.3c0.3,0,0.6,0.1,0.9,0.2c0.3,0.1,0.6,0.3,0.8,0.5c0.2,0.2,0.4,0.5,0.5,0.9s0.2,0.8,0.2,1.3c0,0.1,0,0.1,0,0.2
		s0,0.1,0,0.2h-4.2c0,0.4,0.1,0.8,0.2,1c0.1,0.3,0.3,0.5,0.5,0.7c0.2,0.2,0.4,0.3,0.6,0.4c0.2,0.1,0.5,0.1,0.7,0.1
		c0.6,0,1.1-0.2,1.5-0.7l0.5,0.5c-0.5,0.6-1.2,0.9-2.1,0.9c-0.4,0-0.8-0.1-1.2-0.2c-0.4-0.1-0.7-0.3-0.9-0.6c-0.3-0.3-0.4-0.6-0.6-1
		c-0.1-0.4-0.2-0.8-0.2-1.3c0-0.5,0.1-0.9,0.2-1.3s0.3-0.7,0.6-1c0.2-0.3,0.5-0.5,0.9-0.6C16.5,22.4,16.9,22.3,17.3,22.3z
		 M15.5,24.8h3.3c0,0,0-0.1,0-0.1c0,0,0-0.1,0-0.1c0-0.2,0-0.4-0.1-0.6c-0.1-0.2-0.2-0.4-0.3-0.5c-0.1-0.1-0.3-0.3-0.5-0.3
		c-0.2-0.1-0.4-0.1-0.6-0.1c-0.4,0-0.8,0.1-1.1,0.4C15.8,23.7,15.6,24.2,15.5,24.8z"/>
	<path d="M30.2,22.3c0.4,0,0.7,0.1,1,0.2c0.3,0.1,0.6,0.3,0.9,0.6c0.2,0.3,0.4,0.6,0.6,1s0.2,0.8,0.2,1.3c0,0.5-0.1,0.9-0.2,1.3
		s-0.3,0.7-0.6,1c-0.2,0.3-0.5,0.5-0.9,0.6c-0.3,0.1-0.7,0.2-1.1,0.2c-0.4,0-0.7-0.1-1.1-0.2c-0.3-0.2-0.6-0.4-0.9-0.6
		s-0.5-0.6-0.6-1c-0.1-0.4-0.2-0.8-0.2-1.2s0.1-0.9,0.2-1.2c0.2-0.4,0.4-0.7,0.6-1s0.6-0.5,0.9-0.6C29.5,22.4,29.8,22.3,30.2,22.3z
		 M32,25.5c0-0.4,0-0.7-0.1-1c-0.1-0.3-0.2-0.5-0.4-0.7s-0.4-0.4-0.6-0.5c-0.2-0.1-0.4-0.2-0.7-0.2c-0.2,0-0.5,0.1-0.7,0.2
		s-0.4,0.3-0.6,0.5c-0.2,0.2-0.3,0.4-0.4,0.7s-0.1,0.6-0.1,1c0,0.3,0,0.7,0.1,0.9s0.2,0.5,0.4,0.7c0.2,0.2,0.3,0.4,0.6,0.5
		c0.2,0.1,0.4,0.2,0.7,0.2s0.5,0,0.7-0.1c0.2-0.1,0.4-0.2,0.6-0.4c0.2-0.2,0.3-0.4,0.4-0.7C31.9,26.1,32,25.8,32,25.5z"/>
	<path d="M37.9,19.7c0.8,0,1.4,0.3,1.8,0.8l-0.4,0.9c-0.1,0-0.1,0-0.1-0.1s0-0.1,0-0.2c-0.1-0.2-0.3-0.4-0.6-0.5s-0.5-0.2-0.7-0.2
		c-0.2,0-0.4,0-0.6,0.1c-0.2,0.1-0.3,0.2-0.4,0.3s-0.2,0.3-0.3,0.6s-0.1,0.6-0.1,0.9v0.5h2v0.8h-2v4.8h-0.9v-4.8h-1.3v-0.8h1.3v-0.6
		c0-0.5,0.1-0.9,0.2-1.2c0.1-0.3,0.3-0.6,0.5-0.8c0.2-0.2,0.5-0.3,0.8-0.4C37.2,19.7,37.5,19.7,37.9,19.7z"/>
	<path d="M47.3,28.4v-8.6h1.1c0,0,0,0,0,0s0,0,0,0c0,0,0,0.1-0.1,0.1c0,0-0.1,0.1-0.1,0.2v3.4c0.2-0.4,0.5-0.7,0.9-0.9
		c0.4-0.2,0.7-0.3,1.1-0.3c0.3,0,0.5,0,0.7,0.1c0.2,0.1,0.4,0.2,0.6,0.4c0.2,0.2,0.3,0.5,0.4,0.8s0.1,0.7,0.1,1.1v3.6h-0.9v-3.6
		c0-0.6-0.1-1.1-0.3-1.3c-0.2-0.3-0.5-0.4-0.8-0.4c-0.2,0-0.4,0-0.6,0.1c-0.2,0.1-0.4,0.2-0.6,0.4s-0.3,0.3-0.4,0.6
		c-0.1,0.2-0.1,0.5-0.1,0.8v3.4H47.3z"/>
	<path d="M54.3,22.5h2.4v5.2h1.4v0.8h-3.8v-0.8h1.5v-4.4h-1.4V22.5z M55.7,20.1c0.1-0.1,0.3-0.2,0.5-0.2c0.2,0,0.3,0.1,0.5,0.2
		c0.1,0.1,0.2,0.3,0.2,0.5s-0.1,0.3-0.2,0.5c-0.1,0.1-0.3,0.2-0.5,0.2c-0.2,0-0.3-0.1-0.5-0.2c-0.1-0.1-0.2-0.3-0.2-0.5
		C55.5,20.4,55.6,20.2,55.7,20.1z"/>
	<path d="M65,23.2l-0.5,0.8c0,0-0.1,0-0.1-0.1c0-0.1,0-0.1,0-0.1c-0.2-0.2-0.4-0.4-0.7-0.6c-0.3-0.2-0.6-0.3-1-0.3
		c-0.2,0-0.3,0-0.5,0.1s-0.3,0.1-0.4,0.2c-0.1,0.1-0.2,0.2-0.3,0.3s-0.1,0.2-0.1,0.4c0,0.1,0,0.2,0.1,0.3s0.1,0.2,0.2,0.2
		c0.1,0.1,0.3,0.2,0.5,0.2c0.2,0.1,0.5,0.2,0.8,0.3c0.8,0.2,1.3,0.4,1.6,0.7c0.3,0.3,0.5,0.6,0.5,1c0,0.3-0.1,0.5-0.2,0.7
		c-0.1,0.2-0.3,0.4-0.5,0.6c-0.2,0.2-0.5,0.3-0.8,0.4s-0.6,0.1-1,0.1c-1,0-1.8-0.3-2.5-0.9l0.5-0.9c0,0,0,0.1,0.1,0.1
		c0,0.1,0,0.1,0.1,0.2s0.1,0.2,0.3,0.3s0.4,0.2,0.6,0.3c0.1,0.1,0.3,0.1,0.4,0.1c0.2,0,0.3,0,0.5,0c0.2,0,0.4,0,0.5-0.1
		c0.2,0,0.3-0.1,0.5-0.2c0.1-0.1,0.3-0.2,0.3-0.3c0.1-0.1,0.1-0.3,0.1-0.4c0-0.2-0.1-0.4-0.3-0.6c-0.2-0.2-0.6-0.3-1.2-0.5
		c-0.4-0.1-0.6-0.2-0.8-0.2c-0.3-0.1-0.5-0.2-0.7-0.3c-0.1-0.1-0.3-0.2-0.4-0.3c-0.1-0.1-0.2-0.3-0.3-0.4c-0.1-0.2-0.1-0.3-0.1-0.5
		c0-0.2,0.1-0.4,0.2-0.6c0.1-0.2,0.3-0.4,0.5-0.5c0.2-0.1,0.4-0.3,0.7-0.4c0.3-0.1,0.6-0.1,0.9-0.1C63.7,22.3,64.5,22.6,65,23.2z"/>
	<path d="M73.5,19.8h2.6v7.9h1.7v0.8h-4.4v-0.8h1.8v-7.1h-1.7V19.8z"/>
	<path d="M80.1,23.2c0.5-0.6,1.2-0.8,2.1-0.8c0.7,0,1.3,0.2,1.7,0.6c0.4,0.4,0.6,1,0.6,1.8v3.7h-0.9v-0.6c-0.6,0.5-1.3,0.8-2.1,0.8
		c-0.3,0-0.6,0-0.8-0.1c-0.2-0.1-0.5-0.2-0.6-0.4c-0.2-0.2-0.3-0.3-0.4-0.5c-0.1-0.2-0.1-0.4-0.1-0.6c0-0.6,0.3-1.1,0.8-1.4
		c0.5-0.3,1.3-0.5,2.2-0.6h1.1v-0.2c0-0.6-0.1-1-0.4-1.2c-0.2-0.2-0.6-0.4-1.2-0.4c-0.6,0-1.2,0.2-1.6,0.7L80.1,23.2z M83.7,25.6
		h-0.2c-0.1,0-0.2,0-0.3,0s-0.2,0-0.3,0c-0.5,0-0.9,0-1.2,0.1c-0.3,0.1-0.5,0.2-0.7,0.3c-0.2,0.1-0.3,0.2-0.4,0.4s-0.1,0.3-0.1,0.5
		c0,0.3,0.1,0.5,0.4,0.7c0.2,0.2,0.5,0.3,0.9,0.3c0.3,0,0.5,0,0.7-0.1s0.4-0.2,0.5-0.3c0.2-0.1,0.3-0.2,0.4-0.4s0.2-0.2,0.2-0.3
		c0.1-0.2,0.1-0.4,0.1-0.7V25.6z"/>
	<path d="M87.9,20.9l1-0.2c0,0.1,0,0.1,0,0.2c0,0.1,0,0.1,0,0.1l-0.2,1.4h1.9v0.8h-1.9c-0.1,0.8-0.1,1.5-0.1,2.2c0,0.4,0,0.8,0,1.1
		c0,0.3,0.1,0.5,0.1,0.7c0.1,0.2,0.2,0.3,0.3,0.4c0.1,0.1,0.3,0.1,0.6,0.1c0.4,0,0.8-0.2,1.3-0.5l0.3,0.7c-0.6,0.4-1.2,0.7-1.8,0.7
		c-0.6,0-1.1-0.2-1.4-0.6s-0.4-1-0.4-1.8c0-0.3,0-0.7,0-1.2c0-0.5,0.1-1.1,0.1-1.7h-1.4v-0.8h1.4L87.9,20.9z"/>
	<path d="M95.3,22.3c0.3,0,0.6,0.1,0.9,0.2c0.3,0.1,0.6,0.3,0.8,0.5c0.2,0.2,0.4,0.5,0.5,0.9s0.2,0.8,0.2,1.3c0,0.1,0,0.1,0,0.2
		s0,0.1,0,0.2h-4.2c0,0.4,0.1,0.8,0.2,1c0.1,0.3,0.3,0.5,0.5,0.7c0.2,0.2,0.4,0.3,0.6,0.4c0.2,0.1,0.5,0.1,0.7,0.1
		c0.6,0,1.1-0.2,1.5-0.7l0.5,0.5c-0.5,0.6-1.2,0.9-2.1,0.9c-0.4,0-0.8-0.1-1.2-0.2c-0.4-0.1-0.7-0.3-0.9-0.6c-0.3-0.3-0.4-0.6-0.6-1
		c-0.1-0.4-0.2-0.8-0.2-1.3c0-0.5,0.1-0.9,0.2-1.3s0.3-0.7,0.6-1c0.2-0.3,0.5-0.5,0.9-0.6C94.5,22.4,94.9,22.3,95.3,22.3z
		 M93.5,24.8h3.3c0,0,0-0.1,0-0.1c0,0,0-0.1,0-0.1c0-0.2,0-0.4-0.1-0.6c-0.1-0.2-0.2-0.4-0.3-0.5c-0.1-0.1-0.3-0.3-0.5-0.3
		c-0.2-0.1-0.4-0.1-0.6-0.1c-0.4,0-0.8,0.1-1.1,0.4C93.8,23.7,93.6,24.2,93.5,24.8z"/>
	<path d="M104,23.2l-0.5,0.8c0,0-0.1,0-0.1-0.1c0-0.1,0-0.1,0-0.1c-0.2-0.2-0.4-0.4-0.7-0.6c-0.3-0.2-0.6-0.3-1-0.3
		c-0.2,0-0.3,0-0.5,0.1s-0.3,0.1-0.4,0.2c-0.1,0.1-0.2,0.2-0.3,0.3s-0.1,0.2-0.1,0.4c0,0.1,0,0.2,0.1,0.3s0.1,0.2,0.2,0.2
		c0.1,0.1,0.3,0.2,0.5,0.2c0.2,0.1,0.5,0.2,0.8,0.3c0.8,0.2,1.3,0.4,1.6,0.7c0.3,0.3,0.5,0.6,0.5,1c0,0.3-0.1,0.5-0.2,0.7
		c-0.1,0.2-0.3,0.4-0.5,0.6c-0.2,0.2-0.5,0.3-0.8,0.4s-0.6,0.1-1,0.1c-1,0-1.8-0.3-2.5-0.9l0.5-0.9c0,0,0,0.1,0.1,0.1
		c0,0.1,0,0.1,0.1,0.2s0.1,0.2,0.3,0.3s0.4,0.2,0.6,0.3c0.1,0.1,0.3,0.1,0.4,0.1c0.2,0,0.3,0,0.5,0c0.2,0,0.4,0,0.5-0.1
		c0.2,0,0.3-0.1,0.5-0.2c0.1-0.1,0.3-0.2,0.3-0.3c0.1-0.1,0.1-0.3,0.1-0.4c0-0.2-0.1-0.4-0.3-0.6c-0.2-0.2-0.6-0.3-1.2-0.5
		c-0.4-0.1-0.6-0.2-0.8-0.2c-0.3-0.1-0.5-0.2-0.7-0.3c-0.1-0.1-0.3-0.2-0.4-0.3c-0.1-0.1-0.2-0.3-0.3-0.4c-0.1-0.2-0.1-0.3-0.1-0.5
		c0-0.2,0.1-0.4,0.2-0.6c0.1-0.2,0.3-0.4,0.5-0.5c0.2-0.1,0.4-0.3,0.7-0.4c0.3-0.1,0.6-0.1,0.9-0.1C102.7,22.3,103.5,22.6,104,23.2z
		"/>
	<path d="M107.4,20.9l1-0.2c0,0.1,0,0.1,0,0.2c0,0.1,0,0.1,0,0.1l-0.2,1.4h1.9v0.8h-1.9c-0.1,0.8-0.1,1.5-0.1,2.2c0,0.4,0,0.8,0,1.1
		c0,0.3,0.1,0.5,0.1,0.7c0.1,0.2,0.2,0.3,0.3,0.4c0.1,0.1,0.3,0.1,0.6,0.1c0.4,0,0.8-0.2,1.3-0.5l0.3,0.7c-0.6,0.4-1.2,0.7-1.8,0.7
		c-0.6,0-1.1-0.2-1.4-0.6s-0.4-1-0.4-1.8c0-0.3,0-0.7,0-1.2c0-0.5,0.1-1.1,0.1-1.7h-1.4v-0.8h1.4L107.4,20.9z"/>
	<path d="M118.7,22.5h0.9v0.9c0.2-0.3,0.5-0.6,0.8-0.8c0.3-0.2,0.7-0.3,1-0.3c0.3,0,0.6,0.1,0.9,0.2s0.6,0.3,0.8,0.6
		c0.2,0.3,0.4,0.6,0.5,0.9c0.1,0.4,0.2,0.8,0.2,1.4s-0.1,1-0.2,1.4c-0.1,0.4-0.3,0.7-0.6,1c-0.2,0.3-0.5,0.5-0.8,0.6
		s-0.6,0.2-0.9,0.2c-0.4,0-0.7-0.1-1-0.2c-0.3-0.2-0.6-0.4-0.8-0.7v3h-0.9V22.5z M119.6,25.9c0,0.6,0.2,1.1,0.4,1.4s0.6,0.4,1,0.4
		c0.2,0,0.4,0,0.7-0.1s0.4-0.2,0.6-0.4c0.2-0.2,0.3-0.4,0.4-0.7c0.1-0.3,0.2-0.6,0.2-1c0-0.8-0.2-1.3-0.5-1.8
		c-0.3-0.4-0.8-0.6-1.3-0.7c-0.2,0-0.4,0-0.5,0.1c-0.2,0.1-0.3,0.2-0.5,0.3c-0.1,0.1-0.3,0.3-0.4,0.6s-0.1,0.5-0.1,0.9V25.9z"/>
	<path d="M125.3,28.4v-8.6h1.1c0,0,0,0,0,0s0,0,0,0c0,0,0,0.1-0.1,0.1c0,0-0.1,0.1-0.1,0.2v3.4c0.2-0.4,0.5-0.7,0.9-0.9
		c0.4-0.2,0.7-0.3,1.1-0.3c0.3,0,0.5,0,0.7,0.1c0.2,0.1,0.4,0.2,0.6,0.4c0.2,0.2,0.3,0.5,0.4,0.8s0.1,0.7,0.1,1.1v3.6h-0.9v-3.6
		c0-0.6-0.1-1.1-0.3-1.3c-0.2-0.3-0.5-0.4-0.8-0.4c-0.2,0-0.4,0-0.6,0.1c-0.2,0.1-0.4,0.2-0.6,0.4s-0.3,0.3-0.4,0.6
		c-0.1,0.2-0.1,0.5-0.1,0.8v3.4H125.3z"/>
	<path d="M134.2,22.3c0.4,0,0.7,0.1,1,0.2c0.3,0.1,0.6,0.3,0.9,0.6s0.4,0.6,0.6,1s0.2,0.8,0.2,1.3c0,0.5-0.1,0.9-0.2,1.3
		s-0.3,0.7-0.6,1c-0.2,0.3-0.5,0.5-0.9,0.6c-0.3,0.1-0.7,0.2-1.1,0.2c-0.4,0-0.7-0.1-1.1-0.2c-0.3-0.2-0.6-0.4-0.9-0.6
		s-0.5-0.6-0.6-1c-0.1-0.4-0.2-0.8-0.2-1.2s0.1-0.9,0.2-1.2c0.2-0.4,0.4-0.7,0.6-1s0.6-0.5,0.9-0.6
		C133.5,22.4,133.8,22.3,134.2,22.3z M136,25.5c0-0.4,0-0.7-0.1-1c-0.1-0.3-0.2-0.5-0.4-0.7s-0.4-0.4-0.6-0.5
		c-0.2-0.1-0.4-0.2-0.7-0.2c-0.2,0-0.5,0.1-0.7,0.2s-0.4,0.3-0.6,0.5c-0.2,0.2-0.3,0.4-0.4,0.7s-0.1,0.6-0.1,1c0,0.3,0,0.7,0.1,0.9
		s0.2,0.5,0.4,0.7c0.2,0.2,0.3,0.4,0.6,0.5c0.2,0.1,0.4,0.2,0.7,0.2s0.5,0,0.7-0.1c0.2-0.1,0.4-0.2,0.6-0.4c0.2-0.2,0.3-0.4,0.4-0.7
		C135.9,26.1,136,25.8,136,25.5z"/>
	<path d="M139.9,20.9l1-0.2c0,0.1,0,0.1,0,0.2c0,0.1,0,0.1,0,0.1l-0.2,1.4h1.9v0.8h-1.9c-0.1,0.8-0.1,1.5-0.1,2.2c0,0.4,0,0.8,0,1.1
		c0,0.3,0.1,0.5,0.1,0.7c0.1,0.2,0.2,0.3,0.3,0.4c0.1,0.1,0.3,0.1,0.6,0.1c0.4,0,0.8-0.2,1.3-0.5l0.3,0.7c-0.6,0.4-1.2,0.7-1.8,0.7
		c-0.6,0-1.1-0.2-1.4-0.6s-0.4-1-0.4-1.8c0-0.3,0-0.7,0-1.2c0-0.5,0.1-1.1,0.1-1.7h-1.4v-0.8h1.4L139.9,20.9z"/>
	<path d="M147.2,22.3c0.4,0,0.7,0.1,1,0.2c0.3,0.1,0.6,0.3,0.9,0.6s0.4,0.6,0.6,1s0.2,0.8,0.2,1.3c0,0.5-0.1,0.9-0.2,1.3
		s-0.3,0.7-0.6,1c-0.2,0.3-0.5,0.5-0.9,0.6c-0.3,0.1-0.7,0.2-1.1,0.2c-0.4,0-0.7-0.1-1.1-0.2c-0.3-0.2-0.6-0.4-0.9-0.6
		s-0.5-0.6-0.6-1c-0.1-0.4-0.2-0.8-0.2-1.2s0.1-0.9,0.2-1.2c0.2-0.4,0.4-0.7,0.6-1s0.6-0.5,0.9-0.6
		C146.5,22.4,146.8,22.3,147.2,22.3z M149,25.5c0-0.4,0-0.7-0.1-1c-0.1-0.3-0.2-0.5-0.4-0.7s-0.4-0.4-0.6-0.5
		c-0.2-0.1-0.4-0.2-0.7-0.2c-0.2,0-0.5,0.1-0.7,0.2s-0.4,0.3-0.6,0.5c-0.2,0.2-0.3,0.4-0.4,0.7s-0.1,0.6-0.1,1c0,0.3,0,0.7,0.1,0.9
		s0.2,0.5,0.4,0.7c0.2,0.2,0.3,0.4,0.6,0.5c0.2,0.1,0.4,0.2,0.7,0.2s0.5,0,0.7-0.1c0.2-0.1,0.4-0.2,0.6-0.4c0.2-0.2,0.3-0.4,0.4-0.7
		C148.9,26.1,149,25.8,149,25.5z"/>
	<path d="M156,23.2l-0.5,0.8c0,0-0.1,0-0.1-0.1c0-0.1,0-0.1,0-0.1c-0.2-0.2-0.4-0.4-0.7-0.6c-0.3-0.2-0.6-0.3-1-0.3
		c-0.2,0-0.3,0-0.5,0.1s-0.3,0.1-0.4,0.2c-0.1,0.1-0.2,0.2-0.3,0.3s-0.1,0.2-0.1,0.4c0,0.1,0,0.2,0.1,0.3s0.1,0.2,0.2,0.2
		c0.1,0.1,0.3,0.2,0.5,0.2c0.2,0.1,0.5,0.2,0.8,0.3c0.8,0.2,1.3,0.4,1.6,0.7c0.3,0.3,0.5,0.6,0.5,1c0,0.3-0.1,0.5-0.2,0.7
		c-0.1,0.2-0.3,0.4-0.5,0.6c-0.2,0.2-0.5,0.3-0.8,0.4s-0.6,0.1-1,0.1c-1,0-1.8-0.3-2.5-0.9l0.5-0.9c0,0,0,0.1,0.1,0.1
		c0,0.1,0,0.1,0.1,0.2s0.1,0.2,0.3,0.3s0.4,0.2,0.6,0.3c0.1,0.1,0.3,0.1,0.4,0.1c0.2,0,0.3,0,0.5,0c0.2,0,0.4,0,0.5-0.1
		c0.2,0,0.3-0.1,0.5-0.2c0.1-0.1,0.3-0.2,0.3-0.3c0.1-0.1,0.1-0.3,0.1-0.4c0-0.2-0.1-0.4-0.3-0.6c-0.2-0.2-0.6-0.3-1.2-0.5
		c-0.4-0.1-0.6-0.2-0.8-0.2c-0.3-0.1-0.5-0.2-0.7-0.3c-0.1-0.1-0.3-0.2-0.4-0.3c-0.1-0.1-0.2-0.3-0.3-0.4c-0.1-0.2-0.1-0.3-0.1-0.5
		c0-0.2,0.1-0.4,0.2-0.6c0.1-0.2,0.3-0.4,0.5-0.5c0.2-0.1,0.4-0.3,0.7-0.4c0.3-0.1,0.6-0.1,0.9-0.1C154.7,22.3,155.5,22.6,156,23.2z
		"/>
	<path d="M160.6,23.1c0.2,0.2,0.2,0.3,0.2,0.5c0,0.2-0.1,0.4-0.2,0.5c-0.2,0.1-0.3,0.2-0.5,0.2c-0.2,0-0.4-0.1-0.5-0.2
		c-0.2-0.1-0.2-0.3-0.2-0.5c0-0.2,0.1-0.4,0.2-0.5c0.2-0.1,0.3-0.2,0.5-0.2C160.2,22.9,160.4,23,160.6,23.1z M160.6,27.3
		c0.2,0.2,0.2,0.3,0.2,0.5c0,0.2-0.1,0.4-0.2,0.5c-0.2,0.1-0.3,0.2-0.6,0.2c-0.2,0-0.4-0.1-0.5-0.2c-0.1-0.1-0.2-0.3-0.2-0.5
		s0.1-0.4,0.2-0.5c0.2-0.1,0.3-0.2,0.5-0.2C160.2,27,160.4,27.1,160.6,27.3z"/>
</g>
<g>
	<path d="M1.6,401.8v-8.1h0.9l3.4,6v-6h1c0,0.1,0,0.1,0,0.2s0,0.1,0,0.2v7.8H6l-3.6-6.4v6.4H1.6z"/>
	<path d="M8.6,396.6c0.5-0.6,1.2-0.8,2.1-0.8c0.7,0,1.3,0.2,1.7,0.6s0.6,1,0.6,1.8v3.7h-0.9v-0.7c-0.6,0.5-1.3,0.8-2.1,0.8
		c-0.3,0-0.6,0-0.8-0.1c-0.2-0.1-0.5-0.2-0.6-0.4s-0.3-0.3-0.4-0.5S8,400.5,8,400.3c0-0.6,0.3-1.1,0.8-1.4c0.5-0.3,1.3-0.5,2.2-0.6
		h1.1v-0.2c0-0.6-0.1-1-0.4-1.2c-0.2-0.2-0.6-0.4-1.2-0.4c-0.6,0-1.2,0.2-1.6,0.7L8.6,396.6z M12.2,399H12c-0.1,0-0.2,0-0.3,0
		c-0.1,0-0.2,0-0.3,0c-0.5,0-0.9,0-1.2,0.1c-0.3,0.1-0.5,0.2-0.7,0.3c-0.2,0.1-0.3,0.2-0.4,0.4C9,399.9,9,400,9,400.2
		c0,0.3,0.1,0.5,0.4,0.7s0.5,0.3,0.9,0.3c0.3,0,0.5,0,0.7-0.1s0.4-0.2,0.5-0.3c0.2-0.1,0.3-0.2,0.4-0.4s0.2-0.2,0.2-0.3
		c0.1-0.2,0.1-0.4,0.1-0.7V399z"/>
	<path d="M16.4,394.3l1-0.2c0,0.1,0,0.1,0,0.2c0,0.1,0,0.1,0,0.1l-0.2,1.4h1.9v0.8h-1.9c-0.1,0.8-0.1,1.5-0.1,2.2c0,0.4,0,0.8,0,1.1
		c0,0.3,0.1,0.5,0.1,0.7c0.1,0.2,0.2,0.3,0.3,0.4c0.1,0.1,0.3,0.1,0.6,0.1c0.4,0,0.8-0.2,1.3-0.5l0.3,0.7c-0.6,0.4-1.2,0.7-1.8,0.7
		c-0.6,0-1.1-0.2-1.4-0.6c-0.3-0.4-0.4-1-0.4-1.8c0-0.3,0-0.7,0-1.2c0-0.5,0.1-1.1,0.1-1.7h-1.4v-0.8h1.4L16.4,394.3z"/>
	<path d="M21.8,395.9h2.4v5.2h1.4v0.8h-3.8V401h1.5v-4.4h-1.4V395.9z M23.2,393.5c0.1-0.1,0.3-0.2,0.5-0.2c0.2,0,0.3,0.1,0.5,0.2
		s0.2,0.3,0.2,0.5c0,0.2-0.1,0.3-0.2,0.5s-0.3,0.2-0.5,0.2c-0.2,0-0.3-0.1-0.5-0.2s-0.2-0.3-0.2-0.5C23,393.8,23.1,393.6,23.2,393.5
		z"/>
	<path d="M30.2,395.7c0.4,0,0.7,0.1,1,0.2c0.3,0.1,0.6,0.3,0.9,0.6c0.2,0.3,0.4,0.6,0.6,1c0.1,0.4,0.2,0.8,0.2,1.3
		c0,0.5-0.1,0.9-0.2,1.3s-0.3,0.7-0.6,1c-0.2,0.3-0.5,0.5-0.9,0.6c-0.3,0.1-0.7,0.2-1.1,0.2c-0.4,0-0.7-0.1-1.1-0.2
		s-0.6-0.4-0.9-0.6s-0.5-0.6-0.6-1c-0.1-0.4-0.2-0.8-0.2-1.2c0-0.4,0.1-0.9,0.2-1.2c0.2-0.4,0.4-0.7,0.6-1s0.6-0.5,0.9-0.6
		S29.8,395.7,30.2,395.7z M32,398.9c0-0.4,0-0.7-0.1-1s-0.2-0.5-0.4-0.7s-0.4-0.4-0.6-0.5c-0.2-0.1-0.4-0.2-0.7-0.2
		c-0.2,0-0.5,0.1-0.7,0.2s-0.4,0.3-0.6,0.5c-0.2,0.2-0.3,0.4-0.4,0.7s-0.1,0.6-0.1,1c0,0.3,0,0.7,0.1,0.9s0.2,0.5,0.4,0.7
		c0.2,0.2,0.3,0.4,0.6,0.5c0.2,0.1,0.4,0.2,0.7,0.2s0.5,0,0.7-0.1c0.2-0.1,0.4-0.2,0.6-0.4c0.2-0.2,0.3-0.4,0.4-0.7
		C31.9,399.5,32,399.2,32,398.9z"/>
	<path d="M34.3,401.8v-5.9h0.9v1.1c0.2-0.4,0.5-0.7,0.9-0.9c0.4-0.2,0.7-0.3,1.1-0.3c0.3,0,0.5,0,0.7,0.1c0.2,0.1,0.4,0.2,0.6,0.4
		c0.2,0.2,0.3,0.5,0.4,0.8s0.1,0.7,0.1,1.1v3.6h-0.9v-3.6c0-0.6-0.1-1.1-0.3-1.3c-0.2-0.3-0.5-0.4-0.8-0.4c-0.2,0-0.4,0-0.6,0.1
		c-0.2,0.1-0.4,0.2-0.6,0.4c-0.2,0.2-0.3,0.4-0.4,0.6c-0.1,0.2-0.2,0.5-0.2,0.8v3.4H34.3z"/>
	<path d="M41.1,396.6c0.5-0.6,1.2-0.8,2.1-0.8c0.7,0,1.3,0.2,1.7,0.6s0.6,1,0.6,1.8v3.7h-0.9v-0.7c-0.6,0.5-1.3,0.8-2.1,0.8
		c-0.3,0-0.6,0-0.8-0.1c-0.2-0.1-0.5-0.2-0.6-0.4s-0.3-0.3-0.4-0.5s-0.1-0.4-0.1-0.6c0-0.6,0.3-1.1,0.8-1.4c0.5-0.3,1.3-0.5,2.2-0.6
		h1.1v-0.2c0-0.6-0.1-1-0.4-1.2c-0.2-0.2-0.6-0.4-1.2-0.4c-0.6,0-1.2,0.2-1.6,0.7L41.1,396.6z M44.7,399h-0.2c-0.1,0-0.2,0-0.3,0
		c-0.1,0-0.2,0-0.3,0c-0.5,0-0.9,0-1.2,0.1c-0.3,0.1-0.5,0.2-0.7,0.3c-0.2,0.1-0.3,0.2-0.4,0.4c-0.1,0.1-0.1,0.3-0.1,0.5
		c0,0.3,0.1,0.5,0.4,0.7s0.5,0.3,0.9,0.3c0.3,0,0.5,0,0.7-0.1s0.4-0.2,0.5-0.3c0.2-0.1,0.3-0.2,0.4-0.4s0.2-0.2,0.2-0.3
		c0.1-0.2,0.1-0.4,0.1-0.7V399z"/>
	<path d="M47.5,393.2h2.6v7.9h1.7v0.8h-4.4V401h1.8v-7.1h-1.7V393.2z"/>
	<path d="M54.3,395.9h2.4v5.2h1.4v0.8h-3.8V401h1.5v-4.4h-1.4V395.9z M55.7,393.5c0.1-0.1,0.3-0.2,0.5-0.2c0.2,0,0.3,0.1,0.5,0.2
		s0.2,0.3,0.2,0.5c0,0.2-0.1,0.3-0.2,0.5s-0.3,0.2-0.5,0.2c-0.2,0-0.3-0.1-0.5-0.2s-0.2-0.3-0.2-0.5
		C55.5,393.8,55.6,393.6,55.7,393.5z"/>
	<path d="M61.9,394.3l1-0.2c0,0.1,0,0.1,0,0.2c0,0.1,0,0.1,0,0.1l-0.2,1.4h1.9v0.8h-1.9c-0.1,0.8-0.1,1.5-0.1,2.2c0,0.4,0,0.8,0,1.1
		c0,0.3,0.1,0.5,0.1,0.7c0.1,0.2,0.2,0.3,0.3,0.4c0.1,0.1,0.3,0.1,0.6,0.1c0.4,0,0.8-0.2,1.3-0.5l0.3,0.7c-0.6,0.4-1.2,0.7-1.8,0.7
		c-0.6,0-1.1-0.2-1.4-0.6c-0.3-0.4-0.4-1-0.4-1.8c0-0.3,0-0.7,0-1.2c0-0.5,0.1-1.1,0.1-1.7h-1.4v-0.8h1.4L61.9,394.3z"/>
	<path d="M66.7,396.3l-0.2-0.4h1.1c0,0.1,0,0.1,0,0.2c0,0,0,0.1,0,0.1c0,0,0,0.1,0,0.1l1.8,4.4l1.1-3.2c0.1-0.3,0.2-0.6,0.3-0.9
		s0.1-0.5,0.2-0.7h1c-0.1,0.2-0.2,0.5-0.3,0.8c-0.1,0.3-0.2,0.6-0.3,0.9l-1.6,4.3l-0.2,0.7c-0.2,0.6-0.5,1-0.8,1.2
		c-0.3,0.2-0.7,0.4-1.1,0.4c-0.6,0-1-0.2-1.4-0.5l0.5-0.8c0,0,0,0.1,0.1,0.1c0,0.1,0,0.1,0,0.1c0.1,0.1,0.1,0.1,0.2,0.2
		c0.1,0,0.1,0.1,0.2,0.1c0.1,0,0.2,0.1,0.3,0.1c0.3,0,0.5-0.1,0.7-0.2c0.2-0.2,0.4-0.4,0.6-0.9l0.2-0.4L66.7,396.3z"/>
	<path d="M76.1,396.5c0.2,0.2,0.2,0.3,0.2,0.5c0,0.2-0.1,0.4-0.2,0.5c-0.2,0.1-0.3,0.2-0.5,0.2c-0.2,0-0.4-0.1-0.5-0.2
		c-0.2-0.1-0.2-0.3-0.2-0.5c0-0.2,0.1-0.4,0.2-0.5c0.2-0.1,0.3-0.2,0.5-0.2C75.7,396.3,75.9,396.4,76.1,396.5z M76.1,400.7
		c0.2,0.2,0.2,0.3,0.2,0.5s-0.1,0.4-0.2,0.5c-0.2,0.1-0.3,0.2-0.6,0.2c-0.2,0-0.4-0.1-0.5-0.2c-0.1-0.1-0.2-0.3-0.2-0.5
		c0-0.2,0.1-0.4,0.2-0.5c0.2-0.1,0.3-0.2,0.5-0.2C75.7,400.4,75.9,400.5,76.1,400.7z"/>
	<path d="M86.2,393.7h2.6c0.5,0,0.8,0.1,1.2,0.2s0.6,0.3,0.8,0.5c0.2,0.2,0.4,0.5,0.5,0.7s0.2,0.6,0.2,0.9c0,0.3-0.1,0.6-0.2,0.9
		s-0.2,0.5-0.4,0.7s-0.4,0.4-0.8,0.5c-0.3,0.1-0.7,0.2-1.1,0.2h-1.7v3.6h-0.9V393.7z M87.1,394.6v2.9h1.6c0.6,0,1-0.1,1.3-0.4
		c0.2-0.3,0.4-0.6,0.4-1c0-0.2-0.1-0.4-0.1-0.6c-0.1-0.2-0.2-0.3-0.3-0.5c-0.1-0.1-0.3-0.2-0.5-0.3c-0.2-0.1-0.4-0.1-0.7-0.1H87.1z"
		/>
	<path d="M93.1,396.6c0.5-0.6,1.2-0.8,2.1-0.8c0.7,0,1.3,0.2,1.7,0.6s0.6,1,0.6,1.8v3.7h-0.9v-0.7c-0.6,0.5-1.3,0.8-2.1,0.8
		c-0.3,0-0.6,0-0.8-0.1c-0.2-0.1-0.5-0.2-0.6-0.4s-0.3-0.3-0.4-0.5s-0.1-0.4-0.1-0.6c0-0.6,0.3-1.1,0.8-1.4c0.5-0.3,1.3-0.5,2.2-0.6
		h1.1v-0.2c0-0.6-0.1-1-0.4-1.2c-0.2-0.2-0.6-0.4-1.2-0.4c-0.6,0-1.2,0.2-1.6,0.7L93.1,396.6z M96.7,399h-0.2c-0.1,0-0.2,0-0.3,0
		c-0.1,0-0.2,0-0.3,0c-0.5,0-0.9,0-1.2,0.1c-0.3,0.1-0.5,0.2-0.7,0.3c-0.2,0.1-0.3,0.2-0.4,0.4c-0.1,0.1-0.1,0.3-0.1,0.5
		c0,0.3,0.1,0.5,0.4,0.7s0.5,0.3,0.9,0.3c0.3,0,0.5,0,0.7-0.1s0.4-0.2,0.5-0.3c0.2-0.1,0.3-0.2,0.4-0.4s0.2-0.2,0.2-0.3
		c0.1-0.2,0.1-0.4,0.1-0.7V399z"/>
	<path d="M99.3,393.2h1.1c0,0.1,0,0.1-0.1,0.2c0,0.1-0.1,0.1-0.1,0.2v5.1l3-2.8c0.2,0,0.4,0.1,0.7,0.1h0.3l-2.5,2.4l2.9,3.5
		l-1.2,0.1l-2.4-3l-0.8,0.7v2.2h-0.9V393.2z"/>
	<path d="M106.3,395.9h2.4v5.2h1.4v0.8h-3.8V401h1.5v-4.4h-1.4V395.9z M107.7,393.5c0.1-0.1,0.3-0.2,0.5-0.2c0.2,0,0.3,0.1,0.5,0.2
		s0.2,0.3,0.2,0.5c0,0.2-0.1,0.3-0.2,0.5s-0.3,0.2-0.5,0.2c-0.2,0-0.3-0.1-0.5-0.2s-0.2-0.3-0.2-0.5
		C107.5,393.8,107.6,393.6,107.7,393.5z"/>
	<path d="M117,396.6l-0.5,0.8c0,0-0.1,0-0.1-0.1c0-0.1,0-0.1,0-0.1c-0.2-0.2-0.4-0.4-0.7-0.6c-0.3-0.2-0.6-0.3-1-0.3
		c-0.2,0-0.3,0-0.5,0.1s-0.3,0.1-0.4,0.2c-0.1,0.1-0.2,0.2-0.3,0.3c-0.1,0.1-0.1,0.2-0.1,0.4c0,0.1,0,0.2,0.1,0.3s0.1,0.2,0.2,0.2
		c0.1,0.1,0.3,0.2,0.5,0.2c0.2,0.1,0.5,0.2,0.8,0.3c0.8,0.2,1.3,0.4,1.6,0.7c0.3,0.3,0.5,0.6,0.5,1c0,0.3-0.1,0.5-0.2,0.7
		c-0.1,0.2-0.3,0.4-0.5,0.6c-0.2,0.2-0.5,0.3-0.8,0.4s-0.6,0.1-1,0.1c-1,0-1.8-0.3-2.5-0.9l0.5-0.9c0,0,0,0.1,0.1,0.1
		c0,0.1,0,0.1,0.1,0.2s0.1,0.2,0.3,0.3c0.1,0.1,0.4,0.2,0.6,0.3c0.1,0.1,0.3,0.1,0.4,0.1c0.2,0,0.3,0,0.5,0c0.2,0,0.4,0,0.5-0.1
		c0.2,0,0.3-0.1,0.5-0.2c0.1-0.1,0.3-0.2,0.3-0.3c0.1-0.1,0.1-0.3,0.1-0.4c0-0.2-0.1-0.4-0.3-0.6c-0.2-0.2-0.6-0.3-1.2-0.5
		c-0.4-0.1-0.6-0.2-0.8-0.2c-0.3-0.1-0.5-0.2-0.7-0.3c-0.1-0.1-0.3-0.2-0.4-0.3c-0.1-0.1-0.2-0.3-0.3-0.4s-0.1-0.3-0.1-0.5
		c0-0.2,0.1-0.4,0.2-0.6c0.1-0.2,0.3-0.4,0.5-0.5c0.2-0.1,0.4-0.3,0.7-0.4c0.3-0.1,0.6-0.1,0.9-0.1C115.7,395.7,116.5,396,117,396.6
		z"/>
	<path d="M120.4,394.3l1-0.2c0,0.1,0,0.1,0,0.2c0,0.1,0,0.1,0,0.1l-0.2,1.4h1.9v0.8h-1.9c-0.1,0.8-0.1,1.5-0.1,2.2
		c0,0.4,0,0.8,0,1.1c0,0.3,0.1,0.5,0.1,0.7c0.1,0.2,0.2,0.3,0.3,0.4c0.1,0.1,0.3,0.1,0.6,0.1c0.4,0,0.8-0.2,1.3-0.5l0.3,0.7
		c-0.6,0.4-1.2,0.7-1.8,0.7c-0.6,0-1.1-0.2-1.4-0.6c-0.3-0.4-0.4-1-0.4-1.8c0-0.3,0-0.7,0-1.2c0-0.5,0.1-1.1,0.1-1.7h-1.4v-0.8h1.4
		L120.4,394.3z"/>
	<path d="M125.6,396.6c0.5-0.6,1.2-0.8,2.1-0.8c0.7,0,1.3,0.2,1.7,0.6s0.6,1,0.6,1.8v3.7h-0.9v-0.7c-0.6,0.5-1.3,0.8-2.1,0.8
		c-0.3,0-0.6,0-0.8-0.1c-0.2-0.1-0.5-0.2-0.6-0.4s-0.3-0.3-0.4-0.5s-0.1-0.4-0.1-0.6c0-0.6,0.3-1.1,0.8-1.4c0.5-0.3,1.3-0.5,2.2-0.6
		h1.1v-0.2c0-0.6-0.1-1-0.4-1.2c-0.2-0.2-0.6-0.4-1.2-0.4c-0.6,0-1.2,0.2-1.6,0.7L125.6,396.6z M129.2,399H129c-0.1,0-0.2,0-0.3,0
		c-0.1,0-0.2,0-0.3,0c-0.5,0-0.9,0-1.2,0.1c-0.3,0.1-0.5,0.2-0.7,0.3c-0.2,0.1-0.3,0.2-0.4,0.4c-0.1,0.1-0.1,0.3-0.1,0.5
		c0,0.3,0.1,0.5,0.4,0.7s0.5,0.3,0.9,0.3c0.3,0,0.5,0,0.7-0.1c0.2-0.1,0.4-0.2,0.5-0.3c0.2-0.1,0.3-0.2,0.4-0.4s0.2-0.2,0.2-0.3
		c0.1-0.2,0.1-0.4,0.1-0.7V399z"/>
	<path d="M131.8,401.8v-5.9h0.9v1.1c0.2-0.4,0.5-0.7,0.9-0.9c0.4-0.2,0.7-0.3,1.1-0.3c0.3,0,0.5,0,0.7,0.1c0.2,0.1,0.4,0.2,0.6,0.4
		c0.2,0.2,0.3,0.5,0.4,0.8s0.1,0.7,0.1,1.1v3.6h-0.9v-3.6c0-0.6-0.1-1.1-0.3-1.3c-0.2-0.3-0.5-0.4-0.8-0.4c-0.2,0-0.4,0-0.6,0.1
		c-0.2,0.1-0.4,0.2-0.6,0.4c-0.2,0.2-0.3,0.4-0.4,0.6c-0.1,0.2-0.2,0.5-0.2,0.8v3.4H131.8z"/>
	<path d="M138.8,395.9h2.4v5.2h1.4v0.8h-3.8V401h1.5v-4.4h-1.4V395.9z M140.2,393.5c0.1-0.1,0.3-0.2,0.5-0.2c0.2,0,0.3,0.1,0.5,0.2
		s0.2,0.3,0.2,0.5c0,0.2-0.1,0.3-0.2,0.5s-0.3,0.2-0.5,0.2c-0.2,0-0.3-0.1-0.5-0.2s-0.2-0.3-0.2-0.5
		C140,393.8,140.1,393.6,140.2,393.5z"/>
	<path d="M4.2,417.5c-0.4,0-0.8-0.1-1.2-0.3c-0.4-0.2-0.7-0.5-0.9-0.9c-0.3-0.4-0.5-0.8-0.6-1.3s-0.2-1.1-0.2-1.7s0.1-1.2,0.2-1.7
		c0.1-0.5,0.3-0.9,0.6-1.3c0.3-0.4,0.6-0.6,0.9-0.8c0.4-0.2,0.8-0.3,1.2-0.3c0.4,0,0.7,0.1,1.1,0.2c0.3,0.2,0.6,0.4,0.9,0.7
		c0.3,0.3,0.5,0.8,0.6,1.3C7,412,7,412.6,7,413.3c0,0.8-0.1,1.4-0.2,2s-0.4,1-0.6,1.3c-0.3,0.3-0.6,0.6-0.9,0.7
		C4.9,417.5,4.6,417.5,4.2,417.5z M2.9,415.9c0.4,0.5,0.9,0.7,1.3,0.7c0.2,0,0.5,0,0.7-0.1s0.4-0.3,0.6-0.5s0.3-0.6,0.4-1
		c0.1-0.4,0.2-1,0.2-1.6c0-0.6-0.1-1.2-0.2-1.6c-0.1-0.4-0.3-0.7-0.5-1c-0.2-0.2-0.4-0.4-0.6-0.5c-0.2-0.1-0.4-0.2-0.7-0.2
		c-0.3,0-0.5,0-0.7,0.1c-0.2,0.1-0.4,0.3-0.6,0.5c-0.2,0.2-0.4,0.6-0.5,1c-0.1,0.4-0.2,0.9-0.2,1.6c0,0.6,0.1,1.1,0.2,1.6
		C2.5,415.3,2.7,415.7,2.9,415.9z"/>
	<path d="M8.7,411.5h1l0,1.1c0.2-0.4,0.5-0.7,0.9-1c0.4-0.2,0.8-0.3,1.3-0.3c0.6,0,1.2,0.2,1.6,0.7l-0.4,0.9
		c-0.1-0.1-0.2-0.2-0.3-0.3c-0.1-0.1-0.2-0.2-0.3-0.2c-0.1-0.1-0.2-0.1-0.3-0.1c-0.1,0-0.2-0.1-0.4-0.1c-0.3,0-0.6,0.1-0.8,0.2
		s-0.5,0.3-0.7,0.5s-0.3,0.5-0.5,0.8c-0.1,0.3-0.2,0.6-0.2,0.9v2.9H8.7V411.5z"/>
	<path d="M18.3,411.8c0.4-0.4,0.9-0.5,1.5-0.5H20l0.1,0.8c-0.1,0-0.1,0-0.2,0c-0.1,0-0.1,0-0.2,0c-0.4,0-0.7,0.1-1,0.3
		c0.2,0.3,0.3,0.6,0.3,1c0,0.3-0.1,0.5-0.2,0.8c-0.1,0.2-0.3,0.5-0.5,0.7c-0.2,0.2-0.4,0.3-0.7,0.4c-0.3,0.1-0.5,0.2-0.8,0.2
		c-0.2,0-0.5,0-0.8-0.1c-0.3,0.3-0.4,0.5-0.4,0.7c0,0.1,0.1,0.3,0.3,0.3c0.2,0.1,0.4,0.1,0.7,0.1c0.2,0,0.3,0,0.5,0s0.3,0,0.5,0
		c0.4,0,0.7,0,1,0.1c0.3,0.1,0.5,0.2,0.7,0.3s0.3,0.3,0.4,0.5c0.1,0.2,0.1,0.4,0.1,0.6c0,0.2-0.1,0.5-0.2,0.7
		c-0.1,0.2-0.3,0.4-0.5,0.6c-0.2,0.2-0.5,0.3-0.9,0.4c-0.3,0.1-0.7,0.1-1.2,0.1c-0.5,0-0.9,0-1.2-0.1c-0.3-0.1-0.6-0.2-0.8-0.3
		c-0.2-0.1-0.4-0.3-0.5-0.4c-0.1-0.2-0.2-0.3-0.2-0.5c0-0.5,0.3-0.9,1-1.3c-0.3-0.2-0.5-0.4-0.5-0.8c0-0.4,0.2-0.7,0.7-1.1
		c-0.3-0.2-0.5-0.4-0.6-0.7c-0.2-0.3-0.2-0.6-0.2-0.9c0-0.3,0.1-0.6,0.2-0.8c0.1-0.3,0.3-0.5,0.5-0.7c0.2-0.2,0.4-0.3,0.7-0.4
		c0.3-0.1,0.5-0.2,0.8-0.2C17.5,411.3,17.9,411.5,18.3,411.8z M16,417.1c-0.5,0.3-0.7,0.6-0.7,0.9c0,0.2,0,0.3,0.1,0.4
		c0.1,0.1,0.2,0.2,0.4,0.3c0.2,0.1,0.4,0.1,0.6,0.2s0.5,0.1,0.7,0.1c0.5,0,1-0.1,1.3-0.3c0.3-0.2,0.5-0.4,0.5-0.8
		c0-0.2-0.1-0.4-0.3-0.5c-0.2-0.1-0.5-0.2-0.8-0.2c0,0-0.1,0-0.1,0s-0.1,0-0.1,0c-0.3,0-0.6,0-0.9,0C16.4,417.1,16.2,417.1,16,417.1
		z M15.9,412.4c-0.1,0.1-0.2,0.3-0.3,0.4c-0.1,0.2-0.1,0.3-0.1,0.5s0,0.3,0.1,0.5c0.1,0.2,0.2,0.3,0.3,0.4c0.1,0.1,0.3,0.2,0.4,0.3
		c0.2,0.1,0.3,0.1,0.5,0.1c0.2,0,0.4,0,0.5-0.1c0.2-0.1,0.3-0.2,0.4-0.3c0.1-0.1,0.2-0.3,0.3-0.4c0.1-0.2,0.1-0.3,0.1-0.5
		s0-0.3-0.1-0.5s-0.2-0.3-0.3-0.4c-0.1-0.1-0.3-0.2-0.4-0.3c-0.2-0.1-0.3-0.1-0.5-0.1C16.5,412,16.2,412.1,15.9,412.4z"/>
	<path d="M21.6,412.2c0.5-0.6,1.2-0.8,2.1-0.8c0.7,0,1.3,0.2,1.7,0.6c0.4,0.4,0.6,1,0.6,1.8v3.7h-0.9v-0.6c-0.6,0.5-1.3,0.8-2.1,0.8
		c-0.3,0-0.6,0-0.8-0.1c-0.2-0.1-0.5-0.2-0.6-0.4s-0.3-0.3-0.4-0.5c-0.1-0.2-0.1-0.4-0.1-0.6c0-0.6,0.3-1.1,0.8-1.4
		c0.5-0.3,1.3-0.5,2.2-0.6h1.1v-0.2c0-0.6-0.1-1-0.4-1.2c-0.2-0.2-0.6-0.4-1.2-0.4c-0.6,0-1.2,0.2-1.6,0.7L21.6,412.2z M25.2,414.6
		H25c-0.1,0-0.2,0-0.3,0s-0.2,0-0.3,0c-0.5,0-0.9,0-1.2,0.1c-0.3,0.1-0.5,0.2-0.7,0.3s-0.3,0.2-0.4,0.4s-0.1,0.3-0.1,0.5
		c0,0.3,0.1,0.5,0.4,0.7c0.2,0.2,0.5,0.3,0.9,0.3c0.3,0,0.5,0,0.7-0.1c0.2-0.1,0.4-0.2,0.5-0.3c0.2-0.1,0.3-0.2,0.4-0.4
		c0.1-0.1,0.2-0.2,0.2-0.3c0.1-0.2,0.1-0.4,0.1-0.7V414.6z"/>
	<path d="M27.8,417.4v-5.9h0.9v1.1c0.2-0.4,0.5-0.7,0.9-0.9c0.4-0.2,0.7-0.3,1.1-0.3c0.3,0,0.5,0,0.7,0.1c0.2,0.1,0.4,0.2,0.6,0.4
		c0.2,0.2,0.3,0.5,0.4,0.8c0.1,0.3,0.1,0.7,0.1,1.1v3.6h-0.9v-3.6c0-0.6-0.1-1.1-0.3-1.3c-0.2-0.3-0.5-0.4-0.8-0.4
		c-0.2,0-0.4,0-0.6,0.1c-0.2,0.1-0.4,0.2-0.6,0.4c-0.2,0.2-0.3,0.4-0.4,0.6c-0.1,0.2-0.2,0.5-0.2,0.8v3.4H27.8z"/>
	<path d="M34.8,411.5h2.4v5.2h1.4v0.8h-3.8v-0.8h1.5v-4.4h-1.4V411.5z M36.2,409.1c0.1-0.1,0.3-0.2,0.5-0.2c0.2,0,0.3,0.1,0.5,0.2
		s0.2,0.3,0.2,0.5s-0.1,0.3-0.2,0.5c-0.1,0.1-0.3,0.2-0.5,0.2c-0.2,0-0.3-0.1-0.5-0.2c-0.1-0.1-0.2-0.3-0.2-0.5
		C36,409.4,36.1,409.2,36.2,409.1z"/>
	<path d="M40.8,411.5h4.6v0.6l-3.6,4.5h3.5c0.1,0,0.1,0,0.2,0s0.1,0,0.2,0v0.9h-5.2v-0.6l3.7-4.5h-3.4V411.5z"/>
	<path d="M47.6,412.2c0.5-0.6,1.2-0.8,2.1-0.8c0.7,0,1.3,0.2,1.7,0.6c0.4,0.4,0.6,1,0.6,1.8v3.7h-0.9v-0.6c-0.6,0.5-1.3,0.8-2.1,0.8
		c-0.3,0-0.6,0-0.8-0.1c-0.2-0.1-0.5-0.2-0.6-0.4s-0.3-0.3-0.4-0.5c-0.1-0.2-0.1-0.4-0.1-0.6c0-0.6,0.3-1.1,0.8-1.4
		c0.5-0.3,1.3-0.5,2.2-0.6h1.1v-0.2c0-0.6-0.1-1-0.4-1.2c-0.2-0.2-0.6-0.4-1.2-0.4c-0.6,0-1.2,0.2-1.6,0.7L47.6,412.2z M51.2,414.6
		H51c-0.1,0-0.2,0-0.3,0s-0.2,0-0.3,0c-0.5,0-0.9,0-1.2,0.1c-0.3,0.1-0.5,0.2-0.7,0.3s-0.3,0.2-0.4,0.4s-0.1,0.3-0.1,0.5
		c0,0.3,0.1,0.5,0.4,0.7c0.2,0.2,0.5,0.3,0.9,0.3c0.3,0,0.5,0,0.7-0.1c0.2-0.1,0.4-0.2,0.5-0.3c0.2-0.1,0.3-0.2,0.4-0.4
		c0.1-0.1,0.2-0.2,0.2-0.3c0.1-0.2,0.1-0.4,0.1-0.7V414.6z"/>
	<path d="M55.4,409.9l1-0.2c0,0.1,0,0.1,0,0.2c0,0.1,0,0.1,0,0.1l-0.2,1.4h1.9v0.8h-1.9c-0.1,0.8-0.1,1.5-0.1,2.2c0,0.4,0,0.8,0,1.1
		c0,0.3,0.1,0.5,0.1,0.7c0.1,0.2,0.2,0.3,0.3,0.4c0.1,0.1,0.3,0.1,0.6,0.1c0.4,0,0.8-0.2,1.3-0.5l0.3,0.7c-0.6,0.4-1.2,0.7-1.8,0.7
		c-0.6,0-1.1-0.2-1.4-0.6s-0.4-1-0.4-1.8c0-0.3,0-0.7,0-1.2c0-0.5,0.1-1.1,0.1-1.7h-1.4v-0.8h1.4L55.4,409.9z"/>
	<path d="M60.8,411.5h2.4v5.2h1.4v0.8h-3.8v-0.8h1.5v-4.4h-1.4V411.5z M62.2,409.1c0.1-0.1,0.3-0.2,0.5-0.2c0.2,0,0.3,0.1,0.5,0.2
		s0.2,0.3,0.2,0.5s-0.1,0.3-0.2,0.5c-0.1,0.1-0.3,0.2-0.5,0.2c-0.2,0-0.3-0.1-0.5-0.2c-0.1-0.1-0.2-0.3-0.2-0.5
		C62,409.4,62.1,409.2,62.2,409.1z"/>
	<path d="M69.2,411.3c0.4,0,0.7,0.1,1,0.2c0.3,0.1,0.6,0.3,0.9,0.6s0.4,0.6,0.6,1s0.2,0.8,0.2,1.3c0,0.5-0.1,0.9-0.2,1.3
		c-0.1,0.4-0.3,0.7-0.6,1c-0.2,0.3-0.5,0.5-0.9,0.6c-0.3,0.1-0.7,0.2-1.1,0.2c-0.4,0-0.7-0.1-1.1-0.2c-0.3-0.2-0.6-0.4-0.9-0.6
		c-0.3-0.3-0.5-0.6-0.6-1c-0.1-0.4-0.2-0.8-0.2-1.2s0.1-0.9,0.2-1.2c0.2-0.4,0.4-0.7,0.6-1c0.3-0.3,0.6-0.5,0.9-0.7
		S68.8,411.3,69.2,411.3z M71,414.5c0-0.4,0-0.7-0.1-1c-0.1-0.3-0.2-0.5-0.4-0.7s-0.4-0.4-0.6-0.5c-0.2-0.1-0.4-0.2-0.7-0.2
		c-0.2,0-0.5,0.1-0.7,0.2c-0.2,0.1-0.4,0.3-0.6,0.5c-0.2,0.2-0.3,0.4-0.4,0.7c-0.1,0.3-0.1,0.6-0.1,1c0,0.3,0,0.7,0.1,0.9
		c0.1,0.3,0.2,0.5,0.4,0.7c0.2,0.2,0.3,0.4,0.6,0.5c0.2,0.1,0.4,0.2,0.7,0.2s0.5,0,0.7-0.1c0.2-0.1,0.4-0.2,0.6-0.4
		c0.2-0.2,0.3-0.4,0.4-0.7C70.9,415.1,71,414.8,71,414.5z"/>
	<path d="M73.3,417.4v-5.9h0.9v1.1c0.2-0.4,0.5-0.7,0.9-0.9c0.4-0.2,0.7-0.3,1.1-0.3c0.3,0,0.5,0,0.7,0.1c0.2,0.1,0.4,0.2,0.6,0.4
		c0.2,0.2,0.3,0.5,0.4,0.8c0.1,0.3,0.1,0.7,0.1,1.1v3.6h-0.9v-3.6c0-0.6-0.1-1.1-0.3-1.3c-0.2-0.3-0.5-0.4-0.8-0.4
		c-0.2,0-0.4,0-0.6,0.1c-0.2,0.1-0.4,0.2-0.6,0.4c-0.2,0.2-0.3,0.4-0.4,0.6c-0.1,0.2-0.2,0.5-0.2,0.8v3.4H73.3z"/>
	<path d="M82.6,412.1c0.2,0.2,0.2,0.3,0.2,0.5s-0.1,0.4-0.2,0.5c-0.2,0.1-0.3,0.2-0.5,0.2c-0.2,0-0.4-0.1-0.5-0.2
		c-0.2-0.1-0.2-0.3-0.2-0.5c0-0.2,0.1-0.4,0.2-0.5c0.2-0.1,0.3-0.2,0.5-0.2C82.2,411.9,82.4,412,82.6,412.1z M82.6,416.3
		c0.2,0.2,0.2,0.3,0.2,0.5s-0.1,0.4-0.2,0.5c-0.2,0.1-0.3,0.2-0.6,0.2c-0.2,0-0.4-0.1-0.5-0.2c-0.1-0.1-0.2-0.3-0.2-0.5
		s0.1-0.4,0.2-0.5c0.2-0.1,0.3-0.2,0.5-0.2C82.2,416,82.4,416.1,82.6,416.3z"/>
	<path d="M92.6,409.3h1c0,0,0,0,0,0c0,0,0,0.1-0.1,0.2c0,0.1-0.1,0.1-0.1,0.2v4.9c0,0.5,0,0.8,0.1,1c0.1,0.2,0.2,0.5,0.4,0.6
		c0.2,0.2,0.3,0.3,0.6,0.4s0.4,0.1,0.7,0.1c0.2,0,0.5-0.1,0.7-0.1c0.2-0.1,0.4-0.2,0.6-0.4c0.2-0.2,0.3-0.4,0.4-0.6s0.1-0.6,0.1-1.1
		v-5.3h0.9v5.3c0,0.5-0.1,1-0.2,1.3c-0.1,0.4-0.3,0.7-0.5,0.9c-0.2,0.2-0.5,0.4-0.8,0.5c-0.3,0.1-0.7,0.2-1.1,0.2
		c-0.4,0-0.7-0.1-1.1-0.2c-0.3-0.1-0.6-0.3-0.8-0.5c-0.2-0.2-0.4-0.5-0.5-0.9s-0.2-0.8-0.2-1.4V409.3z"/>
	<path d="M98.9,417.4v-5.9h0.9v0.6c0.1-0.2,0.3-0.4,0.5-0.5c0.2-0.1,0.4-0.2,0.7-0.2c0.3,0,0.5,0.1,0.7,0.2c0.2,0.2,0.3,0.4,0.4,0.6
		c0.1-0.3,0.3-0.5,0.5-0.6c0.2-0.2,0.5-0.2,0.8-0.2c0.4,0,0.7,0.1,0.9,0.4c0.2,0.3,0.3,0.7,0.3,1.1v4.6h-0.9v-4.2c0-0.3,0-0.5,0-0.6
		c0-0.2-0.1-0.3-0.1-0.4c-0.1-0.1-0.1-0.1-0.2-0.2c-0.1,0-0.1,0-0.2,0c-0.1,0-0.2,0-0.3,0.1c-0.1,0.1-0.2,0.2-0.3,0.3
		c-0.1,0.1-0.2,0.3-0.2,0.5c-0.1,0.2-0.1,0.3-0.1,0.5v3.9h-0.9v-4.1c0-0.5,0-0.8-0.1-1c-0.1-0.2-0.2-0.2-0.5-0.2
		c-0.2,0-0.4,0.1-0.6,0.4s-0.3,0.6-0.3,1v4H98.9z"/>
	<path d="M105.4,417.4v-5.9h0.9v0.6c0.1-0.2,0.3-0.4,0.5-0.5c0.2-0.1,0.4-0.2,0.7-0.2c0.3,0,0.5,0.1,0.7,0.2
		c0.2,0.2,0.3,0.4,0.4,0.6c0.1-0.3,0.3-0.5,0.5-0.6c0.2-0.2,0.5-0.2,0.8-0.2c0.4,0,0.7,0.1,0.9,0.4c0.2,0.3,0.3,0.7,0.3,1.1v4.6
		h-0.9v-4.2c0-0.3,0-0.5,0-0.6c0-0.2-0.1-0.3-0.1-0.4c-0.1-0.1-0.1-0.1-0.2-0.2c-0.1,0-0.1,0-0.2,0c-0.1,0-0.2,0-0.3,0.1
		c-0.1,0.1-0.2,0.2-0.3,0.3c-0.1,0.1-0.2,0.3-0.2,0.5c-0.1,0.2-0.1,0.3-0.1,0.5v3.9h-0.9v-4.1c0-0.5,0-0.8-0.1-1
		c-0.1-0.2-0.2-0.2-0.5-0.2c-0.2,0-0.4,0.1-0.6,0.4s-0.3,0.6-0.3,1v4H105.4z"/>
	<path d="M112.6,412.2c0.5-0.6,1.2-0.8,2.1-0.8c0.7,0,1.3,0.2,1.7,0.6c0.4,0.4,0.6,1,0.6,1.8v3.7h-0.9v-0.6
		c-0.6,0.5-1.3,0.8-2.1,0.8c-0.3,0-0.6,0-0.8-0.1c-0.2-0.1-0.5-0.2-0.6-0.4s-0.3-0.3-0.4-0.5c-0.1-0.2-0.1-0.4-0.1-0.6
		c0-0.6,0.3-1.1,0.8-1.4c0.5-0.3,1.3-0.5,2.2-0.6h1.1v-0.2c0-0.6-0.1-1-0.4-1.2c-0.2-0.2-0.6-0.4-1.2-0.4c-0.6,0-1.2,0.2-1.6,0.7
		L112.6,412.2z M116.2,414.6H116c-0.1,0-0.2,0-0.3,0s-0.2,0-0.3,0c-0.5,0-0.9,0-1.2,0.1c-0.3,0.1-0.5,0.2-0.7,0.3s-0.3,0.2-0.4,0.4
		s-0.1,0.3-0.1,0.5c0,0.3,0.1,0.5,0.4,0.7c0.2,0.2,0.5,0.3,0.9,0.3c0.3,0,0.5,0,0.7-0.1c0.2-0.1,0.4-0.2,0.5-0.3
		c0.2-0.1,0.3-0.2,0.4-0.4c0.1-0.1,0.2-0.2,0.2-0.3c0.1-0.2,0.1-0.4,0.1-0.7V414.6z"/>
	<path d="M120.4,409.9l1-0.2c0,0.1,0,0.1,0,0.2c0,0.1,0,0.1,0,0.1l-0.2,1.4h1.9v0.8h-1.9c-0.1,0.8-0.1,1.5-0.1,2.2
		c0,0.4,0,0.8,0,1.1c0,0.3,0.1,0.5,0.1,0.7c0.1,0.2,0.2,0.3,0.3,0.4c0.1,0.1,0.3,0.1,0.6,0.1c0.4,0,0.8-0.2,1.3-0.5l0.3,0.7
		c-0.6,0.4-1.2,0.7-1.8,0.7c-0.6,0-1.1-0.2-1.4-0.6s-0.4-1-0.4-1.8c0-0.3,0-0.7,0-1.2c0-0.5,0.1-1.1,0.1-1.7h-1.4v-0.8h1.4
		L120.4,409.9z"/>
	<path d="M1.7,440.5h2.6c0.5,0,0.8,0.1,1.2,0.2c0.3,0.1,0.6,0.3,0.8,0.5c0.2,0.2,0.4,0.5,0.5,0.7s0.2,0.6,0.2,0.9
		c0,0.3-0.1,0.6-0.2,0.9s-0.2,0.5-0.4,0.7c-0.2,0.2-0.4,0.4-0.8,0.5C5.2,445,4.8,445,4.3,445H2.6v3.6H1.7V440.5z M2.6,441.4v2.9h1.6
		c0.6,0,1-0.1,1.3-0.4s0.4-0.6,0.4-1c0-0.2-0.1-0.4-0.1-0.6s-0.2-0.3-0.3-0.5c-0.1-0.1-0.3-0.2-0.5-0.3c-0.2-0.1-0.4-0.1-0.7-0.1
		H2.6z"/>
	<path d="M8.5,440h2.6v7.9h1.7v0.8H8.4v-0.8h1.8v-7.1H8.5V440z"/>
	<path d="M15.1,443.4c0.5-0.6,1.2-0.8,2.1-0.8c0.7,0,1.3,0.2,1.7,0.6c0.4,0.4,0.6,1,0.6,1.8v3.7h-0.9v-0.6c-0.6,0.5-1.3,0.8-2.1,0.8
		c-0.3,0-0.6,0-0.8-0.1c-0.2-0.1-0.5-0.2-0.6-0.4c-0.2-0.2-0.3-0.3-0.4-0.5c-0.1-0.2-0.1-0.4-0.1-0.6c0-0.6,0.3-1.1,0.8-1.4
		c0.5-0.3,1.3-0.5,2.2-0.6h1.1v-0.2c0-0.6-0.1-1-0.4-1.2c-0.2-0.2-0.6-0.4-1.2-0.4c-0.6,0-1.2,0.2-1.6,0.7L15.1,443.4z M18.7,445.8
		h-0.2c-0.1,0-0.2,0-0.3,0c-0.1,0-0.2,0-0.3,0c-0.5,0-0.9,0-1.2,0.1c-0.3,0.1-0.5,0.2-0.7,0.3c-0.2,0.1-0.3,0.2-0.4,0.4
		c-0.1,0.1-0.1,0.3-0.1,0.5c0,0.3,0.1,0.5,0.4,0.7c0.2,0.2,0.5,0.3,0.9,0.3c0.3,0,0.5,0,0.7-0.1s0.4-0.2,0.5-0.3
		c0.2-0.1,0.3-0.2,0.4-0.4s0.2-0.2,0.2-0.3c0.1-0.2,0.1-0.4,0.1-0.7V445.8z"/>
	<path d="M26.4,443.6l-0.7,0.8c0,0-0.1-0.1-0.1-0.1c0,0,0-0.1,0-0.1c0-0.1,0-0.1-0.1-0.2c-0.1-0.1-0.2-0.2-0.3-0.3
		c-0.3-0.2-0.7-0.4-1.2-0.4c-0.3,0-0.5,0.1-0.7,0.2c-0.2,0.1-0.4,0.3-0.6,0.4c-0.2,0.2-0.3,0.4-0.4,0.7c-0.1,0.3-0.2,0.6-0.2,0.9
		c0,0.3,0.1,0.6,0.2,0.9c0.1,0.3,0.2,0.5,0.4,0.7c0.2,0.2,0.4,0.4,0.7,0.5c0.3,0.1,0.5,0.2,0.8,0.2c0.6,0,1.1-0.2,1.6-0.7l0.5,0.6
		c-0.6,0.6-1.3,0.9-2.2,0.9c-0.4,0-0.8-0.1-1.2-0.2c-0.4-0.2-0.7-0.4-0.9-0.7s-0.5-0.6-0.6-1c-0.1-0.4-0.2-0.8-0.2-1.2
		c0-0.4,0.1-0.9,0.2-1.2c0.1-0.4,0.4-0.7,0.6-1s0.6-0.5,0.9-0.6c0.4-0.2,0.8-0.2,1.2-0.2c0.5,0,0.9,0.1,1.3,0.3
		C25.8,443,26.1,443.3,26.4,443.6z"/>
	<path d="M30.3,442.5c0.3,0,0.6,0.1,0.9,0.2c0.3,0.1,0.6,0.3,0.8,0.5c0.2,0.2,0.4,0.5,0.5,0.9s0.2,0.8,0.2,1.3c0,0.1,0,0.1,0,0.2
		c0,0.1,0,0.1,0,0.2h-4.2c0,0.4,0.1,0.8,0.2,1c0.1,0.3,0.3,0.5,0.5,0.7c0.2,0.2,0.4,0.3,0.6,0.4c0.2,0.1,0.5,0.1,0.7,0.1
		c0.6,0,1.1-0.2,1.5-0.7l0.5,0.5c-0.5,0.6-1.2,0.9-2.1,0.9c-0.4,0-0.8-0.1-1.2-0.2c-0.4-0.1-0.7-0.3-0.9-0.6c-0.3-0.3-0.4-0.6-0.6-1
		c-0.1-0.4-0.2-0.8-0.2-1.3c0-0.5,0.1-0.9,0.2-1.3s0.3-0.7,0.6-1s0.5-0.5,0.9-0.6C29.5,442.6,29.9,442.5,30.3,442.5z M28.5,445h3.3
		c0,0,0-0.1,0-0.1c0,0,0-0.1,0-0.1c0-0.2,0-0.4-0.1-0.6c-0.1-0.2-0.2-0.4-0.3-0.5s-0.3-0.3-0.5-0.3c-0.2-0.1-0.4-0.1-0.6-0.1
		c-0.4,0-0.8,0.1-1.1,0.4C28.8,443.9,28.6,444.4,28.5,445z"/>
	<path d="M43.2,442.5c0.4,0,0.7,0.1,1,0.2c0.3,0.1,0.6,0.3,0.9,0.6c0.2,0.3,0.4,0.6,0.6,1c0.1,0.4,0.2,0.8,0.2,1.3
		c0,0.5-0.1,0.9-0.2,1.3s-0.3,0.7-0.6,1c-0.2,0.3-0.5,0.5-0.9,0.6c-0.3,0.1-0.7,0.2-1.1,0.2c-0.4,0-0.7-0.1-1.1-0.2
		c-0.3-0.2-0.6-0.4-0.9-0.6s-0.5-0.6-0.6-1c-0.1-0.4-0.2-0.8-0.2-1.2c0-0.4,0.1-0.9,0.2-1.2c0.2-0.4,0.4-0.7,0.6-1s0.6-0.5,0.9-0.7
		C42.5,442.6,42.8,442.5,43.2,442.5z M45,445.7c0-0.4,0-0.7-0.1-1c-0.1-0.3-0.2-0.5-0.4-0.7s-0.4-0.4-0.6-0.5
		c-0.2-0.1-0.4-0.2-0.7-0.2c-0.2,0-0.5,0.1-0.7,0.2s-0.4,0.3-0.6,0.5c-0.2,0.2-0.3,0.4-0.4,0.7s-0.1,0.6-0.1,1c0,0.3,0,0.7,0.1,0.9
		s0.2,0.5,0.4,0.7c0.2,0.2,0.3,0.4,0.6,0.5c0.2,0.1,0.4,0.2,0.7,0.2s0.5-0.1,0.7-0.2c0.2-0.1,0.4-0.2,0.6-0.4
		c0.2-0.2,0.3-0.4,0.4-0.7C44.9,446.3,45,446,45,445.7z"/>
	<path d="M50.9,439.9c0.8,0,1.4,0.3,1.8,0.8l-0.4,0.9c-0.1,0-0.1,0-0.1-0.1s0-0.1,0-0.2c-0.1-0.2-0.3-0.4-0.6-0.5s-0.5-0.2-0.7-0.2
		c-0.2,0-0.4,0-0.6,0.1s-0.3,0.2-0.4,0.3s-0.2,0.3-0.3,0.6s-0.1,0.6-0.1,0.9v0.5h2v0.8h-2v4.8h-0.9v-4.8h-1.3V443h1.3v-0.6
		c0-0.5,0.1-0.9,0.2-1.2c0.1-0.3,0.3-0.6,0.5-0.8c0.2-0.2,0.5-0.3,0.8-0.4C50.2,439.9,50.5,439.9,50.9,439.9z"/>
	<path d="M64.2,443.5V440h1c0,0.1,0,0.1-0.1,0.2c0,0.1-0.1,0.1-0.1,0.2l0,7.7c0,0.2,0,0.4,0.1,0.5h-0.9c0-0.1-0.1-0.3-0.1-0.4v-0.5
		c-0.2,0.3-0.4,0.6-0.8,0.8c-0.3,0.2-0.7,0.3-1,0.3c-0.3,0-0.6-0.1-0.9-0.2c-0.3-0.1-0.5-0.3-0.8-0.6c-0.2-0.3-0.4-0.6-0.5-1
		c-0.1-0.4-0.2-0.9-0.2-1.4c0-0.5,0.1-1,0.2-1.4c0.1-0.4,0.3-0.7,0.6-0.9c0.2-0.2,0.5-0.4,0.8-0.5c0.3-0.1,0.6-0.2,0.9-0.2
		c0.4,0,0.8,0.1,1.1,0.3C63.9,443,64.1,443.2,64.2,443.5z M61.5,443.7c-0.4,0.3-0.6,0.9-0.6,1.7c0,0.7,0.1,1.3,0.4,1.8
		c0.3,0.5,0.7,0.7,1.2,0.7c0.1,0,0.3,0,0.4-0.1c0.1,0,0.3-0.1,0.4-0.2s0.2-0.2,0.3-0.3c0.1-0.1,0.2-0.3,0.2-0.4
		c0.1-0.3,0.1-0.7,0.1-1.3c0-0.3,0-0.6,0-0.8c0-0.2-0.1-0.4-0.1-0.6c-0.1-0.2-0.1-0.3-0.2-0.4c-0.1-0.1-0.2-0.2-0.3-0.3
		c-0.2-0.1-0.3-0.2-0.4-0.2s-0.3-0.1-0.4-0.1c-0.2,0-0.5,0-0.6,0.1C61.8,443.4,61.7,443.5,61.5,443.7z"/>
	<path d="M69.3,442.5c0.3,0,0.6,0.1,0.9,0.2c0.3,0.1,0.6,0.3,0.8,0.5c0.2,0.2,0.4,0.5,0.5,0.9s0.2,0.8,0.2,1.3c0,0.1,0,0.1,0,0.2
		c0,0.1,0,0.1,0,0.2h-4.2c0,0.4,0.1,0.8,0.2,1c0.1,0.3,0.3,0.5,0.5,0.7c0.2,0.2,0.4,0.3,0.6,0.4c0.2,0.1,0.5,0.1,0.7,0.1
		c0.6,0,1.1-0.2,1.5-0.7l0.5,0.5c-0.5,0.6-1.2,0.9-2.1,0.9c-0.4,0-0.8-0.1-1.2-0.2c-0.4-0.1-0.7-0.3-0.9-0.6c-0.3-0.3-0.4-0.6-0.6-1
		c-0.1-0.4-0.2-0.8-0.2-1.3c0-0.5,0.1-0.9,0.2-1.3s0.3-0.7,0.6-1s0.5-0.5,0.9-0.6C68.5,442.6,68.9,442.5,69.3,442.5z M67.5,445h3.3
		c0,0,0-0.1,0-0.1c0,0,0-0.1,0-0.1c0-0.2,0-0.4-0.1-0.6c-0.1-0.2-0.2-0.4-0.3-0.5s-0.3-0.3-0.5-0.3c-0.2-0.1-0.4-0.1-0.6-0.1
		c-0.4,0-0.8,0.1-1.1,0.4C67.8,443.9,67.6,444.4,67.5,445z"/>
	<path d="M73.6,443.4c0.5-0.6,1.2-0.8,2.1-0.8c0.7,0,1.3,0.2,1.7,0.6c0.4,0.4,0.6,1,0.6,1.8v3.7h-0.9v-0.6c-0.6,0.5-1.3,0.8-2.1,0.8
		c-0.3,0-0.6,0-0.8-0.1c-0.2-0.1-0.5-0.2-0.6-0.4c-0.2-0.2-0.3-0.3-0.4-0.5c-0.1-0.2-0.1-0.4-0.1-0.6c0-0.6,0.3-1.1,0.8-1.4
		c0.5-0.3,1.3-0.5,2.2-0.6h1.1v-0.2c0-0.6-0.1-1-0.4-1.2c-0.2-0.2-0.6-0.4-1.2-0.4c-0.6,0-1.2,0.2-1.6,0.7L73.6,443.4z M77.2,445.8
		H77c-0.1,0-0.2,0-0.3,0c-0.1,0-0.2,0-0.3,0c-0.5,0-0.9,0-1.2,0.1c-0.3,0.1-0.5,0.2-0.7,0.3c-0.2,0.1-0.3,0.2-0.4,0.4
		c-0.1,0.1-0.1,0.3-0.1,0.5c0,0.3,0.1,0.5,0.4,0.7c0.2,0.2,0.5,0.3,0.9,0.3c0.3,0,0.5,0,0.7-0.1s0.4-0.2,0.5-0.3
		c0.2-0.1,0.3-0.2,0.4-0.4s0.2-0.2,0.2-0.3c0.1-0.2,0.1-0.4,0.1-0.7V445.8z"/>
	<path d="M81.4,441.1l1-0.2c0,0.1,0,0.1,0,0.2c0,0.1,0,0.1,0,0.1l-0.2,1.4h1.9v0.8h-1.9c-0.1,0.8-0.1,1.5-0.1,2.2c0,0.4,0,0.8,0,1.1
		c0,0.3,0.1,0.5,0.1,0.7c0.1,0.2,0.2,0.3,0.3,0.4c0.1,0.1,0.3,0.1,0.6,0.1c0.4,0,0.8-0.2,1.3-0.5l0.3,0.7c-0.6,0.4-1.2,0.7-1.8,0.7
		c-0.6,0-1.1-0.2-1.4-0.6c-0.3-0.4-0.4-1-0.4-1.8c0-0.3,0-0.7,0-1.2c0-0.5,0.1-1.1,0.1-1.7h-1.4v-0.8h1.4L81.4,441.1z"/>
	<path d="M86.3,448.6V440h1.1c0,0,0,0,0,0s0,0,0,0c0,0,0,0.1-0.1,0.1c0,0-0.1,0.1-0.1,0.2v3.4c0.2-0.4,0.5-0.7,0.9-0.9
		s0.7-0.3,1.1-0.3c0.3,0,0.5,0,0.7,0.1s0.4,0.2,0.6,0.4c0.2,0.2,0.3,0.5,0.4,0.8s0.1,0.7,0.1,1.1v3.6h-0.9V445
		c0-0.6-0.1-1.1-0.3-1.3c-0.2-0.3-0.5-0.4-0.8-0.4c-0.2,0-0.4,0-0.6,0.1s-0.4,0.2-0.6,0.4c-0.2,0.2-0.3,0.3-0.4,0.6
		s-0.1,0.5-0.1,0.8v3.4H86.3z"/>
	<path d="M95.6,443.3c0.2,0.2,0.2,0.3,0.2,0.5s-0.1,0.4-0.2,0.5c-0.2,0.1-0.3,0.2-0.5,0.2c-0.2,0-0.4-0.1-0.5-0.2
		c-0.2-0.1-0.2-0.3-0.2-0.5c0-0.2,0.1-0.4,0.2-0.5c0.2-0.1,0.3-0.2,0.5-0.2C95.2,443.1,95.4,443.2,95.6,443.3z M95.6,447.5
		c0.2,0.2,0.2,0.3,0.2,0.5c0,0.2-0.1,0.4-0.2,0.5c-0.2,0.1-0.3,0.2-0.6,0.2c-0.2,0-0.4-0.1-0.5-0.2s-0.2-0.3-0.2-0.5
		c0-0.2,0.1-0.4,0.2-0.5c0.2-0.1,0.3-0.2,0.5-0.2C95.2,447.2,95.4,447.3,95.6,447.5z"/>
	<path d="M105.7,440.5h2.6c0.5,0,0.8,0.1,1.2,0.2c0.3,0.1,0.6,0.3,0.8,0.5c0.2,0.2,0.4,0.5,0.5,0.7s0.2,0.6,0.2,0.9
		c0,0.3-0.1,0.6-0.2,0.9s-0.2,0.5-0.4,0.7c-0.2,0.2-0.4,0.4-0.8,0.5c-0.3,0.1-0.7,0.2-1.1,0.2h-1.7v3.6h-0.9V440.5z M106.6,441.4
		v2.9h1.6c0.6,0,1-0.1,1.3-0.4s0.4-0.6,0.4-1c0-0.2-0.1-0.4-0.1-0.6s-0.2-0.3-0.3-0.5c-0.1-0.1-0.3-0.2-0.5-0.3
		c-0.2-0.1-0.4-0.1-0.7-0.1H106.6z"/>
	<path d="M112.6,443.4c0.5-0.6,1.2-0.8,2.1-0.8c0.7,0,1.3,0.2,1.7,0.6c0.4,0.4,0.6,1,0.6,1.8v3.7h-0.9v-0.6
		c-0.6,0.5-1.3,0.8-2.1,0.8c-0.3,0-0.6,0-0.8-0.1c-0.2-0.1-0.5-0.2-0.6-0.4c-0.2-0.2-0.3-0.3-0.4-0.5c-0.1-0.2-0.1-0.4-0.1-0.6
		c0-0.6,0.3-1.1,0.8-1.4c0.5-0.3,1.3-0.5,2.2-0.6h1.1v-0.2c0-0.6-0.1-1-0.4-1.2c-0.2-0.2-0.6-0.4-1.2-0.4c-0.6,0-1.2,0.2-1.6,0.7
		L112.6,443.4z M116.2,445.8H116c-0.1,0-0.2,0-0.3,0c-0.1,0-0.2,0-0.3,0c-0.5,0-0.9,0-1.2,0.1c-0.3,0.1-0.5,0.2-0.7,0.3
		c-0.2,0.1-0.3,0.2-0.4,0.4c-0.1,0.1-0.1,0.3-0.1,0.5c0,0.3,0.1,0.5,0.4,0.7c0.2,0.2,0.5,0.3,0.9,0.3c0.3,0,0.5,0,0.7-0.1
		s0.4-0.2,0.5-0.3c0.2-0.1,0.3-0.2,0.4-0.4s0.2-0.2,0.2-0.3c0.1-0.2,0.1-0.4,0.1-0.7V445.8z"/>
	<path d="M118.8,440h1.1c0,0.1,0,0.1-0.1,0.2s-0.1,0.1-0.1,0.2v5.1l3-2.8c0.2,0,0.4,0.1,0.7,0.1h0.3l-2.5,2.4l2.9,3.5l-1.2,0.1
		l-2.4-3l-0.8,0.7v2.2h-0.9V440z"/>
	<path d="M125.8,442.7h2.4v5.2h1.4v0.8h-3.8v-0.8h1.5v-4.4h-1.4V442.7z M127.2,440.3c0.1-0.1,0.3-0.2,0.5-0.2c0.2,0,0.3,0.1,0.5,0.2
		c0.1,0.1,0.2,0.3,0.2,0.5c0,0.2-0.1,0.3-0.2,0.5c-0.1,0.1-0.3,0.2-0.5,0.2c-0.2,0-0.3-0.1-0.5-0.2c-0.1-0.1-0.2-0.3-0.2-0.5
		C127,440.6,127.1,440.4,127.2,440.3z"/>
	<path d="M136.5,443.4l-0.5,0.8c0,0-0.1,0-0.1-0.1s0-0.1,0-0.1c-0.2-0.2-0.4-0.4-0.7-0.6c-0.3-0.2-0.6-0.3-1-0.3
		c-0.2,0-0.3,0-0.5,0.1s-0.3,0.1-0.4,0.2c-0.1,0.1-0.2,0.2-0.3,0.3c-0.1,0.1-0.1,0.2-0.1,0.4c0,0.1,0,0.2,0.1,0.3s0.1,0.2,0.2,0.2
		c0.1,0.1,0.3,0.2,0.5,0.2c0.2,0.1,0.5,0.2,0.8,0.3c0.8,0.2,1.3,0.4,1.6,0.7c0.3,0.3,0.5,0.6,0.5,1c0,0.3-0.1,0.5-0.2,0.7
		c-0.1,0.2-0.3,0.4-0.5,0.6c-0.2,0.2-0.5,0.3-0.8,0.4s-0.6,0.1-1,0.1c-1,0-1.8-0.3-2.5-0.9l0.5-0.9c0,0,0,0.1,0.1,0.1s0,0.1,0.1,0.2
		s0.1,0.2,0.3,0.3c0.1,0.1,0.4,0.2,0.6,0.3c0.1,0.1,0.3,0.1,0.4,0.1c0.2,0,0.3,0,0.5,0c0.2,0,0.4,0,0.5-0.1s0.3-0.1,0.5-0.2
		s0.3-0.2,0.3-0.3c0.1-0.1,0.1-0.3,0.1-0.4c0-0.2-0.1-0.4-0.3-0.6c-0.2-0.2-0.6-0.3-1.2-0.5c-0.4-0.1-0.6-0.2-0.8-0.2
		c-0.3-0.1-0.5-0.2-0.7-0.3c-0.1-0.1-0.3-0.2-0.4-0.3s-0.2-0.3-0.3-0.4c-0.1-0.2-0.1-0.3-0.1-0.5c0-0.2,0.1-0.4,0.2-0.6
		c0.1-0.2,0.3-0.4,0.5-0.5c0.2-0.1,0.4-0.3,0.7-0.4c0.3-0.1,0.6-0.1,0.9-0.1C135.2,442.5,136,442.8,136.5,443.4z"/>
	<path d="M139.9,441.1l1-0.2c0,0.1,0,0.1,0,0.2c0,0.1,0,0.1,0,0.1l-0.2,1.4h1.9v0.8h-1.9c-0.1,0.8-0.1,1.5-0.1,2.2
		c0,0.4,0,0.8,0,1.1c0,0.3,0.1,0.5,0.1,0.7c0.1,0.2,0.2,0.3,0.3,0.4c0.1,0.1,0.3,0.1,0.6,0.1c0.4,0,0.8-0.2,1.3-0.5l0.3,0.7
		c-0.6,0.4-1.2,0.7-1.8,0.7c-0.6,0-1.1-0.2-1.4-0.6c-0.3-0.4-0.4-1-0.4-1.8c0-0.3,0-0.7,0-1.2c0-0.5,0.1-1.1,0.1-1.7h-1.4v-0.8h1.4
		L139.9,441.1z"/>
	<path d="M145.1,443.4c0.5-0.6,1.2-0.8,2.1-0.8c0.7,0,1.3,0.2,1.7,0.6c0.4,0.4,0.6,1,0.6,1.8v3.7h-0.9v-0.6
		c-0.6,0.5-1.3,0.8-2.1,0.8c-0.3,0-0.6,0-0.8-0.1c-0.2-0.1-0.5-0.2-0.6-0.4c-0.2-0.2-0.3-0.3-0.4-0.5c-0.1-0.2-0.1-0.4-0.1-0.6
		c0-0.6,0.3-1.1,0.8-1.4c0.5-0.3,1.3-0.5,2.2-0.6h1.1v-0.2c0-0.6-0.1-1-0.4-1.2c-0.2-0.2-0.6-0.4-1.2-0.4c-0.6,0-1.2,0.2-1.6,0.7
		L145.1,443.4z M148.7,445.8h-0.2c-0.1,0-0.2,0-0.3,0c-0.1,0-0.2,0-0.3,0c-0.5,0-0.9,0-1.2,0.1c-0.3,0.1-0.5,0.2-0.7,0.3
		c-0.2,0.1-0.3,0.2-0.4,0.4c-0.1,0.1-0.1,0.3-0.1,0.5c0,0.3,0.1,0.5,0.4,0.7c0.2,0.2,0.5,0.3,0.9,0.3c0.3,0,0.5,0,0.7-0.1
		s0.4-0.2,0.5-0.3c0.2-0.1,0.3-0.2,0.4-0.4s0.2-0.2,0.2-0.3c0.1-0.2,0.1-0.4,0.1-0.7V445.8z"/>
	<path d="M151.3,448.6v-5.9h0.9v1.1c0.2-0.4,0.5-0.7,0.9-0.9s0.7-0.3,1.1-0.3c0.3,0,0.5,0,0.7,0.1c0.2,0.1,0.4,0.2,0.6,0.4
		c0.2,0.2,0.3,0.5,0.4,0.8s0.1,0.7,0.1,1.1v3.6h-0.9V445c0-0.6-0.1-1.1-0.3-1.3c-0.2-0.3-0.5-0.4-0.8-0.4c-0.2,0-0.4,0-0.6,0.1
		s-0.4,0.2-0.6,0.4c-0.2,0.2-0.3,0.4-0.4,0.6c-0.1,0.2-0.2,0.5-0.2,0.8v3.4H151.3z"/>
	<path d="M6.1,457.9c0-0.1,0-0.2,0-0.2c-0.2-0.3-0.4-0.5-0.7-0.7s-0.6-0.2-0.9-0.2c-0.3,0-0.6,0.1-0.8,0.2c-0.3,0.2-0.5,0.4-0.7,0.7
		c-0.2,0.3-0.4,0.6-0.5,1.1s-0.2,0.9-0.2,1.4c0,0.5,0.1,1,0.2,1.4c0.1,0.4,0.3,0.8,0.5,1.1c0.2,0.3,0.4,0.5,0.7,0.7
		c0.3,0.2,0.6,0.2,0.9,0.2c0.3,0,0.6-0.1,0.9-0.3c0.3-0.2,0.5-0.4,0.7-0.7l0.7,0.4c-0.1,0.2-0.3,0.4-0.5,0.6
		c-0.2,0.2-0.4,0.3-0.6,0.4c-0.2,0.1-0.4,0.2-0.6,0.3s-0.4,0.1-0.6,0.1c-0.5,0-0.9-0.1-1.2-0.2c-0.4-0.2-0.7-0.4-1-0.7
		c-0.3-0.3-0.5-0.8-0.7-1.3s-0.2-1.1-0.2-1.9c0-0.8,0.1-1.5,0.3-2c0.2-0.5,0.4-1,0.8-1.3c0.3-0.3,0.6-0.5,1-0.7s0.7-0.2,1-0.2
		c0.3,0,0.5,0,0.8,0.1c0.3,0.1,0.5,0.2,0.7,0.3c0.2,0.1,0.4,0.3,0.6,0.5c0.2,0.2,0.3,0.4,0.4,0.7l-0.9,0.4
		C6.1,458,6.1,458,6.1,457.9z"/>
	<path d="M8.6,459c0.5-0.6,1.2-0.8,2.1-0.8c0.7,0,1.3,0.2,1.7,0.6c0.4,0.4,0.6,1,0.6,1.8v3.7h-0.9v-0.7c-0.6,0.5-1.3,0.8-2.1,0.8
		c-0.3,0-0.6,0-0.8-0.1c-0.2-0.1-0.5-0.2-0.6-0.4c-0.2-0.2-0.3-0.3-0.4-0.5S8,462.9,8,462.7c0-0.6,0.3-1.1,0.8-1.4
		c0.5-0.3,1.3-0.5,2.2-0.6h1.1v-0.2c0-0.6-0.1-1-0.4-1.2c-0.2-0.2-0.6-0.4-1.2-0.4c-0.6,0-1.2,0.2-1.6,0.7L8.6,459z M12.2,461.4H12
		c-0.1,0-0.2,0-0.3,0s-0.2,0-0.3,0c-0.5,0-0.9,0-1.2,0.1c-0.3,0.1-0.5,0.2-0.7,0.3c-0.2,0.1-0.3,0.2-0.4,0.4S9,462.4,9,462.6
		c0,0.3,0.1,0.5,0.4,0.7s0.5,0.3,0.9,0.3c0.3,0,0.5,0,0.7-0.1c0.2-0.1,0.4-0.2,0.5-0.3c0.2-0.1,0.3-0.2,0.4-0.4
		c0.1-0.1,0.2-0.2,0.2-0.3c0.1-0.2,0.1-0.4,0.1-0.7V461.4z"/>
	<path d="M14.7,458.3h0.9v3.3c0,0.4,0,0.7,0.1,1s0.2,0.5,0.3,0.6c0.1,0.2,0.3,0.3,0.4,0.3c0.2,0.1,0.3,0.1,0.5,0.1
		c0.2,0,0.4-0.1,0.6-0.2c0.2-0.1,0.4-0.2,0.5-0.4c0.2-0.2,0.3-0.4,0.4-0.6c0.1-0.3,0.1-0.6,0.1-0.9v-3.3h0.9v5.4
		c0,0.2,0,0.4,0.1,0.5h-1c0-0.1,0-0.1,0-0.2c0-0.1,0-0.2,0-0.3l0-0.5c-0.2,0.3-0.5,0.6-0.8,0.8c-0.3,0.2-0.7,0.3-1.1,0.3
		c-0.3,0-0.6-0.1-0.8-0.2c-0.2-0.1-0.5-0.3-0.7-0.5c-0.2-0.2-0.3-0.5-0.4-0.9c-0.1-0.3-0.1-0.8-0.1-1.2L14.7,458.3z"/>
	<path d="M26,459l-0.5,0.8c0,0-0.1,0-0.1-0.1s0-0.1,0-0.1c-0.2-0.2-0.4-0.4-0.7-0.6c-0.3-0.2-0.6-0.3-1-0.3c-0.2,0-0.3,0-0.5,0.1
		S23,459,22.9,459c-0.1,0.1-0.2,0.2-0.3,0.3s-0.1,0.2-0.1,0.4c0,0.1,0,0.2,0.1,0.3c0.1,0.1,0.1,0.2,0.2,0.2c0.1,0.1,0.3,0.2,0.5,0.2
		c0.2,0.1,0.5,0.2,0.8,0.3c0.8,0.2,1.3,0.4,1.6,0.7c0.3,0.3,0.5,0.6,0.5,1c0,0.3-0.1,0.5-0.2,0.7c-0.1,0.2-0.3,0.4-0.5,0.6
		c-0.2,0.2-0.5,0.3-0.8,0.4s-0.6,0.1-1,0.1c-1,0-1.8-0.3-2.5-0.9l0.5-0.9c0,0,0,0.1,0.1,0.1c0,0.1,0,0.1,0.1,0.2s0.1,0.2,0.3,0.3
		s0.4,0.2,0.6,0.3c0.1,0.1,0.3,0.1,0.4,0.1c0.2,0,0.3,0,0.5,0c0.2,0,0.4,0,0.5-0.1c0.2,0,0.3-0.1,0.5-0.2c0.1-0.1,0.3-0.2,0.3-0.3
		s0.1-0.3,0.1-0.4c0-0.2-0.1-0.4-0.3-0.6s-0.6-0.3-1.2-0.5c-0.4-0.1-0.6-0.2-0.8-0.2c-0.3-0.1-0.5-0.2-0.7-0.3
		c-0.1-0.1-0.3-0.2-0.4-0.3c-0.1-0.1-0.2-0.3-0.3-0.4c-0.1-0.2-0.1-0.3-0.1-0.5c0-0.2,0.1-0.4,0.2-0.6c0.1-0.2,0.3-0.4,0.5-0.5
		c0.2-0.1,0.4-0.3,0.7-0.4c0.3-0.1,0.6-0.1,0.9-0.1C24.7,458.1,25.5,458.4,26,459z"/>
	<path d="M30.3,458.1c0.3,0,0.6,0.1,0.9,0.2c0.3,0.1,0.6,0.3,0.8,0.5c0.2,0.2,0.4,0.5,0.5,0.9s0.2,0.8,0.2,1.3c0,0.1,0,0.1,0,0.2
		s0,0.1,0,0.2h-4.2c0,0.4,0.1,0.8,0.2,1c0.1,0.3,0.3,0.5,0.5,0.7c0.2,0.2,0.4,0.3,0.6,0.4c0.2,0.1,0.5,0.1,0.7,0.1
		c0.6,0,1.1-0.2,1.5-0.7l0.5,0.5c-0.5,0.6-1.2,0.9-2.1,0.9c-0.4,0-0.8-0.1-1.2-0.2c-0.4-0.1-0.7-0.3-0.9-0.6c-0.3-0.3-0.4-0.6-0.6-1
		c-0.1-0.4-0.2-0.8-0.2-1.3c0-0.5,0.1-0.9,0.2-1.3c0.1-0.4,0.3-0.7,0.6-1c0.2-0.3,0.5-0.5,0.9-0.6C29.5,458.2,29.9,458.1,30.3,458.1
		z M28.5,460.6h3.3c0,0,0-0.1,0-0.1s0-0.1,0-0.1c0-0.2,0-0.4-0.1-0.6c-0.1-0.2-0.2-0.4-0.3-0.5c-0.1-0.1-0.3-0.3-0.5-0.3
		c-0.2-0.1-0.4-0.1-0.6-0.1c-0.4,0-0.8,0.1-1.1,0.4C28.8,459.5,28.6,460,28.5,460.6z"/>
	<path d="M43.2,458.1c0.4,0,0.7,0.1,1,0.2c0.3,0.1,0.6,0.3,0.9,0.6s0.4,0.6,0.6,1s0.2,0.8,0.2,1.3c0,0.5-0.1,0.9-0.2,1.3
		c-0.1,0.4-0.3,0.7-0.6,1c-0.2,0.3-0.5,0.5-0.9,0.6c-0.3,0.1-0.7,0.2-1.1,0.2c-0.4,0-0.7-0.1-1.1-0.2s-0.6-0.4-0.9-0.6
		c-0.3-0.3-0.5-0.6-0.6-1c-0.1-0.4-0.2-0.8-0.2-1.2s0.1-0.9,0.2-1.2c0.2-0.4,0.4-0.7,0.6-1c0.3-0.3,0.6-0.5,0.9-0.6
		C42.5,458.2,42.8,458.1,43.2,458.1z M45,461.3c0-0.4,0-0.7-0.1-1c-0.1-0.3-0.2-0.5-0.4-0.7s-0.4-0.4-0.6-0.5
		c-0.2-0.1-0.4-0.2-0.7-0.2c-0.2,0-0.5,0.1-0.7,0.2c-0.2,0.1-0.4,0.3-0.6,0.5c-0.2,0.2-0.3,0.4-0.4,0.7c-0.1,0.3-0.1,0.6-0.1,1
		c0,0.3,0,0.7,0.1,0.9c0.1,0.3,0.2,0.5,0.4,0.7c0.2,0.2,0.3,0.4,0.6,0.5c0.2,0.1,0.4,0.2,0.7,0.2s0.5,0,0.7-0.1
		c0.2-0.1,0.4-0.2,0.6-0.4c0.2-0.2,0.3-0.4,0.4-0.7C44.9,461.9,45,461.6,45,461.3z"/>
	<path d="M50.9,455.5c0.8,0,1.4,0.3,1.8,0.8l-0.4,0.9c-0.1,0-0.1,0-0.1-0.1s0-0.1,0-0.2c-0.1-0.2-0.3-0.4-0.6-0.5
		c-0.2-0.1-0.5-0.2-0.7-0.2c-0.2,0-0.4,0-0.6,0.1c-0.2,0.1-0.3,0.2-0.4,0.3s-0.2,0.3-0.3,0.6s-0.1,0.6-0.1,0.9v0.5h2v0.8h-2v4.8
		h-0.9v-4.8h-1.3v-0.8h1.3V458c0-0.5,0.1-0.9,0.2-1.2c0.1-0.3,0.3-0.6,0.5-0.8c0.2-0.2,0.5-0.3,0.8-0.4S50.5,455.5,50.9,455.5z"/>
	<path d="M64.2,459.1v-3.6h1c0,0.1,0,0.1-0.1,0.2c0,0.1-0.1,0.1-0.1,0.2l0,7.7c0,0.2,0,0.4,0.1,0.5h-0.9c0-0.1-0.1-0.3-0.1-0.4v-0.5
		c-0.2,0.3-0.4,0.6-0.8,0.8c-0.3,0.2-0.7,0.3-1,0.3c-0.3,0-0.6-0.1-0.9-0.2s-0.5-0.3-0.8-0.6s-0.4-0.6-0.5-1
		c-0.1-0.4-0.2-0.9-0.2-1.4c0-0.5,0.1-1,0.2-1.4s0.3-0.7,0.6-0.9c0.2-0.2,0.5-0.4,0.8-0.5c0.3-0.1,0.6-0.2,0.9-0.2
		c0.4,0,0.8,0.1,1.1,0.3C63.9,458.6,64.1,458.8,64.2,459.1z M61.5,459.3c-0.4,0.3-0.6,0.9-0.6,1.7c0,0.7,0.1,1.3,0.4,1.8
		c0.3,0.5,0.7,0.7,1.2,0.7c0.1,0,0.3,0,0.4-0.1c0.1,0,0.3-0.1,0.4-0.2s0.2-0.2,0.3-0.3c0.1-0.1,0.2-0.3,0.2-0.4
		c0.1-0.3,0.1-0.7,0.1-1.3c0-0.3,0-0.6,0-0.8c0-0.2-0.1-0.4-0.1-0.6c-0.1-0.2-0.1-0.3-0.2-0.4c-0.1-0.1-0.2-0.2-0.3-0.3
		c-0.2-0.1-0.3-0.2-0.4-0.2s-0.3-0.1-0.4-0.1c-0.2,0-0.5,0-0.6,0.1C61.8,459,61.7,459.1,61.5,459.3z"/>
	<path d="M69.3,458.1c0.3,0,0.6,0.1,0.9,0.2c0.3,0.1,0.6,0.3,0.8,0.5c0.2,0.2,0.4,0.5,0.5,0.9s0.2,0.8,0.2,1.3c0,0.1,0,0.1,0,0.2
		s0,0.1,0,0.2h-4.2c0,0.4,0.1,0.8,0.2,1c0.1,0.3,0.3,0.5,0.5,0.7c0.2,0.2,0.4,0.3,0.6,0.4c0.2,0.1,0.5,0.1,0.7,0.1
		c0.6,0,1.1-0.2,1.5-0.7l0.5,0.5c-0.5,0.6-1.2,0.9-2.1,0.9c-0.4,0-0.8-0.1-1.2-0.2c-0.4-0.1-0.7-0.3-0.9-0.6c-0.3-0.3-0.4-0.6-0.6-1
		c-0.1-0.4-0.2-0.8-0.2-1.3c0-0.5,0.1-0.9,0.2-1.3c0.1-0.4,0.3-0.7,0.6-1c0.2-0.3,0.5-0.5,0.9-0.6C68.5,458.2,68.9,458.1,69.3,458.1
		z M67.5,460.6h3.3c0,0,0-0.1,0-0.1s0-0.1,0-0.1c0-0.2,0-0.4-0.1-0.6c-0.1-0.2-0.2-0.4-0.3-0.5c-0.1-0.1-0.3-0.3-0.5-0.3
		c-0.2-0.1-0.4-0.1-0.6-0.1c-0.4,0-0.8,0.1-1.1,0.4C67.8,459.5,67.6,460,67.5,460.6z"/>
	<path d="M73.6,459c0.5-0.6,1.2-0.8,2.1-0.8c0.7,0,1.3,0.2,1.7,0.6c0.4,0.4,0.6,1,0.6,1.8v3.7h-0.9v-0.7c-0.6,0.5-1.3,0.8-2.1,0.8
		c-0.3,0-0.6,0-0.8-0.1c-0.2-0.1-0.5-0.2-0.6-0.4c-0.2-0.2-0.3-0.3-0.4-0.5s-0.1-0.4-0.1-0.6c0-0.6,0.3-1.1,0.8-1.4
		c0.5-0.3,1.3-0.5,2.2-0.6h1.1v-0.2c0-0.6-0.1-1-0.4-1.2c-0.2-0.2-0.6-0.4-1.2-0.4c-0.6,0-1.2,0.2-1.6,0.7L73.6,459z M77.2,461.4H77
		c-0.1,0-0.2,0-0.3,0s-0.2,0-0.3,0c-0.5,0-0.9,0-1.2,0.1c-0.3,0.1-0.5,0.2-0.7,0.3c-0.2,0.1-0.3,0.2-0.4,0.4s-0.1,0.3-0.1,0.5
		c0,0.3,0.1,0.5,0.4,0.7s0.5,0.3,0.9,0.3c0.3,0,0.5,0,0.7-0.1c0.2-0.1,0.4-0.2,0.5-0.3c0.2-0.1,0.3-0.2,0.4-0.4
		c0.1-0.1,0.2-0.2,0.2-0.3c0.1-0.2,0.1-0.4,0.1-0.7V461.4z"/>
	<path d="M81.4,456.7l1-0.2c0,0.1,0,0.1,0,0.2c0,0.1,0,0.1,0,0.1l-0.2,1.4h1.9v0.8h-1.9c-0.1,0.8-0.1,1.5-0.1,2.2c0,0.4,0,0.8,0,1.1
		c0,0.3,0.1,0.5,0.1,0.7c0.1,0.2,0.2,0.3,0.3,0.4c0.1,0.1,0.3,0.1,0.6,0.1c0.4,0,0.8-0.2,1.3-0.5l0.3,0.7c-0.6,0.4-1.2,0.7-1.8,0.7
		c-0.6,0-1.1-0.2-1.4-0.6s-0.4-1-0.4-1.8c0-0.3,0-0.7,0-1.2c0-0.5,0.1-1.1,0.1-1.7h-1.4v-0.8h1.4L81.4,456.7z"/>
	<path d="M86.3,464.2v-8.6h1.1c0,0,0,0,0,0s0,0,0,0c0,0,0,0.1-0.1,0.1s-0.1,0.1-0.1,0.2v3.4c0.2-0.4,0.5-0.7,0.9-0.9
		s0.7-0.3,1.1-0.3c0.3,0,0.5,0,0.7,0.1c0.2,0.1,0.4,0.2,0.6,0.4c0.2,0.2,0.3,0.5,0.4,0.8c0.1,0.3,0.1,0.7,0.1,1.1v3.6h-0.9v-3.6
		c0-0.6-0.1-1.1-0.3-1.3c-0.2-0.3-0.5-0.4-0.8-0.4c-0.2,0-0.4,0-0.6,0.1c-0.2,0.1-0.4,0.2-0.6,0.4s-0.3,0.3-0.4,0.6
		c-0.1,0.2-0.1,0.5-0.1,0.8v3.4H86.3z"/>
	<path d="M95.6,458.9c0.2,0.2,0.2,0.3,0.2,0.5c0,0.2-0.1,0.4-0.2,0.5c-0.2,0.1-0.3,0.2-0.5,0.2c-0.2,0-0.4-0.1-0.5-0.2
		c-0.2-0.1-0.2-0.3-0.2-0.5c0-0.2,0.1-0.4,0.2-0.5c0.2-0.1,0.3-0.2,0.5-0.2C95.2,458.7,95.4,458.8,95.6,458.9z M95.6,463.1
		c0.2,0.2,0.2,0.3,0.2,0.5c0,0.2-0.1,0.4-0.2,0.5c-0.2,0.1-0.3,0.2-0.6,0.2c-0.2,0-0.4-0.1-0.5-0.2s-0.2-0.3-0.2-0.5
		s0.1-0.4,0.2-0.5c0.2-0.1,0.3-0.2,0.5-0.2C95.2,462.8,95.4,462.9,95.6,463.1z"/>
	<path d="M105.6,456.1h1.9c0.7,0,1.2,0.1,1.6,0.3c0.4,0.2,0.7,0.5,1,0.8s0.5,0.8,0.6,1.3c0.1,0.5,0.2,1.1,0.2,1.7
		c0,0.6-0.1,1.2-0.2,1.7c-0.2,0.5-0.4,0.9-0.6,1.3c-0.3,0.4-0.6,0.6-1.1,0.8c-0.4,0.2-1,0.3-1.6,0.3h-1.7V456.1z M106.5,456.9v6.6
		h0.8c0.9,0,1.6-0.3,2-0.8c0.4-0.6,0.6-1.4,0.6-2.4c0-1.1-0.2-1.9-0.6-2.5c-0.4-0.6-1-0.9-1.9-0.9H106.5z"/>
	<path d="M112.6,459c0.5-0.6,1.2-0.8,2.1-0.8c0.7,0,1.3,0.2,1.7,0.6c0.4,0.4,0.6,1,0.6,1.8v3.7h-0.9v-0.7c-0.6,0.5-1.3,0.8-2.1,0.8
		c-0.3,0-0.6,0-0.8-0.1c-0.2-0.1-0.5-0.2-0.6-0.4c-0.2-0.2-0.3-0.3-0.4-0.5s-0.1-0.4-0.1-0.6c0-0.6,0.3-1.1,0.8-1.4
		c0.5-0.3,1.3-0.5,2.2-0.6h1.1v-0.2c0-0.6-0.1-1-0.4-1.2c-0.2-0.2-0.6-0.4-1.2-0.4c-0.6,0-1.2,0.2-1.6,0.7L112.6,459z M116.2,461.4
		H116c-0.1,0-0.2,0-0.3,0s-0.2,0-0.3,0c-0.5,0-0.9,0-1.2,0.1c-0.3,0.1-0.5,0.2-0.7,0.3c-0.2,0.1-0.3,0.2-0.4,0.4s-0.1,0.3-0.1,0.5
		c0,0.3,0.1,0.5,0.4,0.7s0.5,0.3,0.9,0.3c0.3,0,0.5,0,0.7-0.1c0.2-0.1,0.4-0.2,0.5-0.3c0.2-0.1,0.3-0.2,0.4-0.4
		c0.1-0.1,0.2-0.2,0.2-0.3c0.1-0.2,0.1-0.4,0.1-0.7V461.4z"/>
	<path d="M118.8,464.2v-5.9h0.9v1.1c0.2-0.4,0.5-0.7,0.9-0.9s0.7-0.3,1.1-0.3c0.3,0,0.5,0,0.7,0.1c0.2,0.1,0.4,0.2,0.6,0.4
		c0.2,0.2,0.3,0.5,0.4,0.8c0.1,0.3,0.1,0.7,0.1,1.1v3.6h-0.9v-3.6c0-0.6-0.1-1.1-0.3-1.3c-0.2-0.3-0.5-0.4-0.8-0.4
		c-0.2,0-0.4,0-0.6,0.1c-0.2,0.1-0.4,0.2-0.6,0.4c-0.2,0.2-0.3,0.4-0.4,0.6s-0.2,0.5-0.2,0.8v3.4H118.8z"/>
	<path d="M128.8,458.6c0.4-0.4,0.9-0.5,1.5-0.5h0.2l0.1,0.8c-0.1,0-0.1,0-0.2,0c-0.1,0-0.1,0-0.2,0c-0.4,0-0.7,0.1-1,0.3
		c0.2,0.3,0.3,0.6,0.3,1c0,0.3-0.1,0.5-0.2,0.8c-0.1,0.2-0.3,0.5-0.5,0.7c-0.2,0.2-0.4,0.3-0.7,0.4c-0.3,0.1-0.5,0.2-0.8,0.2
		c-0.2,0-0.5,0-0.8-0.1c-0.3,0.3-0.4,0.5-0.4,0.7c0,0.1,0.1,0.3,0.3,0.3c0.2,0.1,0.4,0.1,0.7,0.1c0.2,0,0.3,0,0.5,0
		c0.2,0,0.3,0,0.5,0c0.4,0,0.7,0,1,0.1s0.5,0.2,0.7,0.3c0.2,0.1,0.3,0.3,0.4,0.5c0.1,0.2,0.1,0.4,0.1,0.6c0,0.2-0.1,0.5-0.2,0.7
		c-0.1,0.2-0.3,0.4-0.5,0.6c-0.2,0.2-0.5,0.3-0.9,0.4c-0.3,0.1-0.7,0.1-1.2,0.1c-0.5,0-0.9,0-1.2-0.1s-0.6-0.2-0.8-0.3
		s-0.4-0.3-0.5-0.4c-0.1-0.2-0.2-0.3-0.2-0.5c0-0.5,0.3-0.9,1-1.3c-0.3-0.2-0.5-0.4-0.5-0.8c0-0.4,0.2-0.7,0.7-1.1
		c-0.3-0.2-0.5-0.4-0.6-0.7c-0.2-0.3-0.2-0.6-0.2-0.9c0-0.3,0.1-0.6,0.2-0.8s0.3-0.5,0.5-0.7c0.2-0.2,0.4-0.3,0.7-0.4
		c0.3-0.1,0.5-0.2,0.8-0.2C128,458.1,128.4,458.3,128.8,458.6z M126.5,463.9c-0.5,0.3-0.7,0.6-0.7,0.9c0,0.2,0,0.3,0.1,0.4
		s0.2,0.2,0.4,0.3c0.2,0.1,0.4,0.1,0.6,0.2s0.5,0.1,0.7,0.1c0.5,0,1-0.1,1.3-0.3c0.3-0.2,0.5-0.4,0.5-0.8c0-0.2-0.1-0.4-0.3-0.5
		c-0.2-0.1-0.5-0.2-0.8-0.2c0,0-0.1,0-0.1,0s-0.1,0-0.1,0c-0.3,0-0.6,0-0.9,0C126.9,463.9,126.7,463.9,126.5,463.9z M126.4,459.2
		c-0.1,0.1-0.2,0.3-0.3,0.4s-0.1,0.3-0.1,0.5c0,0.2,0,0.3,0.1,0.5c0.1,0.2,0.2,0.3,0.3,0.4c0.1,0.1,0.3,0.2,0.4,0.3
		c0.2,0.1,0.3,0.1,0.5,0.1c0.2,0,0.4,0,0.5-0.1c0.2-0.1,0.3-0.2,0.4-0.3c0.1-0.1,0.2-0.3,0.3-0.4c0.1-0.2,0.1-0.3,0.1-0.5
		c0-0.2,0-0.3-0.1-0.5c-0.1-0.2-0.2-0.3-0.3-0.4c-0.1-0.1-0.3-0.2-0.4-0.3c-0.2-0.1-0.3-0.1-0.5-0.1
		C127,458.8,126.7,458.9,126.4,459.2z"/>
	<path d="M134.3,458.1c0.3,0,0.6,0.1,0.9,0.2c0.3,0.1,0.6,0.3,0.8,0.5c0.2,0.2,0.4,0.5,0.5,0.9s0.2,0.8,0.2,1.3c0,0.1,0,0.1,0,0.2
		s0,0.1,0,0.2h-4.2c0,0.4,0.1,0.8,0.2,1c0.1,0.3,0.3,0.5,0.5,0.7c0.2,0.2,0.4,0.3,0.6,0.4c0.2,0.1,0.5,0.1,0.7,0.1
		c0.6,0,1.1-0.2,1.5-0.7l0.5,0.5c-0.5,0.6-1.2,0.9-2.1,0.9c-0.4,0-0.8-0.1-1.2-0.2c-0.4-0.1-0.7-0.3-0.9-0.6c-0.3-0.3-0.4-0.6-0.6-1
		c-0.1-0.4-0.2-0.8-0.2-1.3c0-0.5,0.1-0.9,0.2-1.3c0.1-0.4,0.3-0.7,0.6-1c0.2-0.3,0.5-0.5,0.9-0.6
		C133.5,458.2,133.9,458.1,134.3,458.1z M132.5,460.6h3.3c0,0,0-0.1,0-0.1s0-0.1,0-0.1c0-0.2,0-0.4-0.1-0.6
		c-0.1-0.2-0.2-0.4-0.3-0.5c-0.1-0.1-0.3-0.3-0.5-0.3c-0.2-0.1-0.4-0.1-0.6-0.1c-0.4,0-0.8,0.1-1.1,0.4
		C132.8,459.5,132.6,460,132.5,460.6z"/>
	<path d="M138.7,458.3h1l0,1.1c0.2-0.4,0.5-0.7,0.9-1c0.4-0.2,0.8-0.3,1.3-0.3c0.6,0,1.2,0.2,1.6,0.6l-0.4,0.9
		c-0.1-0.1-0.2-0.2-0.3-0.3c-0.1-0.1-0.2-0.2-0.3-0.2c-0.1-0.1-0.2-0.1-0.3-0.1c-0.1,0-0.2-0.1-0.4-0.1c-0.3,0-0.6,0.1-0.8,0.2
		c-0.3,0.1-0.5,0.3-0.7,0.5s-0.3,0.5-0.5,0.8c-0.1,0.3-0.2,0.6-0.2,0.9v2.9h-0.9V458.3z"/>
	<path d="M147.2,458.1c0.4,0,0.7,0.1,1,0.2c0.3,0.1,0.6,0.3,0.9,0.6s0.4,0.6,0.6,1s0.2,0.8,0.2,1.3c0,0.5-0.1,0.9-0.2,1.3
		c-0.1,0.4-0.3,0.7-0.6,1c-0.2,0.3-0.5,0.5-0.9,0.6c-0.3,0.1-0.7,0.2-1.1,0.2c-0.4,0-0.7-0.1-1.1-0.2s-0.6-0.4-0.9-0.6
		c-0.3-0.3-0.5-0.6-0.6-1c-0.1-0.4-0.2-0.8-0.2-1.2s0.1-0.9,0.2-1.2c0.2-0.4,0.4-0.7,0.6-1c0.3-0.3,0.6-0.5,0.9-0.6
		C146.5,458.2,146.8,458.1,147.2,458.1z M149,461.3c0-0.4,0-0.7-0.1-1c-0.1-0.3-0.2-0.5-0.4-0.7s-0.4-0.4-0.6-0.5
		c-0.2-0.1-0.4-0.2-0.7-0.2c-0.2,0-0.5,0.1-0.7,0.2c-0.2,0.1-0.4,0.3-0.6,0.5c-0.2,0.2-0.3,0.4-0.4,0.7c-0.1,0.3-0.1,0.6-0.1,1
		c0,0.3,0,0.7,0.1,0.9c0.1,0.3,0.2,0.5,0.4,0.7c0.2,0.2,0.3,0.4,0.6,0.5c0.2,0.1,0.4,0.2,0.7,0.2s0.5,0,0.7-0.1
		c0.2-0.1,0.4-0.2,0.6-0.4c0.2-0.2,0.3-0.4,0.4-0.7C148.9,461.9,149,461.6,149,461.3z"/>
	<path d="M151.2,458.3h0.9v3.3c0,0.4,0,0.7,0.1,1s0.2,0.5,0.3,0.6c0.1,0.2,0.3,0.3,0.4,0.3c0.2,0.1,0.3,0.1,0.5,0.1
		c0.2,0,0.4-0.1,0.6-0.2c0.2-0.1,0.4-0.2,0.5-0.4c0.2-0.2,0.3-0.4,0.4-0.6c0.1-0.3,0.1-0.6,0.1-0.9v-3.3h0.9v5.4
		c0,0.2,0,0.4,0.1,0.5h-1c0-0.1,0-0.1,0-0.2c0-0.1,0-0.2,0-0.3l0-0.5c-0.2,0.3-0.5,0.6-0.8,0.8c-0.3,0.2-0.7,0.3-1.1,0.3
		c-0.3,0-0.6-0.1-0.8-0.2c-0.2-0.1-0.5-0.3-0.7-0.5c-0.2-0.2-0.3-0.5-0.4-0.9c-0.1-0.3-0.1-0.8-0.1-1.2L151.2,458.3z"/>
	<path d="M162.5,459l-0.5,0.8c0,0-0.1,0-0.1-0.1s0-0.1,0-0.1c-0.2-0.2-0.4-0.4-0.7-0.6c-0.3-0.2-0.6-0.3-1-0.3c-0.2,0-0.3,0-0.5,0.1
		s-0.3,0.1-0.4,0.2c-0.1,0.1-0.2,0.2-0.3,0.3s-0.1,0.2-0.1,0.4c0,0.1,0,0.2,0.1,0.3c0.1,0.1,0.1,0.2,0.2,0.2
		c0.1,0.1,0.3,0.2,0.5,0.2c0.2,0.1,0.5,0.2,0.8,0.3c0.8,0.2,1.3,0.4,1.6,0.7c0.3,0.3,0.5,0.6,0.5,1c0,0.3-0.1,0.5-0.2,0.7
		c-0.1,0.2-0.3,0.4-0.5,0.6c-0.2,0.2-0.5,0.3-0.8,0.4s-0.6,0.1-1,0.1c-1,0-1.8-0.3-2.5-0.9l0.5-0.9c0,0,0,0.1,0.1,0.1
		c0,0.1,0,0.1,0.1,0.2s0.1,0.2,0.3,0.3s0.4,0.2,0.6,0.3c0.1,0.1,0.3,0.1,0.4,0.1c0.2,0,0.3,0,0.5,0c0.2,0,0.4,0,0.5-0.1
		c0.2,0,0.3-0.1,0.5-0.2c0.1-0.1,0.3-0.2,0.3-0.3s0.1-0.3,0.1-0.4c0-0.2-0.1-0.4-0.3-0.6s-0.6-0.3-1.2-0.5c-0.4-0.1-0.6-0.2-0.8-0.2
		c-0.3-0.1-0.5-0.2-0.7-0.3c-0.1-0.1-0.3-0.2-0.4-0.3c-0.1-0.1-0.2-0.3-0.3-0.4c-0.1-0.2-0.1-0.3-0.1-0.5c0-0.2,0.1-0.4,0.2-0.6
		c0.1-0.2,0.3-0.4,0.5-0.5c0.2-0.1,0.4-0.3,0.7-0.4c0.3-0.1,0.6-0.1,0.9-0.1C161.2,458.1,162,458.4,162.5,459z"/>
	<path d="M172.4,456.7l1-0.2c0,0.1,0,0.1,0,0.2c0,0.1,0,0.1,0,0.1l-0.2,1.4h1.9v0.8h-1.9c-0.1,0.8-0.1,1.5-0.1,2.2
		c0,0.4,0,0.8,0,1.1c0,0.3,0.1,0.5,0.1,0.7c0.1,0.2,0.2,0.3,0.3,0.4c0.1,0.1,0.3,0.1,0.6,0.1c0.4,0,0.8-0.2,1.3-0.5l0.3,0.7
		c-0.6,0.4-1.2,0.7-1.8,0.7c-0.6,0-1.1-0.2-1.4-0.6s-0.4-1-0.4-1.8c0-0.3,0-0.7,0-1.2c0-0.5,0.1-1.1,0.1-1.7h-1.4v-0.8h1.4
		L172.4,456.7z"/>
	<path d="M177.6,459c0.5-0.6,1.2-0.8,2.1-0.8c0.7,0,1.3,0.2,1.7,0.6c0.4,0.4,0.6,1,0.6,1.8v3.7h-0.9v-0.7c-0.6,0.5-1.3,0.8-2.1,0.8
		c-0.3,0-0.6,0-0.8-0.1c-0.2-0.1-0.5-0.2-0.6-0.4c-0.2-0.2-0.3-0.3-0.4-0.5s-0.1-0.4-0.1-0.6c0-0.6,0.3-1.1,0.8-1.4
		c0.5-0.3,1.3-0.5,2.2-0.6h1.1v-0.2c0-0.6-0.1-1-0.4-1.2c-0.2-0.2-0.6-0.4-1.2-0.4c-0.6,0-1.2,0.2-1.6,0.7L177.6,459z M181.2,461.4
		H181c-0.1,0-0.2,0-0.3,0s-0.2,0-0.3,0c-0.5,0-0.9,0-1.2,0.1c-0.3,0.1-0.5,0.2-0.7,0.3c-0.2,0.1-0.3,0.2-0.4,0.4s-0.1,0.3-0.1,0.5
		c0,0.3,0.1,0.5,0.4,0.7s0.5,0.3,0.9,0.3c0.3,0,0.5,0,0.7-0.1c0.2-0.1,0.4-0.2,0.5-0.3c0.2-0.1,0.3-0.2,0.4-0.4
		c0.1-0.1,0.2-0.2,0.2-0.3c0.1-0.2,0.1-0.4,0.1-0.7V461.4z"/>
	<path d="M188.5,459l-0.5,0.8c0,0-0.1,0-0.1-0.1s0-0.1,0-0.1c-0.2-0.2-0.4-0.4-0.7-0.6c-0.3-0.2-0.6-0.3-1-0.3c-0.2,0-0.3,0-0.5,0.1
		s-0.3,0.1-0.4,0.2c-0.1,0.1-0.2,0.2-0.3,0.3s-0.1,0.2-0.1,0.4c0,0.1,0,0.2,0.1,0.3c0.1,0.1,0.1,0.2,0.2,0.2
		c0.1,0.1,0.3,0.2,0.5,0.2c0.2,0.1,0.5,0.2,0.8,0.3c0.8,0.2,1.3,0.4,1.6,0.7c0.3,0.3,0.5,0.6,0.5,1c0,0.3-0.1,0.5-0.2,0.7
		c-0.1,0.2-0.3,0.4-0.5,0.6c-0.2,0.2-0.5,0.3-0.8,0.4s-0.6,0.1-1,0.1c-1,0-1.8-0.3-2.5-0.9l0.5-0.9c0,0,0,0.1,0.1,0.1
		c0,0.1,0,0.1,0.1,0.2s0.1,0.2,0.3,0.3s0.4,0.2,0.6,0.3c0.1,0.1,0.3,0.1,0.4,0.1c0.2,0,0.3,0,0.5,0c0.2,0,0.4,0,0.5-0.1
		c0.2,0,0.3-0.1,0.5-0.2c0.1-0.1,0.3-0.2,0.3-0.3s0.1-0.3,0.1-0.4c0-0.2-0.1-0.4-0.3-0.6s-0.6-0.3-1.2-0.5c-0.4-0.1-0.6-0.2-0.8-0.2
		c-0.3-0.1-0.5-0.2-0.7-0.3c-0.1-0.1-0.3-0.2-0.4-0.3c-0.1-0.1-0.2-0.3-0.3-0.4c-0.1-0.2-0.1-0.3-0.1-0.5c0-0.2,0.1-0.4,0.2-0.6
		c0.1-0.2,0.3-0.4,0.5-0.5c0.2-0.1,0.4-0.3,0.7-0.4c0.3-0.1,0.6-0.1,0.9-0.1C187.2,458.1,188,458.4,188.5,459z"/>
	<path d="M190.3,455.6h1.1c0,0.1,0,0.1-0.1,0.2s-0.1,0.1-0.1,0.2v5.1l3-2.8c0.2,0,0.4,0.1,0.7,0.1h0.3l-2.5,2.4l2.9,3.5l-1.2,0.1
		l-2.4-3l-0.8,0.7v2.3h-0.9V455.6z"/>
</g>
<rect x="1.3" y="41.6" class="st0" width="500.3" height="333.6"/>
<g>
	<path d="M193.9,211.6v-5.9h0.9v1.1c0.2-0.4,0.5-0.7,0.9-0.9c0.4-0.2,0.7-0.3,1.1-0.3c0.3,0,0.5,0,0.7,0.1c0.2,0.1,0.4,0.2,0.6,0.4
		c0.2,0.2,0.3,0.5,0.4,0.8s0.1,0.7,0.1,1.1v3.6h-0.9V208c0-0.6-0.1-1.1-0.3-1.3c-0.2-0.3-0.5-0.4-0.8-0.4c-0.2,0-0.4,0-0.6,0.1
		c-0.2,0.1-0.4,0.2-0.6,0.4c-0.2,0.2-0.3,0.4-0.4,0.6c-0.1,0.2-0.2,0.5-0.2,0.8v3.4H193.9z"/>
	<path d="M202.8,205.5c0.4,0,0.7,0.1,1,0.2c0.3,0.1,0.6,0.3,0.9,0.6s0.4,0.6,0.6,1s0.2,0.8,0.2,1.3c0,0.5-0.1,0.9-0.2,1.3
		s-0.3,0.7-0.6,1c-0.2,0.3-0.5,0.5-0.9,0.6c-0.3,0.1-0.7,0.2-1.1,0.2c-0.4,0-0.7-0.1-1.1-0.2c-0.3-0.2-0.6-0.4-0.9-0.6
		s-0.5-0.6-0.6-1c-0.1-0.4-0.2-0.8-0.2-1.2s0.1-0.9,0.2-1.2c0.2-0.4,0.4-0.7,0.6-1s0.6-0.5,0.9-0.6
		C202.1,205.6,202.4,205.5,202.8,205.5z M204.5,208.7c0-0.4,0-0.7-0.1-1c-0.1-0.3-0.2-0.5-0.4-0.7s-0.4-0.4-0.6-0.5
		c-0.2-0.1-0.4-0.2-0.7-0.2c-0.2,0-0.5,0.1-0.7,0.2s-0.4,0.3-0.6,0.5c-0.2,0.2-0.3,0.4-0.4,0.7s-0.1,0.6-0.1,1c0,0.3,0,0.7,0.1,0.9
		s0.2,0.5,0.4,0.7c0.2,0.2,0.3,0.4,0.6,0.5c0.2,0.1,0.4,0.2,0.7,0.2s0.5,0,0.7-0.1c0.2-0.1,0.4-0.2,0.6-0.4c0.2-0.2,0.3-0.4,0.4-0.7
		C204.5,209.4,204.5,209,204.5,208.7z"/>
	<path d="M213.7,206.4c0.5-0.6,1.2-0.8,2.1-0.8c0.7,0,1.3,0.2,1.7,0.6c0.4,0.4,0.6,1,0.6,1.8v3.7h-0.9V211c-0.6,0.5-1.3,0.8-2.1,0.8
		c-0.3,0-0.6,0-0.8-0.1c-0.2-0.1-0.5-0.2-0.6-0.4c-0.2-0.2-0.3-0.3-0.4-0.5c-0.1-0.2-0.1-0.4-0.1-0.6c0-0.6,0.3-1.1,0.8-1.4
		c0.5-0.3,1.3-0.5,2.2-0.6h1.1v-0.2c0-0.6-0.1-1-0.4-1.2c-0.2-0.2-0.6-0.4-1.2-0.4c-0.6,0-1.2,0.2-1.6,0.7L213.7,206.4z
		 M217.3,208.8h-0.2c-0.1,0-0.2,0-0.3,0s-0.2,0-0.3,0c-0.5,0-0.9,0-1.2,0.1c-0.3,0.1-0.5,0.2-0.7,0.3c-0.2,0.1-0.3,0.2-0.4,0.4
		s-0.1,0.3-0.1,0.5c0,0.3,0.1,0.5,0.4,0.7c0.2,0.2,0.5,0.3,0.9,0.3c0.3,0,0.5,0,0.7-0.1s0.4-0.2,0.5-0.3c0.2-0.1,0.3-0.2,0.4-0.4
		s0.2-0.2,0.2-0.3c0.1-0.2,0.1-0.4,0.1-0.7V208.8z"/>
	<path d="M219.6,206l-0.1-0.3h1.1c0,0.1,0,0.1,0,0.2c0,0,0,0.1,0,0.1c0,0,0,0,0,0l1.7,4.3l1-2.2c0.2-0.5,0.4-0.9,0.5-1.3
		c0.1-0.4,0.2-0.8,0.3-1.1h0.8c-0.2,0.7-0.5,1.6-0.9,2.6l-1.4,3.4h-0.7L219.6,206z"/>
	<path d="M226.7,206.4c0.5-0.6,1.2-0.8,2.1-0.8c0.7,0,1.3,0.2,1.7,0.6c0.4,0.4,0.6,1,0.6,1.8v3.7h-0.9V211c-0.6,0.5-1.3,0.8-2.1,0.8
		c-0.3,0-0.6,0-0.8-0.1c-0.2-0.1-0.5-0.2-0.6-0.4c-0.2-0.2-0.3-0.3-0.4-0.5c-0.1-0.2-0.1-0.4-0.1-0.6c0-0.6,0.3-1.1,0.8-1.4
		c0.5-0.3,1.3-0.5,2.2-0.6h1.1v-0.2c0-0.6-0.1-1-0.4-1.2c-0.2-0.2-0.6-0.4-1.2-0.4c-0.6,0-1.2,0.2-1.6,0.7L226.7,206.4z
		 M230.3,208.8h-0.2c-0.1,0-0.2,0-0.3,0s-0.2,0-0.3,0c-0.5,0-0.9,0-1.2,0.1c-0.3,0.1-0.5,0.2-0.7,0.3c-0.2,0.1-0.3,0.2-0.4,0.4
		s-0.1,0.3-0.1,0.5c0,0.3,0.1,0.5,0.4,0.7c0.2,0.2,0.5,0.3,0.9,0.3c0.3,0,0.5,0,0.7-0.1s0.4-0.2,0.5-0.3c0.2-0.1,0.3-0.2,0.4-0.4
		s0.2-0.2,0.2-0.3c0.1-0.2,0.1-0.4,0.1-0.7V208.8z"/>
	<path d="M233.4,205.7h2.4v5.2h1.4v0.8h-3.8v-0.8h1.5v-4.4h-1.4V205.7z M234.8,203.3c0.1-0.1,0.3-0.2,0.5-0.2c0.2,0,0.3,0.1,0.5,0.2
		c0.1,0.1,0.2,0.3,0.2,0.5s-0.1,0.3-0.2,0.5c-0.1,0.1-0.3,0.2-0.5,0.2c-0.2,0-0.3-0.1-0.5-0.2c-0.1-0.1-0.2-0.3-0.2-0.5
		C234.6,203.6,234.7,203.4,234.8,203.3z"/>
	<path d="M239.6,203h2.6v7.9h1.7v0.8h-4.4v-0.8h1.8v-7.1h-1.7V203z"/>
	<path d="M246.2,206.4c0.5-0.6,1.2-0.8,2.1-0.8c0.7,0,1.3,0.2,1.7,0.6c0.4,0.4,0.6,1,0.6,1.8v3.7h-0.9V211c-0.6,0.5-1.3,0.8-2.1,0.8
		c-0.3,0-0.6,0-0.8-0.1c-0.2-0.1-0.5-0.2-0.6-0.4c-0.2-0.2-0.3-0.3-0.4-0.5c-0.1-0.2-0.1-0.4-0.1-0.6c0-0.6,0.3-1.1,0.8-1.4
		c0.5-0.3,1.3-0.5,2.2-0.6h1.1v-0.2c0-0.6-0.1-1-0.4-1.2c-0.2-0.2-0.6-0.4-1.2-0.4c-0.6,0-1.2,0.2-1.6,0.7L246.2,206.4z
		 M249.8,208.8h-0.2c-0.1,0-0.2,0-0.3,0s-0.2,0-0.3,0c-0.5,0-0.9,0-1.2,0.1c-0.3,0.1-0.5,0.2-0.7,0.3c-0.2,0.1-0.3,0.2-0.4,0.4
		s-0.1,0.3-0.1,0.5c0,0.3,0.1,0.5,0.4,0.7c0.2,0.2,0.5,0.3,0.9,0.3c0.3,0,0.5,0,0.7-0.1s0.4-0.2,0.5-0.3c0.2-0.1,0.3-0.2,0.4-0.4
		s0.2-0.2,0.2-0.3c0.1-0.2,0.1-0.4,0.1-0.7V208.8z"/>
	<path d="M252.3,203h1.1v0c0,0,0,0.1-0.1,0.1s-0.1,0.1-0.1,0.1v3.3c0.2-0.3,0.4-0.6,0.8-0.8c0.3-0.2,0.7-0.3,1-0.3
		c0.3,0,0.6,0.1,0.9,0.2c0.3,0.1,0.6,0.3,0.8,0.6c0.2,0.3,0.4,0.6,0.5,1c0.1,0.4,0.2,0.8,0.2,1.3c0,0.5-0.1,1-0.2,1.4
		s-0.3,0.7-0.6,1c-0.2,0.3-0.5,0.5-0.8,0.6c-0.3,0.1-0.6,0.2-0.9,0.2c-0.4,0-0.7-0.1-1-0.2c-0.3-0.2-0.6-0.4-0.8-0.7l-0.3,0.8h-0.6
		V203z M253.9,210.7c0.2,0.1,0.3,0.1,0.4,0.2c0.1,0,0.3,0,0.4,0c0.2,0,0.4,0,0.6-0.1c0.2-0.1,0.4-0.2,0.6-0.3
		c0.2-0.2,0.3-0.4,0.4-0.7c0.1-0.3,0.2-0.6,0.2-1c0-0.8-0.2-1.4-0.5-1.8c-0.3-0.4-0.8-0.6-1.4-0.6c-0.2,0-0.5,0.1-0.7,0.2
		c-0.2,0.2-0.4,0.4-0.5,0.6c-0.1,0.3-0.2,0.7-0.2,1.3c0,0.4,0,0.7,0,0.9s0.1,0.5,0.1,0.6c0.1,0.2,0.1,0.3,0.2,0.4
		S253.8,210.6,253.9,210.7z"/>
	<path d="M259.1,203h2.6v7.9h1.7v0.8H259v-0.8h1.8v-7.1h-1.7V203z"/>
	<path d="M267.9,205.5c0.3,0,0.6,0.1,0.9,0.2c0.3,0.1,0.6,0.3,0.8,0.5c0.2,0.2,0.4,0.5,0.5,0.9c0.1,0.4,0.2,0.8,0.2,1.3
		c0,0.1,0,0.1,0,0.2c0,0.1,0,0.1,0,0.2H266c0,0.4,0.1,0.8,0.2,1c0.1,0.3,0.3,0.5,0.5,0.7s0.4,0.3,0.6,0.4c0.2,0.1,0.5,0.1,0.7,0.1
		c0.6,0,1.1-0.2,1.5-0.7l0.5,0.5c-0.5,0.6-1.2,0.9-2.1,0.9c-0.4,0-0.8-0.1-1.2-0.2c-0.4-0.1-0.7-0.3-0.9-0.6c-0.3-0.3-0.4-0.6-0.6-1
		s-0.2-0.8-0.2-1.3c0-0.5,0.1-0.9,0.2-1.3c0.1-0.4,0.3-0.7,0.6-1c0.2-0.3,0.5-0.5,0.9-0.6S267.5,205.5,267.9,205.5z M266.1,208h3.3
		c0,0,0-0.1,0-0.1c0,0,0-0.1,0-0.1c0-0.2,0-0.4-0.1-0.6c-0.1-0.2-0.2-0.4-0.3-0.5c-0.1-0.1-0.3-0.3-0.5-0.3s-0.4-0.1-0.6-0.1
		c-0.4,0-0.8,0.1-1.1,0.4C266.4,207,266.2,207.4,266.1,208z"/>
	<path d="M278.3,205.7h0.9v0.9c0.2-0.3,0.5-0.6,0.8-0.8c0.3-0.2,0.7-0.3,1-0.3c0.3,0,0.6,0.1,0.9,0.2s0.6,0.3,0.8,0.6
		s0.4,0.6,0.5,0.9c0.1,0.4,0.2,0.8,0.2,1.4s-0.1,1-0.2,1.4c-0.1,0.4-0.3,0.7-0.6,1c-0.2,0.3-0.5,0.5-0.8,0.6s-0.6,0.2-0.9,0.2
		c-0.4,0-0.7-0.1-1-0.2s-0.6-0.4-0.8-0.7v3h-0.9V205.7z M279.2,209.1c0,0.6,0.2,1.1,0.4,1.4s0.6,0.4,1,0.4c0.2,0,0.4,0,0.7-0.1
		c0.2-0.1,0.4-0.2,0.6-0.4c0.2-0.2,0.3-0.4,0.4-0.7s0.2-0.6,0.2-1c0-0.8-0.2-1.3-0.5-1.8s-0.8-0.6-1.3-0.7c-0.2,0-0.4,0-0.5,0.1
		c-0.2,0.1-0.3,0.2-0.5,0.3c-0.1,0.1-0.3,0.3-0.4,0.6s-0.1,0.5-0.1,0.9V209.1z"/>
	<path d="M284.9,211.6V203h1.1c0,0,0,0,0,0c0,0,0,0,0,0c0,0,0,0.1-0.1,0.1c0,0-0.1,0.1-0.1,0.2v3.4c0.2-0.4,0.5-0.7,0.9-0.9
		c0.4-0.2,0.7-0.3,1.1-0.3c0.3,0,0.5,0,0.7,0.1c0.2,0.1,0.4,0.2,0.6,0.4c0.2,0.2,0.3,0.5,0.4,0.8s0.1,0.7,0.1,1.1v3.6h-0.9V208
		c0-0.6-0.1-1.1-0.3-1.3c-0.2-0.3-0.5-0.4-0.8-0.4c-0.2,0-0.4,0-0.6,0.1c-0.2,0.1-0.4,0.2-0.6,0.4s-0.3,0.3-0.4,0.6
		c-0.1,0.2-0.1,0.5-0.1,0.8v3.4H284.9z"/>
	<path d="M293.8,205.5c0.4,0,0.7,0.1,1,0.2c0.3,0.1,0.6,0.3,0.9,0.6c0.2,0.3,0.4,0.6,0.6,1c0.1,0.4,0.2,0.8,0.2,1.3
		c0,0.5-0.1,0.9-0.2,1.3s-0.3,0.7-0.6,1c-0.2,0.3-0.5,0.5-0.9,0.6s-0.7,0.2-1.1,0.2c-0.4,0-0.7-0.1-1.1-0.2
		c-0.3-0.2-0.6-0.4-0.9-0.6c-0.3-0.3-0.5-0.6-0.6-1c-0.1-0.4-0.2-0.8-0.2-1.2s0.1-0.9,0.2-1.2s0.4-0.7,0.6-1s0.6-0.5,0.9-0.6
		C293.1,205.6,293.4,205.5,293.8,205.5z M295.5,208.7c0-0.4,0-0.7-0.1-1c-0.1-0.3-0.2-0.5-0.4-0.7c-0.2-0.2-0.4-0.4-0.6-0.5
		c-0.2-0.1-0.4-0.2-0.7-0.2s-0.5,0.1-0.7,0.2c-0.2,0.1-0.4,0.3-0.6,0.5s-0.3,0.4-0.4,0.7c-0.1,0.3-0.1,0.6-0.1,1
		c0,0.3,0,0.7,0.1,0.9c0.1,0.3,0.2,0.5,0.4,0.7s0.3,0.4,0.6,0.5s0.4,0.2,0.7,0.2c0.2,0,0.5,0,0.7-0.1c0.2-0.1,0.4-0.2,0.6-0.4
		c0.2-0.2,0.3-0.4,0.4-0.7S295.5,209,295.5,208.7z"/>
	<path d="M299.4,204.1l1-0.2c0,0.1,0,0.1,0,0.2c0,0.1,0,0.1,0,0.1l-0.2,1.4h2v0.8h-2c-0.1,0.8-0.1,1.5-0.1,2.2c0,0.4,0,0.8,0,1.1
		s0.1,0.5,0.1,0.7c0.1,0.2,0.2,0.3,0.3,0.4c0.1,0.1,0.3,0.1,0.6,0.1c0.4,0,0.8-0.2,1.3-0.5l0.3,0.7c-0.6,0.4-1.2,0.7-1.8,0.7
		c-0.6,0-1.1-0.2-1.4-0.6s-0.4-1-0.4-1.8c0-0.3,0-0.7,0-1.2c0-0.5,0.1-1.1,0.1-1.7h-1.4v-0.8h1.4L299.4,204.1z"/>
	<path d="M306.8,205.5c0.4,0,0.7,0.1,1,0.2c0.3,0.1,0.6,0.3,0.9,0.6c0.2,0.3,0.4,0.6,0.6,1c0.1,0.4,0.2,0.8,0.2,1.3
		c0,0.5-0.1,0.9-0.2,1.3s-0.3,0.7-0.6,1c-0.2,0.3-0.5,0.5-0.9,0.6s-0.7,0.2-1.1,0.2c-0.4,0-0.7-0.1-1.1-0.2
		c-0.3-0.2-0.6-0.4-0.9-0.6c-0.3-0.3-0.5-0.6-0.6-1c-0.1-0.4-0.2-0.8-0.2-1.2s0.1-0.9,0.2-1.2s0.4-0.7,0.6-1s0.6-0.5,0.9-0.6
		C306.1,205.6,306.4,205.5,306.8,205.5z M308.5,208.7c0-0.4,0-0.7-0.1-1c-0.1-0.3-0.2-0.5-0.4-0.7c-0.2-0.2-0.4-0.4-0.6-0.5
		c-0.2-0.1-0.4-0.2-0.7-0.2s-0.5,0.1-0.7,0.2c-0.2,0.1-0.4,0.3-0.6,0.5s-0.3,0.4-0.4,0.7c-0.1,0.3-0.1,0.6-0.1,1
		c0,0.3,0,0.7,0.1,0.9c0.1,0.3,0.2,0.5,0.4,0.7s0.3,0.4,0.6,0.5s0.4,0.2,0.7,0.2c0.2,0,0.5,0,0.7-0.1c0.2-0.1,0.4-0.2,0.6-0.4
		c0.2-0.2,0.3-0.4,0.4-0.7S308.5,209,308.5,208.7z"/>
</g>
<g>
	<path d="M294.2,394.7l-0.6,0.8c0,0-0.1-0.1-0.1-0.1c0-0.1,0-0.1,0-0.1c-0.2-0.2-0.4-0.4-0.7-0.6c-0.3-0.1-0.6-0.2-1-0.2
		c-0.4,0-0.7,0.1-1,0.4c-0.3,0.2-0.4,0.5-0.4,0.8c0,0.2,0,0.4,0.1,0.5c0.1,0.1,0.2,0.3,0.3,0.4c0.1,0.1,0.3,0.3,0.6,0.4
		c0.3,0.1,0.6,0.3,1,0.4c0.4,0.2,0.7,0.3,1,0.5c0.3,0.2,0.5,0.3,0.6,0.5c0.2,0.2,0.3,0.4,0.3,0.6c0.1,0.2,0.1,0.4,0.1,0.7
		c0,0.3-0.1,0.6-0.2,0.8c-0.1,0.3-0.3,0.5-0.5,0.8c-0.2,0.2-0.5,0.4-0.8,0.5s-0.7,0.2-1.2,0.2c-1,0-1.9-0.3-2.5-1l0.5-0.9
		c0,0,0.1,0.1,0.1,0.1s0,0.1,0,0.1c0.2,0.3,0.5,0.5,0.8,0.6c0.3,0.2,0.7,0.3,1.2,0.3c0.2,0,0.5,0,0.7-0.1c0.2-0.1,0.4-0.2,0.5-0.3
		c0.1-0.1,0.3-0.3,0.4-0.5c0.1-0.2,0.1-0.4,0.1-0.6c0-0.2,0-0.3-0.1-0.4c-0.1-0.1-0.1-0.3-0.3-0.4c-0.1-0.1-0.3-0.2-0.6-0.4
		c-0.2-0.1-0.6-0.3-0.9-0.4c-0.4-0.2-0.8-0.3-1.1-0.5c-0.3-0.2-0.5-0.3-0.7-0.5c-0.2-0.2-0.3-0.4-0.4-0.6c-0.1-0.2-0.1-0.4-0.1-0.7
		c0-0.3,0.1-0.6,0.2-0.8c0.1-0.3,0.3-0.5,0.5-0.7c0.2-0.2,0.5-0.3,0.8-0.5s0.6-0.2,1-0.2c0.4,0,0.9,0.1,1.2,0.3
		C293.5,394.1,293.9,394.3,294.2,394.7z"/>
	<path d="M298.3,395.7c0.4,0,0.7,0.1,1,0.2c0.3,0.1,0.6,0.3,0.9,0.6c0.2,0.3,0.4,0.6,0.6,1c0.1,0.4,0.2,0.8,0.2,1.3
		c0,0.5-0.1,0.9-0.2,1.3s-0.3,0.7-0.6,1c-0.2,0.3-0.5,0.5-0.9,0.6s-0.7,0.2-1.1,0.2c-0.4,0-0.7-0.1-1.1-0.2
		c-0.3-0.2-0.6-0.4-0.9-0.6c-0.3-0.3-0.5-0.6-0.6-1c-0.1-0.4-0.2-0.8-0.2-1.2c0-0.4,0.1-0.9,0.2-1.2c0.2-0.4,0.4-0.7,0.6-1
		s0.6-0.5,0.9-0.6S297.9,395.7,298.3,395.7z M300,398.9c0-0.4,0-0.7-0.1-1s-0.2-0.5-0.4-0.7c-0.2-0.2-0.4-0.4-0.6-0.5
		c-0.2-0.1-0.4-0.2-0.7-0.2s-0.5,0.1-0.7,0.2c-0.2,0.1-0.4,0.3-0.6,0.5s-0.3,0.4-0.4,0.7c-0.1,0.3-0.1,0.6-0.1,1
		c0,0.3,0,0.7,0.1,0.9c0.1,0.3,0.2,0.5,0.4,0.7s0.3,0.4,0.6,0.5c0.2,0.1,0.4,0.2,0.7,0.2c0.2,0,0.5,0,0.7-0.1
		c0.2-0.1,0.4-0.2,0.6-0.4c0.2-0.2,0.3-0.4,0.4-0.7S300,399.2,300,398.9z"/>
	<path d="M302.3,395.9h0.9v3.3c0,0.4,0,0.7,0.1,1c0.1,0.3,0.2,0.5,0.3,0.6c0.1,0.2,0.3,0.3,0.4,0.3s0.3,0.1,0.5,0.1
		c0.2,0,0.4-0.1,0.6-0.2c0.2-0.1,0.4-0.2,0.5-0.4c0.2-0.2,0.3-0.4,0.4-0.6s0.1-0.6,0.1-0.9v-3.3h0.9v5.4c0,0.2,0,0.4,0.1,0.5h-1
		c0-0.1,0-0.1,0-0.2c0-0.1,0-0.2,0-0.3l0-0.5c-0.2,0.3-0.5,0.6-0.8,0.8c-0.3,0.2-0.7,0.3-1.1,0.3c-0.3,0-0.6-0.1-0.8-0.2
		s-0.5-0.3-0.7-0.5c-0.2-0.2-0.3-0.5-0.4-0.9c-0.1-0.3-0.2-0.8-0.2-1.2L302.3,395.9z"/>
	<path d="M309.3,395.9h1l0,1.1c0.2-0.4,0.5-0.7,0.9-1c0.4-0.2,0.8-0.3,1.3-0.3c0.6,0,1.2,0.2,1.6,0.7l-0.4,0.9
		c-0.1-0.1-0.2-0.2-0.3-0.3c-0.1-0.1-0.2-0.2-0.3-0.2c-0.1-0.1-0.2-0.1-0.3-0.1c-0.1,0-0.2-0.1-0.4-0.1c-0.3,0-0.6,0.1-0.8,0.2
		c-0.3,0.1-0.5,0.3-0.7,0.5c-0.2,0.2-0.3,0.5-0.5,0.8c-0.1,0.3-0.2,0.6-0.2,0.9v2.9h-0.9V395.9z"/>
	<path d="M320.4,396.8l-0.7,0.8c0,0-0.1-0.1-0.1-0.1s0-0.1,0-0.1c0-0.1,0-0.1-0.1-0.2c-0.1-0.1-0.2-0.2-0.3-0.3
		c-0.3-0.2-0.7-0.4-1.2-0.4c-0.3,0-0.5,0.1-0.7,0.2s-0.4,0.3-0.6,0.4c-0.2,0.2-0.3,0.4-0.4,0.7c-0.1,0.3-0.2,0.6-0.2,0.9
		c0,0.3,0.1,0.6,0.2,0.9c0.1,0.3,0.2,0.5,0.4,0.7s0.4,0.4,0.7,0.5s0.5,0.2,0.8,0.2c0.6,0,1.1-0.2,1.6-0.7l0.5,0.6
		c-0.6,0.6-1.3,0.9-2.2,0.9c-0.4,0-0.8-0.1-1.2-0.2c-0.4-0.2-0.7-0.4-0.9-0.7c-0.3-0.3-0.5-0.6-0.6-1c-0.1-0.4-0.2-0.8-0.2-1.2
		c0-0.4,0.1-0.9,0.2-1.2c0.1-0.4,0.4-0.7,0.6-1c0.3-0.3,0.6-0.5,0.9-0.6c0.4-0.2,0.8-0.2,1.2-0.2c0.5,0,0.9,0.1,1.3,0.3
		S320.2,396.5,320.4,396.8z"/>
	<path d="M324.4,395.7c0.3,0,0.6,0.1,0.9,0.2c0.3,0.1,0.6,0.3,0.8,0.5c0.2,0.2,0.4,0.5,0.5,0.9c0.1,0.4,0.2,0.8,0.2,1.3
		c0,0.1,0,0.1,0,0.2c0,0.1,0,0.1,0,0.2h-4.2c0,0.4,0.1,0.8,0.2,1s0.3,0.5,0.5,0.7c0.2,0.2,0.4,0.3,0.6,0.4c0.2,0.1,0.5,0.1,0.7,0.1
		c0.6,0,1.1-0.2,1.5-0.7l0.5,0.5c-0.5,0.6-1.2,0.9-2.1,0.9c-0.4,0-0.8-0.1-1.2-0.2c-0.4-0.1-0.7-0.3-0.9-0.6c-0.3-0.3-0.4-0.6-0.6-1
		c-0.1-0.4-0.2-0.8-0.2-1.3c0-0.5,0.1-0.9,0.2-1.3c0.1-0.4,0.3-0.7,0.6-1c0.2-0.3,0.5-0.5,0.9-0.6S324,395.7,324.4,395.7z
		 M322.6,398.2h3.3c0,0,0-0.1,0-0.1c0,0,0-0.1,0-0.1c0-0.2,0-0.4-0.1-0.6c-0.1-0.2-0.2-0.4-0.3-0.5c-0.1-0.1-0.3-0.3-0.5-0.3
		c-0.2-0.1-0.4-0.1-0.6-0.1c-0.4,0-0.8,0.1-1.1,0.4C322.9,397.1,322.7,397.6,322.6,398.2z"/>
	<path d="M331.1,396.5c0.2,0.2,0.2,0.3,0.2,0.5c0,0.2-0.1,0.4-0.2,0.5c-0.2,0.1-0.3,0.2-0.5,0.2c-0.2,0-0.4-0.1-0.5-0.2
		c-0.2-0.1-0.2-0.3-0.2-0.5c0-0.2,0.1-0.4,0.2-0.5c0.2-0.1,0.3-0.2,0.5-0.2S331,396.4,331.1,396.5z M331.1,400.7
		c0.2,0.2,0.2,0.3,0.2,0.5s-0.1,0.4-0.2,0.5c-0.2,0.1-0.3,0.2-0.6,0.2s-0.4-0.1-0.5-0.2c-0.1-0.1-0.2-0.3-0.2-0.5
		c0-0.2,0.1-0.4,0.2-0.5s0.3-0.2,0.5-0.2S331,400.5,331.1,400.7z"/>
	<path d="M293.7,411.1c0-0.1,0-0.2,0-0.2c-0.2-0.3-0.4-0.5-0.7-0.7c-0.3-0.2-0.6-0.2-0.9-0.2c-0.3,0-0.6,0.1-0.8,0.2
		c-0.3,0.2-0.5,0.4-0.7,0.7c-0.2,0.3-0.4,0.6-0.5,1.1c-0.1,0.4-0.2,0.9-0.2,1.4c0,0.5,0.1,1,0.2,1.4c0.1,0.4,0.3,0.8,0.5,1.1
		c0.2,0.3,0.4,0.5,0.7,0.7c0.3,0.2,0.6,0.2,0.9,0.2c0.3,0,0.6-0.1,0.9-0.3c0.3-0.2,0.5-0.4,0.7-0.7l0.7,0.4
		c-0.1,0.2-0.3,0.4-0.5,0.6c-0.2,0.2-0.4,0.3-0.6,0.4c-0.2,0.1-0.4,0.2-0.6,0.3c-0.2,0.1-0.4,0.1-0.6,0.1c-0.5,0-0.9-0.1-1.2-0.2
		c-0.4-0.2-0.7-0.4-1-0.7c-0.3-0.3-0.5-0.8-0.7-1.3c-0.2-0.5-0.2-1.1-0.2-1.9c0-0.8,0.1-1.5,0.3-2c0.2-0.5,0.4-1,0.8-1.3
		c0.3-0.3,0.6-0.5,1-0.7c0.4-0.1,0.7-0.2,1-0.2c0.3,0,0.5,0,0.8,0.1s0.5,0.2,0.7,0.3c0.2,0.1,0.4,0.3,0.6,0.5s0.3,0.4,0.4,0.7
		l-0.9,0.4C293.7,411.2,293.7,411.2,293.7,411.1z"/>
	<path d="M295.8,409.3h2.6c0.5,0,0.8,0.1,1.2,0.2c0.3,0.1,0.6,0.3,0.8,0.5c0.2,0.2,0.4,0.5,0.5,0.7s0.2,0.6,0.2,0.9
		c0,0.3-0.1,0.6-0.2,0.9c-0.1,0.3-0.2,0.5-0.4,0.7c-0.2,0.2-0.4,0.4-0.8,0.5c-0.3,0.1-0.7,0.2-1.1,0.2h-1.7v3.6h-0.9V409.3z
		 M296.7,410.2v2.9h1.6c0.6,0,1-0.1,1.3-0.4s0.4-0.6,0.4-1c0-0.2-0.1-0.4-0.1-0.6c-0.1-0.2-0.2-0.3-0.3-0.5
		c-0.1-0.1-0.3-0.2-0.5-0.3c-0.2-0.1-0.4-0.1-0.7-0.1H296.7z"/>
	<path d="M303.7,409.3h3.7v0.8h-1.2v4.6c0,0.5,0,1-0.1,1.3c-0.1,0.4-0.3,0.7-0.5,0.9s-0.5,0.4-0.7,0.5c-0.3,0.1-0.5,0.1-0.8,0.1
		c-0.8,0-1.4-0.3-1.9-0.9l0.6-0.7c0,0,0,0.1,0,0.1c0,0.1,0,0.1,0,0.1l0.2,0.2c0,0,0.1,0.1,0.2,0.1c0.1,0,0.2,0.1,0.3,0.1
		c0.1,0,0.2,0.1,0.3,0.1c0.1,0,0.2,0,0.3,0c0.4,0,0.7-0.2,0.9-0.5c0.2-0.3,0.3-0.8,0.3-1.6v-4.6h-1.6V409.3z"/>
	<path d="M319.3,412.3v-3.6h1c0,0.1,0,0.1-0.1,0.2c0,0.1-0.1,0.1-0.1,0.2l0,7.7c0,0.2,0,0.4,0.1,0.5h-0.9c0-0.1-0.1-0.3-0.1-0.4
		v-0.5c-0.2,0.3-0.4,0.6-0.8,0.8s-0.7,0.3-1,0.3c-0.3,0-0.6-0.1-0.9-0.2c-0.3-0.1-0.5-0.3-0.8-0.6c-0.2-0.3-0.4-0.6-0.5-1
		s-0.2-0.9-0.2-1.4c0-0.5,0.1-1,0.2-1.4c0.1-0.4,0.3-0.7,0.6-0.9s0.5-0.4,0.8-0.5c0.3-0.1,0.6-0.2,0.9-0.2c0.4,0,0.8,0.1,1.1,0.3
		C318.9,411.8,319.2,412,319.3,412.3z M316.6,412.5c-0.4,0.3-0.6,0.9-0.6,1.7c0,0.7,0.1,1.3,0.4,1.8c0.3,0.5,0.7,0.7,1.2,0.7
		c0.1,0,0.3,0,0.4-0.1c0.1,0,0.3-0.1,0.4-0.2c0.1-0.1,0.2-0.2,0.3-0.3c0.1-0.1,0.2-0.3,0.2-0.4c0.1-0.3,0.1-0.7,0.1-1.3
		c0-0.3,0-0.6,0-0.8s-0.1-0.4-0.1-0.6s-0.1-0.3-0.2-0.4c-0.1-0.1-0.2-0.2-0.3-0.3c-0.2-0.1-0.3-0.2-0.4-0.2c-0.1,0-0.3-0.1-0.4-0.1
		c-0.2,0-0.5,0-0.6,0.1C316.9,412.2,316.7,412.3,316.6,412.5z"/>
	<path d="M322.2,412.2c0.5-0.6,1.2-0.8,2.1-0.8c0.7,0,1.3,0.2,1.7,0.6c0.4,0.4,0.6,1,0.6,1.8v3.7h-0.9v-0.6
		c-0.6,0.5-1.3,0.8-2.1,0.8c-0.3,0-0.6,0-0.8-0.1c-0.2-0.1-0.5-0.2-0.6-0.4c-0.2-0.2-0.3-0.3-0.4-0.5c-0.1-0.2-0.1-0.4-0.1-0.6
		c0-0.6,0.3-1.1,0.8-1.4c0.5-0.3,1.3-0.5,2.2-0.6h1.1v-0.2c0-0.6-0.1-1-0.4-1.2c-0.2-0.2-0.6-0.4-1.2-0.4c-0.6,0-1.2,0.2-1.6,0.7
		L322.2,412.2z M325.8,414.6h-0.2c-0.1,0-0.2,0-0.3,0s-0.2,0-0.3,0c-0.5,0-0.9,0-1.2,0.1c-0.3,0.1-0.5,0.2-0.7,0.3
		c-0.2,0.1-0.3,0.2-0.4,0.4c-0.1,0.1-0.1,0.3-0.1,0.5c0,0.3,0.1,0.5,0.4,0.7c0.2,0.2,0.5,0.3,0.9,0.3c0.3,0,0.5,0,0.7-0.1
		c0.2-0.1,0.4-0.2,0.5-0.3c0.2-0.1,0.3-0.2,0.4-0.4c0.1-0.1,0.2-0.2,0.2-0.3c0.1-0.2,0.1-0.4,0.1-0.7V414.6z"/>
	<path d="M329.9,409.9l1-0.2c0,0.1,0,0.1,0,0.2c0,0.1,0,0.1,0,0.1l-0.2,1.4h2v0.8h-2c-0.1,0.8-0.1,1.5-0.1,2.2c0,0.4,0,0.8,0,1.1
		s0.1,0.5,0.1,0.7c0.1,0.2,0.2,0.3,0.3,0.4c0.1,0.1,0.3,0.1,0.6,0.1c0.4,0,0.8-0.2,1.3-0.5l0.3,0.7c-0.6,0.4-1.2,0.7-1.8,0.7
		c-0.6,0-1.1-0.2-1.4-0.6s-0.4-1-0.4-1.8c0-0.3,0-0.7,0-1.2c0-0.5,0.1-1.1,0.1-1.7h-1.4v-0.8h1.4L329.9,409.9z"/>
	<path d="M335.2,412.2c0.5-0.6,1.2-0.8,2.1-0.8c0.7,0,1.3,0.2,1.7,0.6c0.4,0.4,0.6,1,0.6,1.8v3.7h-0.9v-0.6
		c-0.6,0.5-1.3,0.8-2.1,0.8c-0.3,0-0.6,0-0.8-0.1c-0.2-0.1-0.5-0.2-0.6-0.4c-0.2-0.2-0.3-0.3-0.4-0.5c-0.1-0.2-0.1-0.4-0.1-0.6
		c0-0.6,0.3-1.1,0.8-1.4c0.5-0.3,1.3-0.5,2.2-0.6h1.1v-0.2c0-0.6-0.1-1-0.4-1.2c-0.2-0.2-0.6-0.4-1.2-0.4c-0.6,0-1.2,0.2-1.6,0.7
		L335.2,412.2z M338.8,414.6h-0.2c-0.1,0-0.2,0-0.3,0s-0.2,0-0.3,0c-0.5,0-0.9,0-1.2,0.1c-0.3,0.1-0.5,0.2-0.7,0.3
		c-0.2,0.1-0.3,0.2-0.4,0.4c-0.1,0.1-0.1,0.3-0.1,0.5c0,0.3,0.1,0.5,0.4,0.7c0.2,0.2,0.5,0.3,0.9,0.3c0.3,0,0.5,0,0.7-0.1
		c0.2-0.1,0.4-0.2,0.5-0.3c0.2-0.1,0.3-0.2,0.4-0.4c0.1-0.1,0.2-0.2,0.2-0.3c0.1-0.2,0.1-0.4,0.1-0.7V414.6z"/>
	<path d="M341.3,408.8h1.1v0c0,0,0,0.1-0.1,0.1s-0.1,0.1-0.1,0.1v3.3c0.2-0.3,0.4-0.6,0.8-0.8c0.3-0.2,0.7-0.3,1-0.3
		c0.3,0,0.6,0.1,0.9,0.2c0.3,0.1,0.6,0.3,0.8,0.6c0.2,0.3,0.4,0.6,0.5,1s0.2,0.8,0.2,1.3c0,0.5-0.1,1-0.2,1.4s-0.3,0.7-0.6,1
		c-0.2,0.3-0.5,0.5-0.8,0.6c-0.3,0.1-0.6,0.2-0.9,0.2c-0.4,0-0.7-0.1-1-0.2c-0.3-0.2-0.6-0.4-0.8-0.7l-0.3,0.8h-0.6V408.8z
		 M342.9,416.5c0.2,0.1,0.3,0.1,0.4,0.2c0.1,0,0.3,0,0.4,0c0.2,0,0.4,0,0.6-0.1c0.2-0.1,0.4-0.2,0.6-0.3s0.3-0.4,0.4-0.7
		c0.1-0.3,0.2-0.6,0.2-1c0-0.8-0.2-1.4-0.5-1.8c-0.3-0.4-0.8-0.6-1.4-0.6c-0.2,0-0.5,0.1-0.7,0.2c-0.2,0.2-0.4,0.4-0.5,0.6
		c-0.1,0.3-0.2,0.7-0.2,1.3c0,0.4,0,0.7,0,0.9s0.1,0.5,0.1,0.6c0.1,0.2,0.1,0.3,0.2,0.4S342.8,416.4,342.9,416.5z"/>
	<path d="M348.2,412.2c0.5-0.6,1.2-0.8,2.1-0.8c0.7,0,1.3,0.2,1.7,0.6c0.4,0.4,0.6,1,0.6,1.8v3.7h-0.9v-0.6
		c-0.6,0.5-1.3,0.8-2.1,0.8c-0.3,0-0.6,0-0.8-0.1c-0.2-0.1-0.5-0.2-0.6-0.4c-0.2-0.2-0.3-0.3-0.4-0.5c-0.1-0.2-0.1-0.4-0.1-0.6
		c0-0.6,0.3-1.1,0.8-1.4c0.5-0.3,1.3-0.5,2.2-0.6h1.1v-0.2c0-0.6-0.1-1-0.4-1.2c-0.2-0.2-0.6-0.4-1.2-0.4c-0.6,0-1.2,0.2-1.6,0.7
		L348.2,412.2z M351.8,414.6h-0.2c-0.1,0-0.2,0-0.3,0s-0.2,0-0.3,0c-0.5,0-0.9,0-1.2,0.1c-0.3,0.1-0.5,0.2-0.7,0.3
		c-0.2,0.1-0.3,0.2-0.4,0.4c-0.1,0.1-0.1,0.3-0.1,0.5c0,0.3,0.1,0.5,0.4,0.7c0.2,0.2,0.5,0.3,0.9,0.3c0.3,0,0.5,0,0.7-0.1
		c0.2-0.1,0.4-0.2,0.5-0.3c0.2-0.1,0.3-0.2,0.4-0.4c0.1-0.1,0.2-0.2,0.2-0.3c0.1-0.2,0.1-0.4,0.1-0.7V414.6z"/>
	<path d="M359.1,412.2l-0.5,0.8c0,0-0.1,0-0.1-0.1c0-0.1,0-0.1,0-0.1c-0.2-0.2-0.4-0.4-0.7-0.6c-0.3-0.2-0.6-0.3-1-0.3
		c-0.2,0-0.3,0-0.5,0.1c-0.2,0-0.3,0.1-0.4,0.2s-0.2,0.2-0.3,0.3c-0.1,0.1-0.1,0.2-0.1,0.4c0,0.1,0,0.2,0.1,0.3
		c0.1,0.1,0.1,0.2,0.2,0.2s0.3,0.2,0.5,0.2c0.2,0.1,0.5,0.2,0.8,0.3c0.8,0.2,1.3,0.4,1.6,0.7s0.5,0.6,0.5,1c0,0.3-0.1,0.5-0.2,0.7
		c-0.1,0.2-0.3,0.4-0.5,0.6c-0.2,0.2-0.5,0.3-0.8,0.4c-0.3,0.1-0.6,0.2-1,0.2c-1,0-1.8-0.3-2.5-0.9l0.5-0.9c0,0,0,0.1,0.1,0.1
		c0,0.1,0,0.1,0.1,0.2c0.1,0.1,0.1,0.2,0.3,0.3s0.4,0.2,0.6,0.3c0.1,0.1,0.3,0.1,0.4,0.1s0.3,0,0.5,0c0.2,0,0.4,0,0.5-0.1
		c0.2,0,0.3-0.1,0.5-0.2c0.1-0.1,0.3-0.2,0.3-0.3c0.1-0.1,0.1-0.3,0.1-0.4c0-0.2-0.1-0.4-0.3-0.6c-0.2-0.2-0.6-0.3-1.2-0.5
		c-0.4-0.1-0.6-0.2-0.8-0.2c-0.3-0.1-0.5-0.2-0.7-0.3s-0.3-0.2-0.4-0.3c-0.1-0.1-0.2-0.3-0.3-0.4c-0.1-0.2-0.1-0.3-0.1-0.5
		c0-0.2,0.1-0.4,0.2-0.6c0.1-0.2,0.3-0.4,0.5-0.5c0.2-0.1,0.4-0.3,0.7-0.4s0.6-0.1,0.9-0.1C357.8,411.3,358.6,411.6,359.1,412.2z"/>
	<path d="M363.4,411.3c0.3,0,0.6,0.1,0.9,0.2c0.3,0.1,0.6,0.3,0.8,0.5c0.2,0.2,0.4,0.5,0.5,0.9c0.1,0.4,0.2,0.8,0.2,1.3
		c0,0.1,0,0.1,0,0.2c0,0.1,0,0.1,0,0.2h-4.2c0,0.4,0.1,0.8,0.2,1s0.3,0.5,0.5,0.7s0.4,0.3,0.6,0.4c0.2,0.1,0.5,0.1,0.7,0.1
		c0.6,0,1.1-0.2,1.5-0.7l0.5,0.5c-0.5,0.6-1.2,0.9-2.1,0.9c-0.4,0-0.8-0.1-1.2-0.2c-0.4-0.1-0.7-0.3-0.9-0.6s-0.4-0.6-0.6-1
		s-0.2-0.8-0.2-1.3c0-0.5,0.1-0.9,0.2-1.3c0.1-0.4,0.3-0.7,0.6-1c0.2-0.3,0.5-0.5,0.9-0.6S363,411.3,363.4,411.3z M361.6,413.8h3.3
		c0,0,0-0.1,0-0.1c0,0,0-0.1,0-0.1c0-0.2,0-0.4-0.1-0.6c-0.1-0.2-0.2-0.4-0.3-0.5s-0.3-0.3-0.5-0.3s-0.4-0.1-0.6-0.1
		c-0.4,0-0.8,0.1-1.1,0.4C361.9,412.7,361.7,413.2,361.6,413.8z"/>
	<path d="M373.9,412.9h4.7v0.9h-4.7V412.9z"/>
	<path d="M388.2,409.3h3.7v0.8h-1.2v4.6c0,0.5,0,1-0.1,1.3c-0.1,0.4-0.3,0.7-0.5,0.9s-0.5,0.4-0.7,0.5c-0.3,0.1-0.5,0.1-0.8,0.1
		c-0.8,0-1.4-0.3-1.9-0.9l0.6-0.7c0,0,0,0.1,0,0.1c0,0.1,0,0.1,0,0.1l0.2,0.2c0,0,0.1,0.1,0.2,0.1c0.1,0,0.2,0.1,0.3,0.1
		c0.1,0,0.2,0.1,0.3,0.1c0.1,0,0.2,0,0.3,0c0.4,0,0.7-0.2,0.9-0.5c0.2-0.3,0.3-0.8,0.3-1.6v-4.6h-1.6V409.3z"/>
	<path d="M395.8,411.3c0.4,0,0.7,0.1,1,0.2c0.3,0.1,0.6,0.3,0.9,0.6c0.2,0.3,0.4,0.6,0.6,1c0.1,0.4,0.2,0.8,0.2,1.3
		c0,0.5-0.1,0.9-0.2,1.3c-0.1,0.4-0.3,0.7-0.6,1c-0.2,0.3-0.5,0.5-0.9,0.6c-0.3,0.1-0.7,0.2-1.1,0.2c-0.4,0-0.7-0.1-1.1-0.2
		c-0.3-0.2-0.6-0.4-0.9-0.6c-0.3-0.3-0.5-0.6-0.6-1c-0.1-0.4-0.2-0.8-0.2-1.2s0.1-0.9,0.2-1.2s0.4-0.7,0.6-1
		c0.3-0.3,0.6-0.5,0.9-0.7S395.4,411.3,395.8,411.3z M397.5,414.5c0-0.4,0-0.7-0.1-1c-0.1-0.3-0.2-0.5-0.4-0.7
		c-0.2-0.2-0.4-0.4-0.6-0.5c-0.2-0.1-0.4-0.2-0.7-0.2s-0.5,0.1-0.7,0.2c-0.2,0.1-0.4,0.3-0.6,0.5s-0.3,0.4-0.4,0.7
		c-0.1,0.3-0.1,0.6-0.1,1c0,0.3,0,0.7,0.1,0.9c0.1,0.3,0.2,0.5,0.4,0.7c0.2,0.2,0.3,0.4,0.6,0.5s0.4,0.2,0.7,0.2
		c0.2,0,0.5,0,0.7-0.1c0.2-0.1,0.4-0.2,0.6-0.4c0.2-0.2,0.3-0.4,0.4-0.7C397.5,415.1,397.5,414.8,397.5,414.5z"/>
	<path d="M399.8,411.5h0.9v3.3c0,0.4,0,0.7,0.1,1c0.1,0.3,0.2,0.5,0.3,0.6c0.1,0.2,0.3,0.3,0.4,0.3c0.2,0.1,0.3,0.1,0.5,0.1
		c0.2,0,0.4-0.1,0.6-0.2s0.4-0.2,0.5-0.4s0.3-0.4,0.4-0.6c0.1-0.3,0.1-0.6,0.1-0.9v-3.3h0.9v5.4c0,0.2,0,0.4,0.1,0.5h-1
		c0-0.1,0-0.1,0-0.2c0-0.1,0-0.2,0-0.3l0-0.5c-0.2,0.3-0.5,0.6-0.8,0.8c-0.3,0.2-0.7,0.3-1.1,0.3c-0.3,0-0.6-0.1-0.8-0.2
		c-0.2-0.1-0.5-0.3-0.7-0.5c-0.2-0.2-0.3-0.5-0.4-0.9c-0.1-0.3-0.2-0.8-0.2-1.2L399.8,411.5z"/>
	<path d="M406.8,411.5h1l0,1.1c0.2-0.4,0.5-0.7,0.9-1c0.4-0.2,0.8-0.3,1.3-0.3c0.6,0,1.2,0.2,1.6,0.7l-0.4,0.9
		c-0.1-0.1-0.2-0.2-0.3-0.3c-0.1-0.1-0.2-0.2-0.3-0.2c-0.1-0.1-0.2-0.1-0.3-0.1s-0.2-0.1-0.4-0.1c-0.3,0-0.6,0.1-0.8,0.2
		c-0.3,0.1-0.5,0.3-0.7,0.5c-0.2,0.2-0.3,0.5-0.5,0.8c-0.1,0.3-0.2,0.6-0.2,0.9v2.9h-0.9V411.5z"/>
	<path d="M412.9,417.4v-5.9h0.9v1.1c0.2-0.4,0.5-0.7,0.9-0.9c0.4-0.2,0.7-0.3,1.1-0.3c0.3,0,0.5,0,0.7,0.1c0.2,0.1,0.4,0.2,0.6,0.4
		c0.2,0.2,0.3,0.5,0.4,0.8c0.1,0.3,0.1,0.7,0.1,1.1v3.6h-0.9v-3.6c0-0.6-0.1-1.1-0.3-1.3c-0.2-0.3-0.5-0.4-0.8-0.4
		c-0.2,0-0.4,0-0.6,0.1c-0.2,0.1-0.4,0.2-0.6,0.4c-0.2,0.2-0.3,0.4-0.4,0.6c-0.1,0.2-0.2,0.5-0.2,0.8v3.4H412.9z"/>
	<path d="M419.7,412.2c0.5-0.6,1.2-0.8,2.1-0.8c0.7,0,1.3,0.2,1.7,0.6c0.4,0.4,0.6,1,0.6,1.8v3.7h-0.9v-0.6
		c-0.6,0.5-1.3,0.8-2.1,0.8c-0.3,0-0.6,0-0.8-0.1c-0.2-0.1-0.5-0.2-0.6-0.4c-0.2-0.2-0.3-0.3-0.4-0.5c-0.1-0.2-0.1-0.4-0.1-0.6
		c0-0.6,0.3-1.1,0.8-1.4c0.5-0.3,1.3-0.5,2.2-0.6h1.1v-0.2c0-0.6-0.1-1-0.4-1.2c-0.2-0.2-0.6-0.4-1.2-0.4c-0.6,0-1.2,0.2-1.6,0.7
		L419.7,412.2z M423.3,414.6h-0.2c-0.1,0-0.2,0-0.3,0s-0.2,0-0.3,0c-0.5,0-0.9,0-1.2,0.1c-0.3,0.1-0.5,0.2-0.7,0.3
		c-0.2,0.1-0.3,0.2-0.4,0.4c-0.1,0.1-0.1,0.3-0.1,0.5c0,0.3,0.1,0.5,0.4,0.7c0.2,0.2,0.5,0.3,0.9,0.3c0.3,0,0.5,0,0.7-0.1
		c0.2-0.1,0.4-0.2,0.5-0.3c0.2-0.1,0.3-0.2,0.4-0.4c0.1-0.1,0.2-0.2,0.2-0.3c0.1-0.2,0.1-0.4,0.1-0.7V414.6z"/>
	<path d="M426.1,408.8h2.6v7.9h1.7v0.8H426v-0.8h1.8v-7.1h-1.7V408.8z"/>
	<path d="M432.9,411.5h2.4v5.2h1.4v0.8h-3.8v-0.8h1.5v-4.4h-1.4V411.5z M434.3,409.1c0.1-0.1,0.3-0.2,0.5-0.2s0.3,0.1,0.5,0.2
		c0.1,0.1,0.2,0.3,0.2,0.5s-0.1,0.3-0.2,0.5c-0.1,0.1-0.3,0.2-0.5,0.2s-0.3-0.1-0.5-0.2c-0.1-0.1-0.2-0.3-0.2-0.5
		C434.1,409.4,434.2,409.2,434.3,409.1z"/>
	<path d="M443.6,412.2l-0.5,0.8c0,0-0.1,0-0.1-0.1c0-0.1,0-0.1,0-0.1c-0.2-0.2-0.4-0.4-0.7-0.6c-0.3-0.2-0.6-0.3-1-0.3
		c-0.2,0-0.3,0-0.5,0.1c-0.2,0-0.3,0.1-0.4,0.2s-0.2,0.2-0.3,0.3c-0.1,0.1-0.1,0.2-0.1,0.4c0,0.1,0,0.2,0.1,0.3
		c0.1,0.1,0.1,0.2,0.2,0.2s0.3,0.2,0.5,0.2c0.2,0.1,0.5,0.2,0.8,0.3c0.8,0.2,1.3,0.4,1.6,0.7s0.5,0.6,0.5,1c0,0.3-0.1,0.5-0.2,0.7
		c-0.1,0.2-0.3,0.4-0.5,0.6c-0.2,0.2-0.5,0.3-0.8,0.4c-0.3,0.1-0.6,0.2-1,0.2c-1,0-1.8-0.3-2.5-0.9l0.5-0.9c0,0,0,0.1,0.1,0.1
		c0,0.1,0,0.1,0.1,0.2c0.1,0.1,0.1,0.2,0.3,0.3s0.4,0.2,0.6,0.3c0.1,0.1,0.3,0.1,0.4,0.1s0.3,0,0.5,0c0.2,0,0.4,0,0.5-0.1
		c0.2,0,0.3-0.1,0.5-0.2c0.1-0.1,0.3-0.2,0.3-0.3c0.1-0.1,0.1-0.3,0.1-0.4c0-0.2-0.1-0.4-0.3-0.6c-0.2-0.2-0.6-0.3-1.2-0.5
		c-0.4-0.1-0.6-0.2-0.8-0.2c-0.3-0.1-0.5-0.2-0.7-0.3s-0.3-0.2-0.4-0.3c-0.1-0.1-0.2-0.3-0.3-0.4c-0.1-0.2-0.1-0.3-0.1-0.5
		c0-0.2,0.1-0.4,0.2-0.6c0.1-0.2,0.3-0.4,0.5-0.5c0.2-0.1,0.4-0.3,0.7-0.4s0.6-0.1,0.9-0.1C442.3,411.3,443.1,411.6,443.6,412.2z"/>
	<path d="M446.9,409.9l1-0.2c0,0.1,0,0.1,0,0.2c0,0.1,0,0.1,0,0.1l-0.2,1.4h2v0.8h-2c-0.1,0.8-0.1,1.5-0.1,2.2c0,0.4,0,0.8,0,1.1
		s0.1,0.5,0.1,0.7c0.1,0.2,0.2,0.3,0.3,0.4c0.1,0.1,0.3,0.1,0.6,0.1c0.4,0,0.8-0.2,1.3-0.5l0.3,0.7c-0.6,0.4-1.2,0.7-1.8,0.7
		c-0.6,0-1.1-0.2-1.4-0.6s-0.4-1-0.4-1.8c0-0.3,0-0.7,0-1.2c0-0.5,0.1-1.1,0.1-1.7h-1.4v-0.8h1.4L446.9,409.9z"/>
	<path d="M456.6,412.2l-0.5,0.8c0,0-0.1,0-0.1-0.1c0-0.1,0-0.1,0-0.1c-0.2-0.2-0.4-0.4-0.7-0.6c-0.3-0.2-0.6-0.3-1-0.3
		c-0.2,0-0.3,0-0.5,0.1c-0.2,0-0.3,0.1-0.4,0.2s-0.2,0.2-0.3,0.3c-0.1,0.1-0.1,0.2-0.1,0.4c0,0.1,0,0.2,0.1,0.3
		c0.1,0.1,0.1,0.2,0.2,0.2s0.3,0.2,0.5,0.2c0.2,0.1,0.5,0.2,0.8,0.3c0.8,0.2,1.3,0.4,1.6,0.7s0.5,0.6,0.5,1c0,0.3-0.1,0.5-0.2,0.7
		c-0.1,0.2-0.3,0.4-0.5,0.6c-0.2,0.2-0.5,0.3-0.8,0.4c-0.3,0.1-0.6,0.2-1,0.2c-1,0-1.8-0.3-2.5-0.9l0.5-0.9c0,0,0,0.1,0.1,0.1
		c0,0.1,0,0.1,0.1,0.2c0.1,0.1,0.1,0.2,0.3,0.3s0.4,0.2,0.6,0.3c0.1,0.1,0.3,0.1,0.4,0.1s0.3,0,0.5,0c0.2,0,0.4,0,0.5-0.1
		c0.2,0,0.3-0.1,0.5-0.2c0.1-0.1,0.3-0.2,0.3-0.3c0.1-0.1,0.1-0.3,0.1-0.4c0-0.2-0.1-0.4-0.3-0.6c-0.2-0.2-0.6-0.3-1.2-0.5
		c-0.4-0.1-0.6-0.2-0.8-0.2c-0.3-0.1-0.5-0.2-0.7-0.3s-0.3-0.2-0.4-0.3c-0.1-0.1-0.2-0.3-0.3-0.4c-0.1-0.2-0.1-0.3-0.1-0.5
		c0-0.2,0.1-0.4,0.2-0.6c0.1-0.2,0.3-0.4,0.5-0.5c0.2-0.1,0.4-0.3,0.7-0.4s0.6-0.1,0.9-0.1C455.3,411.3,456.1,411.6,456.6,412.2z"/>
	<path d="M464.9,408.8h1.1c0,0.1,0,0.1-0.1,0.2c0,0.1-0.1,0.1-0.1,0.2v5.1l3-2.8c0.2,0,0.4,0.1,0.7,0.1h0.3l-2.5,2.4l2.9,3.5
		l-1.2,0.1l-2.4-3l-0.8,0.7v2.2h-0.9V408.8z"/>
	<path d="M471.9,411.5h2.4v5.2h1.4v0.8h-3.8v-0.8h1.5v-4.4h-1.4V411.5z M473.3,409.1c0.1-0.1,0.3-0.2,0.5-0.2s0.3,0.1,0.5,0.2
		c0.1,0.1,0.2,0.3,0.2,0.5s-0.1,0.3-0.2,0.5c-0.1,0.1-0.3,0.2-0.5,0.2s-0.3-0.1-0.5-0.2c-0.1-0.1-0.2-0.3-0.2-0.5
		C473.1,409.4,473.2,409.2,473.3,409.1z"/>
	<path d="M478.1,408.8h2.6v7.9h1.7v0.8H478v-0.8h1.8v-7.1h-1.7V408.8z"/>
	<path d="M484.6,408.8h2.6v7.9h1.7v0.8h-4.4v-0.8h1.8v-7.1h-1.7V408.8z"/>
	<path d="M493.4,411.3c0.3,0,0.6,0.1,0.9,0.2c0.3,0.1,0.6,0.3,0.8,0.5c0.2,0.2,0.4,0.5,0.5,0.9c0.1,0.4,0.2,0.8,0.2,1.3
		c0,0.1,0,0.1,0,0.2c0,0.1,0,0.1,0,0.2h-4.2c0,0.4,0.1,0.8,0.2,1s0.3,0.5,0.5,0.7s0.4,0.3,0.6,0.4c0.2,0.1,0.5,0.1,0.7,0.1
		c0.6,0,1.1-0.2,1.5-0.7l0.5,0.5c-0.5,0.6-1.2,0.9-2.1,0.9c-0.4,0-0.8-0.1-1.2-0.2c-0.4-0.1-0.7-0.3-0.9-0.6s-0.4-0.6-0.6-1
		s-0.2-0.8-0.2-1.3c0-0.5,0.1-0.9,0.2-1.3c0.1-0.4,0.3-0.7,0.6-1c0.2-0.3,0.5-0.5,0.9-0.6S493,411.3,493.4,411.3z M491.6,413.8h3.3
		c0,0,0-0.1,0-0.1c0,0,0-0.1,0-0.1c0-0.2,0-0.4-0.1-0.6c-0.1-0.2-0.2-0.4-0.3-0.5s-0.3-0.3-0.5-0.3s-0.4-0.1-0.6-0.1
		c-0.4,0-0.8,0.1-1.1,0.4C491.9,412.7,491.7,413.2,491.6,413.8z"/>
	<path d="M501.3,412.3v-3.6h1c0,0.1,0,0.1-0.1,0.2c0,0.1-0.1,0.1-0.1,0.2l0,7.7c0,0.2,0,0.4,0.1,0.5h-0.9c0-0.1-0.1-0.3-0.1-0.4
		v-0.5c-0.2,0.3-0.4,0.6-0.8,0.8s-0.7,0.3-1,0.3c-0.3,0-0.6-0.1-0.9-0.2c-0.3-0.1-0.5-0.3-0.8-0.6c-0.2-0.3-0.4-0.6-0.5-1
		s-0.2-0.9-0.2-1.4c0-0.5,0.1-1,0.2-1.4c0.1-0.4,0.3-0.7,0.6-0.9s0.5-0.4,0.8-0.5c0.3-0.1,0.6-0.2,0.9-0.2c0.4,0,0.8,0.1,1.1,0.3
		C500.9,411.8,501.2,412,501.3,412.3z M498.6,412.5c-0.4,0.3-0.6,0.9-0.6,1.7c0,0.7,0.1,1.3,0.4,1.8c0.3,0.5,0.7,0.7,1.2,0.7
		c0.1,0,0.3,0,0.4-0.1c0.1,0,0.3-0.1,0.4-0.2c0.1-0.1,0.2-0.2,0.3-0.3c0.1-0.1,0.2-0.3,0.2-0.4c0.1-0.3,0.1-0.7,0.1-1.3
		c0-0.3,0-0.6,0-0.8s-0.1-0.4-0.1-0.6s-0.1-0.3-0.2-0.4c-0.1-0.1-0.2-0.2-0.3-0.3c-0.2-0.1-0.3-0.2-0.4-0.2c-0.1,0-0.3-0.1-0.4-0.1
		c-0.2,0-0.5,0-0.6,0.1C498.9,412.2,498.7,412.3,498.6,412.5z"/>
	<path d="M294.1,427.9l-0.5,0.8c0,0-0.1,0-0.1-0.1s0-0.1,0-0.1c-0.2-0.2-0.4-0.4-0.7-0.6c-0.3-0.2-0.6-0.3-1-0.3
		c-0.2,0-0.3,0-0.5,0.1c-0.2,0-0.3,0.1-0.4,0.2c-0.1,0.1-0.2,0.2-0.3,0.3c-0.1,0.1-0.1,0.2-0.1,0.4c0,0.1,0,0.2,0.1,0.3
		c0.1,0.1,0.1,0.2,0.2,0.2s0.3,0.2,0.5,0.2c0.2,0.1,0.5,0.2,0.8,0.3c0.8,0.2,1.3,0.4,1.6,0.7c0.3,0.3,0.5,0.6,0.5,1
		c0,0.3-0.1,0.5-0.2,0.7s-0.3,0.4-0.5,0.6s-0.5,0.3-0.8,0.4c-0.3,0.1-0.6,0.1-1,0.1c-1,0-1.8-0.3-2.5-0.9l0.5-0.9c0,0,0,0.1,0.1,0.1
		s0,0.1,0.1,0.2c0.1,0.1,0.1,0.2,0.3,0.3c0.1,0.1,0.4,0.2,0.6,0.3c0.1,0.1,0.3,0.1,0.4,0.1c0.2,0,0.3,0,0.5,0c0.2,0,0.4,0,0.5-0.1
		c0.2,0,0.3-0.1,0.5-0.2c0.1-0.1,0.3-0.2,0.3-0.3c0.1-0.1,0.1-0.3,0.1-0.4c0-0.2-0.1-0.4-0.3-0.6c-0.2-0.2-0.6-0.3-1.2-0.5
		c-0.4-0.1-0.6-0.2-0.8-0.2c-0.3-0.1-0.5-0.2-0.7-0.3c-0.1-0.1-0.3-0.2-0.4-0.3s-0.2-0.3-0.3-0.4c-0.1-0.2-0.1-0.3-0.1-0.5
		c0-0.2,0.1-0.4,0.2-0.6c0.1-0.2,0.3-0.4,0.5-0.5c0.2-0.1,0.4-0.3,0.7-0.4c0.3-0.1,0.6-0.1,0.9-0.1
		C292.8,426.9,293.6,427.2,294.1,427.9z"/>
	<path d="M296.4,427.1h2.4v5.2h1.4v0.8h-3.8v-0.8h1.5v-4.4h-1.4V427.1z M297.8,424.7c0.1-0.1,0.3-0.2,0.5-0.2s0.3,0.1,0.5,0.2
		c0.1,0.1,0.2,0.3,0.2,0.5c0,0.2-0.1,0.3-0.2,0.5c-0.1,0.1-0.3,0.2-0.5,0.2s-0.3-0.1-0.5-0.2c-0.1-0.1-0.2-0.3-0.2-0.5
		C297.6,425,297.7,424.8,297.8,424.7z"/>
	<path d="M302.4,433v-5.9h0.9v1.1c0.2-0.4,0.5-0.7,0.9-0.9s0.7-0.3,1.1-0.3c0.3,0,0.5,0,0.7,0.1s0.4,0.2,0.6,0.4
		c0.2,0.2,0.3,0.5,0.4,0.8s0.1,0.7,0.1,1.1v3.6h-0.9v-3.6c0-0.6-0.1-1.1-0.3-1.3c-0.2-0.3-0.5-0.4-0.8-0.4c-0.2,0-0.4,0-0.6,0.1
		s-0.4,0.2-0.6,0.4c-0.2,0.2-0.3,0.4-0.4,0.6c-0.1,0.2-0.2,0.5-0.2,0.8v3.4H302.4z"/>
	<path d="M313.9,428l-0.7,0.8c0,0-0.1-0.1-0.1-0.1s0-0.1,0-0.1c0-0.1,0-0.1-0.1-0.2s-0.2-0.2-0.3-0.3c-0.3-0.2-0.7-0.4-1.2-0.4
		c-0.3,0-0.5,0.1-0.7,0.2c-0.2,0.1-0.4,0.3-0.6,0.4c-0.2,0.2-0.3,0.4-0.4,0.7c-0.1,0.3-0.2,0.6-0.2,0.9c0,0.3,0.1,0.6,0.2,0.9
		c0.1,0.3,0.2,0.5,0.4,0.7s0.4,0.4,0.7,0.5c0.3,0.1,0.5,0.2,0.8,0.2c0.6,0,1.1-0.2,1.6-0.7l0.5,0.6c-0.6,0.6-1.3,0.9-2.2,0.9
		c-0.4,0-0.8-0.1-1.2-0.2s-0.7-0.4-0.9-0.7c-0.3-0.3-0.5-0.6-0.6-1c-0.1-0.4-0.2-0.8-0.2-1.2c0-0.4,0.1-0.9,0.2-1.2
		c0.1-0.4,0.4-0.7,0.6-1c0.3-0.3,0.6-0.5,0.9-0.6c0.4-0.2,0.8-0.2,1.2-0.2c0.5,0,0.9,0.1,1.3,0.3C313.4,427.4,313.7,427.7,313.9,428
		z"/>
	<path d="M317.9,426.9c0.3,0,0.6,0.1,0.9,0.2c0.3,0.1,0.6,0.3,0.8,0.5c0.2,0.2,0.4,0.5,0.5,0.9c0.1,0.4,0.2,0.8,0.2,1.3
		c0,0.1,0,0.1,0,0.2c0,0.1,0,0.1,0,0.2H316c0,0.4,0.1,0.8,0.2,1c0.1,0.3,0.3,0.5,0.5,0.7c0.2,0.2,0.4,0.3,0.6,0.4
		c0.2,0.1,0.5,0.1,0.7,0.1c0.6,0,1.1-0.2,1.5-0.7l0.5,0.5c-0.5,0.6-1.2,0.9-2.1,0.9c-0.4,0-0.8-0.1-1.2-0.2
		c-0.4-0.1-0.7-0.3-0.9-0.6s-0.4-0.6-0.6-1c-0.1-0.4-0.2-0.8-0.2-1.3c0-0.5,0.1-0.9,0.2-1.3c0.1-0.4,0.3-0.7,0.6-1s0.5-0.5,0.9-0.6
		S317.5,426.9,317.9,426.9z M316.1,429.4h3.3c0,0,0-0.1,0-0.1c0,0,0-0.1,0-0.1c0-0.2,0-0.4-0.1-0.6c-0.1-0.2-0.2-0.4-0.3-0.5
		s-0.3-0.3-0.5-0.3c-0.2-0.1-0.4-0.1-0.6-0.1c-0.4,0-0.8,0.1-1.1,0.4C316.4,428.3,316.2,428.8,316.1,429.4z"/>
	<path d="M331.4,424.9v8.1h-0.9v-7l-1.6,0.5l-0.2-0.5l2.1-1.1H331.4z"/>
	<path d="M336.8,433.1c-0.7,0-1.3-0.2-1.8-0.7l0.6-0.7c0,0,0.1,0.1,0.1,0.2s0.1,0.1,0.1,0.2c0.3,0.2,0.6,0.3,0.9,0.3
		c0.6,0,1.1-0.2,1.5-0.7c0.3-0.5,0.5-1.3,0.5-2.4c-0.2,0.3-0.4,0.5-0.7,0.6c-0.3,0.2-0.6,0.2-0.9,0.2c-0.3,0-0.6-0.1-0.9-0.2
		c-0.3-0.1-0.5-0.3-0.7-0.5c-0.2-0.2-0.4-0.5-0.5-0.8c-0.1-0.3-0.2-0.7-0.2-1c0-0.4,0.1-0.7,0.2-1.1c0.1-0.3,0.3-0.6,0.5-0.8
		c0.2-0.2,0.5-0.4,0.7-0.6c0.3-0.1,0.6-0.2,0.9-0.2c0.8,0,1.4,0.3,1.8,1c0.4,0.7,0.6,1.8,0.6,3.3c0,0.7-0.1,1.3-0.2,1.8
		c-0.2,0.5-0.4,0.9-0.6,1.2c-0.3,0.3-0.6,0.6-0.9,0.7S337.2,433.1,336.8,433.1z M338.7,428.3c0-0.1,0-0.1,0-0.2c0-0.1,0-0.1,0-0.2
		c0-0.3,0-0.6-0.1-0.9s-0.2-0.5-0.3-0.7c-0.1-0.2-0.3-0.3-0.5-0.5c-0.2-0.1-0.4-0.2-0.6-0.2c-0.4,0-0.8,0.2-1.1,0.5
		c-0.3,0.3-0.4,0.8-0.4,1.4c0,0.3,0,0.5,0.1,0.7c0.1,0.2,0.2,0.4,0.3,0.6c0.1,0.2,0.3,0.3,0.4,0.4s0.3,0.1,0.5,0.1
		c0.3,0,0.7-0.1,0.9-0.3C338.3,428.8,338.6,428.6,338.7,428.3z"/>
	<path d="M343.3,433.1c-0.7,0-1.3-0.2-1.8-0.7l0.6-0.7c0,0,0.1,0.1,0.1,0.2s0.1,0.1,0.1,0.2c0.3,0.2,0.6,0.3,0.9,0.3
		c0.6,0,1.1-0.2,1.5-0.7c0.3-0.5,0.5-1.3,0.5-2.4c-0.2,0.3-0.4,0.5-0.7,0.6c-0.3,0.2-0.6,0.2-0.9,0.2c-0.3,0-0.6-0.1-0.9-0.2
		c-0.3-0.1-0.5-0.3-0.7-0.5c-0.2-0.2-0.4-0.5-0.5-0.8c-0.1-0.3-0.2-0.7-0.2-1c0-0.4,0.1-0.7,0.2-1.1c0.1-0.3,0.3-0.6,0.5-0.8
		c0.2-0.2,0.5-0.4,0.7-0.6c0.3-0.1,0.6-0.2,0.9-0.2c0.8,0,1.4,0.3,1.8,1c0.4,0.7,0.6,1.8,0.6,3.3c0,0.7-0.1,1.3-0.2,1.8
		c-0.2,0.5-0.4,0.9-0.6,1.2c-0.3,0.3-0.6,0.6-0.9,0.7S343.7,433.1,343.3,433.1z M345.2,428.3c0-0.1,0-0.1,0-0.2c0-0.1,0-0.1,0-0.2
		c0-0.3,0-0.6-0.1-0.9s-0.2-0.5-0.3-0.7c-0.1-0.2-0.3-0.3-0.5-0.5c-0.2-0.1-0.4-0.2-0.6-0.2c-0.4,0-0.8,0.2-1.1,0.5
		c-0.3,0.3-0.4,0.8-0.4,1.4c0,0.3,0,0.5,0.1,0.7c0.1,0.2,0.2,0.4,0.3,0.6c0.1,0.2,0.3,0.3,0.4,0.4s0.3,0.1,0.5,0.1
		c0.3,0,0.7-0.1,0.9-0.3C344.8,428.8,345.1,428.6,345.2,428.3z"/>
	<path d="M348,426.2c0.2-0.4,0.6-0.7,1-1c0.4-0.2,0.8-0.3,1.3-0.3c0.3,0,0.6,0.1,0.9,0.2s0.5,0.3,0.8,0.5c0.2,0.2,0.4,0.5,0.5,0.7
		c0.1,0.3,0.2,0.6,0.2,0.9c0,0.3,0,0.5-0.1,0.7c-0.1,0.2-0.2,0.4-0.3,0.6s-0.3,0.4-0.4,0.6c-0.2,0.2-0.3,0.4-0.5,0.5l-0.8,0.7
		c-0.1,0.1-0.2,0.2-0.4,0.4c-0.1,0.1-0.3,0.3-0.4,0.5c-0.1,0.2-0.3,0.3-0.4,0.5s-0.2,0.4-0.3,0.5h3.4c0,0,0.1,0,0.1-0.1
		s0.1-0.1,0.1-0.1h0v0.9h-4.8v-0.6c0.3-0.6,0.7-1.2,1-1.6c0.4-0.5,0.7-0.8,1.1-1.2l0.6-0.6c0.2-0.2,0.4-0.4,0.5-0.6
		c0.1-0.2,0.2-0.3,0.3-0.5c0.1-0.2,0.1-0.3,0.2-0.4c0-0.1,0-0.3,0-0.4c0-0.2,0-0.4-0.1-0.6c-0.1-0.2-0.2-0.3-0.3-0.5
		s-0.3-0.3-0.5-0.3c-0.2-0.1-0.4-0.1-0.6-0.1c-0.2,0-0.4,0-0.6,0.1c-0.2,0.1-0.3,0.1-0.5,0.2c-0.1,0.1-0.2,0.2-0.3,0.3
		c-0.1,0.1-0.1,0.2-0.1,0.3c0,0.1,0,0.1-0.1,0.2L348,426.2z"/>
</g>
</svg>
